<svg width="28" height="28" viewBox="0 0 28 28" fill="none" xmlns="http://www.w3.org/2000/svg">
<path d="M13.838 27.6761C6.19569 27.6761 0 21.4804 0 13.838C0 6.19569 6.19569 0 13.838 0C21.4804 0 27.6761 6.19569 27.6761 13.838C27.6733 21.4804 21.4776 27.6761 13.838 27.6761Z" fill="#4520E6"/>
<path d="M18.4471 11.3263C18.4471 10.3463 17.9667 9.47886 17.2282 8.94631L19.2212 6.95337L18.0298 6.95886L16.4459 8.54278C16.1522 8.44396 15.8392 8.3918 15.5126 8.3918H10.0608V16.1138L16.6243 9.55023C17.2145 9.92082 17.6098 10.5796 17.6098 11.3291C17.6098 12.4847 16.6682 13.4263 15.5126 13.4263H15.3396L8.03491 20.731H9.22079L10.6537 19.2981H15.5126C17.1322 19.2981 18.4471 17.9804 18.4471 16.3636C18.4471 15.2957 17.8733 14.3624 17.0196 13.8491C17.8733 13.3302 18.4471 12.3942 18.4471 11.3263ZM10.898 14.0879V9.22906H15.5126C15.5922 9.22906 15.669 9.23455 15.7459 9.24278L10.898 14.0879ZM17.6098 16.3581C17.6098 17.5138 16.6682 18.4553 15.5126 18.4553H11.491L15.669 14.2773C16.7506 14.3596 17.6098 15.2573 17.6098 16.3581Z" fill="white"/>
</svg>
