<svg width="30" height="32" viewBox="0 0 30 32" fill="none" xmlns="http://www.w3.org/2000/svg">
<path fill-rule="evenodd" clip-rule="evenodd" d="M26.3721 6.38227L24.9539 2.12742H22.2059L24.8652 0L28.145 1.32964V4.52078L26.3721 6.38227ZM23.8901 3.63428L25.4857 8.68691L29.5633 19.9445L15.0259 31.9999V31.9999L15.0259 31.9999L15.0259 31.9999V31.9999L0.399902 19.9445L4.47747 8.68691L6.16168 3.63428H10.5052L9.35281 7.17998H15.0259H15.0259H20.6104L19.458 3.63428H23.8901ZM19.1921 14.1828V16.4875L22.9151 14.36L22.4719 12.8531L19.1921 14.1828ZM5.00937 2.1274L3.59109 6.38225L1.81824 4.52076V1.32962L5.09802 0.088623L7.7573 2.21605L5.00937 2.1274ZM7.0481 14.36L10.7711 16.4875V14.1828L7.49132 12.8531L7.0481 14.36Z" fill="#FD3B4C"/>
</svg>
