<svg xmlns="http://www.w3.org/2000/svg" width="118.821" height="156" viewBox="0 0 118.821 156">
  <g id="Group_19287" data-name="Group 19287" transform="translate(-424.032 -2181.38)">
    <rect id="Rectangle_525" data-name="Rectangle 525" width="118.821" height="156" transform="translate(424.032 2181.38)" fill="#ff7745"/>
    <g id="Group_19286" data-name="Group 19286" transform="translate(446.852 2217.782)">
      <path id="Path_31906" data-name="Path 31906" d="M511.91,2247.919a64.65,64.65,0,0,0-13.947-11.978c-12.448-8-25.384-10.964-31.458-7.22-2.941,1.813-5.163,5.333-6.717,10.735-4.554,5.114-6.819,15.948-7.069,33.571-.259,18.264,2.468,29.774,8.107,34.212,2.6,2.047,6.459,3.063,11.055,3.063a48.417,48.417,0,0,0,17.9-3.968c.475-.195.938-.4,1.4-.6a57.772,57.772,0,0,0,8.208-2.685c17.767-7.307,25.215-18.893,26.26-27.3C526.933,2265.447,520.344,2255.487,511.91,2247.919Zm-40.889,55.291a12.077,12.077,0,0,1-2.514-2.806,22.18,22.18,0,0,0,7.681,1.216,48.4,48.4,0,0,0,17.9-3.966c9.012-3.706,15.365-8.513,19.579-13.448-2.861,7.007-9.9,14.986-22.86,20.656C482.387,2306.908,475.06,2306.388,471.022,2303.21Zm22.7-6.437c-10.426,4.286-20.278,5.065-26.061,2.229-3.1-5.76-4.58-15.544-4.385-29.242.246-17.246,2.5-28.1,6.884-33,6.358.322,14.749,3.379,22.979,8.666,11.694,7.514,23.6,20.258,21.957,33.494a19.272,19.272,0,0,1-.522,2.612C510.549,2287.053,503.855,2292.609,493.725,2296.774Zm-31.027-58.56a12.036,12.036,0,0,1,6.222-1.475c-4.237,5.324-6.353,16.006-6.595,33.007-.183,12.845,1.119,22.334,3.864,28.387-.155-.109-.322-.207-.468-.323-5.393-4.245-8-15.5-7.743-33.45.149-10.483,1.042-18.6,2.7-24.464A9.626,9.626,0,0,1,462.7,2238.214Zm30.958,6.409c-7.995-5.137-16.182-8.185-22.632-8.726a9.149,9.149,0,0,1,1.281-.965,12.108,12.108,0,0,1,6.365-1.493c6.468,0,15.368,3.108,24.078,8.7a67.873,67.873,0,0,1,8.5,6.456c5.493,6.429,9.115,13.95,8.159,21.638a23.416,23.416,0,0,1-3.42,9.2c.019-.134.042-.269.059-.4C517.746,2265.361,505.6,2252.292,493.657,2244.623Zm-26.651-15.091a12.117,12.117,0,0,1,6.365-1.492c6.468,0,15.368,3.109,24.078,8.7a67.768,67.768,0,0,1,8.255,6.242q-1.218-.858-2.44-1.645c-12.446-8-25.383-10.965-31.458-7.221a10.669,10.669,0,0,0-2.075,1.689,13.54,13.54,0,0,0-7.532,1.592,10.3,10.3,0,0,0-.947.668C462.689,2233.848,464.6,2231.014,467.006,2229.532Zm-5.59,76.96c-5.392-4.245-8-15.5-7.743-33.451.217-15.3,2.02-25.567,5.482-31.113-1.3,5.682-2,13.1-2.129,22.419-.26,18.264,2.468,29.774,8.106,34.212a11.54,11.54,0,0,0,1.862,1.169,13.9,13.9,0,0,0,3.438,4.23c2.6,2.047,6.459,3.061,11.056,3.061a36.237,36.237,0,0,0,4.6-.318C475.671,2310.289,466.22,2310.272,461.416,2306.492Zm63.288-30.855c-1.012,8.14-8.29,19.386-25.678,26.536-.892.368-1.777.7-2.659,1.016,11.386-6.284,17.185-14.436,19.084-21.249a25.643,25.643,0,0,0,4.9-11.584c.745-5.987-1.165-11.857-4.55-17.209C521.707,2259.757,525.7,2267.605,524.7,2275.637Z" transform="translate(-452.703 -2227.116)" fill="#fff"/>
    </g>
  </g>
</svg>
