<svg width="32" height="32" viewBox="0 0 32 32" fill="none" xmlns="http://www.w3.org/2000/svg">
<circle cx="16" cy="16" r="16" fill="#F3725A"/>
<path d="M22.5801 11.0033C21.5818 9.8919 20.4258 8.92558 19.1472 8.13369C16.0827 6.19382 12.9026 5.48789 11.4017 6.38512C10.6786 6.82322 10.132 7.67072 9.7479 8.96779C8.62712 10.1979 8.07064 12.8016 8.00402 17.0372C7.94132 21.4277 8.61144 24.194 10.0007 25.2635C10.6394 25.7551 11.5898 26 12.7223 26C14.0175 26 15.5497 25.6786 17.129 25.0435C17.2446 24.9975 17.3602 24.9497 17.4719 24.9C18.1614 24.7345 18.8374 24.519 19.494 24.2553C23.8675 22.4991 25.7015 19.7136 25.9601 17.6934C26.2775 15.2159 24.6591 12.8207 22.5801 11.0033ZM12.5107 24.2916C12.2693 24.1003 12.0603 23.8731 11.8915 23.6182C12.4992 23.8238 13.1393 23.9229 13.7823 23.9109C15.0775 23.9109 16.6098 23.5914 18.1891 22.9544C20.411 22.0724 21.9747 20.9112 23.0131 19.7251C22.3078 21.4086 20.5756 23.3274 17.3857 24.6991C15.3126 25.1812 13.508 25.0568 12.5107 24.2916ZM18.0989 22.7458C15.5321 23.7751 13.1063 23.9626 11.6838 23.2815C10.9236 21.8964 10.5513 19.5452 10.6081 16.2528C10.6688 12.1072 11.2233 9.49772 12.303 8.31925C13.8705 8.39769 15.9338 9.13232 17.9598 10.4026C20.8382 12.2086 23.7695 15.2714 23.3639 18.4529C23.3362 18.6653 23.2937 18.8756 23.2365 19.0823C22.2451 20.408 20.5972 21.7434 18.1029 22.7458H18.0989ZM10.4572 8.66935C10.9258 8.41823 11.4553 8.29592 11.9895 8.31543C10.9451 9.59528 10.4219 12.1626 10.3651 16.249C10.3279 19.3367 10.6492 21.6171 11.335 23.073C11.2958 23.0462 11.2547 23.0232 11.2194 22.9945C9.89094 21.9749 9.26001 19.2698 9.31291 14.9596C9.34035 12.4343 9.5598 10.483 9.96344 9.07492C10.1108 8.9179 10.2796 8.78143 10.4651 8.66935H10.4572ZM18.0852 10.2113C16.118 8.97544 14.1017 8.24273 12.5107 8.1069C12.6086 8.02072 12.7141 7.94325 12.8261 7.87542C13.3049 7.61719 13.8472 7.49275 14.3937 7.51576C15.9847 7.51576 18.1773 8.26378 20.3209 9.60868C21.0604 10.0741 21.7614 10.5954 22.4175 11.1678C23.7695 12.7117 24.6591 14.5196 24.4259 16.3676C24.3075 17.1545 24.0204 17.9081 23.5833 18.5791C23.5833 18.5466 23.5833 18.5141 23.5971 18.4816C24.0164 15.1949 21.0243 12.0536 18.0852 10.2113ZM11.531 6.57643C12.0097 6.3182 12.5521 6.19376 13.0985 6.21677C14.6896 6.21677 16.8821 6.96479 19.0257 8.30969C19.7416 8.75784 20.4209 9.25928 21.0577 9.80955C20.8578 9.67181 20.6579 9.5398 20.4581 9.41354C17.3877 7.50045 14.2017 6.78687 12.7066 7.68602C12.5199 7.80046 12.3482 7.93666 12.1952 8.0916C11.4487 8.06864 10.8119 8.19108 10.3416 8.47421C10.261 8.52365 10.1831 8.57729 10.1084 8.63491C10.4631 7.62098 10.9431 6.93992 11.531 6.57643ZM10.1594 25.0817C8.8309 24.0601 8.19997 21.355 8.25287 17.0468C8.30577 13.3698 8.75056 10.9019 9.60291 9.5685C9.27177 10.9287 9.1013 12.7117 9.06799 14.9519C9.00529 19.3405 9.67541 22.1088 11.0646 23.1782C11.2098 23.2862 11.3661 23.3792 11.531 23.4556C11.741 23.8465 12.0287 24.1925 12.3774 24.4734C13.0162 24.965 13.9665 25.208 15.0991 25.208C15.4772 25.2061 15.8549 25.1806 16.2297 25.1315C13.6589 25.9943 11.335 25.9904 10.1594 25.0817ZM25.7289 17.6723C25.4801 19.6218 23.6891 22.325 19.4078 24.0429C19.1884 24.1309 18.9709 24.2113 18.7534 24.2878C21.5573 22.7764 22.9838 20.8174 23.456 19.1798C24.0878 18.3641 24.5013 17.4074 24.6591 16.3963C24.8432 14.9558 24.373 13.5458 23.5402 12.2583C24.9922 13.8462 25.9758 15.7344 25.7289 17.6723Z" fill="white"/>
</svg>
