<svg width="25" height="32" viewBox="0 0 25 32" fill="none" xmlns="http://www.w3.org/2000/svg">
<path d="M12.271 31.1862C11.2513 30.1943 10.2861 29.1022 9.24839 28.1274C14.8808 22.3766 16.9083 20.5304 20.3767 15.9912C21.7684 14.3432 22.6895 12.3502 23.043 10.2223C23.1006 9.81812 23.1155 9.4075 23.1721 8.75158C24.293 10.6714 24.8508 12.868 24.7815 15.09C24.6631 18.8314 22.7113 21.6962 20.4353 24.4276C19.0637 26.0732 14.8637 30.2061 13.0293 32C12.6421 31.5809 12.6805 31.584 12.271 31.1862ZM5.70108 24.3476C5.5059 24.1535 5.08569 23.6938 4.89904 23.4944C8.89888 19.7186 12.6132 15.6514 16.0113 11.3262C17.2346 9.80212 18.282 8.09992 18.0239 5.97644C17.9412 5.53771 17.8275 5.10539 17.6836 4.68273C17.7114 7.44293 16.1905 9.4299 14.6568 11.4083C14.2505 11.9341 13.7918 12.4183 13.361 12.926C13.0168 13.3799 12.5525 13.7283 12.0206 13.9319C11.4887 14.1354 10.9104 14.186 10.3512 14.0779C9.57586 13.8697 8.752 13.9407 8.02377 14.2786C7.29554 14.6165 6.70932 15.1997 6.36767 15.9262C6.11596 16.4587 5.97724 17.0375 5.96025 17.6263C5.92292 18.9605 5.15714 19.7508 3.85277 19.5172C2.83741 19.3085 1.83639 19.0353 0.855791 18.6992C0.688895 18.6736 0.531101 18.6065 0.396868 18.504C0.262636 18.4016 0.156258 18.2671 0.0874835 18.1129C0.0187091 17.9587 -0.0102626 17.7897 0.00322345 17.6214C0.0167095 17.453 0.072222 17.2908 0.164674 17.1495C0.921917 15.4505 1.64823 13.7366 2.46413 12.0664C3.10406 10.7577 3.88903 9.52909 3.30457 7.95701C3.21711 7.7213 3.50934 7.27655 3.72478 7.00565C4.71133 5.7642 5.73201 4.54301 6.74309 3.31543C6.58326 3.18485 6.43678 3.03872 6.30581 2.87921C5.85893 2.28835 5.43978 1.67296 4.83078 0.819725L7.89282 1.11302L7.32009 0.0464841C9.1652 -0.213751 10.0675 0.648012 11.1714 1.898C11.2357 1.7364 11.334 1.59045 11.4594 1.46996C11.5849 1.34947 11.7347 1.25722 11.8987 1.19941C15.077 0.4731 19.116 2.61364 21.6704 5.93591C22.2397 6.69259 22.5633 7.60568 22.5974 8.552C22.6315 9.49832 22.3746 10.4323 21.8613 11.2281C20.8345 13.0012 19.6569 14.6825 18.3417 16.2536C15.9143 19.2399 15.2434 19.7017 8.37489 27.0363C7.37875 26.0956 6.67483 25.316 5.70108 24.3465V24.3476Z" fill="#BD081C"/>
</svg>
