<svg width="28" height="28" viewBox="0 0 28 28" fill="none" xmlns="http://www.w3.org/2000/svg">
<circle cx="14" cy="14" r="14" fill="black"/>
<path d="M20.359 7.55959C19.5228 7.55959 18.6949 7.72442 17.9224 8.04466C17.15 8.3649 16.4483 8.83427 15.8575 9.42592C15.2666 10.0176 14.7982 10.7199 14.479 11.4927C14.1598 12.2656 13.996 13.0937 13.9971 13.9299C13.9621 15.5943 13.2763 17.1788 12.0867 18.3435C10.8972 19.5082 9.29869 20.1605 7.63389 20.1605C5.96909 20.1605 4.37057 19.5082 3.18105 18.3435C1.99152 17.1788 1.30571 15.5943 1.27065 13.9299C1.32043 10.5878 2.68301 7.39949 5.06401 5.05369C7.44501 2.7079 10.6533 1.39296 13.9957 1.39296C17.3382 1.39296 20.5464 2.7079 22.9274 5.05369C25.3084 7.39949 26.671 10.5878 26.7208 13.9299C26.7219 13.0937 26.5582 12.2656 26.239 11.4927C25.9198 10.7199 25.4513 10.0176 24.8605 9.42592C24.2696 8.83427 23.5679 8.3649 22.7955 8.04466C22.0231 7.72442 21.1951 7.55959 20.359 7.55959V7.55959Z" fill="white"/>
<path d="M7.63251 21.5624C5.61187 21.5579 3.67527 20.7533 2.24645 19.3244C0.81764 17.8956 0.0129593 15.959 0.00848389 13.9384C0.0607202 10.2609 1.55825 6.75173 4.17728 4.16964C6.79631 1.58754 10.3264 0.139999 14.0042 0.139999C17.6821 0.139999 21.2121 1.58754 23.8312 4.16964C26.4502 6.75173 27.9477 10.2609 28 13.9384H25.4586C25.4586 12.5881 24.9222 11.2932 23.9675 10.3384C23.0127 9.3836 21.7177 8.84721 20.3675 8.84721C19.0172 8.84721 17.7223 9.3836 16.7675 10.3384C15.8127 11.2932 15.2763 12.5881 15.2763 13.9384C15.2718 15.9624 14.4644 17.902 13.0313 19.3314C11.5983 20.7608 9.65658 21.5632 7.63251 21.5624V21.5624ZM13.9972 2.4769C10.9603 2.47989 8.04864 3.68741 5.90099 5.83453C3.75333 7.98166 2.54509 10.893 2.54136 13.9299C2.54136 15.2805 3.07789 16.5759 4.03294 17.5309C4.98798 18.4859 6.28329 19.0225 7.63393 19.0225C8.98456 19.0225 10.2799 18.4859 11.2349 17.5309C12.19 16.5759 12.7265 15.2805 12.7265 13.9299C12.731 11.9093 13.5357 9.97265 14.9645 8.54383C16.3933 7.11502 18.3299 6.31033 20.3505 6.30586C21.2163 6.30426 22.0759 6.45135 22.8919 6.74071C21.8217 5.41098 20.4673 4.3378 18.9281 3.59997C17.3889 2.86214 15.7041 2.47839 13.9972 2.4769V2.4769Z" fill="black"/>
<path d="M13.9971 26.6027C12.326 26.6031 10.6712 26.2743 9.12713 25.635C7.5831 24.9958 6.18012 24.0586 4.99832 22.8771C3.81652 21.6955 2.87905 20.2927 2.23945 18.7489C1.59985 17.205 1.27065 15.5502 1.27065 13.8791C1.30571 15.5435 1.99152 17.1279 3.18105 18.2927C4.37057 19.4574 5.96909 20.1097 7.63389 20.1097C9.29869 20.1097 10.8972 19.4574 12.0867 18.2927C13.2763 17.1279 13.9621 15.5435 13.9971 13.8791C13.9971 13.0436 14.1617 12.2163 14.4814 11.4445C14.8011 10.6726 15.2697 9.97132 15.8605 9.38057C16.4512 8.78981 17.1525 8.3212 17.9244 8.00149C18.6963 7.68178 19.5235 7.51723 20.359 7.51723C21.1944 7.51723 22.0217 7.68178 22.7935 8.00149C23.5654 8.3212 24.2667 8.78981 24.8575 9.38057C25.4482 9.97132 25.9168 10.6726 26.2365 11.4445C26.5563 12.2163 26.7208 13.0436 26.7208 13.8791C26.7208 17.2536 25.3803 20.4899 22.9941 22.8761C20.608 25.2622 17.3717 26.6027 13.9971 26.6027V26.6027Z" fill="#6300FF"/>
<path d="M13.9972 27.8734C10.2865 27.8697 6.72889 26.3941 4.1048 23.7706C1.48071 21.147 0.004485 17.5897 0 13.8791H2.54135C2.54135 15.2297 3.07788 16.525 4.03293 17.48C4.98797 18.4351 6.28329 18.9716 7.63392 18.9716C8.98456 18.9716 10.2799 18.4351 11.2349 17.48C12.19 16.525 12.7265 15.2297 12.7265 13.8791C12.7265 11.8548 13.5306 9.91343 14.962 8.48206C16.3934 7.05069 18.3347 6.24655 20.359 6.24655C22.3833 6.24655 24.3246 7.05069 25.756 8.48206C27.1874 9.91343 27.9915 11.8548 27.9915 13.8791C27.987 17.5892 26.5112 21.1461 23.8877 23.7696C21.2642 26.3931 17.7073 27.8689 13.9972 27.8734V27.8734ZM5.09399 21.0767C6.58227 22.9185 8.60499 24.2536 10.8836 24.8981C13.1622 25.5426 15.5845 25.4648 17.817 24.6754C20.0496 23.886 21.9824 22.4239 23.3495 20.4904C24.7165 18.5568 25.4504 16.247 25.4502 13.8791C25.4502 13.2105 25.3185 12.5484 25.0626 11.9308C24.8068 11.3131 24.4318 10.7518 23.959 10.2791C23.4863 9.8063 22.925 9.43129 22.3073 9.17544C21.6896 8.91958 21.0276 8.7879 20.359 8.7879C19.6904 8.7879 19.0284 8.91958 18.4107 9.17544C17.793 9.43129 17.2318 9.8063 16.759 10.2791C16.2863 10.7518 15.9112 11.3131 15.6554 11.9308C15.3995 12.5484 15.2678 13.2105 15.2678 13.8791C15.2626 15.8995 14.4577 17.8356 13.0291 19.2643C11.6004 20.693 9.66422 21.4979 7.64381 21.5031C6.77569 21.5084 5.91315 21.3641 5.09399 21.0767V21.0767Z" fill="black"/>
</svg>
