<svg width="28" height="28" viewBox="0 0 28 28" fill="none" xmlns="http://www.w3.org/2000/svg">
<circle cx="14" cy="14" r="14" fill="black"/>
<path d="M7.63562 21.7131L7.66745 21.7389C10.0737 23.7041 13.3581 24.5218 16.5883 23.6568C20.7721 22.5367 23.6216 18.9219 23.9666 14.8416C23.9702 14.8038 23.9737 14.7482 23.9797 14.6738C23.5401 14.3109 23.1808 14.1798 22.903 14.2791C15.7207 16.8398 10.6317 19.3178 7.63562 21.7131V21.7131Z" fill="#4A3BE4"/>
<path d="M7.63681 21.7107L7.66864 21.7365C10.0749 23.7017 13.3593 24.5194 16.5883 23.6544C20.7721 22.5343 23.6216 18.9195 23.9666 14.8392C23.9702 14.8014 23.9737 14.7458 23.9797 14.6714C23.5401 14.3097 23.1808 14.1774 22.903 14.2767C15.7218 16.8362 10.6326 19.3142 7.63681 21.7107Z" fill="url(#paint0_linear_32_99)"/>
<path d="M23.0023 18.3523L23.0615 18.227C25.2373 13.5772 23.5285 7.95612 18.9981 5.34102C15.2468 3.17624 10.6752 3.7161 7.54578 6.35737C7.50285 6.39349 7.46032 6.43008 7.41818 6.46713C7.42175 7.0864 7.55649 7.4585 7.82359 7.58491C13.6112 10.3312 18.1388 12.2042 20.16 13.7461C22.3215 15.3945 23.2694 16.9296 23.0023 18.3523V18.3523Z" fill="#B71E5E"/>
<path d="M23.0023 18.3523L23.0615 18.227C25.2373 13.5772 23.5285 7.95612 18.9981 5.34102C15.2468 3.17624 10.6752 3.7161 7.54578 6.35737C7.50285 6.39349 7.46032 6.43008 7.41818 6.46713C7.42175 7.0864 7.55649 7.4585 7.82359 7.58491C13.6112 10.3312 18.1388 12.2042 20.16 13.7461C22.3215 15.3945 23.2694 16.9296 23.0023 18.3523V18.3523Z" fill="url(#paint1_linear_32_99)"/>
<path d="M13.2671 4.02838L13.1299 4.03909C8.01486 4.4799 4 8.77167 4 14.0004C4 18.3311 6.75371 22.0191 10.6068 23.4075L10.765 23.4632C10.1517 16.352 10.0193 11.448 10.3667 8.75263C10.7118 6.05842 11.6796 4.48317 13.2671 4.02838V4.02838Z" fill="#F15522"/>
<path d="M13.2671 4.02838L13.1299 4.03909C8.01486 4.4799 4 8.77167 4 14.0004C4 18.3311 6.75371 22.0191 10.6068 23.4075L10.765 23.4632C10.1517 16.352 10.0193 11.448 10.3667 8.75263C10.7118 6.05842 11.6796 4.48317 13.2671 4.02838V4.02838Z" fill="url(#paint2_linear_32_99)"/>
<path d="M7.63564 21.7134L7.66747 21.7392C8.73469 22.6101 9.97323 23.2556 11.304 23.6304C11.3195 23.6339 11.3406 23.6411 11.3715 23.6494L10.8632 19.5542L10.8087 19.5861C9.98275 20.0634 8.92475 20.7725 7.63535 21.7134H7.63564Z" fill="#4A3BE4"/>
<defs>
<linearGradient id="paint0_linear_32_99" x1="14.9509" y1="21.0854" x2="27.1888" y2="13.471" gradientUnits="userSpaceOnUse">
<stop stop-opacity="0"/>
<stop offset="1"/>
</linearGradient>
<linearGradient id="paint1_linear_32_99" x1="16.682" y1="10.1578" x2="0.0925117" y2="3.95108" gradientUnits="userSpaceOnUse">
<stop stop-color="#B71E5E"/>
<stop offset="1"/>
</linearGradient>
<linearGradient id="paint2_linear_32_99" x1="10.0134" y1="13.9037" x2="15.0458" y2="28.7017" gradientUnits="userSpaceOnUse">
<stop stop-opacity="0"/>
<stop offset="1"/>
</linearGradient>
</defs>
</svg>
