<svg width="28" height="28" viewBox="0 0 28 28" fill="none" xmlns="http://www.w3.org/2000/svg">
<circle cx="14" cy="14" r="14" fill="white"/>
<path d="M14.0004 8.00897C15.9038 8.00897 17.4469 7.11153 17.4469 6.00449C17.4469 4.89744 15.9038 4 14.0004 4C12.0969 4 10.5538 4.89744 10.5538 6.00449C10.5538 7.11153 12.0969 8.00897 14.0004 8.00897Z" fill="#E6007A"/>
<path d="M14.0004 23.1125C15.9038 23.1125 17.4469 22.2151 17.4469 21.108C17.4469 20.001 15.9038 19.1035 14.0004 19.1035C12.0969 19.1035 10.5538 20.001 10.5538 21.108C10.5538 22.2151 12.0969 23.1125 14.0004 23.1125Z" fill="#E6007A"/>
<path d="M9.19737 10.7836C10.1491 9.1352 10.1429 7.34989 9.18357 6.79599C8.22422 6.24209 6.67499 7.12936 5.72326 8.77776C4.77153 10.4262 4.77771 12.2115 5.73706 12.7654C6.6964 13.3193 8.24564 12.432 9.19737 10.7836Z" fill="#E6007A"/>
<path d="M22.276 18.3345C23.2277 16.6861 23.2221 14.9011 22.2634 14.3476C21.3047 13.7941 19.7559 14.6816 18.8042 16.33C17.8525 17.9784 17.8581 19.7634 18.8168 20.3169C19.7755 20.8705 21.3243 19.9829 22.276 18.3345Z" fill="#E6007A"/>
<path d="M9.18407 20.3166C10.1434 19.7627 10.1496 17.9773 9.19787 16.3289C8.24614 14.6805 6.6969 13.7933 5.73755 14.3472C4.7782 14.9011 4.77202 16.6864 5.72375 18.3348C6.67548 19.9832 8.22472 20.8705 9.18407 20.3166Z" fill="#E6007A"/>
<path d="M22.2641 12.7659C23.2228 12.2123 23.2284 10.4273 22.2767 8.77891C21.325 7.13051 19.7763 6.24293 18.8176 6.79646C17.8589 7.34999 17.8532 9.135 18.805 10.7834C19.7567 12.4318 21.3054 13.3194 22.2641 12.7659Z" fill="#E6007A"/>
</svg>
