<svg width="30" height="30" viewBox="0 0 30 30" fill="none" xmlns="http://www.w3.org/2000/svg">
<path d="M15 29C22.732 29 29 22.732 29 15C29 7.26801 22.732 1 15 1C7.26801 1 1 7.26801 1 15C1 22.732 7.26801 29 15 29Z" fill="#1B1B1B" stroke="white" stroke-width="0.949153"/>
<path fill-rule="evenodd" clip-rule="evenodd" d="M19.1051 10.8949C19.2949 11.0848 19.6034 11.061 19.7458 10.8475C19.8881 10.6814 19.8644 10.4203 19.6983 10.278C18.1322 8.78306 16.7322 8.02374 14.4068 8.14238C11.9627 8.26102 9.80338 9.54238 9.94575 12.2475C10.0644 14.6441 12.3898 15.522 14.4305 16.3051C15.9966 16.8983 17.3729 17.4203 17.4441 18.5356C17.5152 19.7695 16.2576 20.5051 15.1661 20.5763C13.1017 20.6949 11.8915 19.9593 10.539 18.6542C10.3729 18.4881 10.1119 18.4881 9.94575 18.6305C9.75592 18.7966 9.75592 19.0814 9.92202 19.2712C11.4407 20.7898 13.0068 21.5492 15.2847 21.4305C17.5627 21.2644 20.3627 19.9831 20.2203 17.278C20.1017 14.9288 17.8712 14.0509 15.8542 13.2915C14.1932 12.6509 12.6508 12.0576 12.5796 10.7051C12.5322 9.73221 13.6949 9.02035 14.5254 8.97289C16.5424 8.87797 17.8 9.58984 19.1051 10.8949ZM19.3661 17.3254C19.3661 18.3695 18.7966 19.2712 17.9424 19.7932L17.8949 19.7695C18.2034 19.3424 18.2508 18.7966 18.2508 18.2746C18.2508 16.7322 16.5661 16.139 14.7864 15.4983C12.8169 14.7864 10.7525 14.0509 10.7525 11.9627C10.7525 11.0136 11.1796 9.99323 12.0102 9.51865L12.0339 9.56611C11.8203 10.017 11.7254 10.5153 11.7254 11.0136C11.7254 12.722 13.6 13.4102 15.4983 14.122C17.4441 14.8339 19.3661 15.5458 19.3661 17.3254Z" fill="white"/>
<path d="M14.8814 26.1525C21.0983 26.1525 26.1525 21.0983 26.1525 14.8814C26.1525 8.66441 21.0983 3.61017 14.8814 3.61017C8.66441 3.61017 3.61017 8.66441 3.61017 14.8814C3.61017 21.0983 8.66441 26.1525 14.8814 26.1525Z" stroke="white" stroke-width="0.474576" stroke-linecap="round"/>
</svg>
