<svg width="28" height="28" viewBox="0 0 28 28" fill="none" xmlns="http://www.w3.org/2000/svg">
<circle cx="14" cy="14" r="14" fill="white"/>
<path d="M11.8101 22.183C11.6298 22.6392 11.4508 23.0976 11.2733 23.5584C11.2159 23.7047 11.158 23.8505 11.1007 23.9963H10.9954C10.7049 23.8584 10.3891 23.7757 10.0917 23.6568C9.97121 23.6089 9.79226 23.6078 9.74648 23.5031C9.70437 23.4073 9.81753 23.272 9.86437 23.1552C10.4496 21.7 11.0357 20.2448 11.6227 18.7895C11.6317 18.7702 11.6417 18.7514 11.6527 18.7332C11.7112 18.7769 11.7501 18.8259 11.6891 18.8953C11.6795 18.9042 11.6731 18.9159 11.6707 18.9287C11.6683 18.9415 11.6702 18.9547 11.6759 18.9664C11.6991 19.0238 11.7559 19.0896 11.6406 19.1143C11.6306 19.1143 11.6291 19.1264 11.6333 19.1364C11.6949 19.2733 11.607 19.4364 11.7112 19.567C11.727 19.5885 11.7367 19.6139 11.7392 19.6405C11.7417 19.6672 11.7369 19.6939 11.7254 19.718C11.6906 19.7991 11.6727 19.8702 11.7422 19.9454C11.7561 19.963 11.7634 19.9849 11.7628 20.0073C11.7623 20.0297 11.7539 20.0512 11.7391 20.0681C11.7054 20.1112 11.6706 20.0654 11.6222 20.0491C11.6604 20.2505 11.678 20.4553 11.6749 20.6602C11.6799 20.7339 11.6724 20.808 11.6527 20.8792C11.6322 20.9366 11.6175 20.9971 11.6964 21.0371C11.7754 21.0771 11.7596 21.1266 11.727 21.1913C11.6585 21.3266 11.5864 21.4619 11.6001 21.6224C11.6001 21.6435 11.5906 21.6682 11.6001 21.6872C11.6775 21.8461 11.6585 22.0493 11.8101 22.183Z" fill="#2F69BC"/>
<path d="M22.7314 16.4078L23.9914 16.8926V16.9978C23.8398 17.3768 23.7246 17.7689 23.5972 18.1558C23.5604 18.2685 23.5251 18.2948 23.4125 18.2421C23.2051 18.1458 22.9914 18.0663 22.7783 17.979C22.6656 17.8463 22.6651 17.6974 22.673 17.5289C22.6783 17.3979 22.7083 17.2689 22.7014 17.1363C22.6955 16.9842 22.7059 16.8319 22.7325 16.682C22.7449 16.6309 22.7427 16.5772 22.7262 16.5273C22.7098 16.4883 22.6893 16.4457 22.7314 16.4078Z" fill="#4154AD"/>
<path d="M16.8884 23.9963C16.8584 23.9105 16.8279 23.8242 16.7979 23.7379C16.8077 23.7231 16.8137 23.7062 16.8153 23.6885C16.8169 23.6708 16.814 23.653 16.8068 23.6368C16.7542 23.551 16.7868 23.461 16.781 23.3736C16.7594 23.0657 16.8394 22.7546 16.7558 22.4488C16.7467 22.4239 16.745 22.3968 16.751 22.3709C16.8189 22.1793 16.7842 21.9798 16.7879 21.7856C16.7921 21.5335 16.8068 21.2787 16.77 21.0266C16.7553 20.94 16.7598 20.8513 16.7831 20.7666C16.8021 20.7032 16.8052 20.6361 16.7921 20.5713C16.7705 20.466 16.7394 20.3608 16.8052 20.2555C16.831 20.2134 16.7958 20.1623 16.781 20.117C16.7552 20.0397 16.7384 19.9634 16.8089 19.8981C16.9821 20.2855 17.1326 20.6824 17.2826 21.0787C17.2826 21.1056 17.2694 21.1398 17.3115 21.1508C17.3372 21.1833 17.3532 21.2223 17.3578 21.2635C17.3368 21.2864 17.3254 21.3165 17.3257 21.3477C17.3257 21.583 17.2731 21.8214 17.3257 22.054C17.3426 22.1325 17.3184 22.212 17.32 22.2893C17.3273 22.6783 17.3315 23.0668 17.3052 23.4557C17.2963 23.5926 17.3673 23.7305 17.311 23.87L16.9952 24L16.8884 23.9963Z" fill="#93309D"/>
<path d="M23.9914 11.1042L22.9677 11.4979C22.9335 11.5042 22.9351 11.479 22.9351 11.4585C22.9414 11.04 22.9388 10.6215 22.9325 10.2031C22.9325 10.1178 22.9177 10.0273 22.9677 9.94728C23.1362 9.87727 23.3062 9.8099 23.4725 9.73673C23.5619 9.69726 23.5546 9.77358 23.5683 9.812C23.6946 10.1689 23.8167 10.5268 23.9409 10.8842C23.9546 10.9242 23.9561 10.97 23.9935 10.9995L23.9914 11.1042Z" fill="#B32498"/>
<path d="M11.8101 22.183C11.7133 22.1241 11.618 22.0641 11.6522 21.9256C11.6544 21.9104 11.6528 21.8948 11.6476 21.8803C11.6423 21.8658 11.6336 21.8528 11.6222 21.8425C11.5243 21.7209 11.5617 21.5688 11.5738 21.443C11.5918 21.3429 11.6365 21.2496 11.7033 21.1729C11.7443 21.1245 11.7454 21.0634 11.688 21.0629C11.5617 21.0629 11.5959 20.9713 11.6085 20.9224C11.6801 20.6481 11.6396 20.3771 11.5985 20.1055C11.5912 20.0576 11.5822 20.0165 11.6296 19.9934C11.7059 19.9555 11.6638 20.0586 11.7196 20.0634C11.7277 20.0513 11.7333 20.0378 11.7359 20.0235C11.7385 20.0092 11.7382 19.9945 11.7349 19.9804C11.7316 19.9662 11.7254 19.9529 11.7167 19.9413C11.708 19.9297 11.6969 19.92 11.6843 19.9128C11.6233 19.8728 11.6317 19.8397 11.6675 19.7854C11.7201 19.7044 11.7422 19.6228 11.6517 19.5396C11.6027 19.4949 11.6238 19.4128 11.6238 19.3507C11.6238 19.2638 11.6517 19.177 11.5712 19.1075C11.5676 19.1049 11.5646 19.1015 11.5626 19.0976C11.5606 19.0936 11.5596 19.0893 11.5596 19.0849C11.5596 19.0804 11.5606 19.0761 11.5626 19.0722C11.5646 19.0682 11.5676 19.0648 11.5712 19.0622C11.6143 19.0333 11.638 19.0949 11.6827 19.088C11.7106 19.0354 11.6501 19.0154 11.6433 18.9764C11.639 18.9522 11.6075 18.9133 11.6264 18.9075C11.7612 18.8675 11.6601 18.7943 11.6554 18.7354C11.8473 18.2529 12.0403 17.7705 12.2343 17.2884C12.4522 16.7452 12.6708 16.2025 12.8901 15.6604C12.898 15.6409 12.9106 15.623 12.9206 15.6041C12.9383 15.6203 12.9516 15.6409 12.9592 15.6637C12.9667 15.6866 12.9683 15.711 12.9638 15.7346C12.9416 16.0867 12.8927 16.4357 12.868 16.7873C12.8641 16.8267 12.8697 16.8664 12.8843 16.9031C12.9042 16.9421 12.9135 16.9856 12.9113 17.0293C12.9091 17.073 12.8954 17.1153 12.8716 17.1521C12.819 17.2405 12.8664 17.3331 12.8859 17.42C12.918 17.559 12.9327 17.6947 12.8764 17.83C12.8406 17.9153 12.9111 17.9916 12.8927 18.0748C12.8401 18.308 12.8964 18.5422 12.889 18.7764C12.8853 18.887 12.919 18.9985 12.8838 19.1112C12.8574 19.1943 12.949 19.1743 12.978 19.2101C12.8964 19.4996 12.7674 19.7718 12.6585 20.0523C12.398 20.7255 12.1348 21.3977 11.8517 22.062C11.8357 22.1015 11.8218 22.142 11.8101 22.183Z" fill="#3167BA"/>
<path d="M16.0205 10.0573C15.8537 10.51 15.67 10.9563 15.4821 11.4011C15.3947 11.6079 15.3116 11.8169 15.2263 12.0248C15.1116 12.0501 15.1079 11.959 15.0979 11.8911C15.0726 11.7274 15.0453 11.5532 15.0795 11.3979C15.1145 11.2338 15.11 11.0636 15.0663 10.9016C15.0607 10.8489 15.0677 10.7957 15.0869 10.7463C15.095 10.7282 15.0978 10.7081 15.095 10.6885C15.0922 10.6688 15.0839 10.6504 15.0711 10.6352C15.0037 10.5721 15.0184 10.5163 15.0553 10.4378C15.1095 10.3178 15.133 10.1861 15.1237 10.0547C15.1137 9.9378 15.0984 9.82253 15.0984 9.7041C15.0984 9.61725 15.0726 9.53408 15.1258 9.45145C15.1537 9.40828 15.1258 9.35881 15.11 9.31301C15.0774 9.20774 15.0574 9.10721 15.1305 9.00036C15.2037 8.8935 15.1679 8.80771 15.0469 8.70981C15.2616 8.15783 15.4765 7.60586 15.6916 7.05388C15.7816 6.82386 15.8768 6.59595 15.97 6.36961C15.9858 6.33803 16.0095 6.31698 16.0426 6.34224C16.0617 6.3571 16.0763 6.37699 16.0848 6.39967C16.0932 6.42235 16.0952 6.44693 16.0905 6.47067C16.0831 6.53121 16.0589 6.58805 16.0463 6.64806C16.0089 6.82281 16.0426 6.99598 16.0495 7.16863C16.0595 7.42181 16.0379 7.6734 16.0268 7.925C16.0193 8.02097 16.0251 8.11752 16.0442 8.21187C16.081 8.36504 16.0653 8.51821 16.0579 8.66822C16.0588 8.77037 16.0491 8.87233 16.0289 8.97246C15.9985 9.09128 15.9954 9.21547 16.02 9.33565C16.05 9.48776 16.0305 9.64094 16.0595 9.79095C16.0795 9.88201 16.0421 9.97149 16.0205 10.0573Z" fill="#3661B6"/>
<path d="M12.8101 8.36816C12.9953 8.8303 13.1804 9.29244 13.3653 9.75459C13.5759 10.2809 13.7864 10.8084 13.9969 11.3368C14.0057 11.3474 14.0101 11.361 14.009 11.3747C13.9437 11.5784 13.8611 11.7758 13.7822 11.9742C13.6332 12.3469 13.489 12.7222 13.3395 13.0949C13.319 13.1475 13.3085 13.2054 13.2548 13.238H13.2343C13.0718 12.8247 12.909 12.4116 12.7459 11.999C12.7248 11.9463 12.7059 11.8937 12.6864 11.8411C12.714 11.784 12.7298 11.722 12.7329 11.6587C12.7361 11.5954 12.7265 11.5321 12.7048 11.4726C12.6475 11.2963 12.709 11.1163 12.7048 10.9378C12.709 10.8769 12.7065 10.8156 12.6975 10.7552C12.6836 10.7112 12.6792 10.6647 12.6846 10.6189C12.6901 10.5731 12.7052 10.5289 12.729 10.4894C12.7501 10.4557 12.7701 10.4104 12.7501 10.3767C12.6669 10.2383 12.7064 10.092 12.7285 9.95566C12.7617 9.74827 12.6927 9.54878 12.7053 9.3435C12.7117 9.23823 12.7022 9.13296 12.7053 9.02769C12.7111 8.90189 12.728 8.77503 12.6859 8.65029C12.6678 8.57703 12.6752 8.49979 12.7069 8.43132C12.7217 8.38395 12.7443 8.33552 12.8101 8.36816Z" fill="#8037A0"/>
<path d="M13.9953 11.3669C13.9953 11.3569 13.9953 11.3469 13.9953 11.3369L14.6469 9.70516C14.7802 9.3725 14.9137 9.03914 15.0474 8.70507C15.0963 8.69192 15.1316 8.69086 15.1627 8.74982C15.2127 8.84403 15.2316 8.94983 15.1627 9.02089C15.0621 9.12616 15.1174 9.2188 15.1553 9.31355C15.1686 9.33856 15.1762 9.36618 15.1777 9.39446C15.1791 9.42274 15.1744 9.451 15.1637 9.47724C15.08 9.63515 15.1411 9.79306 15.1595 9.94623C15.16 9.98354 15.1577 10.0208 15.1527 10.0578C15.1484 10.2157 15.1527 10.3736 15.0474 10.5057C15.0069 10.5584 15.0595 10.5758 15.089 10.5942C15.13 10.6205 15.1611 10.6468 15.1374 10.6994C15.11 10.7613 15.0966 10.8285 15.098 10.8962C15.0995 10.9639 15.1158 11.0304 15.1458 11.0911C15.1758 11.1621 15.1984 11.2427 15.1184 11.3058C15.1117 11.3114 15.1064 11.3185 15.1031 11.3266C15.0998 11.3347 15.0986 11.3434 15.0995 11.3521C15.1521 11.4806 15.0595 11.6206 15.13 11.7464C15.1506 11.7827 15.1269 11.8132 15.1253 11.8469C15.1221 11.9243 15.13 11.998 15.2248 12.0201C15.1142 12.3512 14.97 12.6686 14.8432 12.9933C14.8274 13.0333 14.8169 13.0754 14.8037 13.117C14.7906 13.1586 14.7937 13.2023 14.759 13.2339C14.7469 13.2381 14.7337 13.2381 14.7216 13.2339C14.6132 13.1139 14.5985 12.9523 14.5358 12.8128C14.4127 12.4559 14.2622 12.1106 14.1258 11.7601C14.0785 11.6332 14.0085 11.5095 13.9953 11.3669Z" fill="#3463B8"/>
<path d="M12.9727 19.208C12.8111 19.2291 12.8148 19.2301 12.8516 19.0659C12.8674 18.9943 12.8901 18.9248 12.848 18.8417C12.7995 18.7459 12.8822 18.6359 12.8422 18.5227C12.7895 18.369 12.888 18.1984 12.849 18.0542C12.7964 17.8668 12.9101 17.7047 12.8753 17.5342C12.8614 17.4543 12.8419 17.3755 12.8169 17.2984C12.802 17.2666 12.797 17.2311 12.8028 17.1965C12.8085 17.1619 12.8246 17.1299 12.849 17.1047C12.8672 17.0919 12.8797 17.0726 12.8839 17.0508C12.8881 17.029 12.8837 17.0064 12.8716 16.9878C12.7664 16.8299 12.8585 16.6604 12.848 16.4973C12.8338 16.2746 12.9348 16.0572 12.9006 15.8261C12.8911 15.7604 12.9395 15.6803 12.9164 15.6019C13.0066 15.3707 13.0964 15.1396 13.1859 14.9087C13.2104 14.863 13.2258 14.8129 13.2311 14.7613L13.2495 14.755C13.2618 14.7597 13.2727 14.7675 13.2811 14.7776C13.3743 14.9682 13.4311 15.1729 13.5185 15.3661C13.6822 15.7814 13.8527 16.1946 14.0064 16.6136C14.0089 16.6233 14.0091 16.6336 14.007 16.6434C14.0049 16.6533 14.0005 16.6625 13.9943 16.6704C13.8188 17.108 13.6434 17.5454 13.468 17.9826C13.3044 18.3914 13.1394 18.7999 12.9727 19.208Z" fill="#3365B9"/>
<path d="M12.8101 8.36819C12.7667 8.40093 12.7348 8.4466 12.719 8.49862C12.7032 8.55064 12.7043 8.60634 12.7222 8.65769C12.7456 8.72177 12.753 8.79062 12.7438 8.85823C12.729 9.0893 12.7017 9.32774 12.7438 9.55197C12.7771 9.7599 12.7707 9.97227 12.7248 10.1778C12.7232 10.1996 12.726 10.2215 12.7331 10.2422C12.7401 10.263 12.7513 10.282 12.7659 10.2983C12.789 10.3303 12.8006 10.3691 12.7989 10.4084C12.7972 10.4478 12.7822 10.4854 12.7564 10.5152C12.7357 10.5429 12.7222 10.5752 12.7169 10.6094C12.7117 10.6435 12.7149 10.6784 12.7264 10.711C12.7706 10.8947 12.7353 11.0831 12.7211 11.2674C12.7148 11.3453 12.7095 11.429 12.7469 11.4779C12.8159 11.5716 12.7469 11.6632 12.7701 11.7537C12.779 11.7874 12.7417 11.8353 12.6874 11.8385C12.492 11.3584 12.2967 10.8782 12.1017 10.3978C12.0627 10.301 12.0275 10.2025 11.9906 10.1046C12.0107 10.0513 12.0176 9.99385 12.0106 9.93726C11.9838 9.62145 12.0269 9.30984 12.0275 8.99613C12.0275 8.60821 12.0064 8.22028 12.0148 7.83183C12.0211 7.53496 12.0122 7.23757 12.0096 6.9407C12.0096 6.83122 12.0217 6.72226 12.0264 6.61331C12.0248 6.59171 12.0282 6.57004 12.0364 6.54996C12.0445 6.52989 12.0571 6.51194 12.0732 6.49751C12.3311 7.11756 12.5785 7.73971 12.8101 8.36819Z" fill="#7B39A1"/>
<path d="M16.0205 10.0573C16.0126 9.89937 16.0031 9.73514 16.01 9.57987C16.0158 9.4488 15.9474 9.33406 15.9758 9.19878C15.991 9.1272 15.971 9.03772 16.001 8.95982C16.0102 8.94242 16.0141 8.92271 16.0121 8.90315C16.0101 8.88358 16.0024 8.86503 15.99 8.84981C15.9779 8.83402 15.9658 8.80454 15.9726 8.79086C16.0942 8.55031 16.0063 8.30713 15.9863 8.06501C15.9856 8.03932 15.987 8.01362 15.9905 7.98816C16.0249 7.62613 16.0293 7.26188 16.0037 6.89912C15.9927 6.76045 16.0107 6.62102 16.0563 6.48961C16.071 6.44172 16.1 6.33592 15.9705 6.3675C16.154 5.89377 16.3377 5.42005 16.5216 4.94633C16.5526 4.8658 16.5895 4.78842 16.6237 4.70841C16.6463 4.71746 16.6658 4.73296 16.6798 4.75298C16.6937 4.773 16.7015 4.79667 16.7021 4.82105C16.7263 5.04581 16.7547 5.26951 16.6879 5.49374C16.6237 5.70429 16.5489 5.91904 16.6705 6.13853C16.6897 6.18354 16.6943 6.23342 16.6837 6.28118C16.6368 6.61489 16.6921 6.94439 16.7273 7.27494C16.728 7.31414 16.7262 7.35334 16.7221 7.39232C16.7189 7.53128 16.6373 7.67024 16.7279 7.81025C16.7479 7.84078 16.7326 7.8892 16.7179 7.92552C16.6568 8.07764 16.7179 8.24555 16.6568 8.39924C16.65 8.41609 16.6631 8.4324 16.6726 8.44714C16.4626 8.98613 16.2537 9.52618 16.0205 10.0573Z" fill="#3760B6"/>
<path d="M16.6737 8.44502C16.6636 8.44401 16.6539 8.44049 16.6456 8.43478C16.6372 8.42908 16.6305 8.42137 16.6259 8.41237C16.6212 8.40336 16.619 8.39335 16.6192 8.38324C16.6195 8.37313 16.6223 8.36324 16.6273 8.35449C16.6873 8.20816 16.62 8.0471 16.6863 7.90235C16.7158 7.83813 16.7189 7.7755 16.6489 7.72865C16.6366 7.71897 16.6282 7.70515 16.6253 7.68976C16.6224 7.67438 16.6252 7.65846 16.6331 7.64496C16.6998 7.47474 16.7081 7.28721 16.6568 7.11176C16.6273 7.00069 16.6694 6.88016 16.6531 6.76278C16.6437 6.69488 16.6579 6.62487 16.611 6.56224C16.6034 6.54911 16.5989 6.53442 16.5978 6.51928C16.5967 6.50414 16.5991 6.48895 16.6047 6.47486C16.6879 6.31695 16.6573 6.15905 16.5937 6.00851C16.5726 5.96821 16.5604 5.92384 16.5581 5.87841C16.5557 5.83299 16.5632 5.78759 16.58 5.74533C16.6326 5.64479 16.6 5.52478 16.6747 5.43635C16.7031 5.40214 16.7137 5.36688 16.6805 5.33108C16.6473 5.29529 16.6637 5.2616 16.6942 5.23055C16.7058 5.21844 16.7242 5.19476 16.72 5.18844C16.6258 5.04001 16.741 4.85052 16.6247 4.70735C16.7084 4.48838 16.7931 4.26994 16.8747 4.04993C16.8952 3.99729 16.9237 3.98887 16.9731 4.01255C17.0942 4.07045 17.2168 4.12467 17.3389 4.18046C17.3324 4.21265 17.3338 4.24593 17.343 4.27745C17.3522 4.30898 17.3688 4.33782 17.3915 4.36153C17.414 4.38312 17.4296 4.41088 17.4364 4.44132C17.4431 4.47177 17.4407 4.50353 17.4294 4.5326C17.3331 4.72156 17.381 4.91789 17.3836 5.11159C17.3783 5.23402 17.3961 5.35637 17.4363 5.47215C17.4445 5.49967 17.4451 5.52891 17.438 5.55674C17.4308 5.58456 17.4162 5.60991 17.3957 5.63005C17.3718 5.65625 17.3552 5.68829 17.3477 5.72295C17.3401 5.75761 17.3418 5.79365 17.3526 5.82744C17.4242 6.02588 17.3431 6.23747 17.4115 6.43538C17.4247 6.47328 17.3947 6.51013 17.3779 6.54592C17.3359 6.61845 17.3203 6.70323 17.3336 6.78594C17.2752 7.02438 17.1479 7.23545 17.0642 7.46494C16.9442 7.7976 16.8047 8.12079 16.6737 8.44502Z" fill="#385FB5"/>
<path d="M10.9364 4.04938C11.0417 3.97306 11.1033 3.99201 11.1512 4.12255C11.3043 4.5389 11.467 4.95156 11.6248 5.36581C11.6248 5.59425 11.6901 5.82374 11.608 6.05007C11.5979 6.10261 11.6008 6.15682 11.6164 6.20798C11.6401 6.37642 11.6385 6.54643 11.6475 6.71487C11.6606 6.95278 11.5806 7.18859 11.6554 7.4265C11.6685 7.48225 11.6703 7.54006 11.6606 7.59652C11.6351 7.89951 11.6351 8.20412 11.6606 8.50712C11.6647 8.6341 11.6496 8.76098 11.6159 8.88346C11.6054 8.92715 11.6048 8.99768 11.5222 8.974C11.3201 8.46518 11.1178 7.95637 10.9154 7.44756C10.8949 7.22333 10.9875 7.01226 10.9549 6.7775C10.9201 6.53275 10.9507 6.27273 10.9828 6.02113C10.9864 5.99533 11.0001 5.96849 10.9912 5.94375C10.8859 5.67373 11.0438 5.38686 10.9385 5.11737C10.9336 5.10486 10.9336 5.09092 10.9385 5.07842C11.0512 4.82576 10.9038 4.56153 10.9759 4.3052C11.0012 4.2215 10.9196 4.13992 10.9364 4.04938Z" fill="#773BA2"/>
<path d="M8.28385 11.2621C8.76331 11.4437 9.24014 11.6305 9.71013 11.8374C9.72802 12.01 9.76644 12.1811 9.76276 12.3569C9.76276 12.3864 9.78486 12.428 9.75644 12.4432C9.64539 12.5027 9.70381 12.5595 9.73381 12.6417C9.77913 12.751 9.78361 12.873 9.74644 12.9854C9.71487 13.0733 9.65434 13.168 9.75855 13.2586C9.79329 13.2886 9.76644 13.3317 9.73066 13.3575L8.28385 12.7838C8.25282 12.7661 8.22853 12.7386 8.21481 12.7057C8.2011 12.6727 8.19872 12.6361 8.20806 12.6017C8.24332 12.4585 8.19174 12.3137 8.23174 12.1737C8.23648 12.1569 8.23806 12.1764 8.23174 12.1611C8.17543 11.9748 8.26227 11.7758 8.17911 11.5921C8.1558 11.5258 8.14666 11.4553 8.15227 11.3852C8.15806 11.301 8.19438 11.2526 8.28385 11.2621Z" fill="#2C6DBE"/>
<path d="M10.9364 4.04939C10.9964 4.16519 11.0554 4.28151 11.0006 4.41784C10.9979 4.42616 10.9965 4.43486 10.9964 4.44363C10.987 4.60154 11.0627 4.77418 11.0285 4.90314C10.9894 5.05037 10.9858 5.2048 11.018 5.3537C11.0396 5.46687 11.0096 5.57899 10.9885 5.69005C10.9833 5.71952 10.9664 5.74584 10.978 5.77848C11.0927 6.09429 10.9348 6.41695 10.9927 6.72592C11.0327 6.94226 10.9596 7.14175 10.9759 7.34913C10.9801 7.40177 10.9759 7.43493 10.9185 7.44493C10.757 7.1128 10.6422 6.76066 10.4975 6.42274C10.4101 6.2122 10.3322 6.00165 10.2496 5.79111C10.258 5.55477 10.208 5.31739 10.2396 5.08105C10.2675 4.87051 10.228 4.65681 10.2485 4.44416C10.2538 4.38836 10.2433 4.33099 10.2801 4.28151C10.4946 4.19261 10.7137 4.11512 10.9364 4.04939Z" fill="#733CA2"/>
<path d="M11.5254 8.97136C11.6306 8.86609 11.6027 8.7245 11.6248 8.59765C11.6501 8.45816 11.5964 8.32025 11.6006 8.18024C11.6085 7.95128 11.6343 7.72126 11.6211 7.49335C11.6117 7.32702 11.6211 7.16068 11.6133 6.99857C11.6017 6.70223 11.6659 6.39746 11.5606 6.10639C11.5401 6.04744 11.5822 6.00533 11.5954 5.95795C11.6283 5.83211 11.6292 5.7 11.598 5.57371C11.583 5.50229 11.5933 5.4279 11.6269 5.36317C11.7883 5.73829 11.9371 6.11639 12.0732 6.49747C12.0379 6.91347 12.0344 7.33157 12.0627 7.7481C12.0681 7.84214 12.0663 7.93646 12.0575 8.03023C12.0317 8.35026 12.0627 8.67081 12.0617 8.98926C12.0617 9.31718 12.0164 9.6451 12.0459 9.97302C12.0511 10.0257 12.0506 10.0783 11.988 10.1051C11.8185 9.73563 11.6775 9.35192 11.5254 8.97136Z" fill="#793AA1"/>
<path d="M8.28387 11.2621C8.12124 11.3147 8.18913 11.4469 8.20597 11.5395C8.22282 11.6321 8.25071 11.7332 8.26808 11.8316C8.27281 11.859 8.28018 11.8843 8.25808 11.9037C8.20176 11.9532 8.21492 11.9832 8.26281 12.0395C8.32544 12.1138 8.23334 12.2059 8.25334 12.2906C8.29176 12.4538 8.19071 12.6248 8.28281 12.7838L7.04337 12.2969C7.03766 12.2875 7.03464 12.2766 7.03464 12.2656C7.03464 12.2546 7.03766 12.2437 7.04337 12.2343C7.1235 12.0974 7.1471 11.9346 7.10916 11.7806C7.10154 11.7193 7.10858 11.657 7.12968 11.599C7.17284 11.4279 7.07705 11.251 7.15284 11.0816C7.15548 11.0727 7.156 11.0633 7.15435 11.0541C7.15271 11.045 7.14895 11.0363 7.14337 11.0289C7.07863 10.9237 7.12705 10.8663 7.23126 10.8368C7.58599 10.9768 7.9423 11.1031 8.28387 11.2621Z" fill="#2A6FC0"/>
<path d="M9.73278 13.3575C9.73278 13.3249 9.77646 13.2781 9.73804 13.2623C9.54857 13.1854 9.69646 13.0675 9.71488 12.9859C9.74067 12.8728 9.74488 12.6849 9.66225 12.5954C9.61962 12.5485 9.60383 12.4843 9.66225 12.4654C9.74962 12.4364 9.72909 12.4059 9.72541 12.3317C9.71962 12.1959 9.72541 12.0622 9.68225 11.9301C9.67573 11.9135 9.67521 11.8951 9.68079 11.8782C9.68636 11.8613 9.69768 11.8469 9.71278 11.8374C10.0859 11.9706 10.4496 12.1238 10.8149 12.2811C10.8401 12.4564 10.8675 12.6312 10.8312 12.8075C10.8116 12.8977 10.8154 12.9913 10.8422 13.0796C10.9164 13.3175 10.8475 13.5481 10.8117 13.7802L9.73278 13.3575Z" fill="#2E6ABD"/>
<path d="M5.13709 9.99617C5.45287 10.1141 5.76865 10.2315 6.07654 10.3709C6.11394 10.398 6.14382 10.4341 6.16335 10.4759C6.18287 10.5178 6.1914 10.5639 6.18812 10.6099C6.18812 10.6278 6.1797 10.6483 6.18812 10.6625C6.31496 10.9299 6.15338 11.1936 6.18023 11.4568C6.19128 11.5658 6.23285 11.6721 6.2297 11.7863C6.2297 11.9216 6.23759 11.9216 6.10075 11.9216C5.74217 11.7974 5.38972 11.657 5.04341 11.5005C5.05183 11.4479 5.04341 11.4063 5.10498 11.3615C5.17761 11.3089 5.15183 11.2036 5.09288 11.14C5.06917 11.1117 5.05159 11.0788 5.04126 11.0434C5.03093 11.0079 5.02808 10.9707 5.03288 10.9341C5.03288 10.8815 5.05183 10.8289 5.01709 10.782C5.01051 10.773 5.00696 10.7621 5.00696 10.751C5.00696 10.7398 5.01051 10.7289 5.01709 10.7199C5.11341 10.622 5.06446 10.4862 5.1092 10.373C5.14446 10.2841 5.06236 10.1993 5.06025 10.1099C5.05604 10.0525 5.02762 9.97512 5.13709 9.99617Z" fill="#2773C3"/>
<path d="M20.8331 12.3401C20.4967 12.4854 20.1573 12.6217 19.8115 12.7417C19.7881 12.7354 19.7675 12.7213 19.7533 12.7016C19.7391 12.682 19.7322 12.658 19.7336 12.6338C19.7394 12.2035 19.7151 11.7733 19.661 11.3463C19.6585 11.3335 19.6587 11.3203 19.6615 11.3075C19.6643 11.2948 19.6697 11.2827 19.6773 11.2721L20.7299 10.8473C20.785 10.9318 20.812 11.0314 20.8073 11.1321C20.792 11.3349 20.789 11.5384 20.7983 11.7416C20.8141 11.9406 20.7283 12.148 20.8331 12.3401Z" fill="#A32A9B"/>
<path d="M6.09917 11.919C6.17969 11.9053 6.20443 11.8843 6.19233 11.7806C6.17285 11.5921 6.12759 11.4058 6.1297 11.2147C6.13058 11.1705 6.1474 11.1281 6.17706 11.0952C6.20772 11.0661 6.22696 11.027 6.23131 10.9849C6.23565 10.9428 6.22481 10.9005 6.20074 10.8657C6.17524 10.8295 6.15785 10.7881 6.14977 10.7445C6.14168 10.7009 6.1431 10.6561 6.15391 10.6131C6.17233 10.5194 6.10127 10.451 6.07654 10.3689C6.46706 10.5138 6.85301 10.6698 7.23441 10.8368C7.18599 10.8958 7.0802 10.9421 7.19651 11.0347C7.20041 11.0399 7.20301 11.046 7.20411 11.0524C7.20521 11.0588 7.20477 11.0654 7.20283 11.0716C7.15008 11.1865 7.14478 11.3175 7.18809 11.4363C7.19342 11.5096 7.1832 11.5831 7.15809 11.6521C7.13862 11.7195 7.11862 11.7916 7.17546 11.8569C7.18151 11.8618 7.18639 11.868 7.18974 11.8751C7.19309 11.8822 7.19483 11.8899 7.19483 11.8977C7.19483 11.9055 7.19309 11.9132 7.18974 11.9203C7.18639 11.9273 7.18151 11.9335 7.17546 11.9385C7.16353 11.9464 7.15345 11.9569 7.1459 11.969C7.13835 11.9812 7.13352 11.9949 7.13172 12.0091C7.12992 12.0234 7.13121 12.0378 7.13549 12.0515C7.13976 12.0652 7.14694 12.0778 7.15651 12.0885C7.18493 12.1248 7.15651 12.1448 7.13283 12.1643C7.09578 12.2014 7.06691 12.2459 7.0481 12.2948C6.72705 12.179 6.40916 12.0601 6.09917 11.919Z" fill="#2970C1"/>
<path d="M6.25759 16.0172C6.51654 15.9041 6.77811 15.7967 7.04705 15.7077C7.16231 15.6925 7.17915 15.7762 7.17547 15.8541C7.15915 16.1762 7.15547 16.4983 7.15705 16.8205C7.15705 16.8826 7.17283 16.941 7.17705 17.001C7.18231 17.0715 7.19757 17.1505 7.12915 17.2063C6.82653 17.341 6.52022 17.4668 6.20759 17.5747C6.14181 17.4695 6.16023 17.3531 6.1597 17.2437C6.1597 16.9647 6.16286 16.6863 6.13812 16.4073C6.12967 16.3375 6.13594 16.2668 6.15652 16.1996C6.1771 16.1324 6.21153 16.0703 6.25759 16.0172Z" fill="#5F44A5"/>
<path d="M5.13709 9.99622C5.00236 10.0552 5.0992 10.1626 5.11973 10.2152C5.1366 10.2523 5.1456 10.2925 5.14614 10.3333C5.14669 10.3741 5.13877 10.4145 5.12288 10.452C5.10348 10.5056 5.09717 10.563 5.10446 10.6194C5.10446 10.6447 5.12709 10.6773 5.09814 10.6915C5.0292 10.7258 4.99868 10.7442 5.08131 10.811C5.10657 10.8321 5.06025 10.9426 5.06499 11.0153C5.06499 11.0416 5.05762 11.0637 5.08499 11.0816C5.20972 11.1626 5.16078 11.2884 5.16657 11.4C5.16707 11.4042 5.16707 11.4085 5.16657 11.4127C5.0792 11.3784 5.09341 11.4848 5.04341 11.5021C4.70184 11.3969 4.37816 11.2416 4.04343 11.12C3.99343 11.1016 3.99396 11.0674 4.0087 11.0268C4.15255 10.6149 4.29571 10.2027 4.43816 9.79042C4.45342 9.74673 4.46448 9.70883 4.52763 9.73778C4.72763 9.82516 4.93289 9.9099 5.13709 9.99622Z" fill="#2674C4"/>
<path d="M10.8101 13.7812C10.774 13.6829 10.7776 13.5743 10.8201 13.4786C10.8786 13.3364 10.8201 13.2154 10.8038 13.0917C10.7888 12.9807 10.7872 12.8683 10.7991 12.7569C10.8096 12.6548 10.8459 12.5501 10.788 12.4437C10.7785 12.4166 10.7758 12.3876 10.7802 12.3592C10.7847 12.3309 10.796 12.304 10.8133 12.2811C11.1028 12.3958 11.398 12.4953 11.6791 12.6295C11.8443 12.7348 11.8238 12.9048 11.8222 13.0654C11.8132 13.1517 11.816 13.2388 11.8306 13.3243C11.8402 13.3486 11.8441 13.3748 11.842 13.4008C11.8399 13.4268 11.8319 13.4519 11.8185 13.4744C11.8101 13.4845 11.804 13.4965 11.8009 13.5094C11.7978 13.5222 11.7977 13.5357 11.8006 13.5486C11.8533 13.6881 11.7659 13.7791 11.6954 13.876C11.5975 13.9481 11.4817 13.976 11.3685 14.0118C11.355 14.0121 11.3418 14.0072 11.3317 13.9981L10.8101 13.7812Z" fill="#2F69BC"/>
<path d="M7.12863 17.2063C7.16126 17.0047 7.10442 16.8057 7.11389 16.6041C7.12547 16.3667 7.11705 16.1304 7.1381 15.892C7.14652 15.7962 7.13231 15.7419 7.04652 15.7077C7.35775 15.5709 7.67353 15.4459 7.99387 15.333C8.04494 15.4047 8.06763 15.4928 8.05755 15.5803C8.04703 15.7156 8.05756 15.8498 8.05492 15.9846C8.0605 16.0147 8.0605 16.0456 8.05492 16.0757C7.97808 16.2662 8.05177 16.4541 8.06071 16.6431C8.06387 16.7141 8.07176 16.7826 8.02597 16.8436C7.73124 16.9789 7.43125 17.0963 7.12863 17.2063Z" fill="#6442A5"/>
<path d="M19.6773 11.2721C19.7214 11.4703 19.7466 11.6723 19.7526 11.8753C19.7526 12.1301 19.8015 12.3843 19.7599 12.639C19.7531 12.6822 19.7999 12.7048 19.8126 12.7417C19.5184 12.8743 19.2178 12.9885 18.9178 13.098C18.9084 13.0926 18.9005 13.085 18.8947 13.0758C18.8889 13.0667 18.8855 13.0562 18.8847 13.0454C18.9052 12.8264 18.8157 12.6117 18.8652 12.3922C18.906 12.1827 18.9081 11.9676 18.8715 11.7574C18.8554 11.7026 18.8612 11.6437 18.8878 11.5932L19.6773 11.2721Z" fill="#9E2C9B"/>
<path d="M20.833 12.3401C20.822 12.3406 20.8111 12.3387 20.8009 12.3345C20.7907 12.3302 20.7817 12.3237 20.7743 12.3155C20.767 12.3072 20.7616 12.2975 20.7586 12.2869C20.7555 12.2763 20.7549 12.2652 20.7567 12.2543C20.762 12.1601 20.7346 12.0627 20.7815 11.9716C20.7873 11.9606 20.7973 11.9443 20.793 11.9353C20.692 11.7169 20.7836 11.489 20.773 11.2663C20.7662 11.1242 20.7204 10.9884 20.7294 10.8452L21.5715 10.5073C21.5851 10.5189 21.6004 10.5347 21.5972 10.5505C21.5483 10.7679 21.6388 10.9768 21.6304 11.1953C21.6225 11.3958 21.5962 11.6016 21.6383 11.8037C21.6466 11.8467 21.6449 11.891 21.6333 11.9331C21.6217 11.9753 21.6006 12.0143 21.5715 12.0469C21.3315 12.1622 21.0815 12.249 20.833 12.3401Z" fill="#A8289A"/>
<path d="M6.2576 16.0173C6.2797 16.082 6.21865 16.1188 6.20497 16.172C6.14865 16.3699 6.18812 16.5652 6.20497 16.76C6.21812 16.8905 6.19549 17.0184 6.19707 17.1479C6.19707 17.2905 6.22339 17.4332 6.20602 17.5758C5.93076 17.7027 5.64972 17.8148 5.36393 17.9164C5.3113 17.7969 5.36814 17.6774 5.37025 17.5584C5.37236 17.4395 5.38551 17.3079 5.34657 17.1826C5.31171 17.0554 5.31336 16.921 5.3513 16.7947C5.39551 16.6415 5.34341 16.5231 5.30867 16.3915C5.62024 16.2525 5.9376 16.1299 6.2576 16.0173Z" fill="#5B46A6"/>
<path d="M18.8842 11.5921C18.9239 11.8105 18.9385 12.0326 18.9278 12.2543C18.9175 12.3678 18.9013 12.4808 18.8794 12.5927C18.8757 12.618 18.8536 12.6454 18.8694 12.6675C18.9678 12.8033 18.8963 12.9549 18.9142 13.098L18.1247 13.4138C18.0347 13.2844 18.0915 13.1333 18.0652 12.9928C18.0602 12.9191 18.0481 12.8461 18.0289 12.7748C18.0146 12.7471 18.0105 12.7153 18.0173 12.6848C18.101 12.4611 18.0289 12.2253 18.07 12.0006C18.0731 11.9702 18.0815 11.9407 18.0947 11.9132L18.8842 11.5921Z" fill="#9A2D9C"/>
<path d="M22.9677 9.94833C22.9599 10.1926 22.9856 10.4368 22.9577 10.6805C22.9591 10.7307 22.9672 10.7804 22.982 10.8284C23.0062 11.0047 22.9293 11.1811 22.9877 11.3548C23.0067 11.41 22.9351 11.4469 22.9677 11.5C22.7274 11.6096 22.4814 11.7064 22.2309 11.7901C22.1257 11.7837 22.1088 11.6995 22.1257 11.6322C22.1862 11.3484 22.1214 11.0647 22.1372 10.7816C22.1446 10.6463 22.1514 10.5105 22.1493 10.3747C22.1479 10.3529 22.1519 10.3311 22.1611 10.3113C22.1703 10.2916 22.1844 10.2744 22.202 10.2615C22.452 10.1441 22.7046 10.0415 22.9677 9.94833Z" fill="#AD2699"/>
<path d="M18.0952 11.9101C18.0684 12.1553 18.1479 12.4059 18.0542 12.647C18.0435 12.68 18.0444 12.7156 18.0568 12.748C18.1157 12.8965 18.1068 13.0501 18.1052 13.2044C18.1081 13.2731 18.1146 13.3416 18.1247 13.4097L17.3094 13.7292C17.2947 13.713 17.284 13.6937 17.2779 13.6727C17.2719 13.6517 17.2708 13.6296 17.2747 13.6081C17.2779 13.2128 17.271 12.8185 17.2684 12.4217C17.2684 12.3611 17.2273 12.3164 17.2284 12.259C17.5121 12.1295 17.8031 12.0195 18.0952 11.9101Z" fill="#962F9D"/>
<path d="M17.3363 6.78913C17.2521 6.69807 17.3026 6.60806 17.3515 6.53016C17.3868 6.47489 17.4042 6.42489 17.3658 6.37593C17.3273 6.32698 17.3563 6.25803 17.3494 6.1996C17.3331 6.06644 17.3715 5.92906 17.3142 5.79641C17.306 5.77623 17.3027 5.7544 17.3047 5.73271C17.3066 5.71102 17.3136 5.6901 17.3252 5.67167C17.4347 5.57482 17.3979 5.47954 17.3705 5.35585C17.3179 5.12425 17.3363 4.88213 17.3389 4.64579C17.3379 4.61977 17.3461 4.59422 17.3621 4.57368C17.4521 4.49052 17.4089 4.42683 17.3389 4.36314C17.2768 4.30471 17.2505 4.24155 17.3389 4.1826C17.621 4.29997 17.9026 4.41841 18.1847 4.53473C18.2547 4.56368 18.2273 4.60579 18.2084 4.65158C18.1073 4.89722 18.007 5.14285 17.9073 5.38848C17.7263 5.83554 17.5458 6.28259 17.3658 6.72965C17.3573 6.7501 17.3474 6.76997 17.3363 6.78913Z" fill="#395DB4"/>
<path d="M5.31026 16.393C5.35131 16.3994 5.39605 16.4099 5.37973 16.4636C5.37483 16.487 5.37603 16.5113 5.38322 16.5342C5.39041 16.557 5.40334 16.5777 5.42078 16.5941C5.44025 16.6215 5.45236 16.652 5.43183 16.6788C5.36973 16.7573 5.38762 16.8415 5.38552 16.9336C5.37868 17.2615 5.46183 17.5921 5.36552 17.9179C5.12289 18.0232 4.885 18.1374 4.62869 18.2063C4.61576 18.1945 4.60646 18.1791 4.6019 18.1622C4.59733 18.1452 4.59768 18.1273 4.60291 18.1105C4.63712 17.9811 4.61185 17.8505 4.61817 17.7205C4.63238 17.431 4.59764 17.1415 4.63238 16.8515C4.64027 16.7831 4.59554 16.7378 4.57396 16.6825C4.81501 16.5736 5.05921 16.4746 5.31026 16.393Z" fill="#5747A7"/>
<path d="M9.417 16.2878L8.70491 16.572C8.59965 16.5262 8.58228 16.4573 8.6028 16.3415C8.64915 16.1243 8.64915 15.8997 8.6028 15.6825C8.59659 15.6657 8.59425 15.6477 8.59596 15.6299C8.63807 15.4467 8.63491 15.2614 8.64859 15.0745C8.91543 14.953 9.19016 14.8514 9.46436 14.7493C9.51173 14.7956 9.48436 14.8472 9.47331 14.8966C9.42216 15.1314 9.41131 15.3731 9.44121 15.6114C9.45004 15.6637 9.45004 15.7171 9.44121 15.7693C9.41404 15.9022 9.40995 16.0388 9.4291 16.1731C9.43436 16.2104 9.44594 16.2504 9.417 16.2878Z" fill="#6B40A4"/>
<path d="M9.41701 16.2878C9.37142 16.1352 9.36634 15.9734 9.40227 15.8183C9.44122 15.6783 9.38859 15.5435 9.38806 15.4056C9.39327 15.186 9.41953 14.9675 9.46648 14.7529C9.66127 14.6652 9.86069 14.588 10.0638 14.5219C10.1554 14.5219 10.1333 14.5966 10.1365 14.6455C10.1479 14.8283 10.1493 15.0116 10.1407 15.1945C10.1333 15.3982 10.1765 15.6046 10.0996 15.8035C10.0723 15.8741 10.1586 15.9583 10.0754 16.023L9.41701 16.2878Z" fill="#6F3EA3"/>
<path d="M11.3306 13.9981H11.3633C11.5648 14.0365 11.748 14.126 11.9354 14.2039C11.9514 14.2109 11.9655 14.2216 11.9765 14.2351C11.9875 14.2487 11.995 14.2647 11.9985 14.2818C12.0159 14.412 12.0159 14.5438 11.9985 14.674C11.981 14.7996 11.9792 14.9269 11.9932 15.0529C12.0009 15.0894 12.0006 15.127 11.9924 15.1634C11.9843 15.1997 11.9684 15.2338 11.9459 15.2635C11.7139 15.3732 11.4752 15.4681 11.2312 15.5477C11.205 15.5319 11.1838 15.509 11.17 15.4818C11.1561 15.4545 11.1502 15.424 11.1527 15.3935C11.137 15.1245 11.1422 14.8545 11.1396 14.5871C11.1426 14.425 11.1366 14.2628 11.1217 14.1013L11.3306 13.9981Z" fill="#773BA2"/>
<path d="M17.231 12.2606C17.3957 12.3464 17.2994 12.499 17.3052 12.6133C17.3231 12.9849 17.3121 13.3581 17.3121 13.7307L16.67 13.9992C16.6638 14.0028 16.6568 14.0047 16.6497 14.0047C16.6426 14.0047 16.6356 14.0028 16.6294 13.9992C16.6141 13.9841 16.6049 13.9638 16.6037 13.9423C16.5768 13.5965 16.6105 13.2517 16.6158 12.9064C16.618 12.7763 16.6099 12.6463 16.5916 12.5175C16.7973 12.4222 17.011 12.3364 17.231 12.2606Z" fill="#92309D"/>
<path d="M8.65229 15.0771C8.69439 15.2134 8.69439 15.3593 8.65229 15.4956C8.62594 15.5786 8.62816 15.6681 8.65861 15.7498C8.70176 15.883 8.66282 16.0214 8.65861 16.1567C8.65861 16.2456 8.67229 16.343 8.61492 16.4351C8.57755 16.4946 8.71334 16.4988 8.70439 16.5736C8.4813 16.6762 8.25292 16.7668 8.0202 16.8452C8.02472 16.6661 8.0083 16.4872 7.97125 16.312C7.96126 16.2739 7.96328 16.2336 7.97704 16.1967C8.04915 16.0388 7.99336 15.873 8.01125 15.713C8.02546 15.5824 7.99494 15.4608 7.99073 15.3345C8.20649 15.237 8.42733 15.151 8.65229 15.0771Z" fill="#6841A4"/>
<path d="M22.2014 10.2583C22.1572 10.3568 22.1857 10.4626 22.1814 10.5631C22.1637 10.858 22.1697 11.1539 22.1993 11.4479C22.2016 11.4873 22.1922 11.5264 22.1725 11.5606C22.1612 11.5794 22.1538 11.6002 22.1506 11.6219C22.1474 11.6436 22.1486 11.6657 22.154 11.687C22.1595 11.7082 22.1691 11.7282 22.1823 11.7457C22.1955 11.7632 22.212 11.7779 22.2309 11.789C22.0159 11.8878 21.7956 11.9746 21.5709 12.049C21.6008 11.7867 21.6008 11.5218 21.5709 11.2595C21.5715 11.2335 21.5752 11.2077 21.582 11.1826C21.6068 11.0816 21.5983 10.9753 21.5578 10.8794C21.4999 10.7605 21.5804 10.6326 21.5688 10.5078C21.7751 10.4135 21.9863 10.3302 22.2014 10.2583Z" fill="#AB2799"/>
<path d="M11.679 13.8665C11.679 13.8213 11.7159 13.7997 11.7375 13.7676C11.7748 13.7102 11.8206 13.6549 11.7654 13.5791C11.759 13.5653 11.7557 13.5503 11.7557 13.5352C11.7557 13.52 11.759 13.505 11.7654 13.4912C11.8522 13.3165 11.7596 13.1344 11.788 12.9543C11.7966 12.8955 11.7911 12.8355 11.7719 12.7792C11.7528 12.723 11.7206 12.672 11.678 12.6306L13.2316 13.2391C13.235 13.2449 13.2364 13.2516 13.2356 13.2582C13.2349 13.2649 13.232 13.2711 13.2274 13.2759C13.039 13.386 12.8243 13.4339 12.6274 13.5244C12.5601 13.5554 12.4906 13.5797 12.4222 13.6081C12.2227 13.6849 12.0254 13.766 11.8269 13.8449C11.7812 13.8613 11.7343 13.8918 11.679 13.8665Z" fill="#3167BA"/>
<path d="M11.1227 14.1013C11.1854 14.2281 11.2454 14.355 11.1791 14.4997C11.1222 14.6224 11.1791 14.7492 11.1906 14.8682C11.208 15.0456 11.1564 15.2177 11.1848 15.3945C11.1938 15.4519 11.2343 15.493 11.2322 15.5488L10.6285 15.7988C10.586 15.6667 10.5714 15.5273 10.5854 15.3893C10.5996 15.1477 10.5796 14.9045 10.5854 14.6618C10.5933 14.5448 10.5949 14.4274 10.5901 14.3102C10.7627 14.2284 10.9406 14.1586 11.1227 14.1013Z" fill="#743CA2"/>
<path d="M16.5889 12.5191C16.6105 12.5375 16.6273 12.5609 16.6378 12.5872C16.6483 12.6135 16.6523 12.642 16.6495 12.6701C16.64 12.8638 16.6358 13.0597 16.6379 13.2518C16.6379 13.4539 16.5895 13.6587 16.6437 13.8608C16.6526 13.8945 16.6316 13.936 16.6247 13.9739C16.6089 13.9857 16.5899 13.9924 16.5703 13.9934C16.5506 13.9943 16.5311 13.9894 16.5142 13.9792C16.3247 13.9039 16.1342 13.8308 15.9463 13.7513C15.9142 13.7376 15.8827 13.7218 15.8737 13.6829C15.9078 13.5046 15.9312 13.3244 15.9437 13.1433C15.9483 13.1045 15.944 13.065 15.9311 13.0281C15.9161 12.9849 15.9115 12.9387 15.9179 12.8934C15.9242 12.8481 15.9411 12.805 15.9674 12.7675C16.1701 12.674 16.3776 12.5911 16.5889 12.5191Z" fill="#8F329E"/>
<path d="M10.5927 14.3092C10.6796 14.4371 10.6048 14.5782 10.6243 14.7124C10.6464 14.8703 10.5801 15.0282 10.6406 15.1861C10.6617 15.2387 10.627 15.2961 10.6185 15.3477C10.5943 15.5003 10.6512 15.6472 10.6285 15.7967C10.4476 15.8812 10.2623 15.9559 10.0733 16.0204C10.0428 15.7304 10.1306 15.4461 10.1049 15.1535C10.0907 14.9882 10.098 14.8177 10.098 14.6497C10.098 14.604 10.1143 14.5513 10.0617 14.5192C10.2344 14.4387 10.4117 14.3685 10.5927 14.3092Z" fill="#723DA2"/>
<path d="M11.9438 15.2645C11.9522 14.9301 11.9604 14.5957 11.9685 14.2613C12.0738 14.2297 12.1511 14.296 12.2396 14.3244C12.3011 14.3444 12.3611 14.3692 12.4211 14.3944C12.6901 14.5029 12.9659 14.5955 13.2274 14.7224C13.2324 14.7269 13.2359 14.7329 13.2372 14.7396C13.2385 14.7462 13.2377 14.7531 13.2348 14.7592C12.8464 14.914 12.4578 15.0687 12.069 15.2235C12.0269 15.2408 11.9848 15.2514 11.9438 15.2645Z" fill="#7C39A1"/>
<path d="M4.57396 16.681C4.66816 16.6999 4.6908 16.7705 4.6729 16.8478C4.64955 16.9399 4.6426 17.0354 4.65238 17.13C4.68448 17.421 4.62553 17.7132 4.66238 18.0053C4.67027 18.0685 4.61501 18.1348 4.62764 18.2069C4.55501 18.2658 4.50449 18.2479 4.46975 18.1632C4.32344 17.7784 4.1787 17.3931 4.02081 17.0142C3.98765 16.9326 3.99186 16.8936 4.08344 16.8636C4.25081 16.8094 4.41133 16.7426 4.57396 16.681Z" fill="#5449A7"/>
<path d="M15.9679 12.7675C15.9442 13.0112 16.001 13.2565 15.9458 13.5007C15.9343 13.5641 15.9151 13.6258 15.8884 13.6844C15.8358 13.7249 15.79 13.6923 15.7432 13.6755C15.6137 13.6291 15.49 13.5665 15.3558 13.5323C15.1805 13.4586 15.0095 13.3744 14.8295 13.3133C14.7948 13.3018 14.7521 13.2886 14.7569 13.236C14.7753 13.2049 14.8095 13.226 14.8353 13.2081L15.82 12.8201C15.8689 12.8012 15.9184 12.7849 15.9679 12.7675Z" fill="#8C339E"/>
<path d="M10.2838 4.28259C10.2722 4.59841 10.3091 4.91054 10.2628 5.22425C10.257 5.30644 10.2661 5.389 10.2896 5.46795C10.3128 5.57323 10.2817 5.68534 10.2533 5.79219C10.0838 5.37742 9.91399 4.96265 9.74382 4.54788C9.72172 4.49524 9.73908 4.4684 9.79014 4.45155C9.95329 4.39629 10.118 4.33944 10.2838 4.28259Z" fill="#703FA3"/>
<path d="M14.8353 13.2086C14.8256 13.2192 14.8134 13.2272 14.7998 13.2318C14.7861 13.2365 14.7715 13.2375 14.7574 13.2349C14.763 13.1922 14.7813 13.1523 14.81 13.1202C14.81 13.1523 14.8037 13.1865 14.8353 13.2086Z" fill="#FEFEFE"/>
<path d="M15.2621 19.8392C15.0867 19.397 14.91 18.9545 14.7321 18.5117C14.7132 18.4638 14.6984 18.4138 14.6821 18.3648C14.699 17.9116 14.6516 17.4595 14.6779 17.0037C14.7026 16.5794 14.7258 16.1494 14.6716 15.722C14.6469 15.5267 14.6769 15.3288 14.6774 15.1319C14.6826 15.0843 14.6755 15.0361 14.6569 14.9919C14.6527 14.8998 14.6505 14.8082 14.7563 14.764C14.943 15.2342 15.1302 15.7044 15.3179 16.1747C15.3353 16.2189 15.3484 16.2647 15.3637 16.3099C15.3637 16.6257 15.4163 16.9416 15.3579 17.2574C15.3408 17.3526 15.3439 17.4503 15.3668 17.5442C15.4265 17.7823 15.4304 18.0308 15.3784 18.2706C15.3563 18.396 15.3563 18.5242 15.3784 18.6496C15.3988 18.8321 15.397 19.0165 15.3732 19.1986C15.3449 19.3711 15.3361 19.5462 15.3468 19.7207C15.3542 19.776 15.3626 19.8539 15.2621 19.8392Z" fill="#88349F"/>
<path d="M15.2621 19.8392C15.3184 19.8271 15.3242 19.7907 15.3148 19.7407C15.2795 19.5191 15.3253 19.3017 15.3548 19.0838C15.3842 18.8659 15.3442 18.6591 15.3284 18.4485C15.3169 18.2938 15.3669 18.1517 15.3732 18.0011C15.3729 17.8507 15.3577 17.7006 15.3279 17.5532C15.3077 17.4381 15.3077 17.3204 15.3279 17.2053C15.3553 17.0411 15.3581 16.8739 15.3363 16.7089C15.3217 16.5758 15.3314 16.4412 15.3648 16.3115C15.5718 16.7887 15.7665 17.2714 15.949 17.7595C15.9868 17.9811 15.9111 18.198 15.9221 18.4212C15.9384 18.7528 15.9163 19.087 15.9321 19.4176C15.9421 19.6191 15.9158 19.8218 15.9468 20.0218C15.9642 20.1323 15.9221 20.2397 15.9279 20.3492C15.9416 20.6019 15.92 20.854 15.9221 21.1066C15.9221 21.1856 15.9632 21.2888 15.8569 21.344C15.6469 20.8456 15.4511 20.3439 15.2621 19.8392Z" fill="#8C339E"/>
<path d="M17.0731 14.1823C17.5252 14.346 17.9721 14.5239 18.4152 14.7087C18.4169 14.7349 18.4213 14.7608 18.4284 14.7861C18.4989 15.0308 18.5042 15.0898 18.4642 15.3377C18.4484 15.4346 18.4773 15.524 18.4884 15.6167C18.5162 15.7924 18.5148 15.9715 18.4842 16.1467C18.4797 16.1639 18.4705 16.1795 18.4577 16.1917C18.4449 16.204 18.4289 16.2125 18.4115 16.2162C17.9589 16.0514 17.5168 15.8672 17.0716 15.6788C17.0561 15.6728 17.0424 15.6632 17.0313 15.6509C17.0203 15.6385 17.0123 15.6238 17.0081 15.6078C17.0038 15.5918 17.0034 15.575 17.0068 15.5588C17.0103 15.5426 17.0175 15.5274 17.0279 15.5146C17.0403 15.4991 17.0493 15.4813 17.0543 15.4621C17.0594 15.443 17.0604 15.423 17.0574 15.4035C17.0016 15.2287 17.0716 15.0582 17.0679 14.8866C17.0679 14.775 17.0153 14.6687 17.0058 14.5555C16.9942 14.4234 16.9874 14.2939 17.0731 14.1823Z" fill="#395DB4"/>
<path d="M20.4678 15.5182L21.7651 16.0246C21.7805 16.0317 21.7955 16.0398 21.8099 16.0488C21.833 16.1241 21.7793 16.1715 21.7441 16.2246C21.6804 16.3215 21.683 16.3783 21.7772 16.4452C21.8599 16.5046 21.8299 16.5752 21.8151 16.6452C21.772 16.829 21.7629 17.0192 21.7883 17.2063C21.8036 17.3289 21.8015 17.4595 21.8057 17.5863C21.3541 17.4195 20.9109 17.2379 20.4662 17.0484C20.4299 17.001 20.4457 16.9431 20.4531 16.8968C20.4846 16.7041 20.4399 16.5068 20.4925 16.3178C20.51 16.2491 20.5008 16.1763 20.4667 16.1141C20.4482 16.0797 20.4395 16.041 20.4414 16.002C20.4434 15.963 20.4559 15.9253 20.4778 15.893C20.5167 15.8199 20.5304 15.7504 20.4657 15.6772C20.4548 15.667 20.4462 15.6546 20.4404 15.6408C20.4345 15.627 20.4316 15.6122 20.4318 15.5973C20.432 15.5823 20.4353 15.5676 20.4415 15.554C20.4477 15.5404 20.4567 15.5282 20.4678 15.5182Z" fill="#3E57B0"/>
<path d="M15.8558 21.3408C15.8904 21.2494 15.9003 21.1505 15.8847 21.054C15.8678 20.9781 15.8691 20.8992 15.8884 20.8239C15.9342 20.6708 15.8642 20.5192 15.8884 20.3639C15.9241 20.155 15.9254 19.9416 15.8921 19.7323C15.8891 19.7149 15.8902 19.697 15.8953 19.6801C15.9004 19.6632 15.9094 19.6477 15.9216 19.6349C15.9315 19.6259 15.8815 19.6009 15.8847 19.5879C15.8277 19.5588 15.8892 19.5584 15.8847 19.5457C15.7726 19.3399 15.9242 19.1406 15.9058 18.9301C15.8842 18.6817 15.9058 18.4332 15.8863 18.1853C15.8779 18.1383 15.8827 18.0898 15.9 18.0453C15.9165 18.0203 15.927 17.9919 15.9307 17.9623C15.9344 17.9326 15.9313 17.9025 15.9216 17.8742C15.9117 17.8542 15.9092 17.8314 15.9145 17.8097C15.9198 17.7881 15.9325 17.769 15.9505 17.7558C16.119 18.1427 16.2805 18.5322 16.421 18.9301C16.4348 18.9638 16.4348 19.0016 16.421 19.0354C16.3505 19.1891 16.3811 19.3486 16.4163 19.4986C16.4495 19.6259 16.4495 19.7597 16.4163 19.887C16.35 20.1192 16.4095 20.346 16.4163 20.575C16.4229 20.6227 16.4229 20.671 16.4163 20.7187C16.3812 20.877 16.3783 21.0408 16.4079 21.2003C16.4159 21.2255 16.4171 21.2523 16.4116 21.2782C16.3237 21.4772 16.4179 21.6751 16.4116 21.8725C16.4053 22.0698 16.3968 22.2804 16.3768 22.483C16.3711 22.5357 16.34 22.5357 16.3079 22.4972C16.1484 22.1156 15.9947 21.7319 15.8558 21.3408Z" fill="#8E329E"/>
<path d="M16.3079 22.4988C16.3232 22.4988 16.3553 22.5109 16.3516 22.4988C16.3142 22.3751 16.3763 22.2546 16.3516 22.1256C16.3316 22.0288 16.3953 21.9188 16.371 21.8009C16.351 21.7014 16.3405 21.595 16.3295 21.4914C16.3253 21.4556 16.3158 21.4192 16.3363 21.3913C16.41 21.2919 16.3737 21.1808 16.3584 21.0797C16.346 20.9946 16.3476 20.908 16.3632 20.8234C16.3926 20.6378 16.3853 20.4482 16.3416 20.2655C16.3271 20.2011 16.3291 20.1341 16.3474 20.0707C16.4145 19.8465 16.4185 19.6081 16.3589 19.3817C16.3179 19.2154 16.3668 19.0785 16.4205 18.9338C16.5679 19.2496 16.6905 19.5712 16.811 19.896C16.797 19.9415 16.7927 19.9895 16.7984 20.0369C16.8042 20.0842 16.8197 20.1298 16.8442 20.1707C16.8642 20.207 16.8805 20.2549 16.8489 20.2807C16.7595 20.3555 16.8005 20.4386 16.8237 20.5192C16.8463 20.5813 16.8496 20.6488 16.8331 20.7129C16.7621 20.9155 16.8531 21.1161 16.8279 21.3129C16.8042 21.4992 16.8726 21.6814 16.8174 21.8677C16.8034 21.9189 16.8056 21.9731 16.8237 22.023C16.8455 22.081 16.8455 22.145 16.8237 22.203C16.7803 22.3029 16.7747 22.4151 16.8079 22.5188C16.8595 22.6829 16.8669 22.8578 16.8295 23.0257C16.7926 23.1836 16.8873 23.3352 16.7952 23.4763C16.7684 23.5173 16.801 23.5489 16.8274 23.5815C16.88 23.6447 16.88 23.6994 16.7984 23.7394C16.6184 23.331 16.4668 22.9125 16.3079 22.4988Z" fill="#91319D"/>
<path d="M17.0731 14.1824C17.0774 14.2787 17.0126 14.3634 17.0347 14.465C17.0568 14.5666 17.0452 14.6661 17.0805 14.7666C17.1255 14.904 17.1169 15.0533 17.0563 15.1846C17.0426 15.2167 17.0358 15.2293 17.061 15.2604C17.0898 15.2947 17.1062 15.3377 17.1075 15.3825C17.1088 15.4273 17.0951 15.4712 17.0684 15.5072C17.0126 15.5799 17.0421 15.6235 17.0716 15.6804C16.6121 15.5062 16.1558 15.3246 15.7032 15.1288C15.6438 14.8899 15.6368 14.641 15.6826 14.3992C15.6937 14.3555 15.7311 14.3398 15.7669 14.3234C16.0163 14.2076 16.2768 14.1203 16.5321 14.0171C16.57 14.0078 16.6089 14.0032 16.6479 14.0034H16.6653L17.0731 14.1824Z" fill="#3760B6"/>
<path d="M18.4115 16.2157C18.4498 16.1579 18.4703 16.0902 18.4705 16.0209C18.4831 15.9077 18.4068 15.7904 18.4868 15.6809C18.4892 15.6749 18.4901 15.6683 18.4893 15.6619C18.4886 15.6555 18.4863 15.6493 18.4826 15.644C18.3405 15.4582 18.3126 15.2694 18.38 15.0925C18.4015 15.0346 18.4242 14.9949 18.3799 14.9586C18.3242 14.9133 18.4236 14.8398 18.3799 14.7887C18.3489 14.7492 18.3799 14.7261 18.4152 14.7082C18.8163 14.855 19.2152 15.0077 19.6062 15.1819C19.5315 15.2008 19.5883 15.2456 19.5836 15.2798C19.5758 15.3883 19.5623 15.4964 19.5431 15.6035C19.4905 15.8072 19.5315 16.0109 19.521 16.2141C19.5131 16.3641 19.482 16.4967 19.3831 16.6099C19.0541 16.4894 18.7289 16.3615 18.4115 16.2157Z" fill="#3B5BB2"/>
<path d="M19.3831 16.6078C19.3762 16.5457 19.4215 16.5025 19.4436 16.4499C19.5162 16.2793 19.4931 16.0978 19.4847 15.9235C19.4747 15.713 19.5299 15.5124 19.5499 15.3072C19.5499 15.2872 19.572 15.2682 19.5541 15.2466C19.5089 15.2303 19.5294 15.3151 19.4726 15.2903C19.4726 15.1993 19.531 15.1803 19.6062 15.1761C19.8625 15.274 20.1194 15.3714 20.3757 15.4703C20.4073 15.4824 20.4373 15.4998 20.4678 15.5145C20.4631 15.5856 20.4578 15.6567 20.5331 15.6988C20.5413 15.7021 20.5486 15.7074 20.5544 15.7141C20.5602 15.7207 20.5644 15.7287 20.5666 15.7373C20.5688 15.7459 20.569 15.7549 20.5671 15.7635C20.5652 15.7722 20.5613 15.7803 20.5557 15.7872C20.482 15.9114 20.4504 16.0435 20.522 16.1751C20.5783 16.2751 20.5015 16.3551 20.5036 16.4473C20.5117 16.6465 20.4991 16.8459 20.4662 17.0426L19.5457 16.6741C19.521 16.5825 19.4404 16.6215 19.3836 16.6041L19.3831 16.6078Z" fill="#3C59B1"/>
<path d="M21.8057 17.5842C21.753 17.4737 21.7793 17.3479 21.753 17.2415C21.7344 17.1519 21.727 17.0603 21.7309 16.9689C21.7309 16.8789 21.7204 16.7726 21.7662 16.6762C21.8014 16.6025 21.8714 16.5078 21.7135 16.4504C21.653 16.4283 21.6304 16.3083 21.6925 16.2357C21.7386 16.1774 21.7778 16.114 21.8093 16.0467C22.122 16.152 22.4267 16.2799 22.7309 16.4078C22.8214 16.5657 22.7504 16.7357 22.7535 16.8973C22.7601 17.0152 22.7555 17.1335 22.7398 17.2505C22.723 17.3463 22.6904 17.4231 22.743 17.5137C22.7593 17.5421 22.7093 17.5689 22.6983 17.6095C22.6588 17.7542 22.7677 17.8532 22.7777 17.9779L21.8057 17.5842Z" fill="#4055AE"/>
<path d="M17.3121 23.8673C17.2786 23.7324 17.263 23.5937 17.2658 23.4547C17.2952 23.0673 17.28 22.6809 17.2863 22.2967C17.2863 22.1356 17.2568 21.9767 17.2631 21.8187C17.2695 21.6608 17.2789 21.4882 17.2879 21.3224C17.2879 21.2903 17.2968 21.2355 17.36 21.2634C17.6231 21.9119 17.8863 22.5602 18.1494 23.2083C18.1936 23.3173 18.2894 23.4494 18.2584 23.5331C18.2273 23.6168 18.0552 23.6242 17.9426 23.6626C17.7347 23.731 17.5231 23.7973 17.3121 23.8673Z" fill="#952F9D"/>
<path d="M14.7574 14.764C14.7153 14.8258 14.6883 14.8967 14.6784 14.9708C14.6611 15.0024 14.6884 15.0761 14.6069 15.0472C14.5863 15.0341 14.5695 15.016 14.5582 14.9944C14.5468 14.9729 14.5413 14.9488 14.5421 14.9245C14.5479 14.8119 14.4816 14.7987 14.3921 14.7992C14.1174 14.8013 13.8425 14.8013 13.5674 14.7992C13.4622 14.7913 13.3569 14.8277 13.258 14.764C13.2505 14.7627 13.2431 14.761 13.2358 14.7587C13.2337 14.7511 13.2321 14.7434 13.2311 14.7356C13.2418 14.7228 13.2556 14.7131 13.2711 14.7071C13.4885 14.6782 13.7074 14.6982 13.9253 14.694C14.1179 14.6908 14.3106 14.694 14.5042 14.694C14.6874 14.694 14.6921 14.6882 14.6927 14.4997C14.6927 14.1671 14.6927 13.8346 14.6927 13.5023C14.6927 13.326 14.6927 13.326 14.5227 13.2865C14.5153 13.2828 14.5021 13.2791 14.5016 13.2733C14.4827 13.1307 14.43 12.9896 14.4748 12.8449C14.4895 12.797 14.5206 12.7528 14.5753 12.8143C14.64 12.9533 14.6532 13.1144 14.7584 13.2354C14.8405 13.307 14.9511 13.3123 15.0437 13.3596C15.149 13.4123 15.2579 13.4528 15.3653 13.4986C15.4053 13.6286 15.3947 13.7676 15.3905 13.896C15.3837 14.0971 15.3968 14.295 15.4058 14.4945C15.4049 14.5057 15.4011 14.5164 15.3947 14.5257C15.3883 14.5349 15.3796 14.5423 15.3695 14.5471C15.1774 14.624 14.9911 14.7187 14.7853 14.7577L14.7574 14.764Z" fill="#575494"/>
<path d="M14.7827 14.7571C14.9405 14.6592 15.1195 14.6219 15.2847 14.5466C15.3195 14.5308 15.3626 14.5329 15.39 14.4982C15.4832 14.4282 15.579 14.364 15.7058 14.3929C15.7421 14.474 15.7168 14.5508 15.6968 14.6308C15.6768 14.7108 15.6442 14.7987 15.7184 14.894C15.7621 14.9466 15.7474 15.0519 15.7068 15.1298C15.3932 15.0151 15.0863 14.8908 14.7827 14.7571Z" fill="#3662B7"/>
<path d="M19.3836 16.6068C19.4515 16.5973 19.5594 16.4957 19.5457 16.6768C19.4875 16.6646 19.4324 16.6408 19.3836 16.6068Z" fill="#3B5BB2"/>
<path d="M17.3137 21.1471C17.2947 21.1755 17.2779 21.1645 17.2658 21.1424C17.2627 21.137 17.2607 21.131 17.2599 21.1248C17.2591 21.1186 17.2596 21.1123 17.2613 21.1063C17.2629 21.1003 17.2657 21.0946 17.2696 21.0897C17.2734 21.0848 17.2782 21.0807 17.2837 21.0776C17.2933 21.0864 17.301 21.0972 17.3062 21.1091C17.3113 21.1211 17.3139 21.1341 17.3137 21.1471Z" fill="#952F9D"/>
<path d="M14.6258 15.0508L14.6785 14.9708C14.779 15.085 14.7058 15.2193 14.7121 15.3393C14.7206 15.4972 14.7121 15.6509 14.7216 15.8077C14.7353 16.1109 14.7527 16.4151 14.7185 16.7199C14.7006 16.8815 14.7185 17.0468 14.71 17.2115C14.6883 17.489 14.695 17.7681 14.73 18.0442C14.7442 18.1518 14.7279 18.2612 14.6832 18.36C14.5143 17.9916 14.3827 17.6073 14.2306 17.2315C14.1543 17.042 14.0948 16.8457 13.9969 16.6652V16.6252C13.9969 16.5812 14.0064 16.5377 14.0248 16.4978C14.2069 16.052 14.3758 15.6003 14.5585 15.1545C14.5737 15.1192 14.5837 15.0771 14.6258 15.0508Z" fill="#86359F"/>
<path d="M11.7622 21.5014C11.75 21.5094 11.7364 21.5153 11.7222 21.5187C11.7043 21.5187 11.6848 21.5087 11.6943 21.4893C11.6996 21.4787 11.7233 21.4756 11.7396 21.4724C11.7559 21.4693 11.7648 21.4756 11.7622 21.5014Z" fill="#2F69BC"/>
<path d="M14.5727 12.8138C14.5343 12.7943 14.4927 12.8028 14.4995 12.8465C14.5127 12.9275 14.4337 13.0144 14.53 13.0949C14.5827 13.1396 14.4721 13.1933 14.4943 13.2565C14.4836 13.2704 14.4696 13.2816 14.4537 13.2889C14.4377 13.2962 14.4202 13.2996 14.4027 13.2986C14.0258 13.2986 13.6485 13.3191 13.2717 13.2886C13.2552 13.2828 13.2408 13.2724 13.2301 13.2586C13.2298 13.2507 13.2302 13.2428 13.2311 13.2349C13.3722 12.9686 13.4532 12.6786 13.5716 12.4033C13.7201 12.0601 13.8348 11.7027 13.9927 11.3648C14.0706 11.5474 14.1506 11.729 14.2253 11.9137C14.3458 12.2138 14.4585 12.5149 14.5727 12.8138Z" fill="#555594"/>
<path d="M14.6258 15.0508C14.4585 15.4825 14.2927 15.9146 14.1227 16.3452C14.0843 16.4415 14.0627 16.5462 13.9959 16.6299C13.8311 16.2925 13.7206 15.933 13.5748 15.5883C13.5443 15.5161 13.5222 15.4409 13.4953 15.3667C13.4957 15.277 13.4806 15.188 13.4506 15.1035C13.4085 14.9982 13.4801 14.8292 13.5743 14.7603C13.879 14.7603 14.1837 14.7603 14.4879 14.7603C14.5595 14.7603 14.6095 14.764 14.5769 14.8577C14.55 14.9303 14.5958 14.9898 14.6258 15.0508Z" fill="#565594"/>
<path d="M13.5732 14.7613C13.4879 14.9003 13.4153 15.0413 13.5295 15.2003C13.5785 15.2687 13.4906 15.3056 13.4943 15.3661C13.4011 15.1712 13.3217 14.97 13.2569 14.7639L13.5732 14.7613Z" fill="#515794"/>
<path d="M12.4159 14.4192L11.9685 14.2613C11.8054 14.1697 11.6238 14.1224 11.4522 14.0508C11.4184 14.0414 11.3878 14.0232 11.3633 13.9981C11.4591 13.9302 11.5738 13.9139 11.6791 13.8639L12.4159 13.5765C12.4485 13.6144 12.4243 13.6513 12.4122 13.6871C12.3958 13.7277 12.3925 13.7724 12.4027 13.815C12.4522 14.0066 12.4385 14.2018 12.4306 14.3971C12.4306 14.4066 12.4227 14.4134 12.4159 14.4192Z" fill="#4F5995"/>
<path d="M15.7047 14.3929L15.389 14.4981C15.3563 14.3339 15.3116 14.1713 15.3558 14.0002C15.3697 13.9496 15.3697 13.8961 15.3558 13.8454C15.3179 13.7275 15.3432 13.6144 15.3626 13.4991C15.5458 13.5381 15.7037 13.6486 15.889 13.6844C16.1281 13.7965 16.3742 13.8932 16.6258 13.9739L16.651 14.0013C16.3395 14.1434 16.0079 14.235 15.7047 14.3929Z" fill="#5A5294"/>
<path d="M12.4159 14.4192C12.4159 14.2576 12.4117 14.0929 12.3959 13.9345C12.3832 13.8087 12.3569 13.695 12.4159 13.5781C12.6827 13.4597 12.9543 13.3549 13.2301 13.2591L13.259 13.2618C13.3038 13.3144 13.2995 13.3749 13.3001 13.436C13.3001 13.8108 13.3001 14.1857 13.3001 14.5608C13.3001 14.6214 13.3032 14.684 13.2585 14.7345H13.2301C12.9534 14.6436 12.6816 14.5384 12.4159 14.4192Z" fill="#515794"/>
<path d="M13.2585 14.7345C13.2585 14.2432 13.2585 13.7519 13.2585 13.2607L14.4937 13.2559C14.7321 13.2686 14.7321 13.2686 14.7321 13.5117C14.7321 13.8844 14.7321 14.2565 14.7321 14.6287C14.7321 14.7155 14.7074 14.7387 14.6222 14.7376C14.1695 14.7339 13.7143 14.7355 13.2585 14.7345Z" fill="#FEFEFE"/>
</svg>
