<svg width="17" height="16" viewBox="0 0 17 16" fill="none" xmlns="http://www.w3.org/2000/svg">
<mask id="mask0_1800_19935" style="mask-type:alpha" maskUnits="userSpaceOnUse" x="0" y="0" width="17" height="16">
<path d="M0.5 0H16.5V16H0.5V0Z" fill="#D9D9D9"/>
</mask>
<g mask="url(#mask0_1800_19935)">
<path fill-rule="evenodd" clip-rule="evenodd" d="M8.49381 1.66659C7.89551 1.66659 7.41048 2.15161 7.41048 2.74992C7.41048 3.34823 7.89551 3.83325 8.49381 3.83325C9.09212 3.83325 9.57715 3.34823 9.57715 2.74992C9.57715 2.15161 9.09212 1.66659 8.49381 1.66659ZM6.07715 2.74992C6.07715 1.41523 7.15913 0.333252 8.49381 0.333252C9.8285 0.333252 10.9105 1.41523 10.9105 2.74992C10.9105 4.08461 9.8285 5.16658 8.49381 5.16658C7.15913 5.16658 6.07715 4.08461 6.07715 2.74992Z" fill="#AFAFAF"/>
<path fill-rule="evenodd" clip-rule="evenodd" d="M11.8912 9.11399C11.975 9.21471 12.0182 9.34311 12.0122 9.47401C12.0062 9.60491 11.9515 9.72885 11.8589 9.82151C11.7662 9.91416 11.6423 9.96885 11.5114 9.97482C11.4867 9.97595 11.4621 9.97533 11.4378 9.97302C11.3331 9.96309 11.2331 9.92184 11.1514 9.8538L9.62798 8.67186L10.8406 12.5066C10.8476 12.52 10.854 12.5337 10.8598 12.5476C10.8813 12.5988 10.8945 12.6533 10.8989 12.7089C10.9045 12.7795 10.8957 12.8506 10.8731 12.9178C10.8505 12.985 10.8146 13.0469 10.7674 13.0998C10.7202 13.1528 10.6629 13.1956 10.5987 13.2258C10.5345 13.2559 10.4649 13.2728 10.3941 13.2753C10.3233 13.2779 10.2526 13.266 10.1865 13.2406C10.1203 13.2151 10.06 13.1765 10.0092 13.1271C9.96917 13.0882 9.93568 13.0433 9.9099 12.9941C9.9029 12.9807 9.89647 12.9671 9.89064 12.9531L8.48982 10.7468L7.089 12.9531C7.05968 13.0158 7.01831 13.072 6.96724 13.1187C6.91618 13.1654 6.85642 13.2015 6.79138 13.2251C6.72634 13.2487 6.65729 13.2592 6.58818 13.2561C6.51907 13.253 6.45125 13.2363 6.38859 13.207C6.32593 13.1777 6.26966 13.1363 6.22299 13.0853C6.17631 13.0342 6.14016 12.9744 6.11658 12.9094C6.093 12.8444 6.08247 12.7753 6.08558 12.7062C6.08868 12.6371 6.10537 12.5693 6.13469 12.5066L7.35165 8.67186L5.82826 9.8538C5.74656 9.92829 5.64393 9.97467 5.53531 9.98736C5.51145 9.99015 5.48729 9.99131 5.46301 9.99078C5.32819 9.98787 5.19965 9.93321 5.10401 9.83814C5.00838 9.74307 4.95297 9.61485 4.94926 9.48005C4.94554 9.34525 4.99382 9.21419 5.08408 9.11399L6.81759 6.88582C6.98291 6.72154 7.20615 6.62879 7.4392 6.62754H9.54043C9.65526 6.62779 9.76891 6.65073 9.87483 6.69506C9.98076 6.73938 10.0769 6.80421 10.1577 6.88582L11.8912 9.11399ZM4.05223 8.2689L5.76523 6.06709C5.80001 6.02239 5.8376 5.97995 5.87778 5.94002C6.29114 5.52927 6.84933 5.29735 7.43207 5.29423L7.4392 5.29419L9.54328 5.29421C9.83386 5.29483 10.1215 5.3529 10.3895 5.46506C10.6576 5.57723 10.9008 5.74129 11.1052 5.9478C11.1425 5.98544 11.1775 6.02528 11.21 6.06709L12.9342 8.28321C13.2188 8.63612 13.3648 9.08123 13.3441 9.53481C13.323 9.99795 13.1295 10.4365 12.8017 10.7643C12.54 11.026 12.2079 11.202 11.849 11.2732L12.0872 12.0268C12.1647 12.21 12.2123 12.4047 12.2281 12.6036C12.2479 12.8536 12.2169 13.1051 12.1369 13.3428C12.0569 13.5806 11.9297 13.7997 11.7628 13.9869C11.5959 14.1742 11.3929 14.3257 11.1659 14.4324C10.9389 14.5391 10.6926 14.5988 10.442 14.6078C10.1913 14.6168 9.94143 14.575 9.70736 14.4848C9.47329 14.3947 9.25988 14.2581 9.07999 14.0833C8.93546 13.9429 8.81496 13.7801 8.72296 13.6015L8.48982 13.2343L8.24642 13.6177C8.14784 13.7992 8.01959 13.9632 7.86675 14.1029C7.68644 14.2677 7.47543 14.3954 7.24578 14.4786C7.01612 14.5619 6.77232 14.5991 6.52829 14.5881C6.28427 14.5771 6.04479 14.5182 5.82353 14.4147C5.60227 14.3112 5.40358 14.1651 5.23878 13.9848C5.07398 13.8044 4.94632 13.5934 4.86307 13.3638C4.77982 13.1341 4.74262 12.8903 4.75359 12.6463C4.76286 12.4401 4.80637 12.2372 4.88208 12.0457L5.12176 11.2905C4.76156 11.2209 4.42748 11.0457 4.16399 10.7837C3.82561 10.4473 3.62956 9.9937 3.61643 9.51674C3.60387 9.06074 3.75945 8.61682 4.05223 8.2689Z" fill="#AFAFAF"/>
</g>
</svg>
