<svg width="17" height="16" viewBox="0 0 17 16" fill="none" xmlns="http://www.w3.org/2000/svg">
<mask id="mask0_1800_19961" style="mask-type:alpha" maskUnits="userSpaceOnUse" x="0" y="0" width="17" height="16">
<path d="M0.5 0H16.5V16H0.5V0Z" fill="#D9D9D9"/>
</mask>
<g mask="url(#mask0_1800_19961)">
<path fill-rule="evenodd" clip-rule="evenodd" d="M8.50016 6.91659C7.48764 6.91659 6.66683 7.7374 6.66683 8.74992C6.66683 9.76244 7.48764 10.5833 8.50016 10.5833C9.51268 10.5833 10.3335 9.76244 10.3335 8.74992C10.3335 7.7374 9.51268 6.91659 8.50016 6.91659ZM5.3335 8.74992C5.3335 7.00102 6.75126 5.58325 8.50016 5.58325C10.2491 5.58325 11.6668 7.00102 11.6668 8.74992C11.6668 10.4988 10.2491 11.9166 8.50016 11.9166C6.75126 11.9166 5.3335 10.4988 5.3335 8.74992Z" fill="#AFAFAF"/>
<path fill-rule="evenodd" clip-rule="evenodd" d="M8.49973 11.9183C7.87419 11.9183 7.26122 12.094 6.73066 12.4254C6.20009 12.7567 5.77326 13.2304 5.49879 13.7925C5.33724 14.1234 4.93806 14.2606 4.60721 14.0991C4.27636 13.9375 4.13911 13.5384 4.30066 13.2075C4.68472 12.421 5.28196 11.7581 6.02435 11.2945C6.76675 10.8308 7.62444 10.585 8.49973 10.585C9.37502 10.585 10.2327 10.8308 10.9751 11.2945C11.7175 11.7581 12.3147 12.421 12.6988 13.2075C12.8603 13.5384 12.7231 13.9375 12.3922 14.0991C12.0614 14.2606 11.6622 14.1234 11.5007 13.7925C11.2262 13.2304 10.7994 12.7567 10.2688 12.4254C9.73823 12.094 9.12527 11.9183 8.49973 11.9183Z" fill="#AFAFAF"/>
<path fill-rule="evenodd" clip-rule="evenodd" d="M12.6216 7.19241C12.6741 6.82797 13.012 6.57505 13.3764 6.62749C14.5351 6.79421 15.5805 7.41347 16.2834 8.34955C16.5044 8.64398 16.445 9.06188 16.1506 9.28296C15.8561 9.50405 15.4382 9.44459 15.2171 9.15016C14.7261 8.49627 13.9959 8.06369 13.1866 7.94723C12.8221 7.89479 12.5692 7.55685 12.6216 7.19241Z" fill="#AFAFAF"/>
<path fill-rule="evenodd" clip-rule="evenodd" d="M13.2428 4.01358C13.0348 3.93041 12.8092 3.901 12.5868 3.92806C12.3644 3.95512 12.1524 4.03779 11.9704 4.16843C11.7883 4.29907 11.6422 4.47346 11.5454 4.67551C11.3863 5.00755 10.9882 5.14776 10.6561 4.98867C10.3241 4.82958 10.1839 4.43144 10.3429 4.09939C10.5366 3.6953 10.8289 3.34651 11.1929 3.08523C11.5569 2.82396 11.9809 2.65862 12.4257 2.60449C12.8705 2.55036 13.3218 2.60919 13.7378 2.77553C14.1539 2.94188 14.5213 3.21038 14.8062 3.55625C15.091 3.90211 15.2842 4.31418 15.3677 4.7544C15.4513 5.19462 15.4225 5.6488 15.2842 6.07499C15.1459 6.50117 14.9023 6.88563 14.5762 7.19284C14.25 7.50005 13.8516 7.72012 13.4179 7.83272C13.0616 7.92525 12.6977 7.71135 12.6051 7.35498C12.5126 6.9986 12.7265 6.6347 13.0829 6.54218C13.2997 6.48588 13.4989 6.37584 13.662 6.22223C13.8251 6.06863 13.9468 5.8764 14.016 5.66331C14.0852 5.45021 14.0996 5.22313 14.0578 5.00302C14.016 4.78291 13.9194 4.57687 13.777 4.40394C13.6346 4.23101 13.4508 4.09675 13.2428 4.01358Z" fill="#AFAFAF"/>
<path fill-rule="evenodd" clip-rule="evenodd" d="M4.41367 3.92806C4.19127 3.901 3.96564 3.93041 3.75761 4.01358C3.54958 4.09675 3.36587 4.23101 3.22343 4.40394C3.08099 4.57687 2.98443 4.78291 2.94265 5.00302C2.90088 5.22313 2.91524 5.45021 2.98442 5.66331C3.05359 5.8764 3.17535 6.06863 3.33844 6.22223C3.50153 6.37584 3.7007 6.48588 3.91755 6.54218C4.27392 6.6347 4.48781 6.9986 4.39529 7.35498C4.30277 7.71135 3.93886 7.92525 3.58249 7.83272C3.14879 7.72012 2.75045 7.50005 2.42427 7.19284C2.09809 6.88563 1.85458 6.50117 1.71623 6.07499C1.57788 5.6488 1.54916 5.19462 1.6327 4.7544C1.71625 4.31418 1.90938 3.90211 2.19426 3.55625C2.47913 3.21038 2.84656 2.94188 3.26262 2.77553C3.67868 2.60919 4.12994 2.55036 4.57474 2.60449C5.01954 2.65862 5.44353 2.82396 5.80755 3.08523C6.17156 3.34651 6.46388 3.6953 6.65749 4.09939C6.81658 4.43144 6.67637 4.82958 6.34433 4.98867C6.01228 5.14776 5.61414 5.00755 5.45505 4.67551C5.35824 4.47346 5.21208 4.29907 5.03007 4.16843C4.84807 4.03779 4.63607 3.95512 4.41367 3.92806Z" fill="#AFAFAF"/>
<path fill-rule="evenodd" clip-rule="evenodd" d="M4.37882 7.19241C4.43126 7.55685 4.17834 7.89479 3.8139 7.94723C3.00452 8.06369 2.27431 8.49627 1.78331 9.15016C1.56223 9.44459 1.14432 9.50405 0.849898 9.28296C0.555472 9.06188 0.496015 8.64398 0.717096 8.34955C1.42 7.41347 2.46533 6.79421 3.624 6.62749C3.98844 6.57505 4.32639 6.82797 4.37882 7.19241Z" fill="#AFAFAF"/>
</g>
</svg>
