<svg width="13" height="14" viewBox="0 0 13 14" fill="none" xmlns="http://www.w3.org/2000/svg">
<g id="Group 25407">
<path id="&#240;&#159;&#146;&#156; Icon/Bold/Vector (Stroke)" fill-rule="evenodd" clip-rule="evenodd" d="M1.33333 1.71029V5.21237C1.33333 9.8935 5.21272 11.5157 6.16667 11.8428C7.12061 11.5157 11 9.8935 11 5.21237V1.71029H1.33333ZM0.341709 0.718662C0.560501 0.49987 0.857247 0.376953 1.16667 0.376953H11.1667C11.4761 0.376953 11.7728 0.499869 11.9916 0.718662C12.2104 0.937455 12.3333 1.2342 12.3333 1.54362V5.21237C12.3333 10.9202 7.48661 12.8089 6.54135 13.1235C6.29903 13.2099 6.03431 13.2099 5.79199 13.1235C4.84672 12.8089 0 10.9202 0 5.21237V1.54362C0 1.2342 0.122917 0.937454 0.341709 0.718662Z" fill="#AFAFAF"/>
<path id="&#240;&#159;&#146;&#156; Icon/Bold/Vector (Stroke)_2" fill-rule="evenodd" clip-rule="evenodd" d="M9.3992 4.27289C9.65335 4.5393 9.64341 4.96129 9.37701 5.21544L6.10519 8.33677C5.84745 8.58266 5.44195 8.58248 5.18442 8.33638L3.55129 6.77571C3.2851 6.52134 3.27553 6.09934 3.52991 5.83315C3.78428 5.56696 4.20629 5.55739 4.47247 5.81176L5.6454 6.93265L8.45665 4.25071C8.72305 3.99656 9.14505 4.00649 9.3992 4.27289Z" fill="#AFAFAF"/>
</g>
</svg>
