<svg width="16" height="16" viewBox="0 0 16 16" fill="none" xmlns="http://www.w3.org/2000/svg">
<path fill-rule="evenodd" clip-rule="evenodd" d="M8.00016 1.33325C8.36835 1.33325 8.66683 1.63173 8.66683 1.99992V7.99992C8.66683 8.36811 8.36835 8.66659 8.00016 8.66659C7.63197 8.66659 7.3335 8.36811 7.3335 7.99992V1.99992C7.3335 1.63173 7.63197 1.33325 8.00016 1.33325Z" fill="#AFAFAF"/>
<path fill-rule="evenodd" clip-rule="evenodd" d="M13.7707 4.66658C13.9549 4.98541 13.8457 5.39315 13.5269 5.57731L3.13939 11.5773C2.82056 11.7615 2.41281 11.6523 2.22865 11.3335C2.0445 11.0147 2.15366 10.6069 2.47249 10.4227L12.86 4.42275C13.1788 4.23859 13.5866 4.34776 13.7707 4.66658Z" fill="#AFAFAF"/>
<path fill-rule="evenodd" clip-rule="evenodd" d="M7.3338 1.99984C7.33384 1.63165 7.63235 1.33321 8.00054 1.33325C9.16871 1.33338 10.3163 1.64046 11.3285 2.22373C12.3406 2.807 13.1817 3.64599 13.7675 4.65664C14.3534 5.6673 14.6633 6.81415 14.6664 7.98231C14.6695 9.15047 14.3656 10.2989 13.7851 11.3127C13.2046 12.3264 12.368 13.1698 11.3589 13.7584C10.3499 14.347 9.20391 14.6602 8.03576 14.6665C6.8676 14.6728 5.7183 14.372 4.70297 13.7944C3.68764 13.2167 2.84193 12.3823 2.25054 11.3749C2.06414 11.0574 2.17044 10.6489 2.48796 10.4625C2.80549 10.2761 3.21399 10.3824 3.40039 10.6999C3.8735 11.5058 4.55007 12.1733 5.36233 12.6355C6.1746 13.0976 7.09404 13.3382 8.02856 13.3332C8.96308 13.3281 9.87988 13.0776 10.6871 12.6067C11.4943 12.1358 12.1637 11.4611 12.628 10.6501C13.0924 9.83914 13.3356 8.92036 13.3331 7.98583C13.3306 7.0513 13.0826 6.13382 12.614 5.3253C12.1453 4.51677 11.4724 3.84559 10.6627 3.37897C9.85303 2.91236 8.93492 2.66669 8.00039 2.66659C7.6322 2.66654 7.33376 2.36803 7.3338 1.99984Z" fill="#AFAFAF"/>
<path fill-rule="evenodd" clip-rule="evenodd" d="M6.63498 6.3253C6.63498 6.7258 6.42147 7.09592 6.07479 7.29644L3.15615 8.98452C2.82428 9.17646 2.41738 9.18565 2.07719 9.00888C1.737 8.83212 1.51062 8.49387 1.47693 8.11198C1.45932 7.9125 1.4463 7.6991 1.44629 7.47733M2.59446 8.01338L5.5131 6.3253V2.88604C5.1077 3.07186 4.73084 3.30956 4.39122 3.59161C3.99449 3.9211 3.64856 4.31109 3.36728 4.74958C2.98668 5.34291 2.73613 6.00683 2.62842 6.69772C2.58839 6.9545 2.56808 7.21499 2.56817 7.47698C2.56817 7.65578 2.57869 7.83458 2.59446 8.01338ZM1.44629 7.47733C1.44598 6.29569 1.78498 5.13845 2.42299 4.14384C3.06106 3.14914 3.97135 2.35859 5.04565 1.86619C5.39297 1.70699 5.79743 1.7355 6.11898 1.94184C6.44054 2.14818 6.63498 2.50398 6.63498 2.88604V6.3253" fill="#AFAFAF"/>
</svg>
