<svg width="17" height="16" viewBox="0 0 17 16" fill="none" xmlns="http://www.w3.org/2000/svg">
<mask id="mask0_1800_3226" style="mask-type:alpha" maskUnits="userSpaceOnUse" x="0" y="0" width="17" height="16">
<path d="M0.5 0H16.5V16H0.5V0Z" fill="#D9D9D9"/>
</mask>
<g mask="url(#mask0_1800_3226)">
<path fill-rule="evenodd" clip-rule="evenodd" d="M5.01231 5.32339C5.24802 5.60624 5.2098 6.02662 4.92695 6.26233L2.54153 8.25018L4.92695 10.238C5.2098 10.4737 5.24802 10.8941 5.01231 11.177C4.7766 11.4598 4.35622 11.498 4.07337 11.2623L1.07337 8.76233C0.921378 8.63566 0.833496 8.44803 0.833496 8.25018C0.833496 8.05233 0.921378 7.86469 1.07337 7.73803L4.07337 5.23803C4.35622 5.00232 4.7766 5.04054 5.01231 5.32339Z" fill="#AFAFAF"/>
<path fill-rule="evenodd" clip-rule="evenodd" d="M11.988 5.32339C12.2237 5.04054 12.6441 5.00232 12.927 5.23803L15.927 7.73803C16.079 7.86469 16.1668 8.05233 16.1668 8.25018C16.1668 8.44803 16.079 8.63566 15.927 8.76233L12.927 11.2623C12.6441 11.498 12.2237 11.4598 11.988 11.177C11.7523 10.8941 11.7905 10.4737 12.0734 10.238L14.4588 8.25018L12.0734 6.26233C11.7905 6.02662 11.7523 5.60624 11.988 5.32339Z" fill="#AFAFAF"/>
<path fill-rule="evenodd" clip-rule="evenodd" d="M10.7282 2.12357C11.0742 2.2494 11.2527 2.63191 11.1269 2.97793L7.12687 13.9779C7.00105 14.324 6.61854 14.5025 6.27252 14.3766C5.92649 14.2508 5.74799 13.8683 5.87382 13.5223L9.87382 2.52227C9.99964 2.17625 10.3822 1.99774 10.7282 2.12357Z" fill="#AFAFAF"/>
</g>
</svg>
