<svg width="16" height="17" viewBox="0 0 16 17" fill="none" xmlns="http://www.w3.org/2000/svg">
<mask id="mask0_1800_19351" style="mask-type:alpha" maskUnits="userSpaceOnUse" x="0" y="0" width="16" height="17">
<path d="M0 0.0437012H16V16.0437H0V0.0437012Z" fill="#D9D9D9"/>
</mask>
<g mask="url(#mask0_1800_19351)">
<path d="M4.52131 4.21194C4.3184 4.41924 4.20172 4.69581 4.1948 4.98581C4.19937 5.14993 4.23811 5.31128 4.30854 5.45959C4.37896 5.60789 4.47949 5.73989 4.60378 5.84715L4.5205 5.93045C4.32061 6.13776 4.20663 6.41306 4.20146 6.70099C4.20146 7.81306 5.95077 8.56111 8.2349 8.56111C10.519 8.56111 12.27 7.8114 12.27 6.70182L12.2658 6.61019C12.2356 6.35659 12.1236 6.11973 11.9468 5.93545L11.8752 5.86798L11.861 5.85132H11.8493L11.8694 5.83382C11.9891 5.72681 12.0856 5.59645 12.153 5.45077C12.2205 5.30508 12.2575 5.14714 12.2617 4.98665L12.2575 4.89585C12.2279 4.64206 12.1159 4.405 11.9385 4.22111L11.8668 4.1453L11.8502 4.12864C11.9782 4.02028 12.082 3.88617 12.1548 3.73504C12.2275 3.58391 12.2676 3.41915 12.2725 3.25148C12.2725 2.12941 10.5157 1.3772 8.22992 1.3772C5.94412 1.3772 4.18311 2.12691 4.18311 3.24648C4.18842 3.41418 4.22874 3.57892 4.30147 3.73012C4.3742 3.88132 4.47776 4.01565 4.60546 4.12448L4.52131 4.21194ZM8.23322 7.69644C6.47806 7.69644 5.06778 7.14499 5.06778 6.70682C5.06645 6.66029 5.07719 6.6142 5.09894 6.57304C5.12069 6.53187 5.15269 6.49704 5.19188 6.47191L5.20022 6.46525L5.20856 6.45692V6.44359L5.21441 6.44942L5.25356 6.40027C5.26541 6.38273 5.27596 6.36435 5.28518 6.34529L5.29855 6.30614L5.43349 6.36612C6.27909 6.69093 7.17835 6.85343 8.08415 6.8451H8.37985C9.32195 6.85657 10.2567 6.67867 11.1288 6.32197L11.2737 6.46858L11.3104 6.51023C11.3602 6.56463 11.3914 6.63349 11.3995 6.70682C11.3987 7.14499 9.98838 7.69644 8.23322 7.69644ZM8.08832 2.26852H8.3707C10.0534 2.29684 11.3853 2.82581 11.3853 3.24731C11.3853 3.66882 9.97841 4.22611 8.22992 4.22611C6.48142 4.22611 5.07362 3.67965 5.07362 3.24731C5.07362 2.81498 6.4048 2.29684 8.08832 2.26852ZM5.06361 4.95166C5.07014 4.88997 5.09996 4.83308 5.14694 4.79255L5.17943 4.76173L5.19356 4.75007L5.20439 4.73924V4.72591L5.21105 4.73091L5.2502 4.68176C5.26219 4.6646 5.2728 4.64649 5.28188 4.62762L5.30018 4.5793C6.22821 4.96426 7.22731 5.14823 8.23159 5.1191C9.21838 5.14555 10.2 4.96861 11.1155 4.5993L11.2654 4.7509L11.3029 4.79255C11.3526 4.84705 11.3838 4.91586 11.392 4.98915C11.392 5.42814 9.98172 5.9796 8.22656 5.9796C6.4714 5.9796 5.06112 5.42814 5.06112 4.98915L5.06361 4.95166Z" fill="#AFAFAF"/>
<path fill-rule="evenodd" clip-rule="evenodd" d="M5.28058 1.73999C6.03447 1.40003 7.07131 1.21045 8.22967 1.21045C9.38809 1.21045 10.424 1.40067 11.1769 1.74166C11.9219 2.07908 12.4389 2.59048 12.4389 3.2514V3.25623C12.4334 3.44729 12.3876 3.63504 12.3047 3.80726C12.2473 3.92635 12.1731 4.03617 12.0845 4.13343C12.272 4.33939 12.3905 4.5992 12.4228 4.87648L12.4235 4.88229L12.4282 4.98493L12.428 4.99094C12.4232 5.17414 12.381 5.35443 12.304 5.52073C12.2491 5.6392 12.1775 5.74881 12.0913 5.84623C12.2791 6.05265 12.398 6.31273 12.4311 6.59039L12.4318 6.59645L12.4366 6.70174C12.4366 7.35696 11.9201 7.86446 11.1773 8.19941C10.4261 8.53811 9.39221 8.7277 8.23466 8.7277C7.07715 8.7277 6.04363 8.53854 5.29287 8.19993C4.55022 7.86497 4.03455 7.35721 4.03455 6.70091V6.69792C4.04019 6.38349 4.15907 6.0822 4.36843 5.84893C4.28368 5.75369 4.21268 5.64669 4.15774 5.531C4.07738 5.36177 4.03318 5.17765 4.02796 4.99038L4.02772 4.98175C4.03528 4.66482 4.15751 4.36189 4.37056 4.1285C4.28229 4.03111 4.20828 3.92129 4.15103 3.80229C4.06823 3.63015 4.02233 3.4426 4.01628 3.25168L4.01611 3.2464C4.01611 2.58632 4.53483 2.07628 5.28058 1.73999ZM4.63923 6.0471C4.46955 6.22361 4.37266 6.45761 4.36789 6.7024C4.36867 7.1576 4.72764 7.57933 5.42991 7.89607C6.12483 8.2095 7.10804 8.39436 8.23466 8.39436C9.36122 8.39436 10.3449 8.20909 11.0403 7.89554C11.7421 7.57909 12.1012 7.15834 12.1031 6.70536L12.0994 6.62401C12.0726 6.40991 11.9779 6.21001 11.8291 6.0537L11.7911 6.0179H11.4049L11.7587 5.70886C11.8611 5.61713 11.9437 5.50545 12.0015 5.38065C12.0587 5.25733 12.0903 5.12377 12.0947 4.98798L12.0911 4.90947C12.0647 4.69406 11.969 4.493 11.8183 4.33674L11.8171 4.33551L11.747 4.26134L11.6042 4.11822L11.7423 4.00134C11.8524 3.90811 11.9417 3.79271 12.0043 3.66265C12.0666 3.53334 12.1011 3.39243 12.1056 3.24899C12.1043 2.78876 11.743 2.36395 11.0394 2.0453C10.3424 1.72967 9.35705 1.54378 8.22967 1.54378C7.10224 1.54378 6.11568 1.72906 5.41761 2.04385C4.71275 2.3617 4.35091 2.78529 4.34953 3.24377C4.35445 3.38734 4.38914 3.52833 4.45142 3.65779C4.51408 3.78805 4.6033 3.90378 4.71332 3.99755L4.84806 4.11237L4.64018 4.32845C4.4678 4.50455 4.36825 4.73916 4.36129 4.98541C4.36577 5.12487 4.39898 5.26193 4.45885 5.38801C4.51934 5.51541 4.60569 5.62878 4.71243 5.72089L4.84821 5.83807L4.63923 6.0471ZM8.08808 2.10177H8.37326C9.22983 2.11619 10.0013 2.25793 10.5634 2.45293C10.8436 2.55012 11.0792 2.66309 11.2484 2.7854C11.4071 2.9002 11.5518 3.05585 11.5518 3.24723C11.5518 3.34743 11.51 3.43671 11.4543 3.51062C11.3985 3.58465 11.322 3.65256 11.2336 3.7145C11.0566 3.83844 10.8099 3.95378 10.5163 4.05265C9.92718 4.25098 9.12018 4.39269 8.22967 4.39269C7.33955 4.39269 6.53242 4.2538 5.94302 4.05683C5.64921 3.95864 5.40211 3.84359 5.2248 3.71889C5.059 3.60229 4.90671 3.44344 4.90671 3.24723C4.90671 3.05425 5.04972 2.89733 5.2097 2.78107C5.37909 2.65796 5.61494 2.54526 5.89513 2.44875C6.45733 2.2551 7.2287 2.11621 8.08527 2.1018L8.08808 2.10177ZM8.08948 2.43511C7.2631 2.44915 6.52766 2.58343 6.00369 2.76391C5.74064 2.85452 5.53848 2.95418 5.40567 3.05071C5.26344 3.15408 5.24005 3.22405 5.24005 3.24723C5.24005 3.26719 5.26374 3.33877 5.41654 3.44623C5.55783 3.54559 5.77196 3.64821 6.04867 3.74068C6.60028 3.92502 7.3713 4.05936 8.22967 4.05936C9.08766 4.05936 9.85838 3.92243 10.4099 3.73674C10.6865 3.6436 10.9008 3.54058 11.0423 3.44148C11.1131 3.3919 11.1602 3.34712 11.1881 3.31C11.2162 3.27275 11.2184 3.25241 11.2184 3.24723C11.2184 3.22787 11.1966 3.15933 11.053 3.05551C10.9199 2.95921 10.7173 2.85914 10.4542 2.76786C9.92997 2.58602 9.19461 2.44914 8.36905 2.43511H8.08948ZM5.20499 4.3594L5.3638 4.42528C6.27008 4.80121 7.24577 4.98087 8.22652 4.95242L8.23582 4.95215C9.19974 4.97799 10.1586 4.80541 11.0529 4.44465L11.1557 4.40315L11.3892 4.63923L11.4258 4.68018C11.4257 4.68003 11.4259 4.68033 11.4258 4.68018C11.4989 4.76058 11.5452 4.86243 11.5574 4.97043L11.5584 4.97972V4.98906C11.5584 5.18604 11.4073 5.34641 11.2405 5.46489C11.0628 5.59117 10.8151 5.70758 10.5204 5.80686C9.92942 6.00602 9.11986 6.14619 8.22632 6.14619C7.33278 6.14619 6.52322 6.00602 5.93219 5.80686C5.63757 5.70758 5.38984 5.59117 5.21212 5.46489C5.04538 5.34641 4.89421 5.18604 4.89421 4.98906V4.98353L4.8975 4.93401C4.90835 4.83161 4.9574 4.73715 5.03448 4.66919L5.03748 4.66635V4.39237L5.15818 4.48295L5.20499 4.3594ZM5.23194 4.95507C5.23079 4.95889 5.22993 4.96281 5.22939 4.9668L5.22769 4.99231C5.22998 5.01805 5.25931 5.08951 5.40519 5.19316C5.54675 5.29375 5.76129 5.39752 6.03863 5.49098C6.59154 5.67729 7.3647 5.81285 8.22632 5.81285C9.08794 5.81285 9.8611 5.67729 10.414 5.49098C10.6913 5.39752 10.9059 5.29375 11.0474 5.19316C11.1867 5.09422 11.2198 5.02461 11.2245 4.99609C11.2184 4.96209 11.2028 4.9304 11.1795 4.90476L11.1787 4.90395L11.1439 4.86522L11.0741 4.79463C10.1686 5.14411 9.20252 5.31116 8.23154 5.28575C7.25588 5.31343 6.2851 5.1446 5.37687 4.78986L5.37082 4.79746V4.8082L5.32877 4.85024L5.24028 4.96133L5.23194 4.95507ZM5.16902 6.16894L5.19949 6.07975L5.497 6.21198C6.32188 6.52827 7.19894 6.68649 8.08237 6.67836L8.08391 6.67835L8.38164 6.67835C9.30142 6.68955 10.2141 6.51588 11.0654 6.16763L11.1687 6.12541L11.3954 6.35476L11.4343 6.39892C11.5073 6.47922 11.5531 6.58058 11.565 6.68849L11.566 6.69774L11.566 6.70706C11.5656 6.90378 11.4142 7.06388 11.2474 7.18216C11.0696 7.30828 10.8219 7.42459 10.5272 7.52382C9.93608 7.72286 9.12652 7.86303 8.23298 7.86303C7.33944 7.86303 6.52989 7.72286 5.93887 7.52381C5.64426 7.42459 5.39655 7.30827 5.21884 7.18213C5.05288 7.06432 4.90211 6.90493 4.90088 6.70917C4.89915 6.63465 4.91654 6.56096 4.95134 6.49509C4.97463 6.45101 5.00522 6.41139 5.04165 6.37784V6.04191L5.16902 6.16894ZM5.23437 6.69147C5.23411 6.69496 5.23403 6.69847 5.23413 6.70199L5.23427 6.70674C5.23427 6.72895 5.25916 6.80197 5.41179 6.91031C5.55336 7.0108 5.76791 7.1145 6.04527 7.20791C6.59819 7.39413 7.37136 7.52969 8.23298 7.52969C9.09459 7.52969 9.86778 7.39413 10.4208 7.20791C10.6982 7.1145 10.9129 7.01079 11.0546 6.91028C11.194 6.81137 11.2272 6.74181 11.232 6.71342C11.226 6.67963 11.2105 6.64814 11.1873 6.62273L11.185 6.62028L11.1516 6.58224L11.0878 6.5177C10.2252 6.85498 9.30536 7.02284 8.37858 7.01169H8.08467C7.15872 7.02011 6.23946 6.85405 5.37499 6.5222V6.52592L5.33218 6.56868L5.23437 6.69147Z" fill="#AFAFAF"/>
<path d="M13.3006 10.63L10.8465 11.43C10.8574 11.3727 10.8635 11.3143 10.8635 11.255C10.8635 10.7106 10.3964 10.2677 9.8222 10.2677H8.13644C8.0917 10.2677 8.04757 10.2568 8.00862 10.236L6.63331 9.50256C6.3614 9.35726 6.05237 9.28041 5.73969 9.28041H3.89427C3.78689 8.99319 3.49749 8.78687 3.15816 8.78687H1.59626C1.45247 8.78687 1.33594 8.89736 1.33594 9.03369V13.4764C1.33594 13.6127 1.45247 13.7232 1.59626 13.7232H3.15816C3.48976 13.7232 3.77408 13.5257 3.88695 13.2482C4.18164 13.2829 4.5226 13.3655 4.73685 13.4874L6.09823 14.2619C6.61399 14.5554 7.20448 14.7105 7.80606 14.7105C8.28277 14.7105 8.74463 14.6156 9.17893 14.4286L14.0376 12.4001C14.5758 12.1931 14.8415 11.581 14.5339 11.0414C14.3076 10.6444 13.7777 10.4678 13.3006 10.63ZM3.41848 12.9839C3.41787 13.1195 3.30124 13.2296 3.15816 13.2296H1.85657V9.28051H3.15816C3.30164 9.28051 3.41848 9.3912 3.41848 9.52733V12.9839ZM13.8398 11.9436C13.8371 11.9446 13.8344 11.9457 13.8316 11.9468C13.8316 11.9468 8.9657 13.9782 8.96478 13.9786C8.5982 14.1368 8.20833 14.2169 7.80606 14.2169C7.29885 14.2169 6.80099 14.0861 6.36618 13.8386L5.00469 13.0641C4.71326 12.8984 4.29594 12.7974 3.93912 12.7569V9.77416H5.73969C5.96299 9.77416 6.18365 9.82892 6.37797 9.93276L7.75329 10.6662C7.86982 10.7285 8.00242 10.7614 8.13644 10.7614H9.8222C10.1093 10.7614 10.3428 10.9828 10.3428 11.2551C10.3428 11.5263 10.1092 11.7487 9.8222 11.7487H7.17591C7.03212 11.7487 6.91559 11.8592 6.91559 11.9956C6.91559 12.1318 7.03212 12.2423 7.17591 12.2423H9.8222C9.99294 12.2423 10.161 12.2021 10.3102 12.1267C10.3102 12.1267 13.4742 11.0954 13.4754 11.095C13.7087 11.0152 13.9724 11.0947 14.0759 11.2761C14.2309 11.5481 14.1027 11.8438 13.8398 11.9436Z" fill="#AFAFAF"/>
<path fill-rule="evenodd" clip-rule="evenodd" d="M1.00244 9.03353C1.00244 8.6966 1.28515 8.45337 1.59609 8.45337H3.158C3.54564 8.45337 3.89476 8.64634 4.09536 8.94692H5.73952C6.10622 8.94692 6.46931 9.03691 6.79024 9.2084L8.15127 9.93421H9.82204C10.4675 9.93421 11.031 10.3706 11.166 10.975L13.1953 10.3136C13.8005 10.1088 14.507 10.3212 14.8233 10.8762C15.2398 11.6067 14.8705 12.4336 14.1618 12.7092L9.30889 14.7353C8.83312 14.94 8.32696 15.0437 7.8059 15.0437C7.14735 15.0437 6.49994 14.8739 5.93324 14.5515M5.93324 14.5515L4.57188 13.777C4.57187 13.777 4.57189 13.777 4.57188 13.777C4.45475 13.7104 4.26441 13.6513 4.06025 13.612C3.8555 13.8842 3.524 14.0564 3.158 14.0564H1.59609C1.28515 14.0564 1.00244 13.8132 1.00244 13.4762V9.03353M13.3004 10.6298L13.3509 10.7848L13.3529 10.7842L13.3004 10.6298ZM13.898 12.097L13.8397 11.9434L13.8905 12.0881L13.8948 12.0983L13.898 12.097ZM10.2575 11.9654C10.2575 11.9654 10.2575 11.9654 10.2575 11.9654V11.9654ZM10.4359 12.4361C10.2461 12.5274 10.0354 12.5755 9.82204 12.5755H7.17574C6.86489 12.5755 6.58209 12.3323 6.58209 11.9954C6.58209 11.6585 6.86481 11.4152 7.17574 11.4152H9.82204C9.94146 11.4152 10.0093 11.3259 10.0093 11.2549C10.0093 11.1833 9.94199 11.0946 9.82204 11.0946H8.13628C7.94828 11.0946 7.76165 11.0485 7.5961 10.9601C7.59607 10.96 7.59614 10.9601 7.5961 10.9601L6.22096 10.2267C6.07574 10.1491 5.9089 10.1073 5.73952 10.1073H4.27229V12.4701C4.5801 12.5279 4.9088 12.6261 5.16931 12.7742L6.53083 13.5487C6.91465 13.7672 7.35564 13.8834 7.8059 13.8834C8.16315 13.8834 8.50806 13.8124 8.8326 13.6724L8.83517 13.6713L13.7028 11.6391L13.7113 11.6356L13.7131 11.635C13.7149 11.6343 13.7184 11.6329 13.723 11.6312C13.7672 11.6139 13.7921 11.5841 13.8026 11.5564C13.8121 11.5314 13.8158 11.4931 13.7861 11.4411C13.785 11.439 13.7715 11.4197 13.728 11.4066C13.6856 11.3938 13.6327 11.3933 13.5832 11.4103L13.5757 11.4128C13.5767 11.4125 13.1587 11.5486 12.6253 11.7225L10.4359 12.4361ZM2.18974 9.61368V12.8961H3.08499V9.61368H2.18974Z" fill="#AFAFAF"/>
</g>
</svg>
