<svg width="17" height="17" viewBox="0 0 17 17" fill="none" xmlns="http://www.w3.org/2000/svg">
<g id="icon">
<path id="&#240;&#159;&#146;&#156; Icon/Bold/Vector (Stroke)" fill-rule="evenodd" clip-rule="evenodd" d="M2.83333 4.96029V12.627H13.5V4.96029H2.83333ZM1.5 4.79362C1.5 4.14929 2.02233 3.62695 2.66667 3.62695H13.6667C14.311 3.62695 14.8333 4.14929 14.8333 4.79362V12.7936C14.8333 13.438 14.311 13.9603 13.6667 13.9603H2.66667C2.02233 13.9603 1.5 13.438 1.5 12.7936V4.79362Z" fill="#AFAFAF"/>
<path id="&#240;&#159;&#146;&#156; Icon/Bold/Vector (Stroke)_2" fill-rule="evenodd" clip-rule="evenodd" d="M5.48816 1.86511C5.80072 1.55255 6.22464 1.37695 6.66667 1.37695H9.66667C10.1087 1.37695 10.5326 1.55255 10.8452 1.86511C11.1577 2.17767 11.3333 2.60159 11.3333 3.04362V4.29362C11.3333 4.66181 11.0349 4.96029 10.6667 4.96029C10.2985 4.96029 10 4.66181 10 4.29362V3.04362C10 2.95521 9.96488 2.87043 9.90237 2.80792C9.83986 2.74541 9.75507 2.71029 9.66667 2.71029H6.66667C6.57826 2.71029 6.49348 2.74541 6.43096 2.80792C6.36845 2.87043 6.33333 2.95521 6.33333 3.04362V4.29362C6.33333 4.66181 6.03486 4.96029 5.66667 4.96029C5.29848 4.96029 5 4.66181 5 4.29362V3.04362C5 2.60159 5.1756 2.17767 5.48816 1.86511Z" fill="#AFAFAF"/>
<path id="&#240;&#159;&#146;&#156; Icon/Bold/Vector (Stroke)_3" fill-rule="evenodd" clip-rule="evenodd" d="M14.7434 7.35377C14.9277 7.67249 14.8188 8.0803 14.5 8.26463C12.5752 9.37787 10.3904 9.96287 8.16676 9.96045C5.94213 9.96601 3.75592 9.38063 1.83171 8.26416C1.51325 8.07938 1.40488 7.67142 1.58966 7.35295C1.77444 7.03449 2.1824 6.92612 2.50086 7.1109C4.22114 8.10904 6.17568 8.63229 8.16455 8.62712L8.16708 8.62711C10.1562 8.62948 12.1106 8.10626 13.8325 7.11043C14.1513 6.9261 14.5591 7.03504 14.7434 7.35377Z" fill="#AFAFAF"/>
<path id="&#240;&#159;&#146;&#156; Icon/Bold/Vector (Stroke)_4" fill-rule="evenodd" clip-rule="evenodd" d="M6.75 7.04362C6.75 6.67543 7.04848 6.37695 7.41667 6.37695H8.91667C9.28486 6.37695 9.58333 6.67543 9.58333 7.04362C9.58333 7.41181 9.28486 7.71029 8.91667 7.71029H7.41667C7.04848 7.71029 6.75 7.41181 6.75 7.04362Z" fill="#AFAFAF"/>
</g>
</svg>
