<svg viewBox="0 0 23 23" fill="none" xmlns="http://www.w3.org/2000/svg">
<path d="M6.58333 18.7355H9.91667C9.91667 19.6522 9.16667 20.4022 8.25 20.4022C7.33333 20.4022 6.58333 19.6522 6.58333 18.7355ZM4.91667 17.9022H11.5833V16.2355H4.91667V17.9022ZM14.5 9.98551C14.5 13.1688 12.2833 14.8688 11.3583 15.4022H5.14167C4.21667 14.8688 2 13.1688 2 9.98551C2 6.53551 4.8 3.73551 8.25 3.73551C11.7 3.73551 14.5 6.53551 14.5 9.98551ZM12.8333 9.98551C12.8333 7.46051 10.775 5.40218 8.25 5.40218C5.725 5.40218 3.66667 7.46051 3.66667 9.98551C3.66667 12.0438 4.90833 13.2272 5.625 13.7355H10.875C11.5917 13.2272 12.8333 12.0438 12.8333 9.98551ZM18.5583 8.21051L17.4167 8.73551L18.5583 9.26051L19.0833 10.4022L19.6083 9.26051L20.75 8.73551L19.6083 8.21051L19.0833 7.06885L18.5583 8.21051ZM16.5833 7.06885L17.3667 5.35218L19.0833 4.56885L17.3667 3.78551L16.5833 2.06885L15.8 3.78551L14.0833 4.56885L15.8 5.35218L16.5833 7.06885Z" fill="#007FFF"/>
</svg>
