<svg width="15" height="15" viewBox="0 0 15 15" fill="none" xmlns="http://www.w3.org/2000/svg">
<path id="Vector" d="M14.2256 4.09702C13.6607 2.9882 12.8105 2.05 11.7625 1.37905C10.7145 0.708106 9.50653 0.328665 8.26309 0.279811C7.01965 0.230958 5.78566 0.514459 4.68823 1.10111C3.59079 1.68777 2.66958 2.55637 2.01948 3.61745C1.36937 4.67854 1.01388 5.89374 0.989613 7.1379C0.965345 8.38206 1.27318 9.61021 1.88141 10.6958C2.48964 11.7815 3.37628 12.6853 4.45 13.3143C5.52373 13.9433 6.74572 14.2747 7.99012 14.2744H13.9872C14.5395 14.2744 14.9872 13.8267 14.9872 13.2744V7.27736C14.9883 6.17195 14.7273 5.08201 14.2256 4.09702Z" fill="#AFAFAF"/>
</svg>
