<svg viewBox="0 0 264 95" fill="none" xmlns="http://www.w3.org/2000/svg">
<g clip-path="url(#clip0_2053_9165)">
<path d="M79.2574 79.2229V52.1229L49.6658 53.9414L46.9342 42.8086L19.6838 53.4535L14.481 52.4777C14.481 53.4091 14.481 79.0899 14.481 79.4004C14.509 79.7203 14.6548 80.0302 14.9049 80.3015C15.155 80.5728 15.5012 80.7968 15.9118 80.9527L43.3573 91.775C44.5062 92.2223 45.8063 92.4576 47.1293 92.4576C48.4523 92.4576 49.7525 92.2223 50.9015 91.775L78.7372 80.864C79.166 80.6961 79.5269 80.4583 79.7879 80.1719C80.049 79.8855 80.2019 79.5595 80.2329 79.2229H79.2574Z" fill="#5047BA"/>
<path d="M46.1542 93.4208C44.5735 93.4248 43.0215 93.1333 41.6666 92.578L14.2211 81.7114C13.6387 81.494 13.1441 81.1819 12.781 80.8028C12.4179 80.4236 12.1976 79.9892 12.1399 79.5381V52.4824C12.1266 52.3197 12.1732 52.1574 12.2755 52.0102C12.3777 51.863 12.5323 51.7356 12.7252 51.6396C12.9464 51.5618 13.1918 51.5213 13.4407 51.5213C13.6896 51.5213 13.9348 51.5618 14.156 51.6396L18.9038 52.5267L45.764 42.0149C46.0164 41.929 46.2947 41.8843 46.5769 41.8843C46.8591 41.8843 47.1374 41.929 47.3899 42.0149L47.9101 42.2367L50.5117 52.9703L79.1927 51.2405C79.52 51.3054 79.8093 51.4388 80.0193 51.6218C80.2294 51.8049 80.3498 52.0283 80.3635 52.2606V79.4937C80.3194 79.9708 80.1071 80.4337 79.7448 80.8429C79.3825 81.2521 78.8808 81.5957 78.2823 81.8445L50.3815 92.7555C49.0752 93.2132 47.6224 93.4418 46.1542 93.4208ZM14.8064 53.5025V79.3607C14.8524 79.5224 14.9452 79.6763 15.0792 79.8134C15.2131 79.9504 15.3856 80.0679 15.5869 80.1591L43.0323 90.9813C44.0065 91.3986 45.1337 91.62 46.2842 91.62C47.4346 91.62 48.5618 91.3986 49.536 90.9813L77.3717 80.0703C77.6016 79.9799 77.794 79.851 77.9306 79.6958C78.0671 79.5406 78.1435 79.3642 78.1523 79.1833V52.9259L49.6011 54.7H48.9507L48.4305 54.4783L45.894 44.1439L19.8793 54.4339H19.164L14.8064 53.5025Z" fill="#362187"/>
<path d="M79.0639 51.9951L49.4723 53.8136L46.0254 60.6885V92.5344C47.4141 92.5777 48.7916 92.3467 49.9925 91.8691L77.8282 80.958C78.2609 80.7933 78.6251 80.5563 78.8867 80.2692C79.1483 79.9822 79.2989 79.6545 79.3241 79.317V52.2169L79.0639 51.9951Z" fill="#362187"/>
<path d="M46.1547 93.4076H44.5288V60.4085L48.561 52.4249L49.6668 52.8684L79.0633 51.0942C79.3906 51.1591 79.6796 51.2925 79.8897 51.4756C80.0998 51.6587 80.2202 51.8821 80.2339 52.1144V79.3475C80.1953 79.8255 79.9854 80.2898 79.6226 80.6996C79.2597 81.1095 78.7552 81.4523 78.1528 81.6982L50.2521 92.6093C49.0053 93.1042 47.5967 93.3787 46.1547 93.4076ZM47.2604 60.8077V91.5004C47.9633 91.4045 48.6423 91.2402 49.2766 91.0125L77.1122 80.1015C77.3422 80.0111 77.5344 79.8822 77.6709 79.727C77.8075 79.5718 77.8839 79.3954 77.8926 79.2144V52.9571L50.3821 54.6425L47.2604 60.8077Z" fill="#362187"/>
<path d="M17.6698 54.6979C17.6698 54.6979 18.1252 53.9439 18.5804 52.9681L13.7676 52.0366C13.7676 52.968 13.7676 78.6488 13.7676 78.9593C13.7877 79.2748 13.9311 79.5808 14.1826 79.8459C14.4341 80.111 14.7847 80.3255 15.1984 80.4673L17.93 81.5762V54.6979H17.6698Z" fill="#362187"/>
<path d="M19.0338 83.5301L14.2211 81.6229C13.6387 81.4055 13.1441 81.0933 12.781 80.7142C12.4179 80.3351 12.1976 79.9007 12.1399 79.4496V52.3938C12.1266 52.2312 12.1732 52.0689 12.2755 51.9217C12.3777 51.7745 12.5323 51.6471 12.7252 51.5511C12.9479 51.4767 13.1927 51.438 13.4407 51.438C13.6887 51.438 13.9333 51.4767 14.156 51.5511L20.3346 52.7486L19.8793 53.6801L19.0338 55.2768V83.5301ZM14.8064 53.3696V79.2721C14.8452 79.4297 14.9355 79.5793 15.0706 79.7099C15.2057 79.8404 15.3821 79.9485 15.5869 80.0262L16.3024 80.3366V54.5672C16.3024 54.5672 16.3023 54.2567 16.6926 53.7688L14.8064 53.3696Z" fill="#362187"/>
<path d="M42.5144 64.7601L14.9389 53.8491C14.4931 53.6741 14.1228 53.4221 13.8653 53.1184C13.6079 52.8147 13.4722 52.4701 13.4722 52.1193C13.4722 51.7685 13.6079 51.4239 13.8653 51.1202C14.1228 50.8166 14.4931 50.5645 14.9389 50.3895L42.9046 39.4785C44.0126 39.0205 45.2835 38.7783 46.5792 38.7783C47.8748 38.7783 49.1457 39.0205 50.2538 39.4785L77.8292 50.3895C78.26 50.5673 78.6162 50.8178 78.8635 51.117C79.1108 51.4161 79.2408 51.7537 79.2408 52.0971C79.2408 52.4405 79.1108 52.7782 78.8635 53.0773C78.6162 53.3764 78.26 53.627 77.8292 53.8048L49.7985 64.7601C48.6956 65.205 47.4378 65.4397 46.1564 65.4397C44.8751 65.4397 43.6173 65.205 42.5144 64.7601Z" fill="white"/>
<path d="M46.1549 66.3607C44.6252 66.358 43.123 66.0828 41.7973 65.5623L14.2219 54.6957C13.5784 54.4372 13.047 54.0671 12.6815 53.623C12.3159 53.1789 12.1292 52.6767 12.1406 52.1675C12.1421 51.66 12.3342 51.1612 12.6985 50.7187C13.0629 50.2761 13.5873 49.9045 14.2219 49.6394L42.2526 38.7284C43.5654 38.2063 45.0579 37.9312 46.5776 37.9312C48.0973 37.9312 49.5899 38.2063 50.9026 38.7284L78.4781 49.6394C79.1271 49.8912 79.6669 50.2557 80.0423 50.6959C80.4177 51.136 80.6155 51.6362 80.6155 52.1454C80.6155 52.6546 80.4177 53.1547 80.0423 53.5949C79.6669 54.0351 79.1271 54.3996 78.4781 54.6514L50.5124 65.6067C49.1805 66.1117 47.6787 66.3716 46.1549 66.3607ZM46.5451 39.7485C45.4885 39.7464 44.4522 39.9462 43.5534 40.3251L15.5876 51.2361C15.3482 51.3304 15.1499 51.4662 15.0128 51.6299C14.8757 51.7935 14.8047 51.979 14.8072 52.1675C14.7976 52.3569 14.8656 52.5444 15.0035 52.7089C15.1413 52.8734 15.3435 53.0085 15.5876 53.099L43.1632 64.01C44.066 64.3817 45.1004 64.5781 46.1549 64.5781C47.2094 64.5781 48.2438 64.3817 49.1465 64.01L77.1124 53.0546C77.3513 52.9715 77.5512 52.8443 77.6892 52.6874C77.8272 52.5306 77.8977 52.3504 77.8928 52.1675C77.9024 51.9782 77.8344 51.7907 77.6965 51.6262C77.5587 51.4617 77.3565 51.3266 77.1124 51.2361L49.5367 40.3251C48.6495 39.9238 47.6097 39.7079 46.5451 39.7042V39.7485Z" fill="#362187"/>
<path d="M44.5293 59.1306L29.1808 53.0542C28.9227 52.9591 28.7069 52.8182 28.5566 52.6465C28.4063 52.4747 28.3271 52.2784 28.3271 52.0784C28.3271 51.8783 28.4063 51.682 28.5566 51.5102C28.7069 51.3384 28.9227 51.1976 29.1808 51.1026L44.7896 45.0261C45.4025 44.7848 46.0979 44.6577 46.8057 44.6577C47.5135 44.6577 48.2088 44.7848 48.8218 45.0261L64.1703 51.1026C64.4308 51.1907 64.6501 51.3266 64.8033 51.4951C64.9565 51.6636 65.0377 51.8579 65.0377 52.0562C65.0377 52.2544 64.9565 52.4487 64.8033 52.6172C64.6501 52.7857 64.4308 52.9217 64.1703 53.0098L48.3014 59.1306C47.717 59.3331 47.071 59.4387 46.4155 59.4387C45.76 59.4387 45.1137 59.3331 44.5293 59.1306Z" fill="#B1B1F2"/>
<path d="M46.2223 60.3269C45.2881 60.3169 44.3719 60.1493 43.5558 59.839L28.1422 53.7625C27.6979 53.5773 27.332 53.3162 27.0811 53.0051C26.8302 52.6939 26.7028 52.3435 26.7113 51.9884C26.7091 51.6341 26.8393 51.2854 27.0896 50.9749C27.34 50.6645 27.7023 50.4027 28.1422 50.2143L43.7509 44.1378C44.5814 43.8108 45.5234 43.6387 46.4823 43.6387C47.4413 43.6387 48.3835 43.8108 49.214 44.1378L64.5625 50.2143C65.0239 50.386 65.4091 50.6393 65.6774 50.9476C65.9456 51.2559 66.0872 51.6077 66.0872 51.9662C66.0872 52.3247 65.9456 52.6766 65.6774 52.9848C65.4091 53.2931 65.0239 53.5465 64.5625 53.7182L48.9538 59.839C48.1173 60.1547 47.1783 60.3224 46.2223 60.3269ZM46.2223 45.4684C45.7392 45.4666 45.2652 45.559 44.8564 45.7346L29.2477 51.811V52.1658L44.6613 58.2423C45.0706 58.3937 45.529 58.4729 45.9947 58.4729C46.4603 58.4729 46.9185 58.3937 47.3278 58.2423L62.9366 52.1215L47.8482 45.8233C47.4487 45.6226 46.9764 45.4999 46.4823 45.4684H46.2223Z" fill="#B1B1F2"/>
<path d="M28.8566 52.9653L32.1735 54.2515L44.4653 49.4613C45.0783 49.22 45.7736 49.0929 46.4815 49.0929C47.1893 49.0929 47.8846 49.22 48.4976 49.4613L60.5294 54.2515L63.8463 52.921C64.1068 52.8329 64.3258 52.6968 64.4791 52.5284C64.6323 52.3599 64.7135 52.1656 64.7135 51.9673C64.7135 51.769 64.6323 51.5747 64.4791 51.4063C64.3258 51.2378 64.1068 51.1018 63.8463 51.0137L48.4976 44.9373C47.8846 44.6959 47.1893 44.5688 46.4815 44.5688C45.7736 44.5688 45.0783 44.6959 44.4653 44.9373L28.8566 51.0137C28.5985 51.1087 28.3828 51.2496 28.2326 51.4214C28.0823 51.5932 28.0029 51.7895 28.0029 51.9895C28.0029 52.1895 28.0823 52.3859 28.2326 52.5577C28.3828 52.7294 28.5985 52.8703 28.8566 52.9653Z" fill="#B1B1F2"/>
<path d="M32.1744 55.3149L28.1422 53.7625C27.6979 53.5773 27.332 53.3162 27.0811 53.0051C26.8302 52.6939 26.7028 52.3435 26.7113 51.9884C26.7091 51.6341 26.8393 51.2854 27.0896 50.9749C27.34 50.6645 27.7023 50.4027 28.1422 50.2143L43.7509 44.1378C44.5814 43.8108 45.5234 43.6387 46.4823 43.6387C47.4413 43.6387 48.3835 43.8108 49.214 44.1378L64.5625 50.2143C65.0239 50.386 65.4091 50.6393 65.6774 50.9476C65.9456 51.2559 66.0872 51.6077 66.0872 51.9662C66.0872 52.3247 65.9456 52.6766 65.6774 52.9848C65.4091 53.2931 65.0239 53.5465 64.5625 53.7182L60.5303 55.3149L47.8482 50.2586C47.4273 50.1071 46.9583 50.028 46.4823 50.028C46.0063 50.028 45.5376 50.1071 45.1166 50.2586L32.1744 55.3149ZM29.5079 52.1658L32.1744 53.186L43.7509 48.7506C44.5814 48.4236 45.5234 48.2515 46.4823 48.2515C47.4413 48.2515 48.3835 48.4236 49.214 48.7506L60.5303 53.186L63.1968 52.1215L47.8482 45.8233C47.4377 45.6506 46.9647 45.5591 46.4823 45.5591C46 45.5591 45.5272 45.6506 45.1166 45.8233L29.5079 51.8997V52.2545V52.1658Z" fill="#362187"/>
<path d="M46.3514 44.5869C45.6888 44.594 45.0396 44.7162 44.4653 44.9418L28.8566 51.0182C28.5985 51.1132 28.3828 51.2541 28.2326 51.4259C28.0823 51.5977 28.0029 51.7939 28.0029 51.994C28.0029 52.194 28.0823 52.3903 28.2326 52.5621C28.3828 52.7339 28.5985 52.8747 28.8566 52.9698L32.1735 54.256L44.4653 49.4658C45.0396 49.2402 45.6888 49.1181 46.3514 49.111V44.5869Z" fill="#362187"/>
<path d="M32.1731 55.3154L28.1408 53.763C27.697 53.5763 27.3307 53.3153 27.0766 53.0047C26.8225 52.6942 26.689 52.3445 26.689 51.9889C26.689 51.6333 26.8225 51.2835 27.0766 50.973C27.3307 50.6625 27.697 50.4014 28.1408 50.2147L43.7496 44.1383C44.5387 43.8225 45.436 43.6542 46.351 43.6504H47.7167V50.0373H46.4161C45.9878 49.9722 45.5436 49.9722 45.1153 50.0373L32.1731 55.3154ZM45.1804 45.7793L29.7016 51.8115V52.1663L32.3682 53.1864L43.9447 48.7511L45.1804 48.3962V45.7793Z" fill="#362187"/>
<path d="M53.8946 46.7617H51.1631V50.9753H53.8946V46.7617Z" fill="#362187"/>
<path opacity="0.4" d="M15.6715 3.29789C13.0226 0.755256 10.5651 4.49755 10.2335 7.15739C9.06879 6.31471 8.29769 4.72903 9.39621 3.20948C10.2309 2.03681 8.21752 0.852433 7.38281 2.02511C5.22988 5.02124 7.13557 9.00694 10.6143 9.84241C11.9376 13.4068 16.2674 14.8512 19.8702 14.667C21.3379 14.5853 21.2725 12.3122 19.8497 12.4399C17.4924 12.5792 14.3723 12.0235 13.1063 9.84151C15.9021 9.00537 18.3212 5.9296 15.6715 3.29789ZM13.6501 6.07604C13.5243 6.91759 13.0833 7.34724 12.5957 7.55263C12.8488 6.0477 14.1156 3.46548 13.6501 6.07604Z" fill="url(#paint0_linear_2053_9165)"/>
<path opacity="0.4" d="M89.7932 52.2488C88.1677 52.1829 86.759 51.5245 85.6392 50.438C84.5194 49.3186 82.6772 50.9977 83.7969 52.1171C85.3502 53.6315 87.4814 54.5205 89.7571 54.6192C91.4548 54.6851 91.4548 52.3146 89.7932 52.2488Z" fill="url(#paint1_linear_2053_9165)"/>
<path opacity="0.4" d="M9.12257 40.2062C6.31972 41.7061 8.74258 44.7317 10.8437 45.7171C9.83792 46.4503 8.32588 46.6605 7.36903 45.3491C6.62712 44.3478 5.11275 45.6882 5.85466 46.6895C7.74479 49.2645 11.5367 48.7631 13.1563 46.1228C16.4453 45.9879 18.7941 42.81 19.6074 39.7944C19.9333 38.5641 18.0443 38.0092 17.7684 39.2148C17.2517 41.1929 15.9586 43.6129 13.823 44.0708C13.8834 41.5451 11.999 38.7295 9.12257 40.2062ZM10.8685 42.6146C11.5276 42.9435 11.7632 43.4217 11.8017 43.8781C10.6305 43.2667 8.84381 41.5321 10.8685 42.6146Z" fill="url(#paint2_linear_2053_9165)"/>
<path opacity="0.4" d="M77.269 12.0277C76.6476 14.4487 75.3606 16.3066 73.6298 17.4889C71.8103 18.7275 73.408 22.2181 75.2275 20.9795C77.7127 19.2905 79.4879 16.4755 80.3311 13.0975C80.9524 10.6202 77.8903 9.55054 77.269 12.0277Z" fill="url(#paint3_linear_2053_9165)"/>
<path opacity="0.4" d="M90.6006 32.1666C90.4383 31.7609 89.8703 31.7609 89.7081 32.1666C89.1401 33.8704 88.4099 34.6006 86.7872 35.3309C86.3815 35.4931 86.3815 36.0611 86.7872 36.2234C88.491 36.7913 89.2212 37.5215 89.9515 39.1443C90.1137 39.5499 90.6817 39.5499 90.844 39.1443C91.4119 37.4404 92.1421 36.7102 93.7649 35.9799C94.1705 35.8177 94.1705 35.2497 93.7649 35.0875C92.061 34.5195 91.2496 33.7893 90.6006 32.1666Z" fill="url(#paint4_linear_2053_9165)"/>
<path d="M64.4826 31.1036V37.9312M47.793 18.207V31.1036M25.793 29.5863V37.9312" stroke="#D3D3D3" stroke-width="1.51724" stroke-linecap="round" stroke-linejoin="round"/>
<path d="M28.0414 26.9727L27.3327 25.6218C26.7154 24.886 27.1528 24.5416 26.8434 23.2988C26.3061 20.6463 26.4077 17.903 27.1399 15.2925C27.8722 12.682 29.2143 10.2781 31.0571 8.2765C32.016 7.33883 31.8495 6.62183 32.7843 6.29292L34.0743 5.73585L36.5081 6.42103C37.3699 6.80097 38.1211 7.39 38.6929 8.13411C39.2646 8.87822 39.6387 9.75361 39.7808 10.68C40.3079 13.3366 40.1957 16.0814 39.4535 18.6912C38.7113 21.301 37.3599 23.7021 35.5093 25.6992C33.7154 27.4374 31.8363 28.0602 30.27 27.6007L28.0414 26.9727Z" fill="#5047BA"/>
<path d="M34.6268 21.5224C36.4702 18.3507 37.1679 14.652 36.6039 11.0404C36.165 9.04242 35.1819 7.72843 33.848 7.35645C32.5141 6.98447 30.9721 7.59106 29.5463 9.0788C28.0477 10.8193 26.9458 12.8605 26.3164 15.0618C25.687 17.263 25.5452 19.572 25.9007 21.8296C26.3395 23.8275 27.3227 25.1415 28.6566 25.5135C29.9905 25.8855 31.5325 25.2789 32.9582 23.7912C33.6016 23.102 34.1616 22.3405 34.6268 21.5224ZM28.2815 11.5767C28.7259 10.7865 29.2651 10.0526 29.8872 9.39088C31.2131 8.02432 32.5914 7.44335 33.7938 7.78514C34.9963 8.12693 35.8818 9.32625 36.2938 11.1904C36.6339 13.3781 36.4952 15.6145 35.887 17.7474C35.2789 19.8803 34.2156 21.8597 32.7696 23.5507C31.4436 24.9172 30.0718 25.4871 28.8694 25.1453C27.667 24.8035 26.7814 23.6041 26.363 21.7511C25.8139 18.2456 26.4909 14.6549 28.2815 11.5767Z" fill="#5047BA"/>
<path d="M30.9283 9.56554C29.4562 11.2777 28.3746 13.2857 27.7585 15.4506C27.1424 17.6156 27.0063 19.886 27.3597 22.105C27.4468 22.7386 27.6593 23.3484 27.9847 23.8994C28.3102 24.4504 28.7424 24.9317 29.2563 25.3156C29.2563 25.3156 29.2563 25.3156 29.2241 25.3714C27.7936 25.2704 26.6101 24.0205 26.1111 21.7665C25.7611 19.5455 25.9005 17.2739 26.5196 15.1082C27.1388 12.9426 28.2229 10.9344 29.6974 9.22223C31.3142 7.53232 32.9852 7.08828 34.2842 7.75176L34.252 7.80757C32.9548 7.93356 31.7593 8.56588 30.9283 9.56554Z" fill="#5047BA"/>
<path d="M29.4526 25.4441C29.4739 25.3946 29.4761 25.3392 29.4587 25.2883C29.4414 25.2375 29.4058 25.1948 29.3587 25.1685C28.3721 24.4249 27.7244 23.3216 27.5579 22.1012C27.211 19.9117 27.3469 17.6718 27.9563 15.5363C28.5657 13.4007 29.6341 11.4204 31.0876 9.73208C31.4772 9.25774 31.9574 8.86446 32.5004 8.57503C33.0433 8.28561 33.6382 8.10576 34.2508 8.04587C34.2874 8.04568 34.3234 8.03582 34.355 8.01732C34.3866 7.99883 34.4127 7.97234 34.4307 7.94058C34.4535 7.92604 34.4724 7.90629 34.4859 7.88298C34.4993 7.85967 34.507 7.83351 34.5081 7.8067C34.489 7.75295 34.4532 7.7067 34.4058 7.67454C32.961 6.9283 31.1965 7.48234 29.5621 9.17706C28.0639 10.9173 26.9622 12.9581 26.333 15.1589C25.7038 17.3598 25.562 19.6683 25.9174 21.9255C26.4099 24.1907 27.6092 25.568 29.2177 25.696C29.2775 25.6817 29.3317 25.6502 29.3735 25.6053C29.4153 25.5605 29.4429 25.5044 29.4526 25.4441ZM29.1076 11.6899C27.263 14.8627 26.5692 18.5646 27.1422 22.1763C27.3168 23.2268 27.7803 24.208 28.4817 25.0114C27.8719 24.6812 27.3515 24.2096 26.9648 23.6366C26.578 23.0637 26.3361 22.4061 26.2596 21.7197C25.9196 19.5324 26.0583 17.2964 26.6663 15.1639C27.2743 13.0314 28.3373 11.0524 29.7829 9.36174C30.2082 8.81271 30.7619 8.37489 31.3957 8.08647C32.0295 7.79806 32.7242 7.6678 33.4192 7.70707C32.3764 8.01283 31.4428 8.60899 30.7292 9.42482C30.096 10.1102 29.5513 10.8711 29.1076 11.6899Z" fill="#5047BA"/>
<path d="M26.5781 14.8283L28.4595 15.3525L28.3465 15.7497L26.4651 15.2255L26.5781 14.8283Z" fill="#8484EA"/>
<path d="M28.9233 14.1619L29.0628 13.6625L27.185 13.1453L26.9427 13.6161L28.9233 14.1619Z" fill="#8484EA"/>
<path d="M29.7089 12.6703L29.9034 12.0242L28.0146 11.5007L27.6772 12.1102L29.7089 12.6703Z" fill="#8484EA"/>
<path d="M30.6121 11.2583L30.8423 10.4989L28.9535 9.97545L28.4553 10.6569L30.6121 11.2583Z" fill="#8484EA"/>
<path d="M31.7797 10.013L32.0326 9.16274L30.1439 8.63928L29.4513 9.37344L31.7797 10.013Z" fill="#8484EA"/>
<path d="M33.6009 9.0037L33.8426 8.14696L31.7997 7.5805L30.8904 8.25106L33.6009 9.0037Z" fill="#8484EA"/>
<path d="M27.978 17.4L28.1288 16.9069L26.1481 16.361L26.1001 16.8827L27.978 17.4Z" fill="#8484EA"/>
<path d="M27.8262 19.2406L28.0095 18.5881L25.9841 18.0167L25.9484 18.7235L27.8262 19.2406Z" fill="#8484EA"/>
<path d="M27.8329 21.0368L28.0519 20.2709L25.8772 19.6742L25.9504 20.5021L27.8329 21.0368Z" fill="#8484EA"/>
<path d="M28.1402 22.7799L28.3819 21.9231L26.0531 21.2834L26.2624 22.2627L28.1402 22.7799Z" fill="#8484EA"/>
<path d="M29.0059 24.5588L29.2477 23.702L26.7085 22.9874L27.1345 24.0305L29.0059 24.5588Z" fill="#8484EA"/>
<path d="M37.6109 18.1648L39.3677 18.6543L39.2547 19.0514L37.498 18.562L37.6109 18.1648Z" fill="#8484EA"/>
<path d="M38.5917 21.3451L38.7425 20.8521L36.8133 20.3205L36.5887 20.7865L38.5917 21.3451Z" fill="#8484EA"/>
<path d="M37.3811 23.471L37.8164 22.8726L35.7848 22.3125L35.4474 22.922L37.3811 23.471Z" fill="#8484EA"/>
<path d="M35.9348 25.1512L36.5067 24.4969L34.6293 23.9798L34.1199 24.6548L35.9348 25.1512Z" fill="#8484EA"/>
<path d="M34.4253 26.6461L35.1804 25.9327L33.3833 25.4315L32.588 26.137L34.4253 26.6461Z" fill="#8484EA"/>
<path d="M32.3527 27.8411L33.5925 27.2692L31.6122 26.7235L30.504 27.3256L32.3527 27.8411Z" fill="#8484EA"/>
<path d="M39.9043 16.7466L40.0438 16.2471L38.1145 15.7156L38.0553 16.2309L39.9043 16.7466Z" fill="#8484EA"/>
<path d="M40.2667 14.5666L40.1708 13.8296L38.2704 13.2996L38.2411 13.9952L40.2667 14.5666Z" fill="#8484EA"/>
<path d="M39.9965 12.5039L40.01 11.6807L38.0295 11.1349L38.1074 11.9804L39.9965 12.5039Z" fill="#8484EA"/>
<path d="M39.6241 10.5901L39.4325 9.60593L37.5257 9.08713L37.7639 10.0681L39.6241 10.5901Z" fill="#8484EA"/>
<path d="M39.004 8.63963L38.4463 7.56612L36.5168 7.03448L37.0119 8.08729L39.004 8.63963Z" fill="#8484EA"/>
<path d="M24.8102 22.7371C24.2739 20.0845 24.3761 17.3415 25.1083 14.7312C25.8405 12.1208 27.182 9.7168 29.0239 7.71463C32.6119 4.23816 36.5112 5.3255 37.7349 10.1405C38.2606 12.7926 38.1479 15.5326 37.4059 18.1375C36.6639 20.7424 35.3137 23.1387 33.4651 25.1312C29.8884 28.614 25.989 27.5267 24.8102 22.7371ZM32.8562 23.6591C34.3311 21.9465 35.4157 19.9379 36.035 17.7717C36.6544 15.6056 36.7938 13.3334 36.4437 11.1119C35.5771 7.12212 32.5837 6.29708 29.745 9.25035C28.2523 10.9601 27.1512 12.9708 26.5184 15.1428C25.8855 17.3149 25.7361 19.5961 26.0803 21.8279C26.9744 25.7444 30.0175 26.6124 32.8113 23.6337L32.8562 23.6591Z" fill="#8484EA"/>
<path d="M37.9503 22.9203C40.1198 19.2179 40.8634 14.8633 40.0428 10.6672C39.8909 9.70744 39.4986 8.80182 38.902 8.0333C38.3054 7.26478 37.5236 6.65795 36.6283 6.2685L34.4737 5.66767C34.4468 5.65925 34.4184 5.65641 34.3902 5.65931C34.3621 5.66222 34.3349 5.67079 34.3102 5.68454C34.2855 5.6983 34.2639 5.71692 34.2467 5.73926C34.2295 5.7616 34.2171 5.78718 34.2102 5.81443C34.1977 5.86614 34.2045 5.92056 34.2295 5.96747C34.2545 6.01439 34.2958 6.0506 34.3458 6.0693C35.2051 6.41722 35.9571 6.9825 36.5272 7.7091C37.0973 8.4357 37.4657 9.29837 37.5959 10.2115C38.1117 12.827 37.9981 15.5287 37.2645 18.0967C36.5308 20.6647 35.1978 23.0265 33.3739 24.99C31.6284 26.6962 29.735 27.3699 28.1484 26.7655C28.1082 26.7529 28.0652 26.7521 28.0245 26.7632C27.9838 26.7742 27.9471 26.7966 27.9188 26.8278C27.8882 26.8579 27.8686 26.8973 27.8629 26.9397C27.8573 26.9821 27.866 27.0252 27.8877 27.062C27.9208 27.1039 27.9691 27.1313 28.0223 27.1384L30.257 27.7551C31.9723 28.2399 33.9074 27.5455 35.6946 25.8186C36.5752 24.9583 37.334 23.9832 37.9503 22.9203ZM36.0051 6.52228L36.5004 6.67013C37.3258 7.03854 38.0444 7.60693 38.5903 8.32334C39.1363 9.03975 39.4921 9.88132 39.6254 10.771C40.1426 13.3889 40.0303 16.0931 39.2975 18.6641C38.5647 21.235 37.2322 23.6001 35.4081 25.5671C33.7255 27.1903 31.9493 27.8416 30.3702 27.4045L30.0336 27.3171C31.4223 27.0188 32.6906 26.3141 33.6746 25.2942C35.5429 23.2704 36.9071 20.8402 37.6569 18.1998C38.4067 15.5594 38.5212 12.783 37.9909 10.0949C37.7029 8.73289 37.0114 7.4888 36.0051 6.52228Z" fill="#5047BA"/>
<path d="M26.0813 21.8274C25.7313 19.606 25.8707 17.334 26.49 15.1679C27.1093 13.0019 28.1937 10.9933 29.6686 9.28084C32.5071 6.32771 35.5004 7.15272 36.3669 11.1423C36.717 13.3637 36.5776 15.6357 35.9583 17.8018C35.3389 19.9678 34.2545 21.9764 32.7796 23.6889C30.0182 26.6117 26.9753 25.7437 26.0813 21.8274Z" fill="#E9E9FF"/>
<path d="M35.8653 22.344C38.0351 18.6411 38.9585 14.4939 38.1378 10.2972C37.6654 7.87741 36.0855 6.06189 34.3442 5.62164C32.6028 5.1814 30.6867 5.84246 28.8992 7.56955C27.0297 9.59299 25.6646 12.0236 24.9146 14.6645C24.1646 17.3054 24.0507 20.0824 24.5821 22.7708C25.1884 25.1751 26.4547 26.7981 28.1961 27.2384C29.9374 27.6786 31.8471 27.0287 33.6411 25.2905C34.515 24.4141 35.2635 23.4226 35.8653 22.344ZM26.9985 10.7294C27.5905 9.67879 28.3278 8.71539 29.1887 7.86739C30.8717 6.24395 32.6109 5.90979 34.1838 6.35812C35.7567 6.80645 36.9773 7.94654 37.5406 10.1931C38.0548 12.8114 37.9409 15.5152 37.2081 18.086C36.4754 20.6567 35.1443 23.0221 33.3226 24.9911C31.6397 26.6145 29.8632 27.2659 28.2839 26.8288C26.7045 26.3916 25.5341 24.9119 24.9707 22.6653C24.1678 18.5791 24.8884 14.3372 26.9985 10.7294ZM34.6272 21.5225C36.4707 18.3507 37.1684 14.6517 36.6044 11.04C36.1655 9.0419 35.1823 7.72785 33.8483 7.35585C32.5143 6.98386 30.9722 7.59048 29.5464 9.07829C28.0477 10.8189 26.9457 12.8602 26.3163 15.0615C25.6868 17.2629 25.545 19.572 25.9005 21.8296C26.3394 23.8277 27.3226 25.1418 28.6566 25.5138C29.9906 25.8858 31.5327 25.2792 32.9585 23.7914C33.6019 23.1022 34.162 22.3406 34.6272 21.5225ZM28.2814 11.5763C28.7259 10.7861 29.2651 10.0521 29.8873 9.39038C31.2133 8.02375 32.5917 7.44276 33.7942 7.78456C34.9967 8.12637 35.8823 9.32575 36.2943 11.19C36.6344 13.3778 36.4957 15.6143 35.8875 17.7473C35.2793 19.8803 34.216 21.8598 32.7698 23.5508C31.4438 24.9175 30.0719 25.4873 28.8694 25.1455C27.6669 24.8037 26.7813 23.6043 26.3629 21.7512C25.8137 18.2455 26.4908 14.6546 28.2814 11.5763Z" fill="#9F9FEC"/>
<path d="M56.461 2.37368L58.0742 3.17385C59.1739 3.44944 58.9945 4.08169 60.1512 5.0551C62.5024 7.21803 64.3057 9.91029 65.4144 12.9125C66.523 15.9148 66.9056 19.1422 66.5311 22.3318C66.2642 23.8923 66.92 24.4622 66.2545 25.4242L65.4074 26.8503L62.6067 27.8815C61.5198 28.1154 60.3938 28.0728 59.3318 27.7577C58.2699 27.4427 57.3059 26.8652 56.5283 26.0782C54.1841 23.9043 52.3898 21.2033 51.2911 18.1948C50.1925 15.1863 49.8207 11.9553 50.2059 8.76449C50.7162 5.86041 52.0807 3.96341 53.896 3.31741L56.461 2.37368Z" fill="#5047BA"/>
<path d="M53.9431 12.1484C54.3785 16.4568 56.2742 20.4752 59.3152 23.5362C61.1188 25.1418 62.9687 25.7165 64.5013 25.148C66.0339 24.5794 67.0874 22.9314 67.4194 20.5217C67.6459 17.82 67.285 15.1057 66.3616 12.5659C65.4381 10.026 63.9741 7.72097 62.0703 5.80959C60.2667 4.20406 58.4168 3.62929 56.8842 4.19787C55.3517 4.76646 54.2981 6.41447 53.9661 8.82409C53.8287 9.92847 53.821 11.0442 53.9431 12.1484ZM66.8978 17.2581C67.0205 18.3212 67.0136 19.3962 66.8774 20.4596C66.5569 22.6843 65.6421 24.1944 64.2561 24.7007C62.8701 25.2071 61.1928 24.6743 59.5077 23.178C57.667 21.3228 56.2503 19.0892 55.3539 16.6294C54.4575 14.1695 54.1025 11.5412 54.3131 8.92324C54.6336 6.69858 55.5499 5.20359 56.9359 4.69725C58.3219 4.1909 59.9992 4.72369 61.6828 6.20482C64.6362 9.17482 66.4766 13.0757 66.8978 17.2581Z" fill="#5047BA"/>
<path d="M65.7603 21.008C65.9811 18.3517 65.6237 15.6833 64.7128 13.1873C63.8018 10.6913 62.359 8.4271 60.484 6.55113C59.9618 6.00593 59.3362 5.57026 58.6434 5.26915C57.9506 4.96803 57.2042 4.80741 56.447 4.79654C56.447 4.79654 56.447 4.79656 56.4392 4.72091C57.8764 3.8264 59.8734 4.20103 61.9119 6.00965C63.785 7.88991 65.2255 10.1576 66.134 12.6563C67.0426 15.1551 67.3976 17.8254 67.1746 20.4833C66.8001 23.2185 65.5106 24.8006 63.8094 25.0664L63.8016 24.9907C64.9541 23.9716 65.6586 22.5391 65.7603 21.008Z" fill="#5047BA"/>
<path d="M56.1731 4.81493C56.1871 4.87695 56.2234 4.93148 56.2752 4.96807C56.327 5.00466 56.3905 5.02074 56.4538 5.01326C57.9119 5.04054 59.2952 5.64624 60.2999 6.6973C62.1483 8.5496 63.5701 10.7845 64.4671 13.2477C65.3641 15.711 65.7149 18.3438 65.4954 20.9644C65.4516 21.6876 65.2651 22.3962 64.9467 23.0489C64.6283 23.7017 64.1843 24.2857 63.6404 24.7673C63.6055 24.7929 63.5779 24.8272 63.5605 24.8668C63.5431 24.9064 63.5365 24.9498 63.5413 24.9926C63.5296 25.0223 63.5252 25.0543 63.5285 25.0859C63.5318 25.1175 63.5426 25.1478 63.5601 25.1742C63.6156 25.2123 63.6819 25.2317 63.7494 25.2296C65.6473 24.9419 66.9498 23.19 67.3379 20.438C67.5643 17.7368 67.2033 15.0231 66.28 12.4838C65.3567 9.94441 63.8929 7.63979 61.9896 5.72874C59.9495 3.90497 57.8491 3.41938 56.2231 4.41144C56.1759 4.46649 56.1459 4.53424 56.137 4.60607C56.1281 4.67789 56.1407 4.75057 56.1731 4.81493ZM66.0315 17.7214C65.5963 13.4112 63.6949 9.39248 60.6451 6.33751C59.7506 5.45444 58.6278 4.83784 57.4008 4.55587C58.2125 4.44902 59.0365 4.53925 59.803 4.8189C60.5696 5.09854 61.2563 5.55943 61.805 6.16253C63.6453 8.01747 65.0618 10.2506 65.958 12.7099C66.8543 15.1693 67.2093 17.7971 66.9989 20.4145C66.9728 21.2338 66.7469 22.0358 66.341 22.7506C65.935 23.4653 65.3613 24.0711 64.6699 24.515C65.4547 23.5004 65.9339 22.2838 66.0508 21.0097C66.1812 19.9161 66.1747 18.8114 66.0315 17.7214Z" fill="#5047BA"/>
<path d="M66.2731 12.9701L64.1118 13.7725L63.9446 13.3146L66.1059 12.5122L66.2731 12.9701Z" fill="#8484EA"/>
<path d="M64.4957 15.2282L64.7083 15.8022L66.8614 14.9956L66.7668 14.3778L64.4957 15.2282Z" fill="#8484EA"/>
<path d="M64.7774 17.2L65.0391 17.9524L67.2071 17.1441L67.1073 16.3278L64.7774 17.2Z" fill="#8484EA"/>
<path d="M64.8903 19.1756L65.1964 20.0608L67.3643 19.2526L67.3683 18.2563L64.8903 19.1756Z" fill="#8484EA"/>
<path d="M64.6391 21.174L64.9865 22.1619L67.1543 21.3537L67.3076 20.1722L64.6391 21.174Z" fill="#8484EA"/>
<path d="M63.5972 23.4003L63.9597 24.3866L66.3047 23.5126L66.7092 22.2418L63.5972 23.4003Z" fill="#8484EA"/>
<path d="M63.1542 11.4797L63.3517 12.0554L65.6229 11.205L65.3073 10.6731L63.1542 11.4797Z" fill="#8484EA"/>
<path d="M62.0252 9.61764L62.3021 10.3683L64.6336 9.51123L64.1782 8.81104L62.0252 9.61764Z" fill="#8484EA"/>
<path d="M60.7746 7.90606L61.0959 8.78972L63.5878 7.85347L62.9443 7.11293L60.7746 7.90606Z" fill="#8484EA"/>
<path d="M59.2729 6.45008L59.6354 7.43641L62.3043 6.43449L61.4258 5.64349L59.2729 6.45008Z" fill="#8484EA"/>
<path d="M57.2115 5.34875L57.5741 6.33517L60.4959 5.2591L59.3661 4.55727L57.2115 5.34875Z" fill="#8484EA"/>
<path d="M53.417 17.4222L51.3989 18.1714L51.2318 17.7135L53.2499 16.9643L53.417 17.4222Z" fill="#8484EA"/>
<path d="M50.2764 15.0614L50.4739 15.6371L52.686 14.8086L52.5778 14.2076L50.2764 15.0614Z" fill="#8484EA"/>
<path d="M49.9634 12.1931L49.962 13.0666L52.2918 12.1944L52.1919 11.3781L49.9634 12.1931Z" fill="#8484EA"/>
<path d="M50.181 9.58373L50.0877 10.6053L52.2403 9.79879L52.2595 8.80083L50.181 9.58373Z" fill="#8484EA"/>
<path d="M50.5843 7.10851L50.3568 8.31348L52.4216 7.54742L52.6929 6.32225L50.5843 7.10851Z" fill="#8484EA"/>
<path d="M51.7432 4.53427L50.9544 5.93976L53.2252 5.08945L53.8672 3.74626L51.7432 4.53427Z" fill="#8484EA"/>
<path d="M52.2079 20.3682L52.4206 20.9423L54.6328 20.1137L54.3324 19.5801L52.2079 20.3682Z" fill="#8484EA"/>
<path d="M53.3701 22.6999L53.9724 23.3378L56.1558 22.5278L55.7018 21.8427L53.3701 22.6999Z" fill="#8484EA"/>
<path d="M55.0596 24.4844L55.617 25.2805L57.888 24.4302L57.2278 23.6761L55.0596 24.4844Z" fill="#8484EA"/>
<path d="M56.7407 26.0568L57.6057 26.8647L59.7875 26.0395L58.8803 25.267L56.7407 26.0568Z" fill="#8484EA"/>
<path d="M58.6861 27.491L59.9628 28.1307L62.1752 27.3021L60.9727 26.6389L58.6861 27.491Z" fill="#8484EA"/>
<path d="M62.4851 4.18399C64.8352 6.3477 66.6379 9.04011 67.7465 12.0422C68.8551 15.0443 69.2383 18.2713 68.865 21.4609C67.8443 27.2692 63.3642 28.9313 58.8589 25.1771C56.5192 23.0066 54.7287 20.3098 53.6332 17.3061C52.5377 14.3024 52.1682 11.0768 52.5546 7.89177C53.5602 2.0852 58.0403 0.423078 62.4851 4.18399ZM54.1564 8.87687C53.9331 11.5355 54.2881 14.2066 55.1969 16.7059C56.1056 19.2053 57.5464 21.4736 59.42 23.3542C63.0123 26.5671 66.4448 25.2818 67.112 20.4927C67.3542 17.8245 67.0135 15.14 66.1136 12.6256C65.2137 10.1113 63.7762 7.82749 61.901 5.93291C58.3333 2.80916 54.8235 4.0877 54.2169 8.87014L54.1564 8.87687Z" fill="#8484EA"/>
<path d="M49.7975 13.1117C50.289 18.1532 52.595 22.8303 56.2863 26.2722C57.0964 27.0842 58.0987 27.678 59.2013 27.9992C60.3039 28.3204 61.4715 28.3588 62.5971 28.1107L65.0725 27.1923C65.1041 27.1817 65.1332 27.1648 65.1581 27.1425C65.1829 27.1202 65.203 27.0932 65.2171 27.0629C65.2312 27.0327 65.2389 26.9999 65.2399 26.9666C65.2409 26.9334 65.235 26.9003 65.2227 26.8695C65.1988 26.8114 65.1546 26.7642 65.0982 26.7366C65.0418 26.7091 64.9772 26.7031 64.9165 26.7199C63.8542 26.9826 62.7439 26.9633 61.6956 26.6638C60.6474 26.3643 59.6976 25.7951 58.9406 25.0125C56.6357 22.8701 54.8726 20.2093 53.7947 17.2467C52.7169 14.2841 52.3547 11.1033 52.7376 7.96306C53.2239 5.12323 54.5667 3.16763 56.5018 2.64614C56.5489 2.6303 56.5906 2.60129 56.6218 2.56253C56.6531 2.52378 56.6726 2.4769 56.6781 2.42754C56.6865 2.37749 56.678 2.32626 56.654 2.28182C56.63 2.23738 56.5919 2.20229 56.5456 2.18211C56.4849 2.16503 56.4198 2.17227 56.3641 2.20231L53.801 3.16104C51.8257 3.88597 50.4573 5.89029 49.9455 8.77889C49.7 10.2112 49.6502 11.6689 49.7975 13.1117ZM63.0168 27.4364L62.441 27.6383C61.3969 27.858 60.3164 27.8126 59.2983 27.5061C58.2802 27.1996 57.357 26.6418 56.6133 25.8838C54.3054 23.7401 52.5393 21.0777 51.4586 18.1128C50.3779 15.148 50.013 11.9645 50.3936 8.82086C50.8773 6.10376 52.1237 4.25078 53.9357 3.57462L54.318 3.42492C53.1973 4.67212 52.4733 6.22422 52.2395 7.88076C51.8558 11.1092 52.2356 14.377 53.3482 17.42C54.4608 20.463 56.2749 23.1959 58.6438 25.3976C59.8627 26.4998 61.3855 27.2098 63.0168 27.4364Z" fill="#5047BA"/>
<path d="M61.9003 5.93391C63.7738 7.8145 65.2145 10.0826 66.1232 12.5819C67.0319 15.0811 67.3869 17.752 67.1637 20.4105C66.4966 25.1994 63.0643 26.4845 59.4722 23.2718C57.5987 21.3912 56.158 19.1232 55.2493 16.6239C54.3406 14.1247 53.9856 11.4537 54.2088 8.79526C54.8232 4.08876 58.3327 2.81031 61.9003 5.93391Z" fill="#E9E9FF"/>
<path d="M52.1907 12.2197C52.6821 17.2619 54.6727 21.8654 58.3644 25.3077C60.4923 27.2932 63.26 27.9339 65.2293 27.1482C67.1986 26.3626 68.572 24.4034 69.0839 21.5144C69.4689 18.2853 69.0896 15.0167 67.9769 11.973C66.8642 8.92942 65.0492 6.19638 62.6789 3.99511C60.4338 2.11716 58.0991 1.44323 56.1298 2.22884C54.1605 3.01446 52.7855 4.95857 52.2752 7.86273C52.047 9.30578 52.0186 10.7719 52.1907 12.2197ZM68.7114 17.1776C68.8734 18.5919 68.8362 20.0234 68.6008 21.4303C68.117 24.1478 66.6862 25.6721 64.8724 26.3333C63.0585 26.9944 61.1021 26.7504 59.0073 24.9935C56.702 22.8473 54.9377 20.1842 53.8571 17.2196C52.7765 14.255 52.4099 11.0721 52.787 7.92825C53.2708 5.21075 54.5174 3.35744 56.3297 2.68115C58.1419 2.00486 60.2857 2.6082 62.3805 4.3651C65.9788 7.71424 68.2287 12.2677 68.7114 17.1776ZM53.9431 12.1471C54.3785 16.4557 56.2742 20.4743 59.3154 23.5355C61.1191 25.1411 62.9691 25.7159 64.5018 25.1473C66.0344 24.5787 67.0881 22.9305 67.4201 20.5208C67.6466 17.819 67.2857 15.1045 66.3622 12.5645C65.4387 10.0245 63.9746 7.71939 62.0708 5.80792C60.2671 4.20231 58.4171 3.62753 56.8844 4.19615C55.3517 4.76477 54.2981 6.41289 53.9661 8.82263C53.8286 9.92707 53.8209 11.0429 53.9431 12.1471ZM66.8985 17.257C67.0211 18.3201 67.0143 19.3952 66.878 20.4587C66.5575 22.6835 65.6426 24.1936 64.2565 24.7C62.8704 25.2064 61.1931 24.6736 59.5079 23.1773C57.6671 21.322 56.2503 19.0883 55.3539 16.6283C54.4575 14.1684 54.1025 11.5399 54.313 8.92178C54.6336 6.69701 55.55 5.20193 56.9361 4.69555C58.3222 4.18917 59.9995 4.72198 61.6832 6.20317C64.6367 9.17331 66.4773 13.0744 66.8985 17.257Z" fill="#9F9FEC"/>
<path d="M40.8547 33.9928L42.7074 33.9553C43.8396 33.6824 43.9832 34.3475 45.5053 34.6868C48.6887 35.5455 51.6312 37.1509 54.0932 39.3723C56.5551 41.5937 58.4669 44.3683 59.6728 47.47C60.1868 49.0274 61.0586 49.2363 60.9205 50.4358L60.8426 52.1472L58.7991 54.4302C57.9256 55.1638 56.8825 55.6627 55.7654 55.8814C54.6483 56.1001 53.4931 56.0314 52.4055 55.6817C49.2231 54.8097 46.2845 53.192 43.8287 50.9601C41.3728 48.7282 39.4691 45.9451 38.2722 42.8373C37.328 39.9324 37.6476 37.5422 38.9829 36.083L40.8547 33.9928Z" fill="#5047BA"/>
<path d="M43.306 44.1508C45.7897 47.8907 49.4588 50.6673 53.704 52.0193C56.12 52.6288 58.0784 52.2717 59.1945 51.0185C60.3106 49.7653 60.4685 47.7518 59.602 45.3852C58.4982 42.8013 56.8548 40.4866 54.7852 38.6004C52.7155 36.7142 50.2688 35.3015 47.6136 34.4596C45.1976 33.8501 43.2391 34.2072 42.1231 35.4604C41.007 36.7136 40.8491 38.7271 41.7156 41.0937C42.1261 42.1713 42.6599 43.1974 43.306 44.1508ZM57.5465 42.6438C58.1731 43.5594 58.688 44.5477 59.0797 45.5872C59.867 47.7789 59.7682 49.5997 58.7551 50.7258C57.7419 51.852 55.9606 52.1651 53.7051 51.5991C51.1344 50.7785 48.7653 49.4086 46.759 47.5829C44.7527 45.7571 43.1564 43.5183 42.0787 41.0188C41.2914 38.8271 41.3989 37.0194 42.4121 35.8933C43.4252 34.7671 45.2065 34.454 47.4533 35.0069C51.5747 36.3174 55.1368 39.0126 57.5465 42.6438Z" fill="#5047BA"/>
<path d="M58.3318 46.6268C57.2448 44.0872 55.6269 41.8129 53.5899 39.9609C51.5528 38.109 49.1452 36.7235 46.5333 35.9003C45.7948 35.6502 45.0156 35.5498 44.2405 35.6049C43.4655 35.66 42.7098 35.8694 42.017 36.2212C42.017 36.2212 42.017 36.2212 41.9732 36.1556C42.8447 34.6494 44.8397 34.0386 47.5674 34.722C50.1797 35.55 52.587 36.9397 54.6231 38.7953C56.6593 40.6509 58.2761 42.9283 59.3618 45.4703C60.3475 48.1556 59.9434 50.2213 58.5274 51.2776L58.4836 51.212C59.0362 49.7276 58.9816 48.0783 58.3318 46.6268Z" fill="#5047BA"/>
<path d="M41.775 36.369C41.8177 36.4192 41.8771 36.4518 41.9419 36.4606C42.0066 36.4694 42.0721 36.4538 42.1259 36.4167C43.4632 35.7451 45.0129 35.6392 46.4347 36.1223C49.0111 36.9365 51.3854 38.3052 53.3939 40.1338C55.4024 41.9623 56.9971 44.2073 58.0679 46.7135C58.3788 47.3972 58.5529 48.1355 58.5801 48.8858C58.6074 49.636 58.4873 50.3833 58.2268 51.0845C58.2075 51.1246 58.1991 51.1692 58.2025 51.2138C58.2059 51.2584 58.2209 51.3013 58.246 51.3383C58.2498 51.371 58.2613 51.4024 58.2796 51.4298C58.2979 51.4572 58.3224 51.4798 58.3511 51.4956C58.42 51.504 58.4896 51.4902 58.5499 51.456C60.1338 50.2857 60.4675 48.0581 59.4859 45.3509C58.3822 42.7676 56.7391 40.4534 54.6698 38.5676C52.6006 36.6818 50.1543 35.2694 47.4996 34.4276C44.7631 33.731 42.6205 34.2895 41.6248 35.9754C41.6086 36.0484 41.6142 36.1248 41.6409 36.1949C41.6677 36.265 41.7143 36.3256 41.775 36.369ZM56.9829 43.4858C54.4986 39.7441 50.824 36.97 46.5738 35.6277C45.3335 35.2459 44.0151 35.2173 42.7642 35.5451C43.4495 35.0594 44.2414 34.7484 45.0731 34.6385C45.9048 34.5285 46.7517 34.6227 47.5423 34.9132C50.1125 35.7338 52.4811 37.1033 54.4871 38.9287C56.493 40.754 58.0891 42.9924 59.1667 45.4913C59.5401 46.2545 59.7238 47.0974 59.7016 47.9463C59.6794 48.7952 59.452 49.6243 59.0393 50.3615C59.2602 49.0568 59.1057 47.713 58.5943 46.4897C58.1826 45.4252 57.6412 44.4161 56.9829 43.4858Z" fill="#5047BA"/>
<path d="M54.8989 39.0154L53.3252 40.7832L52.9515 40.4435L54.5252 38.6757L54.8989 39.0154Z" fill="#8484EA"/>
<path d="M54.3814 41.9317L54.8527 42.3561L56.4168 40.5883L56.0314 40.0674L54.3814 41.9317Z" fill="#8484EA"/>
<path d="M55.5921 43.6061L56.1944 44.1704L57.7713 42.394L57.285 41.6937L55.5921 43.6061Z" fill="#8484EA"/>
<path d="M56.6519 45.3603L57.3589 46.0253L58.9357 44.249L58.4564 43.334L56.6519 45.3603Z" fill="#8484EA"/>
<path d="M57.3927 47.3147L58.1869 48.0539L59.7637 46.2777L59.3303 45.1218L57.3927 47.3147Z" fill="#8484EA"/>
<path d="M57.5259 49.852L58.3331 50.5825L60.0389 48.6614L59.7903 47.3037L57.5259 49.852Z" fill="#8484EA"/>
<path d="M51.3449 39.1397L51.8033 39.5728L53.4534 37.7085L52.9091 37.3718L51.3449 39.1397Z" fill="#8484EA"/>
<path d="M49.4176 37.9722L50.0329 38.5278L51.7347 36.6285L50.9817 36.2045L49.4176 37.9722Z" fill="#8484EA"/>
<path d="M47.4519 37.0018L48.1719 37.6581L49.9809 35.6096L49.0376 35.2385L47.4519 37.0018Z" fill="#8484EA"/>
<path d="M45.3847 36.3863L46.192 37.1169L48.1299 34.9238L46.9488 34.6186L45.3847 36.3863Z" fill="#8484EA"/>
<path d="M42.9785 36.3613L43.7859 37.0919L45.9175 34.71L44.5515 34.6066L42.9785 36.3613Z" fill="#8484EA"/>
<path d="M45.3859 49.237L43.9165 50.8877L43.5428 50.548L45.0122 48.8973L45.3859 49.237Z" fill="#8484EA"/>
<path d="M41.3879 48.5747L41.8463 49.0079L43.4534 47.1919L43.0639 46.6929L41.3879 48.5747Z" fill="#8484EA"/>
<path d="M39.7117 46.0967L40.1338 46.8978L41.8266 44.9855L41.3403 44.2852L39.7117 46.0967Z" fill="#8484EA"/>
<path d="M38.6469 43.6007L39.0573 44.5813L40.6211 42.8139L40.1548 41.8903L38.6469 43.6007Z" fill="#8484EA"/>
<path d="M37.8123 41.1393L38.1897 42.3522L39.6934 40.6637L39.346 39.4114L37.8123 41.1393Z" fill="#8484EA"/>
<path d="M37.6166 38.2267L37.5816 39.8914L39.2314 38.0274L39.1634 36.4899L37.6166 38.2267Z" fill="#8484EA"/>
<path d="M45.7138 52.5137L46.1851 52.9381L47.7923 51.122L47.2609 50.7766L45.7138 52.5137Z" fill="#8484EA"/>
<path d="M47.9002 54.0949L48.7564 54.3917L50.3465 52.6064L49.6022 52.1955L47.9002 54.0949Z" fill="#8484EA"/>
<path d="M50.2991 54.9259L51.1911 55.3892L52.8412 53.5249L51.8762 53.1494L50.2991 54.9259Z" fill="#8484EA"/>
<path d="M52.5881 55.5617L53.7652 55.8888L55.3465 54.0903L54.1482 53.8158L52.5881 55.5617Z" fill="#8484EA"/>
<path d="M55.0489 55.9483L56.5183 55.9245L58.1257 54.1083L56.7123 54.075L55.0489 55.9483Z" fill="#8484EA"/>
<path d="M47.2028 32.7751C50.3857 33.6349 53.3277 35.2408 55.7895 37.4621C58.2513 39.6834 60.1634 42.4573 61.3704 45.5584C63.2589 51.3684 59.9963 55.0318 54.0855 53.7441C50.9088 52.8731 47.9758 51.2573 45.5251 49.0283C43.0744 46.7993 41.1753 44.0201 39.9825 40.9169C38.0811 35.1158 41.3437 31.4524 47.2028 32.7751ZM41.9144 41.0544C43.0004 43.5972 44.6174 45.8752 46.6541 47.7313C48.6907 49.5874 51.0985 50.9775 53.7115 51.8057C58.5308 53.0335 61.0248 50.2159 59.3093 45.5087C58.2359 42.9481 56.6253 40.6509 54.5895 38.7769C52.5536 36.9028 50.1413 35.4969 47.5201 34.6567C42.7663 33.4988 40.1989 36.3472 41.9661 41.0193L41.9144 41.0544Z" fill="#8484EA"/>
<path d="M40.0081 47.0176C42.8981 51.4025 47.2591 54.5865 52.2794 55.9769C53.4086 56.3339 54.6066 56.3992 55.7635 56.1667C56.9204 55.9343 57.9993 55.4116 58.9011 54.6466L60.7038 52.6224C60.7274 52.5976 60.7456 52.5681 60.7574 52.5359C60.7692 52.5036 60.7743 52.4692 60.7724 52.4347C60.7705 52.4003 60.7617 52.3666 60.7464 52.3356C60.7312 52.3047 60.7098 52.2772 60.6837 52.2549C60.6339 52.213 60.5708 52.1908 60.5063 52.1925C60.4417 52.1942 60.3802 52.2196 60.3331 52.264C59.4959 53.0123 58.4783 53.5251 57.3812 53.7514C56.2842 53.9778 55.1458 53.9099 54.0791 53.5545C50.9476 52.6925 48.0569 51.0967 45.6421 48.8969C43.2273 46.6971 41.3567 43.9555 40.1824 40.8951C39.2474 38.0605 39.5189 35.627 41.0234 34.2247C41.0585 34.1876 41.0822 34.1412 41.0918 34.0907C41.1014 34.0403 41.0964 33.988 41.0775 33.9401C41.0608 33.8903 41.0283 33.8474 40.9849 33.8181C40.9416 33.7889 40.89 33.7749 40.8382 33.7785C40.7748 33.7919 40.7192 33.8296 40.6831 33.8838L38.8204 35.9868C37.3781 37.5948 37.107 40.0852 38.0424 42.9766C38.5137 44.4064 39.175 45.7659 40.0081 47.0176ZM58.9555 53.8282L58.5304 54.2882C57.6888 54.9884 56.6856 55.463 55.6125 55.6686C54.5394 55.8741 53.4308 55.804 52.388 55.4648C49.2532 54.603 46.359 53.0071 43.9406 50.8067C41.5221 48.6063 39.6477 45.8634 38.4696 42.801C37.5918 40.0801 37.8255 37.7867 39.1431 36.3015L39.4177 35.9816C39.0046 37.6599 39.0995 39.428 39.6901 41.0577C40.9066 44.1993 42.8354 47.0122 45.3207 49.2691C47.8059 51.5259 50.7778 53.1634 53.9963 54.0492C55.6373 54.4768 57.3643 54.3999 58.9555 53.8282Z" fill="#5047BA"/>
<path d="M47.5203 34.658C50.1331 35.4862 52.5408 36.8762 54.5773 38.7322C56.6139 40.5882 58.2308 42.8661 59.3168 45.4087C61.0322 50.1156 58.5383 52.9331 53.7193 51.7053C51.1065 50.8771 48.6988 49.4872 46.6623 47.6312C44.6257 45.7752 43.0087 43.4973 41.9228 40.9546C40.1995 36.3484 42.7667 33.5002 47.5203 34.658Z" fill="#E9E9FF"/>
<path d="M41.7498 45.0538C44.64 49.4394 48.6789 52.7067 53.6998 54.0973C56.5944 54.9001 59.4182 54.1649 60.8257 52.5041C62.2332 50.8434 62.5306 48.392 61.5952 45.5001C60.3796 42.3573 58.4509 39.5433 55.9652 37.2859C53.4795 35.0286 50.5067 33.3913 47.2873 32.5066C44.3384 31.8584 41.8917 32.3563 40.4842 34.017C39.0767 35.6777 38.7705 38.116 39.7147 41.021C40.207 42.4523 40.8918 43.8094 41.7498 45.0538ZM59.1549 41.7042C59.9875 42.9227 60.6475 44.2522 61.1158 45.6539C61.9936 48.3751 61.4332 50.4555 60.1065 51.9279C58.7799 53.4003 56.885 54.1113 54.1312 53.5022C50.9976 52.6369 48.1047 51.0396 45.6865 48.8393C43.2683 46.639 41.3926 43.8975 40.2112 40.8366C39.3333 38.1153 39.567 35.8215 40.8849 34.336C42.2028 32.8504 44.4419 32.3791 47.1957 32.9882C52.0865 34.3381 56.3367 37.4356 59.1549 41.7042ZM43.3059 44.1501C45.7897 47.8902 49.4589 50.6669 53.7043 52.0191C56.1205 52.6286 58.079 52.2714 59.1952 51.0182C60.3113 49.7649 60.4692 47.7513 59.6027 45.3845C58.4988 42.8005 56.8554 40.4856 54.7857 38.5994C52.716 36.7131 50.2691 35.3003 47.6138 34.4583C45.1977 33.8487 43.2392 34.2059 42.123 35.4592C41.0068 36.7125 40.8489 38.726 41.7154 41.0928C42.1259 42.1705 42.6597 43.1966 43.3059 44.1501ZM57.5471 42.643C58.1738 43.5586 58.6887 44.547 59.0804 45.5866C59.8677 47.7784 59.7689 49.5993 58.7557 50.7255C57.7425 51.8517 55.9611 52.1648 53.7055 51.5989C51.1347 50.7782 48.7654 49.4082 46.7591 47.5824C44.7527 45.7565 43.1563 43.5175 42.0785 41.0179C41.2913 38.8261 41.3988 37.0183 42.412 35.8921C43.4252 34.7659 45.2066 34.4528 47.4535 35.0056C51.5751 36.3162 55.1373 39.0116 57.5471 42.643Z" fill="#9F9FEC"/>
</g>
<defs>
<linearGradient id="paint0_linear_2053_9165" x1="5.01419" y1="-1.16537" x2="26.1609" y2="14.5543" gradientUnits="userSpaceOnUse">
<stop offset="0.00520833" stop-color="#8484EA"/>
<stop offset="0.9999" stop-color="#6061E4"/>
<stop offset="1" stop-color="#6061E4"/>
</linearGradient>
<linearGradient id="paint1_linear_2053_9165" x1="87.2418" y1="49.0826" x2="87.5648" y2="55.7855" gradientUnits="userSpaceOnUse">
<stop offset="0.00520833" stop-color="#8484EA"/>
<stop offset="0.9999" stop-color="#6061E4"/>
<stop offset="1" stop-color="#6061E4"/>
</linearGradient>
<linearGradient id="paint2_linear_2053_9165" x1="2.59351" y1="47.7851" x2="21.1996" y2="34.585" gradientUnits="userSpaceOnUse">
<stop offset="0.00520833" stop-color="#8484EA"/>
<stop offset="0.9999" stop-color="#6061E4"/>
<stop offset="1" stop-color="#6061E4"/>
</linearGradient>
<linearGradient id="paint3_linear_2053_9165" x1="76.6207" y1="8.31928" x2="78.3611" y2="23.8002" gradientUnits="userSpaceOnUse">
<stop offset="0.00520833" stop-color="#8484EA"/>
<stop offset="0.9999" stop-color="#6061E4"/>
<stop offset="1" stop-color="#6061E4"/>
</linearGradient>
<linearGradient id="paint4_linear_2053_9165" x1="90.276" y1="30.2185" x2="91.1694" y2="41.3443" gradientUnits="userSpaceOnUse">
<stop offset="0.00520833" stop-color="#8484EA"/>
<stop offset="0.9999" stop-color="#6061E4"/>
<stop offset="1" stop-color="#6061E4"/>
</linearGradient>
<clipPath id="clip0_2053_9165">
<rect width="264" height="94.069" fill="white"/>
</clipPath>
</defs>
</svg>

