<svg viewBox="0 0 16 16" fill="none" xmlns="http://www.w3.org/2000/svg">
<g clip-path="url(#clip0_2008_8781)">
<path d="M14.0043 7.83366C14.0043 11.1483 11.3172 13.8353 8.0026 13.8353C4.68797 13.8353 2.00094 11.1483 2.00094 7.83366C2.00094 4.51903 4.68797 1.83199 8.0026 1.83199C11.3172 1.83199 14.0043 4.51903 14.0043 7.83366Z" stroke="#9D9D9D" stroke-width="1.33" stroke-linecap="round" stroke-linejoin="round"/>
<path d="M8.00197 11.3337C7.83334 11.3339 7.66633 11.3008 7.51055 11.2362C7.35478 11.1716 7.21333 11.0769 7.09435 10.9574L5.04496 8.91055C4.92544 8.79108 4.83063 8.64923 4.76595 8.49311C4.70126 8.33699 4.66797 8.16966 4.66797 8.00067C4.66797 7.83168 4.70126 7.66435 4.76595 7.50823C4.83063 7.35211 4.92544 7.21027 5.04496 7.0908L7.09435 5.04398C7.21382 4.92447 7.35566 4.82966 7.51178 4.76497C7.6679 4.70029 7.83523 4.66699 8.00422 4.66699C8.17321 4.66699 8.34054 4.70029 8.49666 4.76497C8.65278 4.82966 8.79463 4.92447 8.9141 5.04398L10.9583 7.09337C11.0779 7.21284 11.1727 7.35469 11.2373 7.5108C11.302 7.66692 11.3353 7.83426 11.3353 8.00325C11.3353 8.17223 11.302 8.33957 11.2373 8.49569C11.1727 8.65181 11.0779 8.79365 10.9583 8.91312L8.91152 10.9574C8.79231 11.0771 8.65054 11.172 8.49442 11.2366C8.3383 11.3012 8.17092 11.3342 8.00197 11.3337ZM8.0129 5.96383L5.96545 8.01129L8.01226 10.0581L10.0591 8.01129L8.01226 5.96447L8.0129 5.96383Z" fill="#9D9D9D"/>
</g>
<defs>
<clipPath id="clip0_2008_8781">
<rect width="16" height="16" fill="white"/>
</clipPath>
</defs>
</svg>
