<svg width="24" height="24" viewBox="0 0 24 24" fill="none" xmlns="http://www.w3.org/2000/svg">
<g id="Telegram">
<path id="Vector" fill-rule="evenodd" clip-rule="evenodd" d="M5.79072 11.2849C9.12239 9.83331 11.344 8.87636 12.4556 8.41401C15.6295 7.0939 16.289 6.86459 16.7188 6.85701C16.8134 6.85535 17.0247 6.87878 17.1617 6.98989C17.2773 7.0837 17.3091 7.21044 17.3243 7.29939C17.3395 7.38834 17.3585 7.59096 17.3434 7.74929C17.1714 9.55642 16.4272 13.9418 16.0486 15.9659C15.8884 16.8223 15.573 17.1094 15.2676 17.1375C14.6039 17.1986 14.0999 16.6989 13.4571 16.2776C12.4513 15.6182 11.883 15.2078 10.9067 14.5644C9.7783 13.8208 10.5098 13.4121 11.1528 12.7442C11.3211 12.5694 14.2453 9.90965 14.3019 9.66837C14.309 9.63819 14.3155 9.52571 14.2487 9.46631C14.1819 9.40692 14.0833 9.42723 14.0121 9.44338C13.9112 9.46628 12.3043 10.5284 9.19144 12.6296C8.73533 12.9428 8.3222 13.0954 7.95205 13.0874C7.544 13.0786 6.75905 12.8567 6.17553 12.667C5.45981 12.4344 4.89097 12.3114 4.94051 11.9163C4.96631 11.7105 5.24971 11.5 5.79072 11.2849Z" fill="white"/>
</g>
</svg>
