<svg viewBox="0 0 262 94" fill="none" xmlns="http://www.w3.org/2000/svg">
<g clip-path="url(#clip0_1762_42737)">
<path d="M5.03689 67.8244L7.9665 65.1487C9.40396 63.1111 10.5739 63.9791 13.5034 62.3766C19.8402 59.2651 26.8434 57.6958 33.9424 57.7964C41.0415 57.8971 48.0357 59.6648 54.3555 62.9557C57.3816 64.7372 59.0799 63.8429 60.5507 65.9687L62.8413 68.8338L62.7745 75.3937C62.4038 77.8077 61.4289 80.0834 59.9393 82.0123C58.4497 83.9412 56.493 85.4615 54.2486 86.4339C47.8946 89.5225 40.8804 91.0665 33.7762 90.9403C26.6721 90.8141 19.6788 89.0214 13.365 85.7079C7.74427 82.3644 4.88462 78.0656 4.97436 73.8315L5.03689 67.8244Z" fill="#5047BA"/>
<path d="M23.3204 80.7169C32.5981 83.2313 42.4241 82.5215 51.1667 78.7054C55.9164 76.276 58.565 72.9365 58.5926 69.3436C58.6202 65.7506 56.0321 62.2864 51.2964 59.6998C45.8719 57.0985 39.9588 55.692 33.9645 55.5773C27.9701 55.4625 22.0371 56.6421 16.5742 59.0349C11.8245 61.4643 9.1759 64.8038 9.14829 68.3968C9.12067 71.9897 11.7088 75.4539 16.4445 78.0405C18.6265 79.1959 20.9343 80.0941 23.3204 80.7169ZM44.1175 58.1884C46.4187 58.7776 48.6428 59.6419 50.7408 60.7623C55.102 63.1792 57.5133 66.2497 57.472 69.4928C57.4308 72.7359 55.0053 75.7545 50.5754 78.0274C45.2786 80.3352 39.531 81.4743 33.724 81.3674C27.9169 81.2604 22.1866 79.9097 16.9233 77.4074C12.5621 74.9906 10.1833 71.9288 10.2246 68.6857C10.2659 65.4426 12.6914 62.424 17.0887 60.1424C25.5734 56.434 35.1124 55.7444 44.1175 58.1884Z" fill="#5047BA"/>
<path d="M51.0064 63.505C45.6715 60.9511 39.8565 59.5738 33.9629 59.4681C28.0694 59.3624 22.2378 60.5308 16.871 62.8927C15.3291 63.5326 13.9331 64.471 12.7631 65.6537C11.5932 66.8365 10.6723 68.2404 10.0535 69.7847C10.0535 69.7847 10.0536 69.7848 9.89054 69.741C9.16713 66.0859 11.5165 62.2864 16.8723 59.536C22.2466 57.1813 28.0836 56.0204 33.9809 56.1332C39.8782 56.246 45.6956 57.6298 51.032 60.1893C56.4093 63.1206 58.6749 67.0165 57.8866 70.7159L57.7235 70.6721C56.5176 67.5023 54.1015 64.9244 51.0064 63.505Z" fill="#5047BA"/>
<path d="M9.87259 70.3491C10.0122 70.3696 10.1539 70.3382 10.2705 70.2609C10.3872 70.1837 10.4706 70.066 10.5049 69.9304C11.7095 66.9615 14.0549 64.6033 17.0257 63.374C22.3225 61.0479 28.0768 59.8994 33.8914 60.0078C39.7059 60.1163 45.4421 61.479 50.7039 64.0019C52.1694 64.6637 53.4919 65.6065 54.5949 66.7758C55.6979 67.9451 56.5594 69.3176 57.1299 70.8141C57.1554 70.9059 57.205 70.9896 57.2733 71.0566C57.3417 71.1236 57.4265 71.1715 57.5191 71.1955C57.5715 71.2429 57.6343 71.2772 57.7024 71.2955C57.7706 71.3138 57.8419 71.3155 57.9105 71.3005C58.0332 71.2168 58.1256 71.0962 58.1745 70.9561C59.0722 66.8361 56.4647 62.7791 51.0631 59.8066C45.6397 57.2061 39.7277 55.8001 33.7345 55.6854C27.7413 55.5708 21.8094 56.7502 16.3475 59.1426C10.959 61.8843 8.29815 65.808 9.07519 69.9275C9.15216 70.0679 9.26907 70.1829 9.41101 70.258C9.55296 70.333 9.71358 70.3648 9.87259 70.3491ZM44.4008 60.3376C35.1195 57.8211 25.2882 58.5427 16.5514 62.3814C14.0157 63.5177 11.8529 65.3328 10.302 67.6263C10.7195 65.8771 11.5554 64.2585 12.739 62.9074C13.9226 61.5563 15.419 60.5125 17.1018 59.8642C22.3976 57.5569 28.144 56.4178 33.95 56.5247C39.7559 56.6315 45.4851 57.9817 50.7474 60.4833C52.426 61.1848 53.9114 62.2824 55.074 63.6803C56.2366 65.0782 57.0411 66.7339 57.4173 68.5032C55.9311 66.0911 53.7855 64.146 51.2353 62.8985C49.0699 61.7662 46.7739 60.9059 44.4008 60.3376Z" fill="#5047BA"/>
<path d="M34.7342 56.086L34.6963 61.1533L33.6151 61.134L33.653 56.0668L34.7342 56.086Z" fill="#8484EA"/>
<path d="M38.0189 61.5124L39.3767 61.5303L39.3993 56.4765L38.0436 56.182L38.0189 61.5124Z" fill="#8484EA"/>
<path d="M42.3298 62.4981L44.096 62.5563L44.1269 57.4707L42.3555 57.0299L42.3298 62.4981Z" fill="#8484EA"/>
<path d="M46.513 63.8218L48.5899 63.8942L48.6208 58.8087L46.5577 58.0124L46.513 63.8218Z" fill="#8484EA"/>
<path d="M50.4641 65.9168L52.7863 65.9857L52.8172 60.9004L50.4877 59.6514L50.4641 65.9168Z" fill="#8484EA"/>
<path d="M54.2607 69.8293L56.5915 69.8658L56.6256 64.3652L54.3087 62.5305L54.2607 69.8293Z" fill="#8484EA"/>
<path d="M29.1902 61.2922L30.5396 61.3424L30.5643 56.0117L29.2128 56.2382L29.1902 61.2922Z" fill="#8484EA"/>
<path d="M24.4373 62.1577L26.2121 62.1835L26.2705 56.7237L24.4598 57.1041L24.4373 62.1577Z" fill="#8484EA"/>
<path d="M19.9035 63.3583L21.9891 63.3982L22.0095 57.547L19.9671 58.2811L19.9035 63.3583Z" fill="#8484EA"/>
<path d="M15.7074 65.2738L18.0383 65.3103L18.062 59.0441L15.7299 60.2203L15.7074 65.2738Z" fill="#8484EA"/>
<path d="M11.799 68.6365L14.1302 68.6729L14.1992 61.8294L11.8542 63.5914L11.799 68.6365Z" fill="#8484EA"/>
<path d="M33.8492 85.9657L33.814 90.6973L32.7329 90.678L32.7681 85.9464L33.8492 85.9657Z" fill="#8484EA"/>
<path d="M26.4785 90.5423L27.8278 90.5925L27.8514 85.4004L26.52 85.147L26.4785 90.5423Z" fill="#8484EA"/>
<path d="M20.2819 88.9218L22.0922 89.6156L22.1179 84.1475L20.3465 83.7067L20.2819 88.9218Z" fill="#8484EA"/>
<path d="M15.045 86.4159L17.09 87.4153L17.1124 82.3626L15.058 81.534L15.045 86.4159Z" fill="#8484EA"/>
<path d="M10.2268 83.6313L12.5465 85.0509L12.5837 80.2102L10.2566 78.6847L10.2268 83.6313Z" fill="#8484EA"/>
<path d="M5.80096 79.2152L8.09458 81.9445L8.11918 76.6148L5.83922 74.2356L5.80096 79.2152Z" fill="#8484EA"/>
<path d="M39.0026 90.7809L40.3605 90.7987L40.3841 85.6064L39.041 85.8005L39.0026 90.7809Z" fill="#8484EA"/>
<path d="M44.7544 90.2469L46.5516 89.5162L46.5911 84.3974L44.8128 84.7866L44.7544 90.2469Z" fill="#8484EA"/>
<path d="M49.7892 88.1944L51.8791 87.681L51.9038 82.3506L49.8202 83.1083L49.7892 88.1944Z" fill="#8484EA"/>
<path d="M54.3709 85.9754L56.7275 84.8403L56.7342 79.7129L54.4177 80.9627L54.3709 85.9754Z" fill="#8484EA"/>
<path d="M58.8794 83.1296L61.2113 81.0171L61.235 75.8242L58.9127 77.766L58.8794 83.1296Z" fill="#8484EA"/>
<path d="M13.5361 56.8993C19.8738 53.7905 26.8768 52.2226 33.9755 52.3232C41.0742 52.4239 48.0682 54.1901 54.3889 57.4785C65.6304 64.1656 65.5498 74.6686 54.2168 80.9396C47.8733 84.0217 40.8707 85.561 33.779 85.4323C26.6873 85.3035 19.7069 83.5104 13.4061 80.1987C2.15617 73.544 2.23684 63.041 13.5361 56.8993ZM16.7103 77.6927C22.048 80.2532 27.8669 81.6377 33.7656 81.7507C39.6644 81.8636 45.5028 80.7025 50.8783 78.3472C60.3697 73.5206 60.4071 65.464 51.0006 60.308C45.658 57.7011 39.8225 56.2767 33.8996 56.1338C27.9768 55.9909 22.1087 57.1329 16.7032 59.4804C7.41584 64.3272 7.30369 72.5368 16.7439 77.5633L16.7103 77.6927Z" fill="#8484EA"/>
<path d="M22.058 89.9866C32.9001 92.9658 44.4153 91.9353 54.4598 87.0868C56.7815 86.0674 58.8022 84.4814 60.3365 82.474C61.8708 80.4667 62.8697 78.1023 63.2415 75.5977L63.2861 69.7943C63.289 69.7212 63.2767 69.648 63.2502 69.5794C63.2236 69.5108 63.1833 69.4482 63.1316 69.3954C63.08 69.3426 63.0181 69.3008 62.9499 69.2725C62.8817 69.2442 62.8085 69.2301 62.7349 69.231C62.5957 69.234 62.4628 69.2873 62.3613 69.3811C62.2598 69.475 62.1966 69.6028 62.1835 69.7407C61.892 72.1271 60.9777 74.3891 59.5312 76.3021C58.0847 78.2152 56.1563 79.7129 53.9374 80.6467C47.6794 83.6795 40.7732 85.1912 33.7806 85.0587C26.7879 84.9263 19.9064 83.1535 13.6957 79.8845C8.18922 76.6413 5.19103 72.3405 5.63326 67.9592C5.63749 67.8501 5.61013 67.7417 5.55437 67.6469C5.4986 67.5522 5.41677 67.475 5.31872 67.4248C5.22152 67.368 5.10858 67.3449 4.99753 67.359C4.88649 67.3731 4.78369 67.4235 4.70538 67.5025C4.62221 67.6134 4.58598 67.7526 4.60436 67.8907L4.57442 73.9058C4.5225 78.5303 7.6016 82.922 13.189 86.2562C15.9661 87.8926 18.9498 89.1476 22.058 89.9866ZM62.1737 74.2034L62.1389 75.5441C61.7725 77.8594 60.8274 80.0395 59.3902 81.8852C57.9529 83.7308 56.0693 85.1831 53.9117 86.109C47.6487 89.147 40.7368 90.6634 33.7373 90.5351C26.7379 90.4068 19.8484 88.6373 13.6289 85.3705C8.37494 82.2296 5.51361 78.2078 5.53814 73.9567L5.52872 73.0542C7.23279 76.339 9.88148 79.0514 13.1327 80.8412C19.5259 84.1813 26.6018 85.9868 33.7884 86.1116C40.9751 86.2365 48.0709 84.6772 54.5023 81.5598C57.7479 79.9317 60.4193 77.37 62.1737 74.2034Z" fill="#5047BA"/>
<path d="M16.7047 59.4874C22.0799 57.1323 27.918 55.9712 33.8165 56.0841C39.715 56.197 45.5335 57.5813 50.8709 60.1416C60.2769 65.2972 60.2395 73.3533 50.7485 78.1796C45.3733 80.5347 39.5353 81.6959 33.6368 81.583C27.7384 81.47 21.9198 80.0857 16.5824 77.5254C7.3057 72.543 7.41785 64.3339 16.7047 59.4874Z" fill="#E9E9FF"/>
<path d="M22.0913 84.3734C32.9349 87.3534 44.049 86.9117 54.0947 82.0626C59.8877 79.2687 63.3957 74.099 63.3171 69.4387C63.2385 64.7784 60.2568 60.4121 54.6686 57.0772C48.2753 53.7338 41.1981 51.9264 34.01 51.8014C26.8219 51.6765 19.725 53.2374 13.2935 56.3578C7.63122 59.4772 4.39526 63.7325 4.47383 68.3928C4.55241 73.0531 7.5015 77.4106 13.1223 80.7543C15.9353 82.3635 18.9534 83.5813 22.0913 84.3734ZM45.3817 54.4114C48.4422 55.1976 51.3816 56.4061 54.1139 58.0016C59.3686 61.1431 61.403 65.2831 61.3459 69.5262C61.2888 73.7692 59.2422 77.5887 53.9492 80.4956C47.6832 83.5262 40.7713 85.0385 33.7723 84.9101C26.7734 84.7816 19.884 83.0162 13.6612 79.7564C8.40654 76.6149 5.5447 72.5924 5.56922 68.3406C5.59373 64.0888 8.53294 60.1693 13.8259 57.2624C23.6047 52.5313 34.8193 51.5181 45.3817 54.4114ZM23.3207 80.722C32.5988 83.2366 42.4253 82.5269 51.1683 78.7106C55.9183 76.2811 58.567 72.9414 58.5946 69.3483C58.6222 65.7551 56.034 62.2907 51.298 59.7039C45.8733 57.1024 39.9599 55.6958 33.9653 55.5809C27.9706 55.4661 22.0373 56.6458 16.5742 59.0387C11.8242 61.4682 9.17548 64.8079 9.14787 68.401C9.12024 71.9942 11.7085 75.4586 16.4444 78.0454C18.6266 79.2008 20.9345 80.0991 23.3207 80.722ZM44.1188 58.1923C46.4201 58.7816 48.6443 59.6459 50.7424 60.7664C55.1038 63.1835 57.5152 66.2542 57.474 69.4975C57.4327 72.7408 55.0071 75.7595 50.577 78.0325C45.2799 80.3404 39.5321 81.4796 33.7247 81.3726C27.9174 81.2656 22.1868 79.9148 16.9232 77.4123C12.5619 74.9952 10.183 71.9332 10.2242 68.6899C10.2655 65.4466 12.6912 62.4279 17.0887 60.1462C25.5738 56.4377 35.1132 55.7481 44.1188 58.1923Z" fill="#9F9FEC"/>
<path d="M6.74963 54.1936L9.29329 51.8704C10.5414 50.1013 11.5572 50.8549 14.1007 49.4635C19.6027 46.762 25.6833 45.3994 31.8472 45.4867C38.0111 45.5741 44.0839 47.109 49.5711 49.9663C52.1985 51.5132 53.6731 50.7367 54.9502 52.5824L56.939 55.07L56.881 60.7657C56.5591 62.8617 55.7126 64.8377 54.4193 66.5125C53.1259 68.1873 51.427 69.5073 49.4783 70.3515C43.9613 73.0332 37.8711 74.3738 31.7029 74.2643C25.5347 74.1547 19.4626 72.5982 13.9806 69.7212C9.10034 66.8182 6.61743 63.0857 6.69534 59.4093L6.74963 54.1936Z" fill="#5047BA"/>
<path d="M22.6255 65.3895C30.681 67.5727 39.2125 66.9564 46.8034 63.643C50.9274 61.5337 53.227 58.6341 53.251 55.5145C53.275 52.3949 51.0278 49.3871 46.916 47.1412C42.2061 44.8826 37.072 43.6614 31.8674 43.5618C26.6627 43.4621 21.5113 44.4864 16.7681 46.5639C12.6441 48.6733 10.3444 51.5728 10.3204 54.6925C10.2965 57.8121 12.5436 60.8199 16.6555 63.0657C18.55 64.0689 20.5538 64.8488 22.6255 65.3895ZM40.6828 45.8289C42.6809 46.3405 44.612 47.091 46.4336 48.0638C50.2202 50.1622 52.3139 52.8282 52.2781 55.6441C52.2422 58.46 50.1363 61.0809 46.29 63.0543C41.691 65.0581 36.7006 66.0472 31.6585 65.9543C26.6165 65.8614 21.6411 64.6887 17.0712 62.516C13.2846 60.4176 11.2191 57.7592 11.255 54.9433C11.2908 52.1274 13.3968 49.5065 17.2148 47.5255C24.5818 44.3057 32.864 43.7069 40.6828 45.8289Z" fill="#5047BA"/>
<path d="M46.6643 50.4436C42.0323 48.2262 36.9833 47.0303 31.8661 46.9385C26.749 46.8467 21.6856 47.8612 17.0259 49.912C15.6871 50.4676 14.475 51.2823 13.4592 52.3092C12.4433 53.3362 11.6438 54.5551 11.1066 55.8961C11.1066 55.8961 11.1066 55.8961 10.965 55.8581C10.3369 52.6845 12.3768 49.3855 17.027 46.9974C21.6933 44.953 26.7613 43.945 31.8817 44.0429C37.0021 44.1409 42.0532 45.3424 46.6865 47.5647C51.3555 50.1098 53.3226 53.4925 52.6382 56.7045L52.4965 56.6665C51.4495 53.9143 49.3517 51.676 46.6643 50.4436Z" fill="#5047BA"/>
<path d="M10.9478 56.3833C11.0691 56.401 11.1921 56.3738 11.2934 56.3067C11.3946 56.2396 11.4671 56.1375 11.4968 56.0198C12.5428 53.4419 14.5792 51.3944 17.1586 50.3271C21.7576 48.3074 26.7538 47.3102 31.8024 47.4043C36.851 47.4985 41.8315 48.6817 46.4001 50.8722C47.6725 51.4468 48.8208 52.2655 49.7785 53.2807C50.7362 54.2959 51.4842 55.4877 51.9795 56.787C52.0017 56.8667 52.0447 56.9394 52.1041 56.9976C52.1635 57.0557 52.2371 57.0973 52.3175 57.1182C52.3629 57.1593 52.4175 57.1891 52.4766 57.205C52.5358 57.2209 52.5977 57.2223 52.6573 57.2093C52.7638 57.1367 52.8441 57.0319 52.8865 56.9103C53.666 53.3331 51.402 49.8105 46.7119 47.2296C42.003 44.9717 36.8699 43.7509 31.6662 43.6514C26.4626 43.5518 21.3121 44.5759 16.5698 46.6531C11.8911 49.0336 9.58082 52.4404 10.2555 56.0172C10.3223 56.1391 10.4238 56.239 10.5471 56.3042C10.6703 56.3693 10.8098 56.3969 10.9478 56.3833ZM40.9273 47.6906C32.8688 45.5057 24.3326 46.1322 16.7468 49.4653C14.5451 50.4518 12.6673 52.0278 11.3207 54.0192C11.6832 52.5004 12.409 51.095 13.4366 49.9219C14.4643 48.7489 15.7636 47.8425 17.2247 47.2796C21.8228 45.2763 26.8122 44.2873 31.8533 44.3801C36.8944 44.4728 41.8688 45.6451 46.4378 47.8172C47.8953 48.4263 49.185 49.3793 50.1945 50.593C51.2039 51.8067 51.9024 53.2444 52.2291 54.7805C50.9387 52.6862 49.0758 50.9973 46.8615 49.9142C44.9813 48.9311 42.9879 48.1841 40.9273 47.6906Z" fill="#5047BA"/>
<path d="M32.5358 44.0016L32.5029 48.4014L31.5642 48.3846L31.5971 43.9849L32.5358 44.0016Z" fill="#8484EA"/>
<path d="M35.3873 48.7101L36.5662 48.7256L36.5858 44.3376L35.4087 44.0819L35.3873 48.7101Z" fill="#8484EA"/>
<path d="M39.131 49.5679L40.6645 49.6185L40.6914 45.2029L39.1533 44.8201L39.131 49.5679Z" fill="#8484EA"/>
<path d="M42.7613 50.7172L44.5645 50.78L44.5914 46.3646L42.8001 45.6732L42.7613 50.7172Z" fill="#8484EA"/>
<path d="M46.1925 52.5343L48.2087 52.5941L48.2355 48.1788L46.213 47.0944L46.1925 52.5343Z" fill="#8484EA"/>
<path d="M49.4902 55.937L51.5139 55.9687L51.5435 51.1927L49.5318 49.5997L49.4902 55.937Z" fill="#8484EA"/>
<path d="M27.7206 48.5195L28.8923 48.5631L28.9137 43.9347L27.7402 44.1313L27.7206 48.5195Z" fill="#8484EA"/>
<path d="M23.5961 49.2701L25.1371 49.2925L25.1878 44.5519L23.6156 44.8822L23.5961 49.2701Z" fill="#8484EA"/>
<path d="M19.6589 50.3142L21.4697 50.3489L21.4875 45.2685L19.7141 45.9059L19.6589 50.3142Z" fill="#8484EA"/>
<path d="M16.0142 51.9779L18.0381 52.0096L18.0587 46.5689L16.0338 47.5901L16.0142 51.9779Z" fill="#8484EA"/>
<path d="M12.6209 54.8979L14.645 54.9295L14.705 48.9875L12.6689 50.5174L12.6209 54.8979Z" fill="#8484EA"/>
<path d="M31.7674 69.9435L31.7368 74.0518L30.7981 74.035L30.8288 69.9268L31.7674 69.9435Z" fill="#8484EA"/>
<path d="M25.3677 73.9166L26.5393 73.9602L26.5598 69.4521L25.4038 69.2321L25.3677 73.9166Z" fill="#8484EA"/>
<path d="M19.9878 72.5109L21.5597 73.1133L21.5819 68.3656L20.0439 67.9828L19.9878 72.5109Z" fill="#8484EA"/>
<path d="M15.4385 70.3329L17.2141 71.2006L17.2336 66.8136L15.4497 66.0941L15.4385 70.3329Z" fill="#8484EA"/>
<path d="M11.2567 67.9177L13.2708 69.1503L13.3031 64.9473L11.2826 63.6227L11.2567 67.9177Z" fill="#8484EA"/>
<path d="M7.41324 64.0838L9.4047 66.4536L9.42606 61.826L7.44646 59.7602L7.41324 64.0838Z" fill="#8484EA"/>
<path d="M36.2416 74.1265L37.4206 74.142L37.4411 69.6337L36.2749 69.8022L36.2416 74.1265Z" fill="#8484EA"/>
<path d="M41.2361 73.6616L42.7966 73.0272L42.8308 68.5827L41.2868 68.9207L41.2361 73.6616Z" fill="#8484EA"/>
<path d="M45.6067 71.8768L47.4212 71.431L47.4426 66.8029L45.6335 67.4608L45.6067 71.8768Z" fill="#8484EA"/>
<path d="M49.585 69.954L51.6311 68.9685L51.6369 64.5165L49.6256 65.6016L49.585 69.954Z" fill="#8484EA"/>
<path d="M53.5002 67.4835L55.5249 65.6493L55.5454 61.1405L53.5291 62.8265L53.5002 67.4835Z" fill="#8484EA"/>
<path d="M14.1298 44.7048C19.6326 42.0055 25.713 40.6442 31.8765 40.7316C38.0401 40.8189 44.1127 42.3525 49.6007 45.2076C59.3613 51.0138 59.2913 60.1332 49.4513 65.5781C43.9435 68.2541 37.8634 69.5906 31.706 69.4789C25.5485 69.3671 19.4877 67.8101 14.017 64.9348C4.24908 59.1567 4.31912 50.0373 14.1298 44.7048ZM16.8858 62.7589C21.5204 64.9821 26.5727 66.1842 31.6943 66.2823C36.816 66.3803 41.8853 65.3721 46.5526 63.3271C54.7937 59.1364 54.8261 52.1412 46.6588 47.6645C42.02 45.401 36.9533 44.1642 31.8107 44.0401C26.6681 43.916 21.5731 44.9076 16.8797 46.9459C8.81585 51.1541 8.71847 58.2822 16.9151 62.6466L16.8858 62.7589Z" fill="#8484EA"/>
<path d="M21.5297 73.4364C30.9435 76.0232 40.9417 75.1284 49.6629 70.9187C51.6788 70.0336 53.4332 68.6565 54.7654 66.9136C56.0976 65.1707 56.9649 63.1178 57.2878 60.9431L57.3265 55.9043C57.329 55.8407 57.3183 55.7772 57.2953 55.7177C57.2722 55.6581 57.2372 55.6037 57.1923 55.5579C57.1475 55.512 57.0938 55.4757 57.0345 55.4512C56.9753 55.4266 56.9118 55.4144 56.8479 55.4152C56.727 55.4177 56.6116 55.464 56.5235 55.5455C56.4354 55.627 56.3805 55.7379 56.3691 55.8577C56.116 57.9297 55.3222 59.8937 54.0662 61.5547C52.8103 63.2158 51.136 64.5162 49.2093 65.3269C43.7758 67.9602 37.7794 69.2727 31.7079 69.1578C25.6365 69.0428 19.6616 67.5035 14.269 64.6652C9.48798 61.8492 6.88476 58.115 7.26874 54.3109C7.27241 54.2161 7.24865 54.122 7.20023 54.0398C7.15182 53.9575 7.08076 53.8905 6.99563 53.8469C6.91123 53.7976 6.81317 53.7776 6.71676 53.7898C6.62034 53.802 6.53108 53.8458 6.4631 53.9143C6.39088 54.0106 6.35942 54.1315 6.37538 54.2514L6.34938 59.4741C6.3043 63.4893 8.97777 67.3025 13.8291 70.1975C16.2403 71.6183 18.831 72.708 21.5297 73.4364ZM56.3606 59.7325L56.3304 60.8965C56.0122 62.9068 55.1917 64.7998 53.9438 66.4023C52.6958 68.0048 51.0604 69.2657 49.187 70.0696C43.7491 72.7074 37.7478 74.0241 31.6704 73.9127C25.5931 73.8013 19.6112 72.2649 14.211 69.4284C9.64922 66.7013 7.16484 63.2093 7.18615 59.5183L7.17797 58.7347C8.65755 61.5867 10.9573 63.9418 13.7802 65.4958C19.3312 68.3959 25.4749 69.9635 31.7148 70.0719C37.9547 70.1803 44.1157 68.8265 49.6998 66.1198C52.5178 64.7062 54.8373 62.4819 56.3606 59.7325Z" fill="#5047BA"/>
<path d="M16.8811 46.9558C21.5481 44.9109 26.6172 43.9027 31.7386 44.0008C36.86 44.0988 41.9119 45.3007 46.5462 47.5237C54.7132 52.0002 54.6807 58.9949 46.44 63.1854C41.7729 65.2303 36.704 66.2385 31.5826 66.1405C26.4612 66.0424 21.4091 64.8404 16.7748 62.6174C8.72027 58.2914 8.81764 51.1638 16.8811 46.9558Z" fill="#E9E9FF"/>
<path d="M21.5579 68.5638C30.973 71.1512 40.6229 70.7677 49.3453 66.5574C54.3751 64.1316 57.4209 59.6429 57.3527 55.5966C57.2845 51.5502 54.6956 47.7591 49.8435 44.8636C44.2925 41.9606 38.1476 40.3913 31.9065 40.2828C25.6653 40.1743 19.5033 41.5296 13.9192 44.2389C9.00279 46.9473 6.19313 50.6421 6.26136 54.6884C6.32958 58.7348 8.89016 62.5183 13.7705 65.4214C16.2129 66.8186 18.8334 67.8761 21.5579 68.5638ZM41.7801 42.5489C44.4374 43.2315 46.9895 44.2809 49.3619 45.6662C53.9243 48.3938 55.6908 51.9884 55.6412 55.6725C55.5916 59.3566 53.8146 62.6729 49.2189 65.1969C43.7783 67.8282 37.777 69.1413 31.7001 69.0297C25.6232 68.9182 19.6414 67.3853 14.2384 64.555C9.67597 61.8274 7.19115 58.3348 7.21243 54.6431C7.23372 50.9514 9.78573 47.5483 14.3814 45.0243C22.8719 40.9165 32.6091 40.0368 41.7801 42.5489ZM22.6253 65.3934C30.6811 67.5768 39.2131 66.9605 46.8043 63.647C50.9286 61.5376 53.2283 58.6378 53.2523 55.518C53.2763 52.3982 51.029 49.3902 46.917 47.1442C42.2069 44.8854 37.0725 43.6641 31.8676 43.5644C26.6627 43.4647 21.511 44.4889 16.7676 46.5666C12.6434 48.676 10.3436 51.5758 10.3196 54.6956C10.2957 57.8154 12.5429 60.8234 16.655 63.0694C18.5496 64.0726 20.5535 64.8526 22.6253 65.3934ZM40.6835 45.8317C42.6817 46.3434 44.6128 47.0939 46.4346 48.0668C50.2214 50.1654 52.3152 52.8316 52.2793 55.6476C52.2435 58.4636 50.1374 61.0847 46.2909 63.0583C41.6917 65.0621 36.7011 66.0512 31.6588 65.9583C26.6165 65.8654 21.6409 64.6926 17.0707 62.5197C13.2839 60.4211 11.2184 57.7625 11.2542 54.9464C11.2901 52.1304 13.3962 49.5094 17.2143 47.5282C24.5817 44.3083 32.8644 43.7096 40.6835 45.8317Z" fill="#9F9FEC"/>
<path d="M135.949 66.7388V44.678L111.86 46.1583L109.636 37.0957L87.4532 45.7612L83.2178 44.9668C83.2178 45.7251 83.2178 66.6305 83.2178 66.8833C83.2406 67.1437 83.3593 67.396 83.5629 67.6168C83.7665 67.8377 84.0483 68.02 84.3825 68.1469L106.725 76.9568C107.66 77.3209 108.718 77.5125 109.795 77.5125C110.872 77.5125 111.931 77.3209 112.866 76.9568L135.526 68.0747C135.875 67.938 136.168 67.7445 136.381 67.5113C136.593 67.2782 136.718 67.0128 136.743 66.7388H135.949Z" fill="#5047BA"/>
<path d="M109.002 78.297C107.715 78.3003 106.452 78.063 105.349 77.611L83.0071 68.765C82.5329 68.5881 82.1303 68.334 81.8347 68.0253C81.5392 67.7167 81.3598 67.3631 81.3128 66.9959V44.9711C81.302 44.8387 81.34 44.7066 81.4232 44.5868C81.5064 44.467 81.6322 44.3632 81.7893 44.2851C81.9694 44.2218 82.1692 44.1887 82.3718 44.1887C82.5744 44.1887 82.774 44.2218 82.9541 44.2851L86.819 45.0072L108.684 36.4501C108.89 36.3801 109.117 36.3438 109.346 36.3438C109.576 36.3438 109.803 36.3801 110.008 36.4501L110.432 36.6306L112.549 45.3683L135.897 43.9602C136.164 44.013 136.399 44.1216 136.57 44.2706C136.741 44.4196 136.839 44.6015 136.85 44.7906V66.9597C136.814 67.3481 136.642 67.7249 136.347 68.058C136.052 68.3912 135.643 68.6708 135.156 68.8733L112.443 77.7555C111.38 78.128 110.197 78.3141 109.002 78.297ZM83.4835 45.8015V66.8514C83.5209 66.9831 83.5965 67.1084 83.7055 67.2199C83.8146 67.3315 83.955 67.4272 84.1188 67.5013L106.461 76.3112C107.254 76.6509 108.171 76.8312 109.108 76.8312C110.045 76.8312 110.962 76.6509 111.755 76.3112L134.415 67.4291C134.602 67.3555 134.759 67.2506 134.87 67.1242C134.981 66.9979 135.043 66.8543 135.05 66.707V45.3322L111.808 46.7764H111.279L110.855 46.5959L108.79 38.1832L87.6131 46.5598H87.0308L83.4835 45.8015Z" fill="#362187"/>
<path d="M135.792 44.5723L111.702 46.0526L108.896 51.6491V77.5732C110.027 77.6085 111.148 77.4205 112.126 77.0317L134.786 68.1495C135.138 68.0154 135.434 67.8225 135.647 67.5888C135.86 67.3551 135.983 67.0884 136.003 66.8136V44.7528L135.792 44.5723Z" fill="#362187"/>
<path d="M109.003 78.288H107.679V51.425L110.962 44.926L111.862 45.287L135.792 43.8428C136.058 43.8956 136.294 44.0042 136.465 44.1532C136.636 44.3022 136.734 44.4841 136.745 44.6732V66.8423C136.713 67.2315 136.543 67.6094 136.247 67.9431C135.952 68.2767 135.541 68.5558 135.051 68.756L112.338 77.6381C111.323 78.041 110.177 78.2644 109.003 78.288ZM109.903 51.75V76.7354C110.475 76.6574 111.028 76.5236 111.544 76.3383L134.204 67.4561C134.391 67.3825 134.547 67.2776 134.659 67.1513C134.77 67.0249 134.832 66.8813 134.839 66.734V45.3592L112.444 46.7313L109.903 51.75Z" fill="#362187"/>
<path d="M85.8138 46.7738C85.8138 46.7738 86.1845 46.16 86.5551 45.3657L82.6372 44.6074C82.6372 45.3656 82.6372 66.2711 82.6372 66.5238C82.6536 66.7806 82.7703 67.0298 82.975 67.2456C83.1798 67.4614 83.4652 67.636 83.802 67.7514L86.0256 68.6541V46.7738H85.8138Z" fill="#362187"/>
<path d="M86.9248 70.2437L83.0071 68.6912C82.5329 68.5142 82.1303 68.2601 81.8347 67.9514C81.5392 67.6428 81.3598 67.2892 81.3128 66.922V44.8972C81.302 44.7648 81.34 44.6327 81.4232 44.5129C81.5064 44.3931 81.6322 44.2893 81.7893 44.2112C81.9706 44.1506 82.1699 44.1191 82.3718 44.1191C82.5737 44.1191 82.7728 44.1506 82.9541 44.2112L87.9837 45.1861L87.6131 45.9443L86.9248 47.2442V70.2437ZM83.4835 45.6916V66.7775C83.5151 66.9058 83.5886 67.0276 83.6986 67.1339C83.8086 67.2401 83.9522 67.3281 84.1188 67.3914L84.7013 67.6441V46.6664C84.7013 46.6664 84.7013 46.4137 85.0189 46.0165L83.4835 45.6916Z" fill="#362187"/>
<path d="M106.039 54.9649L83.5915 46.0828C83.2286 45.9404 82.9271 45.7352 82.7175 45.488C82.5079 45.2408 82.3975 44.9602 82.3975 44.6747C82.3975 44.3891 82.5079 44.1086 82.7175 43.8614C82.9271 43.6142 83.2286 43.409 83.5915 43.2665L106.357 34.3845C107.259 34.0116 108.293 33.8145 109.348 33.8145C110.403 33.8145 111.438 34.0116 112.34 34.3845L134.787 43.2665C135.138 43.4113 135.428 43.6152 135.629 43.8587C135.831 44.1023 135.936 44.3771 135.936 44.6566C135.936 44.9362 135.831 45.211 135.629 45.4545C135.428 45.698 135.138 45.902 134.787 46.0467L111.969 54.9649C111.071 55.3271 110.047 55.5181 109.004 55.5181C107.961 55.5181 106.937 55.3271 106.039 54.9649Z" fill="white"/>
<path d="M109.002 56.2691C107.757 56.2669 106.534 56.0428 105.455 55.6192L83.0071 46.7732C82.4834 46.5627 82.0508 46.2614 81.7532 45.8999C81.4556 45.5384 81.3036 45.1296 81.3129 44.7151C81.3141 44.3019 81.4705 43.8959 81.7671 43.5357C82.0636 43.1754 82.4905 42.8729 83.0071 42.6571L105.826 33.775C106.894 33.3499 108.109 33.126 109.346 33.126C110.583 33.126 111.798 33.3499 112.867 33.775L135.315 42.6571C135.843 42.862 136.283 43.1588 136.588 43.5171C136.894 43.8754 137.055 44.2825 137.055 44.6971C137.055 45.1116 136.894 45.5187 136.588 45.8771C136.283 46.2354 135.843 46.5321 135.315 46.7371L112.549 55.6553C111.465 56.0664 110.243 56.2779 109.002 56.2691ZM109.32 34.6054C108.46 34.6037 107.616 34.7663 106.885 35.0748L84.1189 43.9569C83.924 44.0336 83.7626 44.1442 83.651 44.2774C83.5394 44.4106 83.4816 44.5617 83.4836 44.7151C83.4758 44.8692 83.5312 45.0219 83.6434 45.1558C83.7556 45.2897 83.9202 45.3997 84.1189 45.4733L106.567 54.3555C107.302 54.658 108.144 54.8179 109.002 54.8179C109.861 54.8179 110.703 54.658 111.438 54.3555L134.203 45.4373C134.398 45.3696 134.56 45.266 134.673 45.1383C134.785 45.0106 134.842 44.864 134.838 44.7151C134.846 44.5609 134.791 44.4084 134.679 44.2745C134.566 44.1405 134.402 44.0306 134.203 43.9569L111.755 35.0748C111.033 34.7481 110.187 34.5724 109.32 34.5693V34.6054Z" fill="#362187"/>
<path d="M107.68 50.3832L95.1856 45.4367C94.9755 45.3593 94.7998 45.2446 94.6775 45.1048C94.5552 44.965 94.4907 44.8052 94.4907 44.6423C94.4907 44.4795 94.5552 44.3197 94.6775 44.1798C94.7998 44.04 94.9755 43.9254 95.1856 43.848L107.892 38.9015C108.391 38.705 108.957 38.6016 109.533 38.6016C110.109 38.6016 110.675 38.705 111.174 38.9015L123.669 43.848C123.881 43.9197 124.059 44.0304 124.184 44.1676C124.309 44.3047 124.375 44.4629 124.375 44.6243C124.375 44.7857 124.309 44.9438 124.184 45.081C124.059 45.2182 123.881 45.3288 123.669 45.4005L110.751 50.3832C110.275 50.5481 109.749 50.634 109.216 50.634C108.682 50.634 108.156 50.5481 107.68 50.3832Z" fill="#B1B1F2"/>
<path d="M109.058 51.3575C108.297 51.3494 107.551 51.213 106.887 50.9604L94.3394 46.0138C93.9777 45.863 93.6799 45.6505 93.4756 45.3972C93.2714 45.1439 93.1677 44.8586 93.1746 44.5696C93.1728 44.2812 93.2788 43.9972 93.4826 43.7445C93.6864 43.4918 93.9813 43.2787 94.3394 43.1253L107.046 38.1788C107.722 37.9126 108.489 37.7725 109.269 37.7725C110.05 37.7725 110.817 37.9126 111.493 38.1788L123.987 43.1253C124.363 43.2651 124.677 43.4713 124.895 43.7223C125.113 43.9732 125.229 44.2597 125.229 44.5515C125.229 44.8433 125.113 45.1298 124.895 45.3807C124.677 45.6317 124.363 45.8379 123.987 45.9777L111.281 50.9604C110.6 51.2173 109.836 51.3539 109.058 51.3575ZM109.058 39.262C108.664 39.2605 108.278 39.3357 107.946 39.4786L95.2393 44.4252V44.714L107.787 49.6605C108.12 49.7838 108.493 49.8483 108.872 49.8483C109.251 49.8483 109.624 49.7838 109.958 49.6605L122.664 44.6779L110.381 39.5508C110.056 39.3875 109.671 39.2876 109.269 39.262H109.058Z" fill="#B1B1F2"/>
<path d="M94.921 45.3664L97.6211 46.4134L107.627 42.514C108.126 42.3175 108.692 42.2141 109.269 42.2141C109.845 42.2141 110.411 42.3175 110.91 42.514L120.704 46.4134L123.404 45.3303C123.616 45.2586 123.795 45.1478 123.919 45.0107C124.044 44.8735 124.11 44.7154 124.11 44.554C124.11 44.3926 124.044 44.2344 123.919 44.0972C123.795 43.9601 123.616 43.8494 123.404 43.7777L110.91 38.8312C110.411 38.6347 109.845 38.5313 109.269 38.5312C108.692 38.5313 108.126 38.6347 107.627 38.8312L94.921 43.7777C94.7109 43.855 94.5353 43.9697 94.413 44.1096C94.2907 44.2494 94.2261 44.4092 94.2261 44.572C94.2261 44.7349 94.2907 44.8947 94.413 45.0345C94.5353 45.1744 94.7109 45.289 94.921 45.3664Z" fill="#B1B1F2"/>
<path d="M97.6218 47.2775L94.3394 46.0138C93.9777 45.863 93.6799 45.6505 93.4756 45.3972C93.2714 45.1439 93.1677 44.8586 93.1746 44.5696C93.1728 44.2812 93.2788 43.9972 93.4826 43.7445C93.6864 43.4918 93.9813 43.2787 94.3394 43.1253L107.046 38.1788C107.722 37.9126 108.489 37.7725 109.269 37.7725C110.05 37.7725 110.817 37.9126 111.493 38.1788L123.987 43.1253C124.363 43.2651 124.677 43.4713 124.895 43.7223C125.113 43.9732 125.229 44.2597 125.229 44.5515C125.229 44.8433 125.113 45.1298 124.895 45.3807C124.677 45.6317 124.363 45.8379 123.987 45.9777L120.705 47.2775L110.381 43.1614C110.038 43.0381 109.657 42.9737 109.269 42.9737C108.882 42.9737 108.5 43.0381 108.157 43.1614L97.6218 47.2775ZM95.4512 44.714L97.6218 45.5445L107.046 41.9338C107.722 41.6676 108.489 41.5275 109.269 41.5275C110.05 41.5275 110.817 41.6676 111.493 41.9338L120.705 45.5445L122.876 44.6779L110.381 39.5508C110.047 39.4102 109.662 39.3358 109.269 39.3358C108.877 39.3358 108.492 39.4102 108.157 39.5508L95.4512 44.4973V44.7862V44.714Z" fill="#362187"/>
<path d="M109.163 38.543C108.623 38.5488 108.095 38.6482 107.627 38.8318L94.921 43.7783C94.7109 43.8557 94.5353 43.9704 94.413 44.1102C94.2907 44.2501 94.2261 44.4098 94.2261 44.5727C94.2261 44.7355 94.2907 44.8954 94.413 45.0352C94.5353 45.175 94.7109 45.2897 94.921 45.367L97.6211 46.4141L107.627 42.5146C108.095 42.331 108.623 42.2316 109.163 42.2258V38.543Z" fill="#362187"/>
<path d="M97.6211 47.2801L94.3386 46.0163C93.9774 45.8643 93.6791 45.6519 93.4723 45.3991C93.2654 45.1463 93.1567 44.8616 93.1567 44.5721C93.1567 44.2826 93.2654 43.998 93.4723 43.7452C93.6791 43.4924 93.9774 43.2799 94.3386 43.1279L107.045 38.1813C107.687 37.9243 108.418 37.7873 109.163 37.7842H110.274V42.9834H109.216C108.867 42.9305 108.505 42.9305 108.157 42.9834L97.6211 47.2801ZM108.21 39.5173L95.6092 44.4277V44.7165L97.7799 45.547L107.204 41.9364L108.21 41.6475V39.5173Z" fill="#362187"/>
<path d="M115.302 40.3135H113.079V43.7436H115.302V40.3135Z" fill="#362187"/>
<g opacity="0.5">
<path d="M90.796 5.63147L91.8493 6.38866C92.5988 6.71299 92.3975 7.14147 93.106 7.96849C94.5247 9.78056 95.4921 11.9049 95.9296 14.1685C96.367 16.4321 96.2621 18.7709 95.6233 20.9944C95.2513 22.0725 95.651 22.5542 95.0655 23.1603L94.2969 24.0751L92.1856 24.481C91.3857 24.5203 90.5902 24.3586 89.8722 24.0106C89.1541 23.6626 88.5363 23.1395 88.0755 22.4893C86.663 20.6702 85.703 18.5407 85.2734 16.2739C84.8438 14.007 84.9568 11.6669 85.6033 9.44375C86.3052 7.43903 87.4967 6.24994 88.8625 6.00275L90.796 5.63147Z" fill="#5047BA"/>
<path d="M87.8651 12.2829C87.6714 15.3963 88.5496 18.4741 90.3538 21.0051C91.4484 22.357 92.6962 22.9817 93.852 22.7565C95.0079 22.5313 95.9492 21.4829 96.4666 19.8088C96.9431 17.9148 97.0036 15.9432 96.6438 14.03C96.284 12.1167 95.5125 10.3072 94.3825 8.7262C93.2879 7.3743 92.0401 6.74969 90.8843 6.97487C89.7285 7.20005 88.7871 8.24847 88.2697 9.92254C88.043 10.6915 87.9072 11.4837 87.8651 12.2829ZM96.477 17.428C96.44 18.198 96.3096 18.9614 96.0886 19.7013C95.6009 21.2453 94.7743 22.2119 93.73 22.4099C92.6856 22.608 91.5556 22.0334 90.5324 20.773C89.4407 19.2393 88.6945 17.4861 88.3446 15.6329C87.9947 13.7797 88.0493 11.8699 88.5047 10.0335C88.9924 8.48961 89.8184 7.53394 90.8627 7.33588C91.9071 7.13782 93.0371 7.71243 94.0609 8.96188C95.8134 11.418 96.6661 14.4058 96.477 17.428Z" fill="#5047BA"/>
<path d="M95.2306 19.9671C95.6979 18.1047 95.7554 16.1663 95.3994 14.2856C95.0434 12.405 94.2822 10.627 93.1685 9.07453C92.8609 8.62599 92.4672 8.24325 92.0099 7.9483C91.5526 7.65334 91.0407 7.45199 90.5038 7.35584C90.5038 7.35584 90.5038 7.35585 90.507 7.30116C91.6331 6.83316 93.0089 7.33269 94.2467 8.85639C95.3586 10.4117 96.1177 12.1919 96.4717 14.0742C96.8257 15.9565 96.7662 17.8961 96.2973 19.7594C95.7116 21.6599 94.6102 22.6339 93.3699 22.6242L93.3732 22.5694C94.3114 21.9797 94.9796 21.0436 95.2306 19.9671Z" fill="#5047BA"/>
<path d="M90.3041 7.33091C90.3068 7.37662 90.3262 7.41963 90.3588 7.45168C90.3913 7.48374 90.4346 7.50259 90.4804 7.50466C91.5137 7.69434 92.4263 8.28644 93.0177 9.15091C94.1153 10.6835 94.865 12.4382 95.2149 14.2939C95.5648 16.1496 95.5067 18.062 95.0446 19.8992C94.929 20.4082 94.7137 20.8901 94.4112 21.3169C94.1086 21.7437 93.7248 22.107 93.2819 22.3858C93.2541 22.3999 93.2305 22.4211 93.2135 22.4472C93.1965 22.4733 93.1867 22.5034 93.1851 22.5344C93.1734 22.5541 93.1665 22.5763 93.1652 22.5992C93.1638 22.622 93.168 22.6448 93.1773 22.6656C93.2123 22.6992 93.2572 22.7208 93.3054 22.7272C94.6881 22.7443 95.8186 21.6511 96.4158 19.7402C96.8922 17.8466 96.9526 15.8754 96.5928 13.9625C96.233 12.0496 95.4617 10.2405 94.3319 8.65976C93.0947 7.12511 91.6584 6.53464 90.3868 7.04993C90.3467 7.08355 90.3175 7.12821 90.3028 7.17822C90.2881 7.22824 90.2886 7.28137 90.3041 7.33091ZM95.8044 17.6566C95.9985 14.5419 95.1162 11.4632 93.3051 8.93547C92.7724 8.20329 92.0463 7.63387 91.207 7.29013C91.7965 7.30897 92.3716 7.46934 92.8839 7.75765C93.3962 8.04597 93.8304 8.45377 94.15 8.94656C95.2415 10.48 95.9876 12.2328 96.3375 14.0857C96.6874 15.9385 96.6328 17.8479 96.1776 19.6839C96.0634 20.2633 95.8091 20.807 95.4371 21.2676C95.065 21.7283 94.5865 22.0919 94.0431 22.3267C94.7195 21.6971 95.2023 20.8883 95.4341 19.9963C95.6545 19.2341 95.7789 18.4481 95.8044 17.6566Z" fill="#5047BA"/>
<path d="M96.5304 14.3042L94.9004 14.6221L94.835 14.2771L96.4651 13.9591L96.5304 14.3042Z" fill="#8484EA"/>
<path d="M94.9995 15.7055L95.0836 16.1384L96.7083 15.8165L96.7132 15.3663L94.9995 15.7055Z" fill="#8484EA"/>
<path d="M94.9732 17.1369L95.0714 17.7023L96.7068 17.381L96.7312 16.789L94.9732 17.1369Z" fill="#8484EA"/>
<path d="M94.8263 18.5567L94.9405 19.2217L96.5759 18.9004L96.6951 18.1926L94.8263 18.5567Z" fill="#8484EA"/>
<path d="M94.4077 19.9434L94.5392 20.6862L96.1746 20.3649L96.4216 19.5429L94.4077 19.9434Z" fill="#8484EA"/>
<path d="M93.4122 21.4135L93.5547 22.1569L95.3237 21.8096L95.7596 20.9535L93.4122 21.4135Z" fill="#8484EA"/>
<path d="M94.4891 12.8841L94.5622 13.3164L96.276 12.9771L96.1138 12.5622L94.4891 12.8841Z" fill="#8484EA"/>
<path d="M93.9035 11.4308L94.0127 11.9968L95.7701 11.6598L95.5281 11.1089L93.9035 11.4308Z" fill="#8484EA"/>
<path d="M93.2127 10.0602L93.3379 10.7258L95.2186 10.3513L94.8476 9.74979L93.2127 10.0602Z" fill="#8484EA"/>
<path d="M92.3168 8.85737L92.4593 9.60083L94.4734 9.20033L93.9414 8.53546L92.3168 8.85737Z" fill="#8484EA"/>
<path d="M90.9818 7.83585L91.1244 8.57938L93.327 8.15571L92.6059 7.52488L90.9818 7.83585Z" fill="#8484EA"/>
<path d="M86.8736 15.9717L85.3516 16.2686L85.2862 15.9236L86.8082 15.6267L86.8736 15.9717Z" fill="#8484EA"/>
<path d="M84.9178 13.9274L84.9909 14.3597L86.6601 14.0291L86.6534 13.5893L84.9178 13.9274Z" fill="#8484EA"/>
<path d="M85.027 11.8526L84.924 12.4734L86.6819 12.1255L86.7063 11.5336L85.027 11.8526Z" fill="#8484EA"/>
<path d="M85.4871 10.0251L85.3015 10.7403L86.9258 10.4184L87.056 9.71129L85.4871 10.0251Z" fill="#8484EA"/>
<path d="M86.0637 8.30977L85.7613 9.13973L87.3185 8.83634L87.6545 7.99713L86.0637 8.30977Z" fill="#8484EA"/>
<path d="M87.1864 6.60992L86.4616 7.51687L88.175 7.17763L88.7883 6.29784L87.1864 6.60992Z" fill="#8484EA"/>
<path d="M85.6743 17.9327L85.7584 18.3656L87.4277 18.035L87.2765 17.6206L85.6743 17.9327Z" fill="#8484EA"/>
<path d="M86.2236 19.7189L86.5772 20.2427L88.2239 19.9219L87.9812 19.3819L86.2236 19.7189Z" fill="#8484EA"/>
<path d="M87.2157 21.1844L87.5189 21.8154L89.2325 21.4762L88.8513 20.8631L87.2157 21.1844Z" fill="#8484EA"/>
<path d="M88.2272 22.4961L88.7477 23.1714L90.395 22.8397L89.8403 22.1845L88.2272 22.4961Z" fill="#8484EA"/>
<path d="M89.4411 23.7432L90.2739 24.3469L91.9433 24.0163L91.166 23.4044L89.4411 23.7432Z" fill="#8484EA"/>
<path d="M94.868 7.62611C96.2859 9.43863 97.2528 11.563 97.6902 13.8265C98.1277 16.0899 98.0232 18.4286 97.3853 20.6522C95.9814 24.6617 92.6027 25.32 89.8386 22.1253C88.429 20.3091 87.4712 18.183 87.0433 15.92C86.6154 13.6569 86.7294 11.3208 87.3761 9.10198C88.769 5.09191 92.1477 4.43364 94.868 7.62611ZM88.3996 9.98928C87.9304 11.853 87.8708 13.7932 88.2249 15.676C88.5789 17.5587 89.3382 19.3393 90.4504 20.895C92.6286 23.5984 95.2187 23.0856 96.2523 19.7592C96.736 17.8909 96.8074 15.9429 96.4614 14.0505C96.1153 12.1581 95.3602 10.3668 94.2485 8.8011C92.0773 6.16396 89.4331 6.66289 88.4434 9.99156L88.3996 9.98928Z" fill="#8484EA"/>
<path d="M84.8045 12.486C84.5651 16.1271 85.658 19.721 87.8799 22.5988C88.361 23.2706 89.0041 23.8097 89.7504 24.1668C90.4966 24.5239 91.3221 24.6875 92.1511 24.6426L94.018 24.2789C94.0417 24.2751 94.0644 24.2664 94.0847 24.2535C94.1049 24.2406 94.1224 24.2237 94.1359 24.2038C94.1495 24.184 94.1588 24.1616 94.1634 24.138C94.1679 24.1145 94.1676 24.0903 94.1625 24.067C94.1523 24.0229 94.1264 23.9841 94.0895 23.958C94.0527 23.9318 94.0074 23.92 93.9623 23.9249C93.1765 23.9876 92.3895 23.8442 91.6794 23.5089C90.9692 23.1736 90.3606 22.658 89.9138 22.0133C88.5256 20.2212 87.5831 18.1239 87.1629 15.8921C86.7428 13.6603 86.8568 11.357 87.4957 9.16955C88.173 7.20769 89.356 5.97441 90.7924 5.82972C90.8277 5.82396 90.8607 5.8082 90.8875 5.7843C90.9142 5.7604 90.9336 5.72936 90.9432 5.69491C90.955 5.66032 90.955 5.62291 90.9431 5.58852C90.9312 5.55413 90.9082 5.52473 90.8777 5.50498C90.8366 5.48575 90.7895 5.4833 90.7463 5.49814L88.8124 5.8803C87.3237 6.16492 86.1169 7.42985 85.4157 9.42339C85.0739 10.4129 84.8683 11.4432 84.8045 12.486ZM92.5283 24.2124L92.0954 24.2886C91.3275 24.3228 90.5648 24.1644 89.8769 23.8276C89.189 23.4908 88.5979 22.9865 88.1577 22.3608C86.7676 20.5675 85.8231 18.4687 85.4012 16.235C84.9792 14.0013 85.0916 11.6957 85.7293 9.50555C86.3905 7.63063 87.4928 6.45903 88.8598 6.19001L89.1491 6.12825C88.2068 6.88392 87.5109 7.90265 87.1512 9.05287C86.5015 11.303 86.3898 13.6702 86.8253 15.9632C87.2607 18.2562 88.2311 20.4107 89.6579 22.2524C90.3956 23.1782 91.3952 23.8608 92.5283 24.2124Z" fill="#5047BA"/>
<path d="M94.2426 8.79333C95.3548 10.3489 96.114 12.1294 96.4681 14.0121C96.8221 15.8948 96.7625 17.8348 96.2934 19.6985C95.2599 23.0247 92.67 23.5374 90.4919 20.8341C89.3797 19.2785 88.6205 17.4981 88.2664 15.6154C87.9124 13.7327 87.972 11.7927 88.4411 9.92901C89.4275 6.65522 92.0715 6.15633 94.2426 8.79333Z" fill="#E9E9FF"/>
<path d="M86.6101 12.1282C86.3706 15.7697 87.2479 19.2745 89.4701 22.1526C90.7508 23.8124 92.6433 24.5911 94.1349 24.2626C95.6265 23.9342 96.8316 22.7019 97.5329 20.708C98.1837 18.4577 98.2958 16.0899 97.8603 13.7965C97.4248 11.503 96.4538 9.3483 95.026 7.50675C93.6494 5.90964 92.0686 5.15792 90.577 5.48637C89.0854 5.81482 87.881 7.03619 87.179 9.04096C86.8483 10.0401 86.6569 11.0789 86.6101 12.1282ZM97.7746 17.5818C97.7246 18.6061 97.5309 19.6193 97.1993 20.5919C96.538 22.4671 95.343 23.3835 93.9764 23.6416C92.6098 23.8998 91.2477 23.4978 89.9638 22.0043C88.5758 20.2095 87.6327 18.1104 87.2108 15.8769C86.7889 13.6433 86.9 11.338 87.5352 9.14731C88.1964 7.27212 89.299 6.10031 90.6662 5.83123C92.0335 5.56215 93.4868 6.24139 94.7707 7.73491C96.9373 10.5358 98.0049 14.0353 97.7746 17.5818ZM87.8643 12.2812C87.6706 15.3948 88.5488 18.4727 90.3531 21.0039C91.4477 22.3559 92.6956 22.9805 93.8515 22.7553C95.0074 22.5301 95.9488 21.4816 96.4662 19.8075C96.9428 17.9134 97.0033 15.9417 96.6435 14.0284C96.2837 12.115 95.5121 10.3054 94.3821 8.72434C93.2874 7.37237 92.0395 6.74773 90.8836 6.97293C89.7278 7.19813 88.7863 8.24661 88.2689 9.92077C88.0422 10.6898 87.9064 11.482 87.8643 12.2812ZM96.4766 17.4265C96.4397 18.1966 96.3092 18.96 96.0882 19.7C95.6005 21.244 94.7738 22.2107 93.7294 22.4087C92.685 22.6068 91.5549 22.0322 90.5317 20.7718C89.4399 19.2379 88.6937 17.4847 88.3438 15.6314C87.9939 13.7781 88.0485 11.8682 88.5039 10.0318C88.9916 8.48776 89.8177 7.53204 90.8621 7.33396C91.9065 7.13589 93.0366 7.71052 94.0604 8.96003C95.813 11.4162 96.6657 14.4042 96.4766 17.4265Z" fill="#9F9FEC"/>
</g>
<g opacity="0.3">
<path d="M112.955 16.6816L113.483 17.5071C113.919 17.9439 113.658 18.1886 113.925 18.967C114.416 20.6351 114.502 22.3966 114.178 24.1081C113.854 25.8196 113.128 27.4326 112.059 28.8157C111.497 29.469 111.644 29.9187 111.064 30.181L110.269 30.609L108.673 30.3051C108.1 30.1096 107.587 29.7741 107.18 29.3295C106.772 28.8849 106.485 28.3452 106.342 27.7601C105.858 26.0888 105.778 24.3257 106.108 22.6142C106.439 20.9026 107.171 19.2909 108.245 17.9102C109.297 16.6983 110.466 16.1956 111.494 16.403L112.955 16.6816Z" fill="#5047BA"/>
<path d="M109.042 20.54C108.037 22.6722 107.795 25.0783 108.356 27.3588C108.748 28.6134 109.45 29.4 110.324 29.5643C111.199 29.7286 112.152 29.255 112.982 28.2238C113.845 27.0267 114.438 25.6592 114.719 24.2154C115 22.7715 114.963 21.2858 114.61 19.8604C114.219 18.6058 113.517 17.8192 112.642 17.6549C111.768 17.4906 110.814 17.9642 109.984 18.9954C109.61 19.4722 109.294 19.9906 109.042 20.54ZM113.654 26.5549C113.413 27.0853 113.108 27.5849 112.747 28.0429C111.974 28.991 111.124 29.4391 110.335 29.2869C109.547 29.1347 108.913 28.416 108.547 27.2456C108.208 25.8641 108.173 24.4249 108.444 23.026C108.715 21.6271 109.286 20.3013 110.118 19.1389C110.891 18.1908 111.738 17.7502 112.526 17.9024C113.315 18.0546 113.948 18.7733 114.319 19.9362C114.864 22.1496 114.629 24.4855 113.654 26.5549Z" fill="#5047BA"/>
<path d="M112.07 27.9868C112.917 26.8094 113.498 25.4643 113.773 24.0444C114.048 22.6245 114.009 21.1637 113.66 19.763C113.569 19.3622 113.399 18.9836 113.161 18.649C112.922 18.3143 112.619 18.0302 112.268 17.8129C112.268 17.8129 112.268 17.8129 112.286 17.7754C113.207 17.7609 114.034 18.4954 114.478 19.9105C114.825 21.3128 114.861 22.7745 114.585 24.195C114.309 25.6155 113.726 26.9609 112.877 28.1384C111.935 29.3096 110.89 29.6863 110.022 29.3335L110.04 29.296C110.863 29.1436 111.593 28.6727 112.07 27.9868Z" fill="#5047BA"/>
<path d="M112.138 17.7461C112.127 17.779 112.129 17.8146 112.143 17.8462C112.156 17.8778 112.182 17.9031 112.213 17.9173C112.886 18.3387 113.362 19.009 113.536 19.781C113.879 21.1633 113.916 22.6045 113.644 24.0052C113.372 25.4058 112.798 26.7325 111.961 27.8937C111.738 28.2188 111.452 28.4972 111.121 28.7125C110.789 28.9278 110.418 29.0758 110.03 29.1481C110.006 29.1502 109.984 29.1585 109.964 29.1721C109.945 29.1857 109.93 29.2041 109.92 29.2254C109.906 29.236 109.895 29.2497 109.888 29.2653C109.881 29.281 109.877 29.2982 109.878 29.3154C109.893 29.3487 109.919 29.3764 109.951 29.3943C110.917 29.792 112.016 29.3397 112.968 28.1645C113.831 26.9677 114.423 25.6004 114.704 24.1569C114.985 22.7133 114.948 21.2278 114.595 19.8027C114.155 18.38 113.311 17.5648 112.274 17.5719C112.237 17.5843 112.204 17.6075 112.18 17.6386C112.155 17.6696 112.141 17.707 112.138 17.7461ZM113.12 26.5309C114.125 24.3979 114.364 21.99 113.798 19.7099C113.628 19.0472 113.277 18.4448 112.783 17.9693C113.192 18.147 113.551 18.42 113.83 18.7654C114.11 19.1107 114.301 19.5182 114.388 19.9534C114.727 21.3346 114.762 22.7735 114.49 24.1721C114.219 25.5708 113.648 26.8963 112.817 28.0585C112.575 28.4335 112.245 28.7443 111.855 28.964C111.465 29.1837 111.028 29.3056 110.581 29.3189C111.231 29.0655 111.796 28.6322 112.207 28.0705C112.575 27.5968 112.881 27.0796 113.12 26.5309Z" fill="#5047BA"/>
<path d="M114.563 24.376L113.33 24.1445L113.38 23.884L114.613 24.1155L114.563 24.376Z" fill="#8484EA"/>
<path d="M113.098 24.9353L113.037 25.2627L114.267 25.4898L114.396 25.175L113.098 24.9353Z" fill="#8484EA"/>
<path d="M112.679 25.9345L112.591 26.3589L113.829 26.5894L114.011 26.1806L112.679 25.9345Z" fill="#8484EA"/>
<path d="M112.18 26.8886L112.075 27.3874L113.313 27.618L113.594 27.1542L112.18 26.8886Z" fill="#8484EA"/>
<path d="M111.5 27.7443L111.385 28.3026L112.623 28.5331L113.025 28.0248L111.5 27.7443Z" fill="#8484EA"/>
<path d="M110.391 28.493L110.284 29.0548L111.623 29.3043L112.168 28.8247L110.391 28.493Z" fill="#8484EA"/>
<path d="M113.526 22.8114L113.457 23.1354L114.755 23.3751L114.757 23.0385L113.526 22.8114Z" fill="#8484EA"/>
<path d="M113.52 21.6234L113.438 22.0513L114.766 22.3049L114.75 21.8505L113.52 21.6234Z" fill="#8484EA"/>
<path d="M113.417 20.4757L113.319 20.9781L114.744 21.2397L114.651 20.7138L113.417 20.4757Z" fill="#8484EA"/>
<path d="M113.125 19.3748L113.018 19.9366L114.544 20.2171L114.356 19.6019L113.125 19.3748Z" fill="#8484EA"/>
<path d="M112.471 18.2866L112.363 18.8484L114.028 19.1653L113.698 18.5212L112.471 18.2866Z" fill="#8484EA"/>
<path d="M107.319 22.8547L106.167 22.6387L106.217 22.3782L107.369 22.5943L107.319 22.8547Z" fill="#8484EA"/>
<path d="M106.511 20.8721L106.442 21.1961L107.706 21.4295L107.824 21.1188L106.511 20.8721Z" fill="#8484EA"/>
<path d="M107.17 19.444L106.924 19.8511L108.256 20.0972L108.438 19.6884L107.17 19.444Z" fill="#8484EA"/>
<path d="M108.005 18.2915L107.675 18.742L108.906 18.969L109.194 18.5088L108.005 18.2915Z" fill="#8484EA"/>
<path d="M108.886 17.249L108.442 17.7474L109.62 17.9687L110.09 17.4731L108.886 17.249Z" fill="#8484EA"/>
<path d="M110.146 16.3663L109.385 16.8009L110.682 17.0407L111.358 16.5939L110.146 16.3663Z" fill="#8484EA"/>
<path d="M105.929 23.8862L105.867 24.2136L107.132 24.4471L107.141 24.1139L105.929 23.8862Z" fill="#8484EA"/>
<path d="M105.815 25.301L105.917 25.7674L107.163 26.0015L107.143 25.5546L105.815 25.301Z" fill="#8484EA"/>
<path d="M106.104 26.6068L106.141 27.1344L107.439 27.3742L107.343 26.8373L106.104 26.6068Z" fill="#8484EA"/>
<path d="M106.448 27.8121L106.625 28.4315L107.874 28.658L107.667 28.0433L106.448 27.8121Z" fill="#8484EA"/>
<path d="M106.952 29.027L107.368 29.6833L108.633 29.9168L108.257 29.2703L106.952 29.027Z" fill="#8484EA"/>
<path d="M115.258 19.2169C115.748 20.8851 115.834 22.6465 115.51 24.3579C115.186 26.0693 114.46 27.6823 113.392 29.0658C111.288 31.4896 108.732 31.0095 107.682 27.9952C107.198 26.3267 107.119 24.5667 107.45 22.8582C107.78 21.1498 108.512 19.5412 109.585 18.1635C111.682 15.7363 114.238 16.2164 115.258 19.2169ZM110.056 19.0721C109.207 20.2499 108.624 21.5957 108.347 23.0165C108.071 24.4373 108.107 25.8994 108.454 27.302C109.23 29.8078 111.192 30.1702 112.845 28.1227C113.706 26.9458 114.3 25.5978 114.584 24.1724C114.869 22.7471 114.839 21.2787 114.495 19.8692C113.706 17.4118 111.71 17.0246 110.086 19.0859L110.056 19.0721Z" fill="#8484EA"/>
<path d="M106.835 19.8273C105.651 22.3173 105.416 25.1457 106.174 27.7862C106.324 28.3921 106.625 28.95 107.05 29.4089C107.474 29.8678 108.008 30.213 108.603 30.4127L110.015 30.678C110.033 30.6819 110.051 30.6822 110.069 30.6788C110.087 30.6754 110.104 30.6684 110.119 30.6582C110.134 30.648 110.147 30.6349 110.156 30.6197C110.166 30.6044 110.173 30.5873 110.176 30.5695C110.181 30.5357 110.173 30.5013 110.155 30.4726C110.136 30.444 110.108 30.4231 110.075 30.4139C109.505 30.2387 108.993 29.9185 108.588 29.485C108.183 29.0515 107.899 28.5197 107.765 27.9424C107.29 26.2968 107.213 24.5612 107.541 22.8769C107.868 21.1925 108.591 19.607 109.65 18.2492C110.672 17.0605 111.847 16.5245 112.896 16.8236C112.922 16.8294 112.95 16.8275 112.975 16.8182C113.001 16.8089 113.023 16.7925 113.04 16.771C113.057 16.75 113.068 16.7237 113.069 16.6962C113.07 16.6688 113.062 16.6417 113.047 16.6193C113.023 16.5943 112.991 16.5795 112.956 16.5779L111.492 16.3068C110.367 16.0914 109.167 16.643 108.118 17.8473C107.602 18.4467 107.17 19.1129 106.835 19.8273ZM108.988 30.2158L108.662 30.1486C108.114 29.9584 107.622 29.6344 107.233 29.206C106.844 28.7777 106.57 28.2587 106.435 27.6966C105.959 26.0496 105.881 24.3124 106.208 22.6262C106.535 20.9401 107.257 19.3525 108.316 17.9924C109.303 16.8603 110.404 16.3451 111.439 16.5375L111.659 16.5748C110.786 16.8426 110.014 17.3638 109.44 18.0712C108.356 19.4699 107.618 21.101 107.284 22.8326C106.95 24.5642 107.031 26.3477 107.519 28.0389C107.778 28.8948 108.29 29.6528 108.988 30.2158Z" fill="#5047BA"/>
<path d="M114.494 19.8731C114.841 21.2756 114.878 22.7377 114.601 24.1584C114.325 25.5791 113.742 26.9248 112.893 28.1026C111.239 30.1499 109.278 29.7875 108.502 27.2818C108.155 25.8793 108.118 24.4173 108.395 22.9965C108.672 21.5758 109.255 20.2302 110.104 19.0524C111.71 17.0287 113.705 17.4159 114.494 19.8731Z" fill="#E9E9FF"/>
<path d="M108.204 20.0812C107.02 22.5715 106.659 25.2772 107.416 27.918C107.853 29.4407 108.964 30.5153 110.103 30.7007C111.242 30.8862 112.432 30.357 113.481 29.1525C114.566 27.7539 115.305 26.1226 115.639 24.3907C115.973 22.6587 115.892 20.8749 115.403 19.1835C114.882 17.6781 113.981 16.7093 112.842 16.5239C111.703 16.3385 110.517 16.8602 109.465 18.0721C108.954 18.6814 108.53 19.3575 108.204 20.0812ZM114.523 27.0248C114.202 27.73 113.783 28.3875 113.279 28.9779C112.292 30.1102 111.197 30.4204 110.165 30.2205C109.134 30.0205 108.289 29.3584 107.804 27.9515C107.33 26.3041 107.254 24.5671 107.58 22.881C107.907 21.195 108.628 19.6072 109.685 18.2461C110.673 17.1138 111.774 16.5985 112.809 16.791C113.844 16.9834 114.675 17.8657 115.16 19.2725C115.9 21.8436 115.674 24.5987 114.523 27.0248ZM109.042 20.5385C108.038 22.6708 107.796 25.077 108.357 27.3576C108.748 28.6123 109.45 29.399 110.325 29.5633C111.199 29.7275 112.153 29.2539 112.983 28.2227C113.846 27.0256 114.438 25.658 114.72 24.2141C115.001 22.7702 114.964 21.2843 114.611 19.8589C114.219 18.6042 113.517 17.8176 112.643 17.6533C111.769 17.489 110.815 17.9626 109.985 18.9939C109.611 19.4706 109.295 19.9891 109.042 20.5385ZM113.655 26.5537C113.414 27.0841 113.109 27.5838 112.748 28.0418C111.975 28.9899 111.124 29.4381 110.336 29.2859C109.547 29.1336 108.914 28.4149 108.547 27.2445C108.208 25.8629 108.173 24.4237 108.444 23.0247C108.716 21.6257 109.287 20.2999 110.119 19.1374C110.892 18.1892 111.739 17.7485 112.527 17.9008C113.316 18.053 113.949 18.7717 114.319 19.9347C114.865 22.1482 114.63 24.4842 113.655 26.5537Z" fill="#9F9FEC"/>
</g>
<path d="M5.46046 50.1457L7.15243 47.4546C7.8281 45.5745 8.9167 45.9954 10.8374 44.1331C15.0678 40.3789 20.1417 37.6736 25.6458 36.2376C31.1498 34.8015 36.9284 34.6753 42.5108 35.8692C45.2277 36.5999 46.3487 35.5471 47.9379 36.8752L50.3178 38.5994L51.665 43.6798C51.8935 45.6232 51.6258 47.5887 50.8867 49.396C50.1476 51.2033 48.9607 52.7946 47.4347 54.0242C43.1861 57.7643 38.0982 60.4525 32.5849 61.8699C27.0715 63.2873 21.2883 63.394 15.7056 62.1813C10.6518 60.7977 7.52665 58.0875 6.69308 54.7983L5.46046 50.1457Z" fill="#5047BA"/>
<path d="M22.3289 56.2123C30.0302 56.1758 37.4675 53.5324 43.4056 48.721C46.5558 45.832 47.8891 42.6882 47.1443 39.9075C46.3995 37.1267 43.662 35.0033 39.4531 34.0154C34.7091 33.1632 29.8425 33.3378 25.1887 34.5274C20.5348 35.7169 16.2043 37.8931 12.4956 40.9059C9.34537 43.7949 8.01198 46.9388 8.75679 49.7195C9.50161 52.5002 12.2391 54.6237 16.448 55.6115C18.3796 56.0385 20.3534 56.2401 22.3289 56.2123ZM33.5866 34.379C35.4895 34.3433 37.3914 34.5366 39.2506 34.9545C43.1341 35.891 45.6511 37.7482 46.3107 40.2617C46.9704 42.7751 45.7409 45.6235 42.8043 48.3235C39.2058 51.2352 35.0098 53.3406 30.5023 54.4962C25.9947 55.6519 21.2812 55.8307 16.6828 55.0205C12.7993 54.0839 10.3093 52.2265 9.64964 49.7131C8.98997 47.1997 10.2196 44.3512 13.129 41.6515C18.891 36.9783 26.1108 34.4117 33.5866 34.379Z" fill="#5047BA"/>
<path d="M40.0408 37.0003C35.3762 36.1655 30.5916 36.3418 26.0175 37.5169C21.4433 38.6919 17.1888 40.8378 13.5476 43.8063C12.4933 44.6292 11.6153 45.6516 10.9639 46.8145C10.3126 47.9774 9.90074 49.258 9.75219 50.5826C9.75219 50.5826 9.75222 50.5826 9.61697 50.5836C8.27889 47.9151 9.28312 44.4797 12.8329 41.2136C16.4813 38.2491 20.7417 36.1079 25.3202 34.9375C29.8987 33.7671 34.6866 33.5953 39.3536 34.4341C44.1316 35.5513 46.712 38.077 46.892 41.1021L46.7567 41.1031C45.1495 38.9122 42.7339 37.4365 40.0408 37.0003Z" fill="#5047BA"/>
<path d="M9.73773 51.0705C9.84989 51.0565 9.95263 51.002 10.0262 50.9175C10.0999 50.833 10.1392 50.7243 10.1367 50.6123C10.434 48.0625 11.7425 45.7412 13.7747 44.1583C17.3694 41.2325 21.5685 39.1185 26.0822 37.9623C30.5959 36.8062 35.3165 36.6354 39.9181 37.4619C41.191 37.6605 42.4135 38.1066 43.5146 38.7745C44.6158 39.4423 45.5738 40.3186 46.3335 41.3527C46.3728 41.4182 46.4289 41.4722 46.496 41.5094C46.5631 41.5466 46.6388 41.5655 46.7154 41.5642C46.766 41.5897 46.8218 41.6028 46.8783 41.6024C46.9348 41.602 46.9903 41.5881 47.04 41.5619C47.117 41.4711 47.1627 41.3582 47.1705 41.2396C46.9853 37.8663 44.1065 35.2891 39.3009 34.1453C34.5579 33.2934 29.6924 33.4682 25.0394 34.6576C20.3864 35.847 16.0567 38.0228 12.3487 41.035C8.77175 44.3014 7.55346 47.8991 9.03199 50.9149C9.12137 51.0069 9.23619 51.0708 9.36182 51.0985C9.48745 51.1262 9.61826 51.1165 9.73773 51.0705ZM34.2689 35.976C26.5645 36.0116 19.1256 38.6653 13.1967 43.4929C11.4807 44.9112 10.1975 46.7741 9.48876 48.8761C9.43823 47.4362 9.73866 46.0079 10.3646 44.7121C10.9906 43.4163 11.9237 42.291 13.0851 41.4315C16.683 38.5203 20.878 36.4153 25.3847 35.2598C29.8915 34.1043 34.6039 33.9254 39.2014 34.7352C40.6474 34.9191 42.0286 35.45 43.2246 36.2817C44.4205 37.1134 45.3949 38.2205 46.0627 39.5067C44.4006 37.9608 42.3288 36.916 40.0933 36.4965C38.1795 36.0837 36.2229 35.9089 34.2689 35.976Z" fill="#5047BA"/>
<path d="M25.8775 34.7455L26.9287 38.667L26.0896 38.8827L25.0383 34.9611L25.8775 34.7455Z" fill="#8484EA"/>
<path d="M29.5808 38.2405L30.6332 37.9648L29.573 34.057L28.4632 34.1186L29.5808 38.2405Z" fill="#8484EA"/>
<path d="M33.1205 38.0816L34.4969 37.75L33.4364 33.8158L31.9743 33.8531L33.1205 38.0816Z" fill="#8484EA"/>
<path d="M36.6431 38.219L38.2624 37.832L37.2019 33.898L35.4388 33.7229L36.6431 38.219Z" fill="#8484EA"/>
<path d="M40.1409 38.9916L41.949 38.5497L40.8885 34.6157L38.8231 34.1479L40.1409 38.9916Z" fill="#8484EA"/>
<path d="M43.8948 41.1909L45.7026 40.7221L44.5561 36.4667L42.3755 35.5438L43.8948 41.1909Z" fill="#8484EA"/>
<path d="M22.7182 39.9636L23.7711 39.7147L22.6535 35.5926L21.658 36.0557L22.7182 39.9636Z" fill="#8484EA"/>
<path d="M19.2291 41.6274L20.6053 41.2689L19.4861 37.0398L18.1688 37.7197L19.2291 41.6274Z" fill="#8484EA"/>
<path d="M15.9939 43.5304L17.6131 43.1165L16.3812 38.5933L14.9604 39.5958L15.9939 43.5304Z" fill="#8484EA"/>
<path d="M13.1585 45.9062L14.9665 45.4373L13.6486 40.5929L12.0983 41.9985L13.1585 45.9062Z" fill="#8484EA"/>
<path d="M10.8623 49.3449L12.6704 48.8759L11.2645 43.576L9.82917 45.4368L10.8623 49.3449Z" fill="#8484EA"/>
<path d="M31.5686 58.0151L32.5503 61.6768L31.7113 61.8924L30.7296 58.2307L31.5686 58.0151Z" fill="#8484EA"/>
<path d="M26.8412 63.1189L27.8941 62.87L26.8052 58.8551L25.7229 58.9433L26.8412 63.1189Z" fill="#8484EA"/>
<path d="M21.7267 63.1928L23.2728 63.3426L22.1267 59.1142L20.6646 59.1515L21.7267 63.1928Z" fill="#8484EA"/>
<path d="M17.1409 62.37L18.9334 62.7057L17.8733 58.7988L16.1099 58.5969L17.1409 62.37Z" fill="#8484EA"/>
<path d="M12.8356 61.243L14.9299 61.8447L13.9264 58.0983L11.8038 57.4164L12.8356 61.243Z" fill="#8484EA"/>
<path d="M8.4699 58.7779L10.8233 60.3967L9.70577 56.2753L7.43765 54.9241L8.4699 58.7779Z" fill="#8484EA"/>
<path d="M36.5774 60.6341L37.6299 60.3584L36.541 56.3433L35.545 56.7796L36.5774 60.6341Z" fill="#8484EA"/>
<path d="M40.9125 58.9877L42.1447 58.0401L41.0837 54.0785L39.7933 54.7583L40.9125 58.9877Z" fill="#8484EA"/>
<path d="M44.3599 56.332L45.8644 55.4898L44.7468 51.3679L43.2993 52.3974L44.3599 56.332Z" fill="#8484EA"/>
<path d="M47.4223 53.6438L49.0002 52.2647L47.9121 48.3033L46.3895 49.7625L47.4223 53.6438Z" fill="#8484EA"/>
<path d="M50.3136 50.4945L51.664 48.3657L50.575 44.3502L49.1955 46.345L50.3136 50.4945Z" fill="#8484EA"/>
<path d="M9.697 39.9026C13.9286 36.1502 19.0027 33.4461 24.5065 32.0101C30.0102 30.5741 35.7883 30.4468 41.3709 31.6386C51.4786 34.406 53.6559 42.5346 46.2408 49.7943C41.9989 53.5272 36.9191 56.2092 31.4147 57.622C25.9104 59.0347 20.1371 59.1383 14.5649 57.9243C4.45754 55.1838 2.28023 47.0551 9.697 39.9026ZM16.5823 55.2844C21.2505 56.1237 26.0396 55.9521 30.6193 54.7815C35.199 53.6109 39.4604 51.4692 43.1096 48.504C49.4106 42.7526 47.7216 36.5225 39.3575 34.5464C34.6756 33.6723 29.8651 33.8166 25.2604 34.9691C20.6558 36.1217 16.3674 38.255 12.6933 41.2206C6.55422 46.9441 8.21817 53.3083 16.5807 55.1773L16.5823 55.2844Z" fill="#8484EA"/>
<path d="M23.3252 63.6343C32.3338 63.6233 41.0072 60.3719 47.7306 54.4857C49.3063 53.2033 50.5286 51.5476 51.2856 49.6701C52.0425 47.7927 52.3098 45.7537 52.0628 43.7401L50.8598 39.2487C50.8464 39.1915 50.8214 39.1377 50.7862 39.0904C50.7511 39.043 50.7066 39.0033 50.6554 38.9735C50.6043 38.9437 50.5476 38.9246 50.4889 38.9174C50.4301 38.9101 50.3707 38.9148 50.314 38.9312C50.2071 38.9631 50.1158 39.0327 50.0575 39.1268C49.9991 39.2209 49.9775 39.3331 49.9968 39.4423C50.2806 41.3476 50.0568 43.2894 49.3476 45.0753C48.6384 46.8612 47.4685 48.429 45.9539 49.6234C41.7676 53.3 36.7563 55.9401 31.3277 57.3289C25.8991 58.7177 20.2065 58.816 14.7129 57.6157C9.7687 56.2851 6.53613 53.6029 5.94342 50.125C5.92343 50.0398 5.87919 49.9619 5.81591 49.9006C5.75264 49.8394 5.67299 49.7972 5.58654 49.7793C5.49938 49.7562 5.40723 49.7625 5.32447 49.797C5.24171 49.8315 5.17308 49.8924 5.12944 49.9701C5.08885 50.0735 5.09056 50.1887 5.13421 50.2915L6.3937 54.9433C7.3397 58.5258 10.6541 61.261 15.6803 62.6445C18.1739 63.3162 20.7459 63.6491 23.3252 63.6343ZM50.9409 42.891L51.1999 43.9338C51.4106 45.8 51.1456 47.6853 50.4292 49.4171C49.7127 51.149 48.5677 52.6722 47.0988 53.8474C42.9098 57.5291 37.895 60.1741 32.4621 61.5675C27.0291 62.9609 21.331 63.0634 15.8311 61.8667C11.1037 60.5613 8.03636 58.0654 7.14884 54.7771L6.94911 54.0821C8.96559 56.2556 11.5895 57.7856 14.4821 58.4745C20.1318 59.6909 25.9814 59.5764 31.5583 58.1404C37.1351 56.7044 42.2827 53.9871 46.5849 50.2081C48.7443 48.2587 50.2611 45.7106 50.9409 42.891Z" fill="#5047BA"/>
<path d="M12.7044 41.2319C16.3535 38.2669 20.6146 36.1253 25.1941 34.9547C29.7735 33.7842 34.5623 33.6126 39.2303 34.4517C47.5939 36.4277 49.2828 42.6573 42.9821 48.4085C39.3331 51.3735 35.072 53.5152 30.4926 54.6857C25.9131 55.8562 21.1243 56.0278 16.4563 55.1887C8.22951 53.3189 6.56567 46.9551 12.7044 41.2319Z" fill="#E9E9FF"/>
<path d="M22.1619 59.2981C31.1718 59.2873 39.6609 56.5763 46.3852 50.6892C50.2633 47.2963 51.8702 42.5557 50.8158 38.9733C49.7613 35.391 46.5275 32.6547 41.5007 31.2708C35.8502 30.0519 29.9991 30.1652 24.4212 31.6014C18.8432 33.0377 13.6951 35.7565 9.39349 39.5377C5.68564 43.1542 4.09391 47.1306 5.14833 50.713C6.20275 54.2954 9.40949 57.0318 14.4634 58.4155C16.979 59.0585 19.5696 59.3555 22.1619 59.2981ZM33.76 31.1922C36.2912 31.1468 38.819 31.4534 41.2694 32.1029C45.9974 33.4086 48.4514 36.1722 49.3121 39.4612C50.1727 42.7503 49.4066 46.1365 45.9387 49.5101C41.7457 53.1868 36.7301 55.8285 31.2975 57.2218C25.8649 58.615 20.1678 58.7206 14.6668 57.53C9.93878 56.2243 6.87085 53.728 5.98315 50.4391C5.09546 47.1502 6.52962 43.4965 9.99752 40.1228C16.5408 34.3839 24.9857 31.21 33.76 31.1922ZM22.3327 56.216C30.0343 56.1796 37.472 53.5361 43.4104 48.7245C46.5607 45.8354 47.8942 42.6914 47.1493 39.9105C46.4045 37.1296 43.6668 35.006 39.4577 34.018C34.7135 33.1657 29.8466 33.3403 25.1925 34.5298C20.5384 35.7194 16.2077 37.8957 12.4988 40.9086C9.34841 43.7978 8.01496 46.9418 8.75982 49.7227C9.50467 52.5036 12.2423 54.6272 16.4514 55.6151C18.3831 56.0421 20.357 56.2438 22.3327 56.216ZM33.5908 34.3815C35.4938 34.3459 37.3958 34.5392 39.2552 34.9571C43.1388 35.8938 45.656 37.7511 46.3157 40.2647C46.9754 42.7783 45.7458 45.6269 42.8091 48.327C39.2103 51.2388 35.0142 53.3443 30.5064 54.4999C25.9986 55.6556 21.2849 55.8344 16.6862 55.024C12.8026 54.0874 10.3124 52.2299 9.65271 49.7163C8.993 47.2027 10.2227 44.3541 13.1323 41.6542C18.8945 36.9809 26.1147 34.4142 33.5908 34.3815Z" fill="#9F9FEC"/>
<g opacity="0.8">
<path d="M50.3759 3.05675L52.866 3.28778C54.4257 3.09376 54.5173 4.00737 56.5069 4.69353C60.6454 6.32831 64.3475 8.92788 67.3116 12.2805C70.2758 15.6331 72.4182 19.6439 73.5644 23.9862C74.0172 26.1528 75.1545 26.5653 74.7873 28.1527L74.423 30.4359L71.3361 33.1871C70.0533 34.0382 68.5788 34.5489 67.0476 34.6725C65.5165 34.7962 63.9778 34.5287 62.5724 33.8947C58.4374 32.2422 54.7424 29.6267 51.788 26.2609C48.8336 22.8952 46.7032 18.8742 45.5701 14.525C44.745 10.4862 45.5364 7.32959 47.5486 5.5755L50.3759 3.05675Z" fill="#5047BA"/>
<path d="M52.121 17.0528C54.8837 22.445 59.3824 26.7253 64.8698 29.1828C68.017 30.367 70.6975 30.1854 72.3844 28.6743C74.0713 27.1632 74.5887 24.4872 73.786 21.1821C72.6981 17.5496 70.8458 14.1961 68.3568 11.3526C65.8679 8.5091 62.8014 6.2432 59.3686 4.71108C56.2214 3.52695 53.5409 3.70852 51.854 5.21959C50.1671 6.73066 49.6497 9.40669 50.4524 12.7118C50.8392 14.2192 51.3993 15.6762 52.121 17.0528ZM71.4458 17.1939C72.1471 18.5168 72.6875 19.9203 73.055 21.3737C73.7779 24.4322 73.3691 26.8588 71.8395 28.2152C70.3099 29.5715 67.8737 29.7209 64.9351 28.6196C61.6125 27.1288 58.6435 24.9322 56.2303 22.1793C53.8171 19.4264 52.0164 16.1819 50.9506 12.6665C50.2277 9.60803 50.6463 7.20027 52.1759 5.84395C53.7054 4.48764 56.1416 4.33822 59.0705 5.42067C64.3983 7.80375 68.7658 11.9587 71.4458 17.1939Z" fill="#5047BA"/>
<path d="M71.8971 22.6554C70.825 19.0848 69.0008 15.7894 66.5503 12.9967C64.0998 10.2041 61.0816 7.98069 57.7041 6.48024C56.7517 6.03277 55.7221 5.77987 54.6744 5.73605C53.6267 5.69223 52.5816 5.85835 51.5991 6.2249C51.5991 6.2249 51.5991 6.22492 51.5503 6.13034C52.9477 4.24275 55.7157 3.72657 59.2697 5.05712C62.647 6.56409 65.6641 8.79316 68.1128 11.5906C70.5616 14.388 72.3838 17.6873 73.4539 21.261C74.368 25.0115 73.5124 27.7202 71.4533 28.9218L71.4045 28.8271C72.3709 26.9205 72.5481 24.7005 71.8971 22.6554Z" fill="#5047BA"/>
<path d="M51.2521 6.3917C51.3018 6.46545 51.3765 6.51821 51.462 6.53983C51.5475 6.56146 51.6378 6.55043 51.7155 6.5089C53.6107 5.81129 55.705 5.9046 57.5382 6.7683C60.8693 8.2513 63.8455 10.4471 66.2612 13.2041C68.6769 15.9611 70.4746 19.2135 71.53 22.7369C71.8431 23.7009 71.9644 24.7174 71.8871 25.7276C71.8097 26.7378 71.5352 27.7217 71.0794 28.6224C71.0475 28.6732 71.0295 28.7318 71.0272 28.7921C71.025 28.8524 71.0386 28.9123 71.0667 28.9656C71.0668 29.0101 71.0775 29.054 71.0979 29.0935C71.1182 29.133 71.1477 29.167 71.1837 29.1926C71.2748 29.2144 71.3703 29.2063 71.4563 29.1696C73.758 27.8407 74.5436 24.9042 73.6384 21.1249C72.5506 17.4933 70.6985 14.1405 68.21 11.2976C65.7214 8.45468 62.6555 6.18922 59.2234 4.65735C55.6596 3.30787 52.7016 3.7315 51.1105 5.84107C51.0777 5.93652 51.0736 6.03982 51.0988 6.13784C51.124 6.23586 51.1774 6.3242 51.2521 6.3917ZM70.565 18.2439C67.8017 12.8492 63.2953 8.57144 57.7998 6.12616C56.1945 5.42586 54.4309 5.18735 52.7037 5.43704C53.6964 4.88978 54.8056 4.593 55.9375 4.57176C57.0695 4.55053 58.1909 4.80551 59.2069 5.31509C62.5289 6.8056 65.4973 9.00171 67.9101 11.754C70.3229 14.5063 72.1234 17.7502 73.189 21.2648C73.5739 22.345 73.6922 23.5031 73.5335 24.638C73.3749 25.773 72.9441 26.8504 72.2788 27.7762C72.7731 26.0602 72.7699 24.2348 72.2698 22.5167C71.8793 21.0268 71.3066 19.5914 70.565 18.2439Z" fill="#5047BA"/>
<path d="M68.446 11.925L66.0674 14.0566L65.6178 13.5444L67.9964 11.4127L68.446 11.925Z" fill="#8484EA"/>
<path d="M67.3093 15.7603L67.8769 16.4009L70.2427 14.2679L69.8051 13.5109L67.3093 15.7603Z" fill="#8484EA"/>
<path d="M68.6805 18.1796L69.4025 19.0278L71.7867 16.8852L71.2409 15.8723L68.6805 18.1796Z" fill="#8484EA"/>
<path d="M69.8363 20.7029L70.6835 21.7019L73.0677 19.5593L72.5639 18.2597L69.8363 20.7029Z" fill="#8484EA"/>
<path d="M70.5312 23.4332L71.484 24.5451L73.8681 22.4026L73.4624 20.7868L70.5312 23.4332Z" fill="#8484EA"/>
<path d="M70.3236 26.8505L71.2952 27.9527L73.8743 25.6355L73.747 23.7771L70.3236 26.8505Z" fill="#8484EA"/>
<path d="M63.6608 11.5526L64.2097 12.2031L66.7056 9.95362L66.0268 9.41951L63.6608 11.5526Z" fill="#8484EA"/>
<path d="M61.2553 9.69188L61.9961 10.5304L64.5665 8.24177L63.6211 7.55889L61.2553 9.69188Z" fill="#8484EA"/>
<path d="M58.7675 8.0962L59.6334 9.08551L62.3702 6.61328L61.1617 5.97236L58.7675 8.0962Z" fill="#8484EA"/>
<path d="M56.0861 6.95446L57.0578 8.05673L59.9894 5.40998L58.4518 4.8215L56.0861 6.95446Z" fill="#8484EA"/>
<path d="M52.8658 6.56849L53.8376 7.67085L57.0577 4.80035L55.2415 4.45435L52.8658 6.56849Z" fill="#8484EA"/>
<path d="M54.14 24.1883L51.9189 26.1787L51.4694 25.6665L53.6904 23.676L54.14 24.1883Z" fill="#8484EA"/>
<path d="M48.8768 22.6892L49.4257 23.3396L51.8565 21.1484L51.4099 20.4201L48.8768 22.6892Z" fill="#8484EA"/>
<path d="M47.0062 19.1145L47.4506 20.2529L50.0109 17.9456L49.4651 16.9327L47.0062 19.1145Z" fill="#8484EA"/>
<path d="M45.9566 15.6018L46.358 16.9792L48.7233 14.8465L48.2383 13.5372L45.9566 15.6018Z" fill="#8484EA"/>
<path d="M45.2133 12.1837L45.5354 13.8673L47.8081 11.8315L47.5323 10.0994L45.2133 12.1837Z" fill="#8484EA"/>
<path d="M45.3915 8.24074L45.0918 10.4678L47.5872 8.21866L47.7295 6.14651L45.3915 8.24074Z" fill="#8484EA"/>
<path d="M54.0826 28.6336L54.6502 29.2742L57.0811 27.0829L56.4209 26.539L54.0826 28.6336Z" fill="#8484EA"/>
<path d="M56.7711 31.085L57.874 31.613L60.2774 29.4603L59.3417 28.7963L56.7711 31.085Z" fill="#8484EA"/>
<path d="M59.8639 32.5558L60.9897 33.3124L63.4854 31.063L62.2484 30.413L59.8639 32.5558Z" fill="#8484EA"/>
<path d="M62.8361 33.7545L64.3648 34.3718L66.7583 32.2001L65.1931 31.6501L62.8361 33.7545Z" fill="#8484EA"/>
<path d="M66.0791 34.6593L68.0531 34.8505L70.4843 32.659L68.594 32.3998L66.0791 34.6593Z" fill="#8484EA"/>
<path d="M59.0748 2.38841C63.2124 4.02468 66.9137 6.62479 69.8777 9.9772C72.8417 13.3296 74.9847 17.3397 76.1324 21.6814C77.7827 29.7591 72.8515 34.1763 65.1208 31.5522C60.9932 29.9019 57.3054 27.2899 54.3575 23.9288C51.4095 20.5677 49.2849 16.5526 48.1564 12.2102C46.4875 4.14239 51.4187 -0.27485 59.0748 2.38841ZM50.7263 12.6878C51.7964 16.2626 53.619 19.5628 56.0683 22.361C58.5176 25.1592 61.5353 27.3888 64.9135 28.8961C71.1896 31.2742 74.9618 27.8745 73.376 21.3018C72.3254 17.7051 70.5144 14.3802 68.0689 11.5581C65.6233 8.73598 62.6019 6.48438 59.2146 4.9598C53.0157 2.68538 49.1404 6.11519 50.8009 12.6487L50.7263 12.6878Z" fill="#8484EA"/>
<path d="M47.2649 20.3953C50.4745 26.714 55.8391 31.6458 62.3601 34.2725C63.8201 34.9227 65.4166 35.192 67.0033 35.056C68.59 34.9199 70.1161 34.3828 71.4416 33.4939L74.1663 31.0532C74.2016 31.0235 74.2305 30.9867 74.2512 30.9452C74.2719 30.9037 74.2841 30.8584 74.2868 30.8119C74.2895 30.7654 74.2827 30.7189 74.267 30.6751C74.2512 30.6312 74.2268 30.5912 74.1951 30.5572C74.1347 30.4936 74.0535 30.4542 73.9667 30.4467C73.8799 30.4392 73.7935 30.4639 73.7236 30.5163C72.4873 31.3926 71.0449 31.9257 69.5394 32.0627C68.0339 32.1997 66.5177 31.9359 65.1412 31.2974C61.0728 29.666 57.4387 27.0872 54.5346 23.7707C51.6304 20.4543 49.5382 16.4939 48.428 12.2116C47.6046 8.26865 48.3382 5.04658 50.5685 3.39445C50.6212 3.35014 50.6601 3.29141 50.6806 3.22522C50.7011 3.15903 50.7024 3.08816 50.6843 3.02111C50.6695 2.95174 50.6323 2.88928 50.5787 2.84347C50.525 2.79766 50.4579 2.77114 50.3879 2.76811C50.3009 2.77637 50.2206 2.81852 50.164 2.88568L47.3468 5.423C45.1687 7.36027 44.427 10.6586 45.2424 14.678C45.6573 16.6668 46.3377 18.5903 47.2649 20.3953ZM71.6387 32.4046L70.9989 32.957C69.764 33.7682 68.3466 34.2523 66.8765 34.365C65.4064 34.4777 63.9303 34.2154 62.5835 33.6022C58.5106 31.9707 54.8719 29.3913 51.9629 26.0734C49.0539 22.7555 46.9568 18.7928 45.8419 14.5073C45.0779 10.7255 45.7394 7.68558 47.7318 5.89393L48.1486 5.50674C47.3399 7.6945 47.1987 10.0799 47.7432 12.3549C48.8976 16.7524 51.057 20.8173 54.047 24.221C57.037 27.6247 60.7737 30.2717 64.955 31.9481C67.0907 32.7707 69.4182 32.9297 71.6387 32.4046Z" fill="#5047BA"/>
<path d="M59.2147 4.97409C62.5927 6.48131 65.6103 8.71081 68.0594 11.5088C70.5086 14.3069 72.3311 17.6069 73.4012 21.1813C74.987 27.7536 71.2151 31.1531 64.9393 28.7751C61.5613 27.2679 58.5437 25.0384 56.0945 22.2404C53.6453 19.4424 51.8228 16.1423 50.7527 12.5678C49.141 6.12935 53.016 2.69977 59.2147 4.97409Z" fill="#E9E9FF"/>
<path d="M49.8984 18.0275C53.1083 24.3472 58.0283 29.3418 64.55 31.9688C68.3097 33.4847 72.208 32.9276 74.3475 30.9143C76.487 28.901 77.2581 25.6588 76.4427 21.6388C75.2899 17.2399 73.1308 13.1736 70.1402 9.76917C67.1497 6.36475 63.4117 3.7179 59.229 2.0428C55.3729 0.725843 52.0164 1.02199 49.8768 3.03529C47.7373 5.04859 46.9565 8.27183 47.7816 12.3107C48.2245 14.3048 48.9368 16.2285 49.8984 18.0275ZM73.7466 16.1781C74.6782 17.9386 75.3614 19.8216 75.7765 21.7723C76.5405 25.5547 75.4732 28.2593 73.4706 30.0323C71.4681 31.8054 68.8192 32.4712 65.2189 31.2363C61.1481 29.6002 57.5114 27.019 54.6027 23.7013C51.694 20.3837 49.595 16.4227 48.4754 12.1387C47.7114 8.3563 48.373 5.31583 50.3658 3.52386C52.3586 1.73189 55.4327 1.43983 59.033 2.67469C65.3865 5.22732 70.6156 10.0263 73.7466 16.1781ZM52.1223 17.0519C54.8851 22.4444 59.384 26.7249 64.8716 29.1826C68.0191 30.3668 70.6996 30.1852 72.3866 28.6741C74.0736 27.1629 74.5911 24.4867 73.7884 21.1814C72.7005 17.5487 70.8481 14.195 68.3591 11.3514C65.87 8.50769 62.8034 6.24167 59.3705 4.70947C56.2231 3.52528 53.5425 3.70686 51.8555 5.21802C50.1685 6.72918 49.651 9.40537 50.4537 12.7107C50.8405 14.2182 51.4006 15.6752 52.1223 17.0519ZM71.4481 17.193C72.1495 18.5159 72.6899 19.9195 73.0574 21.3731C73.7803 24.4317 73.3714 26.8585 71.8417 28.2149C70.3121 29.5713 67.8758 29.7207 64.937 28.6193C61.6142 27.1285 58.6451 24.9318 56.2318 22.1787C53.8185 19.4257 52.0177 16.1809 50.952 12.6654C50.229 9.60672 50.6476 7.19882 52.1773 5.84242C53.707 4.48603 56.1433 4.3366 59.0724 5.4191C64.4004 7.80231 68.768 11.9575 71.4481 17.193Z" fill="#9F9FEC"/>
</g>
</g>
<defs>
<clipPath id="clip0_1762_42737">
<rect width="262" height="93.3563" fill="white"/>
</clipPath>
</defs>
</svg>

