<svg width="29" height="29" viewBox="0 0 29 29" fill="none" xmlns="http://www.w3.org/2000/svg">
<g clip-path="url(#clip0_1402_148)">
<path d="M28.9937 14.9097C28.9937 7.17774 22.7256 0.909729 14.9937 0.909729C7.26167 0.909729 0.993652 7.17774 0.993652 14.9097C0.993652 22.6417 7.26167 28.9097 14.9937 28.9097C22.7256 28.9097 28.9937 22.6417 28.9937 14.9097Z" fill="#FF4D00"/>
<path d="M8.927 14.1183C8.927 10.7409 11.6431 8.00306 14.9937 8.00306C18.3441 8.00306 21.0603 10.7409 21.0603 14.1183V20.1303C21.0571 16.7826 18.3422 14.0697 14.9937 14.0697C11.6432 14.0697 8.92701 16.7858 8.92701 20.1364L8.927 14.1183Z" fill="white"/>
</g>
<defs>
<clipPath id="clip0_1402_148">
<rect width="28" height="28" fill="white" transform="translate(0.993652 0.909729)"/>
</clipPath>
</defs>
</svg>
