<svg width="28" height="29" viewBox="0 0 28 29" fill="none" xmlns="http://www.w3.org/2000/svg">
<g clip-path="url(#clip0_1402_148)">
<path d="M27.9937 14.9097C27.9937 7.17774 21.7256 0.909729 13.9937 0.909729C6.26167 0.909729 -0.00634766 7.17774 -0.00634766 14.9097C-0.00634766 22.6417 6.26167 28.9097 13.9937 28.9097C21.7256 28.9097 27.9937 22.6417 27.9937 14.9097Z" fill="#FF4D00"/>
<path d="M7.927 14.1183C7.927 10.7409 10.6431 8.00306 13.9937 8.00306C17.3441 8.00306 20.0603 10.7409 20.0603 14.1183V20.1303C20.0571 16.7826 17.3422 14.0697 13.9937 14.0697C10.6432 14.0697 7.92701 16.7858 7.92701 20.1364L7.927 14.1183Z" fill="white"/>
</g>
<defs>
<clipPath id="clip0_1402_148">
<rect width="28" height="28" fill="white" transform="translate(-0.00634766 0.909729)"/>
</clipPath>
</defs>
</svg>
