<svg width="28" height="28" viewBox="0 0 28 28" fill="none" xmlns="http://www.w3.org/2000/svg">
<g clip-path="url(#clip0_1824_75)">
<mask id="mask0_1824_75" style="mask-type:luminance" maskUnits="userSpaceOnUse" x="0" y="0" width="28" height="28">
<path d="M28 0H0V28H28V0Z" fill="white"/>
</mask>
<g mask="url(#mask0_1824_75)">
<path d="M14 28C21.7319 28 28 21.7319 28 14C28 6.26802 21.7319 0 14 0C6.26802 0 0 6.26802 0 14C0 21.7319 6.26802 28 14 28Z" fill="url(#paint0_linear_1824_75)"/>
<path fill-rule="evenodd" clip-rule="evenodd" d="M14 3.9375C16.7787 3.9375 19.2943 5.06393 21.1153 6.88496C22.9145 8.68427 24.0356 11.1624 24.0621 13.9017V13.9073L24.0623 13.9445L24.0625 14L24.0616 14.0928V14.0989C24.0356 16.8382 22.9145 19.3157 21.115 21.1153C19.2943 22.9362 16.7789 24.0625 14 24.0625C11.2213 24.0625 8.70566 22.9362 6.88476 21.1151C5.06387 19.294 3.9375 16.7781 3.9375 13.9995C3.9375 11.2208 5.06387 8.7052 6.88476 6.88443C8.70566 5.06341 11.2213 3.9375 14 3.9375ZM19.7835 9.72081C20.1649 9.72081 20.535 9.77112 20.8875 9.86457C19.8498 8.85741 18.4345 8.23738 16.8743 8.23738C15.2829 8.23738 13.8422 8.88219 12.7996 9.9251C11.7568 10.9678 11.1118 12.4088 11.1118 14C11.1118 15.5912 11.7568 17.0322 12.7996 18.0747C13.8424 19.1175 15.2832 19.7624 16.8743 19.7624C18.4345 19.7624 19.85 19.142 20.8875 18.1351C20.5354 18.2289 20.1655 18.279 19.784 18.279C18.6026 18.279 17.5326 17.7999 16.7585 17.0256C15.9842 16.2513 15.5052 15.1814 15.5052 13.9998C15.5052 12.8182 15.9842 11.7482 16.7585 10.9739C17.532 10.2001 18.6016 9.72081 19.7835 9.72081ZM21.8007 11.9826C21.2844 11.4665 20.5714 11.1471 19.7832 11.1471C18.9954 11.1471 18.2821 11.4665 17.7657 11.9826C17.2493 12.4989 16.9303 13.2122 16.9303 14.0002C16.9303 14.7883 17.2499 15.5016 17.7657 16.018C18.2821 16.534 18.9952 16.8535 19.7832 16.8535C20.5714 16.8535 21.2844 16.534 21.8007 16.018C22.3167 15.5016 22.6363 14.7883 22.6363 14.0002L22.6358 13.9635C22.6264 13.19 22.3088 12.4907 21.8007 11.9826ZM16.8737 6.81115C17.77 6.81115 18.6275 6.97511 19.419 7.2749C17.9372 6.07952 16.052 5.36373 13.9998 5.36373C11.6152 5.36373 9.45571 6.33054 7.89263 7.89313C6.33006 9.45573 5.36331 11.6151 5.36331 14C5.36331 16.3851 6.32982 18.5443 7.89263 20.1071C9.45547 21.6697 11.6146 22.6365 13.9998 22.6365C16.0522 22.6365 17.9368 21.9207 19.419 20.7251C18.6275 21.0249 17.77 21.1889 16.8737 21.1889C14.8889 21.1889 13.0913 20.3842 11.7907 19.0833C10.4901 17.7825 9.68527 15.9853 9.68527 14.0002C9.68527 12.0153 10.4901 10.2177 11.7907 8.91691C13.0913 7.6158 14.8889 6.81115 16.8737 6.81115Z" fill="white"/>
</g>
</g>
<defs>
<linearGradient id="paint0_linear_1824_75" x1="-0.219347" y1="27.4947" x2="27.3232" y2="1.35578" gradientUnits="userSpaceOnUse">
<stop stop-color="#04BF77"/>
<stop offset="0.612453" stop-color="#04D082"/>
<stop offset="1" stop-color="#04D484"/>
</linearGradient>
<clipPath id="clip0_1824_75">
<rect width="28" height="28" fill="white"/>
</clipPath>
</defs>
</svg>

