<svg width="28" height="29" viewBox="0 0 28 29" fill="none" xmlns="http://www.w3.org/2000/svg">
<circle cx="14" cy="14.9097" r="14" fill="black"/>
<path d="M7.98099 10.6701C7.76373 11.0943 7.54129 11.5133 7.48439 11.6116C7.43266 11.7047 7.39127 11.7926 7.40162 11.7978C7.41197 11.803 8.7259 12.5013 10.3295 13.3497C11.928 14.1981 13.2367 14.9068 13.2367 14.9274C13.2367 14.9481 11.928 15.6568 10.3295 16.5052C8.7259 17.3536 7.41197 18.0519 7.40679 18.0571C7.39127 18.0674 8.32241 19.8521 8.37414 19.909C8.39483 19.9297 9.63117 19.459 11.121 18.8589C12.8591 18.1554 13.8989 17.7622 14.0127 17.7622C14.1265 17.7622 15.1766 18.1605 16.9044 18.8537C18.3942 19.459 19.6357 19.9297 19.6564 19.909C19.7081 19.8521 20.6392 18.0674 20.6237 18.0571C20.6134 18.0519 19.2994 17.3484 17.701 16.5C16.0974 15.6568 14.7886 14.943 14.7886 14.9274C14.7886 14.9119 16.0974 14.1981 17.701 13.3549C19.2994 12.5065 20.6134 11.803 20.6237 11.7978C20.6392 11.7875 19.7081 10.0028 19.6512 9.94588C19.6305 9.92519 18.3942 10.3959 16.9044 10.996C15.1714 11.6995 14.1265 12.0927 14.0127 12.0927C13.8989 12.0927 12.8591 11.6995 11.1313 11.0012C9.64669 10.4011 8.41552 9.90967 8.40518 9.90967C8.38966 9.90967 8.20343 10.2511 7.98099 10.6701Z" fill="#24F7DE"/>
</svg>
