<svg width="28" height="29" viewBox="0 0 28 29" fill="none" xmlns="http://www.w3.org/2000/svg">
<mask id="mask0_1455_126" style="mask-type:alpha" maskUnits="userSpaceOnUse" x="0" y="0" width="28" height="29">
<circle cx="14" cy="14.9097" r="14" fill="#D9D9D9"/>
</mask>
<g mask="url(#mask0_1455_126)">
<path d="M14 0.909668C11.2311 0.909668 8.52428 1.73074 6.22199 3.26908C3.9197 4.80742 2.12532 6.99392 1.06569 9.55208C0.00606322 12.1103 -0.27118 14.9252 0.269014 17.6409C0.809207 20.3567 2.14254 22.8513 4.10048 24.8092C6.05841 26.7671 8.55302 28.1005 11.2688 28.6407C13.9845 29.1808 16.7994 28.9036 19.3576 27.844C21.9158 26.7843 24.1023 24.9899 25.6406 22.6876C27.179 20.3853 28.0001 17.6786 28.0001 14.9097C28.0001 11.1966 26.5251 7.63564 23.8995 5.01013C21.274 2.38462 17.713 0.909668 14 0.909668ZM18.8951 21.9088H9.10592C8.54764 21.9088 8.01225 21.687 7.61749 21.2922C7.22272 20.8975 7.00089 20.3621 7.00089 19.8038V10.0147C7.00089 9.45638 7.22272 8.92094 7.61749 8.52618C8.01225 8.13141 8.54764 7.90964 9.10592 7.90964H18.8951C19.4533 7.90964 19.9887 8.13141 20.3835 8.52618C20.7783 8.92094 21.0001 9.45638 21.0001 10.0147V19.8038C21.0001 20.3621 20.7783 20.8975 20.3835 21.2922C19.9887 21.687 19.4533 21.9088 18.8951 21.9088Z" fill="#FF5500"/>
</g>
</svg>
