<svg width="28" height="29" viewBox="0 0 28 29" fill="none" xmlns="http://www.w3.org/2000/svg">
<g clip-path="url(#clip0_606_150)">
<path d="M23.898 5.01175C18.438 -0.46225 9.56196 -0.46225 4.10196 5.01175C-1.37204 10.4857 -1.37204 19.3477 4.10196 24.8077C9.57596 30.2817 18.438 30.2817 23.898 24.8077C29.372 19.3477 29.372 10.4718 23.898 5.01175ZM22.694 23.6038C17.892 28.4058 10.094 28.4058 5.29196 23.6038C0.48996 18.8018 0.48996 11.0037 5.29196 6.20175C10.094 1.39975 17.892 1.39975 22.694 6.20175C27.51 11.0177 27.51 18.8018 22.694 23.6038Z" fill="#141521"/>
<path d="M22.6939 6.21576C17.8919 1.41376 10.0939 1.41376 5.29193 6.21576C0.48993 11.0178 0.48993 18.8158 5.29193 23.6178C10.0939 28.4198 17.8919 28.4198 22.6939 23.6178C27.5099 18.8018 27.5099 11.0178 22.6939 6.21576ZM8.81993 24.8078C7.95193 24.3458 7.15393 23.7578 6.45393 23.0858V6.74776C7.18193 6.04776 8.00793 5.45976 8.90393 4.98376L19.1799 20.6358V5.01176C20.0479 5.47376 20.8459 6.06176 21.5459 6.73376V23.0718C20.8179 23.7718 19.9919 24.3598 19.0959 24.8358L8.81993 9.18376V24.8078Z" fill="white"/>
<path d="M21.5599 23.0717V6.74773C20.8459 6.07573 20.0479 5.48773 19.1939 5.02573V20.6357L8.88994 4.96973C7.99394 5.44573 7.16794 6.03373 6.43994 6.73373V23.0717C7.15394 23.7437 7.95194 24.3317 8.80594 24.7937V9.18373L19.1099 24.8497C20.0059 24.3737 20.8319 23.7717 21.5599 23.0717Z" fill="#141521"/>
</g>
<defs>
<clipPath id="clip0_606_150">
<rect width="28" height="28" fill="white" transform="translate(0 0.909668)"/>
</clipPath>
</defs>
</svg>
