<svg width="28" height="28" viewBox="0 0 28 28" fill="none" xmlns="http://www.w3.org/2000/svg">
<circle cx="14" cy="14" r="14" fill="white"/>
<path d="M22.5356 8.31741C22.3541 7.63058 21.771 6.94376 20.7213 6.17918C19.879 5.57011 18.9848 5.22021 18.2721 5.22021C18.1295 5.22021 17.9999 5.23317 17.8703 5.25909C17.5464 5.32389 17.2613 5.55715 17.0798 5.90704C16.8595 6.32173 16.8077 6.87896 16.9503 7.2159C17.0021 7.31957 17.0669 7.44916 17.1446 7.56579C16.4578 7.98047 16.069 8.0971 16.0172 8.11006C17.8055 8.70618 19.2958 9.95024 20.2289 11.5701L20.2418 11.4146C20.2807 10.987 20.4103 10.4945 20.5917 9.98911C20.7732 10.0409 20.9546 10.0669 21.136 10.0669C21.6155 10.0669 22.0302 9.87248 22.2894 9.52259C22.5485 9.1727 22.6522 8.70618 22.5356 8.31741Z" fill="#5E12A0"/>
<path d="M20.6695 9.61351C21.8488 9.93748 22.3283 9.03036 22.1728 8.42129C22.0043 7.81222 21.46 7.19018 20.5011 6.4904C19.5421 5.79062 18.5702 5.50552 17.9482 5.63511C17.3261 5.7647 17.1447 6.7107 17.3002 7.07355C17.365 7.2161 17.5076 7.42345 17.7019 7.65671C17.4557 7.82517 17.2225 7.95476 17.0281 8.07139C18.2203 8.60271 19.257 9.43208 20.0346 10.4688C20.1253 10.1189 20.2549 9.80789 20.3715 9.53576C20.4622 9.54872 20.5659 9.57463 20.6695 9.61351Z" fill="url(#paint0_radial_5_1123)"/>
<path d="M13.9179 22.3133C17.9187 22.3133 21.1619 19.07 21.1619 15.0693C21.1619 11.0685 17.9187 7.8252 13.9179 7.8252C9.9171 7.8252 6.67383 11.0685 6.67383 15.0693C6.67383 19.07 9.9171 22.3133 13.9179 22.3133Z" fill="url(#paint1_radial_5_1123)"/>
<path opacity="0.6" d="M21.5766 7.82503C20.5918 6.78832 19.7624 6.51618 18.7645 6.29588C17.987 6.11445 18.1943 5.67385 19.1404 5.76456C18.6868 5.60905 18.2591 5.57017 17.9481 5.63497C17.3261 5.76456 17.1447 6.71056 17.3002 7.07341C17.365 7.21596 17.5075 7.42331 17.7019 7.65657C17.352 7.88983 17.054 8.0583 16.8077 8.18788C16.9244 8.23972 17.0669 8.30451 17.2354 8.39523C17.676 8.62849 18.1555 9.01726 18.1555 9.01726C17.4298 8.39523 17.5853 8.11013 18.5831 7.41035C18.8941 7.19004 19.4643 7.21596 19.9956 7.4881C20.527 7.76024 21.149 8.44706 21.149 8.44706L20.5529 9.58745C20.5918 9.60041 20.6306 9.61337 20.6695 9.62633C21.0453 9.73 21.3434 9.70408 21.5766 9.61337C21.8488 9.4449 22.5615 8.87471 21.5766 7.82503Z" fill="#A98698"/>
<path d="M18.7517 6.91784C19.0108 7.02151 19.3478 7.20294 19.7625 7.47508C20.2549 7.79905 20.6825 8.1619 20.9547 8.447C20.5011 9.04311 20.2031 9.85953 20.0216 10.4297C20.1123 10.5593 20.216 10.6889 20.3067 10.8185C20.3974 10.4945 20.5529 10.015 20.7603 9.53555C20.8121 9.54851 20.8769 9.54851 20.9417 9.54851C21.0972 9.54851 21.2787 9.52259 21.4212 9.40596C21.5249 9.32821 21.6415 9.18566 21.6285 8.92648C21.6285 8.68026 21.4342 8.36925 21.0324 7.99344C20.7473 7.7213 20.3586 7.42324 19.9698 7.1511C18.8553 6.41244 18.0778 6.2051 17.7279 6.55499C17.4946 6.78825 17.5206 7.07335 17.5983 7.28069C17.1836 7.55283 16.8337 7.74721 16.6005 7.8768C16.756 7.92864 16.8985 7.99344 17.054 8.05823C17.4687 7.83793 18.0648 7.46212 18.7517 6.91784ZM21.2009 8.77097C21.2398 8.83577 21.2527 8.90056 21.2527 8.93944C21.2527 9.05607 21.2139 9.09495 21.1879 9.12086C21.1361 9.15974 21.0324 9.18566 20.9417 9.18566C21.0195 9.03015 21.1102 8.90056 21.2009 8.77097ZM18 6.84009C18.0389 6.80121 18.1426 6.77529 18.311 6.80121C18.1815 6.90488 18.0519 6.9956 17.9223 7.08631C17.9093 6.9956 17.9223 6.90488 18 6.84009Z" fill="#5E12A0"/>
<path d="M13.918 7.39746C9.68046 7.39746 6.24634 10.8316 6.24634 15.0692C6.24634 19.3067 9.68046 22.7409 13.918 22.7409C18.1556 22.7409 21.5897 19.3067 21.5897 15.0692C21.5897 10.8316 18.1427 7.39746 13.918 7.39746ZM13.918 22.3132C9.91372 22.3132 6.67398 19.0735 6.67398 15.0692C6.67398 11.0648 9.91372 7.82511 13.918 7.82511C17.9224 7.82511 21.1621 11.0648 21.1621 15.0692C21.1621 19.0735 17.9094 22.3132 13.918 22.3132Z" fill="#5E12A0"/>
<path opacity="0.6" d="M13.9179 22.3133C17.9187 22.3133 21.1619 19.07 21.1619 15.0693C21.1619 11.0685 17.9187 7.8252 13.9179 7.8252C9.9171 7.8252 6.67383 11.0685 6.67383 15.0693C6.67383 19.07 9.9171 22.3133 13.9179 22.3133Z" fill="url(#paint2_linear_5_1123)"/>
<path opacity="0.6" d="M13.8661 21.4318C9.91358 20.7969 7.23108 17.0776 7.87903 13.1251C8.16412 11.3757 9.04533 9.88541 10.2894 8.80981C8.47514 9.85949 7.12741 11.6867 6.76456 13.9156C6.12957 17.8681 8.81207 21.5874 12.7516 22.2223C14.9546 22.5852 17.0799 21.8984 18.6479 20.5506C17.2613 21.3541 15.5767 21.704 13.8661 21.4318Z" fill="#A98698"/>
<path opacity="0.6" d="M15.0714 7.92872C13.2442 7.63066 11.4688 8.04535 10.0174 8.96544C9.99149 8.99136 9.96557 9.01727 9.96557 9.01727C10.5228 8.68034 11.3392 8.38228 11.3392 8.38228C9.23987 9.60043 8.59192 10.987 8.59192 10.987C9.40833 9.40604 11.8057 8.29157 13.6848 8.21382C15.5638 8.13606 16.7949 8.6933 18.2982 9.89848C19.8014 11.1166 20.7085 13.6047 20.6178 15.5745C20.5401 17.5443 19.5034 19.1382 19.5034 19.1382C20.2161 18.2181 20.6438 17.5443 20.9159 16.8574C20.9677 16.6501 21.0196 16.4428 21.0455 16.2225C21.6934 12.2829 19.0239 8.56371 15.0714 7.92872Z" fill="url(#paint3_linear_5_1123)"/>
<path d="M20.7991 15.0042C20.7991 18.8011 17.7148 21.8854 13.9178 21.8854C10.1209 21.8854 7.02368 18.8011 7.02368 15.0042H20.7991Z" fill="url(#paint4_linear_5_1123)"/>
<g opacity="0.6">
<path opacity="0.6" d="M20.2548 15.0042C20.2548 18.7104 17.3261 21.7428 13.6458 21.8854C13.7365 21.8854 13.8272 21.8854 13.9179 21.8854C17.7149 21.8854 20.7991 18.8011 20.7991 15.0042H20.2548Z" fill="url(#paint5_linear_5_1123)"/>
</g>
<g opacity="0.7">
<path opacity="0.7" d="M7.9956 15.0042H7.02368C7.02368 18.8011 10.1079 21.8854 13.9049 21.8854C14.0734 21.8854 14.2289 21.8854 14.3844 21.8724C10.8207 21.6132 7.9956 18.6327 7.9956 15.0042Z" fill="url(#paint6_linear_5_1123)"/>
</g>
<path d="M20.7861 15.069C20.7861 14.2786 19.4124 13.825 17.5852 13.6695C16.2634 13.5658 14.9286 13.6954 13.3995 14.1619C12.0777 14.5507 10.8855 14.4859 10.0172 14.3822C8.08632 14.1619 7.02368 14.136 7.02368 15.069C7.02368 16.4168 9.77098 18.1014 13.8919 17.5183C15.9783 17.2202 17.0539 16.6112 18.285 16.1965C19.6198 15.7559 20.7861 15.7688 20.7861 15.069Z" fill="url(#paint7_linear_5_1123)"/>
<path d="M16.1728 11.8036C16.8169 11.8036 17.3391 11.2814 17.3391 10.6373C17.3391 9.99312 16.8169 9.47095 16.1728 9.47095C15.5286 9.47095 15.0065 9.99312 15.0065 10.6373C15.0065 11.2814 15.5286 11.8036 16.1728 11.8036Z" fill="white"/>
<path d="M18.0778 12.6716C18.3497 12.6716 18.5702 12.4512 18.5702 12.1792C18.5702 11.9072 18.3497 11.6868 18.0778 11.6868C17.8058 11.6868 17.5853 11.9072 17.5853 12.1792C17.5853 12.4512 17.8058 12.6716 18.0778 12.6716Z" fill="white"/>
<g opacity="0.6">
<path opacity="0.6" d="M19.8402 9.70403C19.8273 9.70403 19.8143 9.70403 19.8143 9.70403C19.7365 9.69107 19.6847 9.61332 19.6977 9.52261C19.8143 8.92649 20.3067 8.3563 20.3327 8.33038C20.3845 8.26559 20.4882 8.26559 20.54 8.31742C20.6048 8.36926 20.6048 8.47293 20.553 8.52476C20.54 8.53772 20.0864 9.06904 19.9828 9.5874C19.9698 9.66515 19.905 9.70403 19.8402 9.70403Z" fill="url(#paint8_linear_5_1123)"/>
</g>
<path d="M18.2721 5.2203C18.9978 5.2203 19.892 5.5702 20.7214 6.17927C21.7711 6.94385 22.3542 7.61771 22.5356 8.3175C22.6393 8.71922 22.5486 9.17279 22.2894 9.50972C22.0173 9.85961 21.6156 10.054 21.1361 10.054C20.9676 10.054 20.7862 10.0281 20.5918 9.97624C20.4752 10.2743 20.3844 10.5724 20.3197 10.8575C21.1102 12.0626 21.5767 13.514 21.5767 15.0691C21.5767 19.3067 18.1425 22.7408 13.905 22.7408C9.66739 22.7408 6.24622 19.3067 6.24622 15.0691C6.24622 10.8315 9.68035 7.39741 13.9179 7.39741C14.851 7.39741 15.7451 7.56587 16.5745 7.87689C16.73 7.79914 16.9244 7.69546 17.1447 7.56587C17.067 7.44924 16.9892 7.33261 16.9503 7.21598C16.8078 6.86609 16.8596 6.32181 17.0799 5.90713C17.2613 5.57019 17.5335 5.33693 17.8704 5.25918C17.987 5.23326 18.1296 5.2203 18.2721 5.2203ZM18.2721 5C18.1166 5 17.9611 5.01296 17.8186 5.05184C17.4298 5.14255 17.0929 5.40173 16.8726 5.81642C16.6264 6.2959 16.5616 6.91793 16.73 7.31966C16.7559 7.37149 16.7819 7.43629 16.8207 7.50108C16.73 7.55292 16.6393 7.60475 16.5486 7.64363C15.6933 7.34557 14.8121 7.19006 13.905 7.19006C12.8423 7.19006 11.8056 7.39741 10.8337 7.81209C9.88769 8.21382 9.04536 8.78402 8.31965 9.50972C7.59395 10.2354 7.02376 11.0778 6.62203 12.0238C6.20734 12.9957 6 14.0324 6 15.095C6 16.1577 6.20734 17.1944 6.62203 18.1663C7.02376 19.1123 7.59395 19.9546 8.31965 20.6803C9.04536 21.406 9.88769 21.9762 10.8337 22.378C11.8056 22.7927 12.8423 23 13.905 23C14.9676 23 16.0043 22.7927 16.9762 22.378C17.9222 21.9762 18.7646 21.406 19.4903 20.6803C20.216 19.9546 20.7862 19.1123 21.1879 18.1663C21.6026 17.1944 21.8099 16.1577 21.8099 15.095C21.8099 13.5788 21.3823 12.1145 20.5659 10.8445C20.6048 10.6501 20.6695 10.4557 20.7343 10.2613C20.8639 10.2873 21.0065 10.3002 21.1361 10.3002C21.6803 10.3002 22.1598 10.0799 22.4708 9.66523C22.7689 9.27646 22.8855 8.73218 22.7559 8.27862C22.5486 7.527 21.9525 6.81425 20.851 6.02376C19.9827 5.36285 19.0367 5 18.2721 5Z" fill="white"/>
<path opacity="0.2" d="M13.4391 20.473C13.6395 20.473 13.802 20.3106 13.802 20.1102C13.802 19.9098 13.6395 19.7473 13.4391 19.7473C13.2387 19.7473 13.0763 19.9098 13.0763 20.1102C13.0763 20.3106 13.2387 20.473 13.4391 20.473Z" fill="white"/>
<g opacity="0.4">
<path opacity="0.6" d="M13.2311 20.3434C13.0886 20.2009 13.0886 19.9676 13.2311 19.825C13.2571 19.7991 13.283 19.7862 13.3089 19.7603C13.2571 19.7732 13.2182 19.7991 13.1793 19.838C13.0368 19.9806 13.0368 20.2138 13.1793 20.3564C13.2959 20.473 13.4774 20.4989 13.6199 20.4212C13.4903 20.473 13.3348 20.4471 13.2311 20.3434Z" fill="url(#paint9_linear_5_1123)"/>
</g>
<path opacity="0.3" d="M13.568 20.0066C13.6109 20.0066 13.6457 19.9718 13.6457 19.9288C13.6457 19.8859 13.6109 19.8511 13.568 19.8511C13.525 19.8511 13.4902 19.8859 13.4902 19.9288C13.4902 19.9718 13.525 20.0066 13.568 20.0066Z" fill="white"/>
<path opacity="0.2" d="M15.3311 20.2916C15.5315 20.2916 15.694 20.1292 15.694 19.9288C15.694 19.7284 15.5315 19.5659 15.3311 19.5659C15.1307 19.5659 14.9683 19.7284 14.9683 19.9288C14.9683 20.1292 15.1307 20.2916 15.3311 20.2916Z" fill="white"/>
<g opacity="0.4">
<path opacity="0.6" d="M15.1231 20.162C14.9806 20.0195 14.9806 19.7862 15.1231 19.6437C15.149 19.6177 15.1749 19.6048 15.2009 19.5789C15.149 19.5918 15.1101 19.6177 15.0713 19.6566C14.9287 19.7992 14.9287 20.0324 15.0713 20.175C15.1879 20.2916 15.3693 20.3175 15.5119 20.2398C15.3823 20.2916 15.2268 20.2657 15.1231 20.162Z" fill="url(#paint10_linear_5_1123)"/>
</g>
<path opacity="0.3" d="M15.4601 19.8249C15.503 19.8249 15.5378 19.7901 15.5378 19.7472C15.5378 19.7042 15.503 19.6694 15.4601 19.6694C15.4171 19.6694 15.3823 19.7042 15.3823 19.7472C15.3823 19.7901 15.4171 19.8249 15.4601 19.8249Z" fill="white"/>
<path opacity="0.2" d="M14.3974 21.1339C14.5477 21.1339 14.6695 21.012 14.6695 20.8617C14.6695 20.7114 14.5477 20.5896 14.3974 20.5896C14.2471 20.5896 14.1252 20.7114 14.1252 20.8617C14.1252 21.012 14.2471 21.1339 14.3974 21.1339Z" fill="white"/>
<g opacity="0.4">
<path opacity="0.6" d="M14.2419 21.0302C14.1382 20.9265 14.1382 20.7451 14.2419 20.6414C14.2548 20.6285 14.2808 20.6155 14.2937 20.6025C14.2548 20.6155 14.2289 20.6414 14.203 20.6673C14.0993 20.771 14.0993 20.9524 14.203 21.0561C14.2937 21.1468 14.4233 21.1598 14.5399 21.095C14.4363 21.1339 14.3196 21.1079 14.2419 21.0302Z" fill="url(#paint11_linear_5_1123)"/>
</g>
<path opacity="0.3" d="M14.488 20.7712C14.5166 20.7712 14.5398 20.7479 14.5398 20.7193C14.5398 20.6907 14.5166 20.6675 14.488 20.6675C14.4594 20.6675 14.4362 20.6907 14.4362 20.7193C14.4362 20.7479 14.4594 20.7712 14.488 20.7712Z" fill="white"/>
<path opacity="0.2" d="M16.0691 20.9395C16.2194 20.9395 16.3413 20.8177 16.3413 20.6674C16.3413 20.5171 16.2194 20.3953 16.0691 20.3953C15.9188 20.3953 15.797 20.5171 15.797 20.6674C15.797 20.8177 15.9188 20.9395 16.0691 20.9395Z" fill="white"/>
<g opacity="0.4">
<path opacity="0.6" d="M15.9136 20.8358C15.81 20.7322 15.81 20.5508 15.9136 20.4471C15.9266 20.4341 15.9525 20.4212 15.9655 20.4082C15.9266 20.4212 15.9007 20.4471 15.8748 20.473C15.7711 20.5767 15.7711 20.7581 15.8748 20.8618C15.9655 20.9525 16.0951 20.9654 16.2117 20.9006C16.108 20.9395 15.9914 20.9136 15.9136 20.8358Z" fill="url(#paint12_linear_5_1123)"/>
</g>
<path opacity="0.3" d="M16.1599 20.5766C16.1885 20.5766 16.2117 20.5534 16.2117 20.5247C16.2117 20.4961 16.1885 20.4729 16.1599 20.4729C16.1312 20.4729 16.108 20.4961 16.108 20.5247C16.108 20.5534 16.1312 20.5766 16.1599 20.5766Z" fill="white"/>
<path opacity="0.2" d="M11.8963 20.3433C12.2255 20.3433 12.4924 20.0765 12.4924 19.7472C12.4924 19.418 12.2255 19.1511 11.8963 19.1511C11.5671 19.1511 11.3002 19.418 11.3002 19.7472C11.3002 20.0765 11.5671 20.3433 11.8963 20.3433Z" fill="white"/>
<g opacity="0.4">
<path opacity="0.6" d="M11.5593 20.123C11.3261 19.8897 11.3261 19.5139 11.5593 19.2807C11.5982 19.2418 11.6371 19.2159 11.6889 19.1899C11.6112 19.2159 11.5464 19.2677 11.4816 19.3195C11.2483 19.5528 11.2483 19.9286 11.4816 20.1619C11.676 20.3562 11.974 20.3951 12.2073 20.2526C11.987 20.3433 11.7278 20.3044 11.5593 20.123Z" fill="url(#paint13_linear_5_1123)"/>
</g>
<path opacity="0.3" d="M12.1037 19.5658C12.1753 19.5658 12.2333 19.5078 12.2333 19.4362C12.2333 19.3647 12.1753 19.3066 12.1037 19.3066C12.0321 19.3066 11.9741 19.3647 11.9741 19.4362C11.9741 19.5078 12.0321 19.5658 12.1037 19.5658Z" fill="white"/>
<path opacity="0.2" d="M17.2225 18.879C17.5517 18.879 17.8186 18.6121 17.8186 18.2829C17.8186 17.9537 17.5517 17.6868 17.2225 17.6868C16.8932 17.6868 16.6263 17.9537 16.6263 18.2829C16.6263 18.6121 16.8932 18.879 17.2225 18.879Z" fill="white"/>
<g opacity="0.4">
<path opacity="0.6" d="M16.8726 18.6586C16.6393 18.4254 16.6393 18.0496 16.8726 17.8163C16.9115 17.7774 16.9503 17.7515 17.0022 17.7256C16.9244 17.7515 16.8596 17.8033 16.7948 17.8552C16.5616 18.0884 16.5616 18.4642 16.7948 18.6975C16.9892 18.8919 17.2873 18.9308 17.5205 18.7882C17.3002 18.8789 17.054 18.8401 16.8726 18.6586Z" fill="url(#paint14_linear_5_1123)"/>
</g>
<path opacity="0.3" d="M17.4299 18.1015C17.5015 18.1015 17.5595 18.0434 17.5595 17.9719C17.5595 17.9003 17.5015 17.8423 17.4299 17.8423C17.3583 17.8423 17.3003 17.9003 17.3003 17.9719C17.3003 18.0434 17.3583 18.1015 17.4299 18.1015Z" fill="white"/>
<defs>
<radialGradient id="paint0_radial_5_1123" cx="0" cy="0" r="1" gradientUnits="userSpaceOnUse" gradientTransform="translate(21.9364 7.60486) scale(5.79193)">
<stop stop-color="#FFEAFF" stop-opacity="0.6"/>
<stop offset="0.6807" stop-color="#A087C9"/>
<stop offset="1" stop-color="#10002F"/>
</radialGradient>
<radialGradient id="paint1_radial_5_1123" cx="0" cy="0" r="1" gradientUnits="userSpaceOnUse" gradientTransform="translate(18.7141 10.0751) scale(14.1708)">
<stop stop-color="#FFEAFF" stop-opacity="0.6"/>
<stop offset="0.6807" stop-color="#A087C9"/>
<stop offset="1" stop-color="#10002F"/>
</radialGradient>
<linearGradient id="paint2_linear_5_1123" x1="12.7559" y1="22.2106" x2="15.0729" y2="7.91595" gradientUnits="userSpaceOnUse">
<stop stop-color="#81FFFF"/>
<stop offset="0.6202" stop-color="white" stop-opacity="0"/>
</linearGradient>
<linearGradient id="paint3_linear_5_1123" x1="19.0233" y1="10.1494" x2="13.0331" y2="15.6456" gradientUnits="userSpaceOnUse">
<stop offset="0.2888" stop-color="white"/>
<stop offset="0.7796" stop-color="white" stop-opacity="0"/>
</linearGradient>
<linearGradient id="paint4_linear_5_1123" x1="7.02951" y1="18.4407" x2="20.7957" y2="18.4407" gradientUnits="userSpaceOnUse">
<stop stop-color="#0002E9"/>
<stop offset="0.9952" stop-color="#FF00C7"/>
</linearGradient>
<linearGradient id="paint5_linear_5_1123" x1="21.4474" y1="15.608" x2="13.9545" y2="22.6892" gradientUnits="userSpaceOnUse">
<stop offset="0.2888" stop-color="white"/>
<stop offset="0.7796" stop-color="white" stop-opacity="0"/>
</linearGradient>
<linearGradient id="paint6_linear_5_1123" x1="7.02951" y1="18.4407" x2="14.3944" y2="18.4407" gradientUnits="userSpaceOnUse">
<stop stop-color="#000292"/>
<stop offset="0.9952" stop-color="#7D00C7"/>
</linearGradient>
<linearGradient id="paint7_linear_5_1123" x1="7.03875" y1="15.6407" x2="20.7865" y2="15.6407" gradientUnits="userSpaceOnUse">
<stop stop-color="#000292"/>
<stop offset="0.9952" stop-color="#BE00C7"/>
</linearGradient>
<linearGradient id="paint8_linear_5_1123" x1="20.561" y1="8.26727" x2="19.573" y2="9.87289" gradientUnits="userSpaceOnUse">
<stop offset="0.2888" stop-color="white"/>
<stop offset="0.7796" stop-color="white" stop-opacity="0"/>
</linearGradient>
<linearGradient id="paint9_linear_5_1123" x1="13.072" y1="20.1213" x2="13.6203" y2="20.1213" gradientUnits="userSpaceOnUse">
<stop offset="0.2888" stop-color="white"/>
<stop offset="0.7796" stop-color="white" stop-opacity="0"/>
</linearGradient>
<linearGradient id="paint10_linear_5_1123" x1="14.9627" y1="19.9374" x2="15.511" y2="19.9374" gradientUnits="userSpaceOnUse">
<stop offset="0.2888" stop-color="white"/>
<stop offset="0.7796" stop-color="white" stop-opacity="0"/>
</linearGradient>
<linearGradient id="paint11_linear_5_1123" x1="14.1235" y1="20.8648" x2="14.5352" y2="20.8648" gradientUnits="userSpaceOnUse">
<stop offset="0.2888" stop-color="white"/>
<stop offset="0.7796" stop-color="white" stop-opacity="0"/>
</linearGradient>
<linearGradient id="paint12_linear_5_1123" x1="15.7897" y1="20.67" x2="16.2013" y2="20.67" gradientUnits="userSpaceOnUse">
<stop offset="0.2888" stop-color="white"/>
<stop offset="0.7796" stop-color="white" stop-opacity="0"/>
</linearGradient>
<linearGradient id="paint13_linear_5_1123" x1="11.3007" y1="19.7624" x2="12.1961" y2="19.7624" gradientUnits="userSpaceOnUse">
<stop offset="0.2888" stop-color="white"/>
<stop offset="0.7796" stop-color="white" stop-opacity="0"/>
</linearGradient>
<linearGradient id="paint14_linear_5_1123" x1="16.6189" y1="18.2976" x2="17.5143" y2="18.2976" gradientUnits="userSpaceOnUse">
<stop offset="0.2888" stop-color="white"/>
<stop offset="0.7796" stop-color="white" stop-opacity="0"/>
</linearGradient>
</defs>
</svg>

