<svg width="32" height="32" viewBox="0 0 32 32" fill="none" xmlns="http://www.w3.org/2000/svg">
<rect width="32" height="32" rx="16" fill="#120901"/>
<path d="M21.2643 15.4424C21.0921 15.4424 20.9198 15.4639 20.7691 15.55C20.5754 15.6792 20.4247 15.9806 20.4247 16.2605C20.4247 16.4973 20.64 16.7987 20.8768 16.9278C21.5442 17.2723 22.2546 16.4973 21.9102 15.8514C21.8025 15.6146 21.5226 15.4639 21.2643 15.4424Z" fill="#FF8500"/>
<path d="M15.8717 10.8355C16.1085 10.8786 16.4529 11.6967 16.5175 12.3856C16.539 12.5363 16.5175 12.8592 16.5175 13.096C16.496 13.462 16.4529 13.5696 16.3238 13.7419C16.0439 14.1509 15.5272 14.4093 14.8598 14.4523C14.6661 14.4738 14.3431 14.4954 14.1709 14.4954C13.891 14.4738 13.8695 14.4738 13.9126 14.3662C13.9341 14.3231 13.9987 14.1724 14.0417 14.0433C14.3216 13.1821 14.9459 11.8043 15.2689 11.3737C15.4842 11.0508 15.7425 10.814 15.8717 10.8355ZM15.6564 8.96255C15.5487 8.96255 15.4196 8.98408 15.2258 9.04866C14.9459 9.13478 14.6876 9.28547 14.4508 9.47923C14.1063 9.73757 14.0633 9.7591 14.0417 9.65146C14.0202 9.47923 13.7403 9.24242 13.482 9.22089C13.2237 9.17783 12.9007 9.307 12.7716 9.50076C12.707 9.58687 12.5348 9.86674 12.3625 10.1466C12.0611 10.6633 11.9535 11.0293 12.0611 11.2446C12.1257 11.3737 12.1042 11.5244 11.9104 12.4502C11.566 14.1294 11.0062 17.5955 11.0062 18.2628C10.9847 19.7698 11.0062 21.1907 11.0278 21.4706C11.0923 21.9012 11.243 22.2026 11.5229 22.3963C11.8028 22.5901 11.9535 22.6331 12.2549 22.547C12.5563 22.4824 12.707 22.3748 12.8792 22.138C13.073 21.8581 13.116 21.5567 13.116 20.2435C13.0945 18.6504 13.3098 16.1315 13.4389 15.9808C13.482 15.9593 13.7619 15.9378 14.0848 15.9808C15.2904 16.0885 16.2807 15.8732 17.0342 15.3134C17.8523 14.7107 18.1967 14.0217 18.2613 12.8592C18.3259 11.3307 17.8308 9.97439 16.9481 9.28547C16.6682 9.09172 16.5821 9.07019 16.1515 9.0056C15.9363 8.96255 15.7856 8.94102 15.6564 8.96255Z" fill="white"/>
</svg>
