<svg width="28" height="29" viewBox="0 0 28 29" fill="none" xmlns="http://www.w3.org/2000/svg">
<circle cx="14" cy="14.9097" r="14" fill="#060607"/>
<path d="M24.3791 14.8421C24.3791 14.1674 21.4104 13.4477 17.2722 13.2228C19.7461 12.9979 21.4104 12.5481 21.4104 12.0983C21.4104 11.5586 18.9815 11.0188 15.7429 10.8389C16.9573 10.7039 17.812 10.4341 17.812 10.1192C17.812 9.75937 16.1477 9.30957 14.0337 9.30957C11.9646 9.30957 10.2554 9.71439 10.2554 10.1192C10.2554 10.479 11.02 10.7039 12.1895 10.8389C9.04091 10.9738 6.65697 11.5136 6.65697 12.0533C6.65697 12.5031 8.32123 12.9529 10.7501 13.1778C6.70195 13.4477 3.73328 14.1224 3.73328 14.8421C3.73328 15.6068 6.65697 16.2365 10.7052 16.5064C8.32123 16.7313 6.65697 17.1811 6.65697 17.6308C6.65697 18.2156 8.99592 18.7104 12.1895 18.8903C11.065 19.0252 10.2554 19.2501 10.2554 19.61C10.2554 19.9698 11.9196 20.4196 14.0337 20.4196C16.1027 20.4196 17.812 19.9698 17.812 19.61C17.812 19.2951 16.9573 19.0252 15.7429 18.8903C18.9815 18.7554 21.4104 18.1706 21.4104 17.6308C21.4104 17.1811 19.7461 16.7313 17.3172 16.5064C21.4104 16.2365 24.3791 15.5618 24.3791 14.8421ZM11.2899 12.818C11.3349 12.818 11.3349 12.773 11.3349 12.773L11.3798 12.728L13.5389 11.4686C13.6738 11.3786 13.8537 11.3337 14.0337 11.3337C14.2136 11.3337 14.3935 11.3786 14.5284 11.4686C14.5284 11.4686 16.6425 12.6831 16.6875 12.6831C16.8674 12.773 17.0023 12.9529 17.0473 13.1778C17.0473 13.2228 17.0923 13.3578 17.0473 13.4027C17.0473 13.4027 17.0473 13.4027 17.0023 13.4027C16.9573 13.4027 16.8674 13.4027 16.8224 13.4027C16.7325 13.4027 16.6875 13.4027 16.5975 13.4027C16.4626 13.4027 16.3277 13.3578 16.1927 13.3578C16.0128 13.3578 15.8329 13.3128 15.653 13.3128C15.3831 13.2678 15.1132 13.2678 14.8433 13.2228C14.5284 13.1778 14.2136 13.1329 13.8987 13.1329C13.5839 13.0879 13.269 13.0429 12.9541 13.0429C12.6843 12.9979 12.4144 12.9979 12.1445 12.9529C11.9646 12.9529 11.7847 12.908 11.6048 12.908C11.5598 12.908 11.5148 12.908 11.4698 12.908C11.4698 12.908 11.4698 12.908 11.4248 12.908C11.3798 12.908 11.3798 12.908 11.3349 12.863C11.2899 12.863 11.2899 12.863 11.2899 12.818ZM17.0473 16.5963C17.0473 16.5963 17.0473 16.6413 17.0023 16.6413V16.6863C16.9124 16.7762 16.8674 16.8662 16.7325 16.9561L14.5284 18.2156C14.3935 18.3055 14.2136 18.3505 14.0337 18.3505C13.8537 18.3505 13.6738 18.3055 13.5389 18.2156L11.6048 17.0911C11.5598 17.0911 11.5598 17.0461 11.5598 17.0461C11.5148 17.0011 11.5148 17.0011 11.5148 16.9561C11.5598 16.8662 11.6947 16.8662 11.6947 16.8662C11.7397 16.8662 11.7847 16.8662 11.8297 16.8662H11.8747C11.9646 16.8662 12.0096 16.8662 12.0995 16.8212C12.1895 16.8212 12.2345 16.8212 12.3244 16.7762C12.5943 16.7313 12.8642 16.6863 13.1341 16.6863C13.404 16.6413 13.6738 16.6413 13.8987 16.5963C14.1686 16.5514 14.4385 16.5514 14.6634 16.5514C14.9333 16.5514 15.1582 16.5064 15.3831 16.5064C15.608 16.5064 15.8779 16.5064 16.1027 16.5064C16.1477 16.5064 16.1477 16.5064 16.1927 16.5064H16.2827C16.4626 16.5064 16.6425 16.5064 16.8224 16.5064C16.8674 16.5064 16.8674 16.5064 16.9124 16.5064H16.9573C17.0473 16.5064 17.0923 16.5514 17.0923 16.5514C17.0473 16.5514 17.0473 16.5514 17.0473 16.5963ZM17.1823 15.3818C17.1823 15.6518 17.1823 15.6518 16.6425 15.7417L16.2827 15.7867C16.2377 15.7867 16.1927 15.7867 16.1477 15.7867H16.0128C15.1132 15.8766 14.1686 15.9666 13.269 16.0116C12.8642 16.0565 12.4594 16.0565 12.0545 16.0565C11.8747 16.0565 11.6947 16.0565 11.4698 16.0565C11.3798 16.0565 11.2899 16.0565 11.1999 16.0565C11.11 16.0565 11.02 16.1015 10.9751 16.0116C10.9301 15.9666 10.9301 15.8766 10.9301 15.7867V13.9425C10.9301 13.6726 11.02 13.6276 11.5148 13.5827C11.6048 13.5827 11.6947 13.5827 11.8297 13.5827C13.359 13.5827 15.0232 13.8076 17.0023 14.3023H17.0473C17.1373 14.3473 17.1823 14.3023 17.1823 14.5722V15.3818Z" fill="url(#paint0_linear_4_944)"/>
<defs>
<linearGradient id="paint0_linear_4_944" x1="20.9736" y1="9.97622" x2="7.91902" y2="19.1395" gradientUnits="userSpaceOnUse">
<stop offset="0.0403439" stop-color="#5FF19D"/>
<stop offset="0.205" stop-color="#59EEA3"/>
<stop offset="0.4266" stop-color="#49E5B4"/>
<stop offset="0.6806" stop-color="#2FD6D0"/>
<stop offset="0.9567" stop-color="#0AC2F7"/>
<stop offset="1" stop-color="#04BEFE"/>
</linearGradient>
</defs>
</svg>

