<svg width="28" height="28" viewBox="0 0 28 28" fill="none" xmlns="http://www.w3.org/2000/svg">
<rect width="28" height="28" rx="14" fill="#2E3045"/>
<path d="M12.8998 16.4729C12.7998 16.4729 12.7198 16.4729 12.6198 16.3731L11.0998 14.8567C11.0198 14.7769 11.0198 14.6771 11.0198 14.5774C11.0198 14.4776 11.0198 14.3978 11.1198 14.2981L14.8998 10.6068C14.9998 10.5071 15.0798 10.5071 15.1798 10.5071C15.2798 10.5071 15.3598 10.5071 15.4598 10.6068L17.0598 12.1233C17.1598 12.1233 17.1598 12.3028 17.1598 12.4026C17.1598 12.5023 17.1598 12.5821 17.0598 12.6819L13.1998 16.3731C13.0998 16.4729 12.9998 16.4729 12.8998 16.4729Z" fill="url(#paint0_radial_2290_91)"/>
<path d="M17.2 8.89071L13.9 5.69833C13.4 5.29929 12.8 5 12.1 5C11.4 5 10.72 5.31924 10.2 5.79809C10.02 5.97766 10 6.03753 10 6.13728C10 6.23705 10 6.29691 10.1 6.39666L14.6 10.6864C14.7 10.7862 14.7 10.7862 14.8 10.8859C15.8 11.9833 15.9 13.5795 15 14.6769L17.2 12.5819C17.7 12.1828 18 11.4845 18 10.7862C18 10.0878 17.7 9.38952 17.2 8.89071Z" fill="url(#paint1_linear_2290_91)"/>
<path d="M13.4001 16.2732C12.4001 15.1758 12.2001 13.3801 13.2001 12.2827L11.0001 14.3777C10.5001 14.8765 10.2001 15.5749 10.2001 16.2732C10.2001 16.9715 10.5001 17.6699 11.0001 18.1687L15.8001 23.057C15.9001 23.1567 16.0001 23.1567 16.1001 23.1567C16.2001 23.1567 16.3001 23.1567 16.4 23.057C16.9001 22.5582 17.2001 21.8599 17.2001 21.1615C17.2001 20.4632 16.9001 19.7648 16.4 19.2661L13.4001 16.2732C13.4001 16.3729 13.4001 16.1734 13.4001 16.2732Z" fill="url(#paint2_linear_2290_91)"/>
<defs>
<radialGradient id="paint0_radial_2290_91" cx="0" cy="0" r="1" gradientUnits="userSpaceOnUse" gradientTransform="translate(14.1073 13.4831) scale(3.04504 3.03779)">
<stop stop-color="#BF4650"/>
<stop offset="1" stop-color="#9B385B"/>
</radialGradient>
<linearGradient id="paint1_linear_2290_91" x1="10" y1="9.8401" x2="18.0028" y2="9.8401" gradientUnits="userSpaceOnUse">
<stop stop-color="#E74159"/>
<stop offset="0.514" stop-color="#E8425A"/>
<stop offset="1" stop-color="#F08868"/>
</linearGradient>
<linearGradient id="paint2_linear_2290_91" x1="10.1208" y1="17.7241" x2="17.1905" y2="17.7241" gradientUnits="userSpaceOnUse">
<stop stop-color="#E74159"/>
<stop offset="0.514" stop-color="#E74159"/>
<stop offset="1" stop-color="#F08868"/>
</linearGradient>
</defs>
</svg>

