<svg width="1438" height="913" viewBox="0 0 1438 913" fill="none" xmlns="http://www.w3.org/2000/svg">
<g opacity="0.12">
<path fill-rule="evenodd" clip-rule="evenodd" d="M527.335 94.7235C527.253 77.8412 494.577 58.8566 480.62 49.0689C453.022 29.7102 424.318 11.8333 395.88 -6.32904C367.443 -24.4914 338.929 -42.6046 311.812 -62.5443C294.205 -75.4879 273.516 -90.066 261.575 -108.548C236.137 -147.936 316.341 -142.086 337.117 -142.948C389.969 -145.149 450.59 -144.144 500.131 -164.655C529.705 -176.9 541.497 -197.435 535.145 -227.365C533.098 -237.098 527.038 -248.299 532.172 -257.781C537.653 -267.909 550.265 -273.753 560.732 -277.672C598.91 -291.949 642.804 -293.604 683.198 -295.396C726.755 -297.365 770.722 -296.789 813.972 -296.942C832.311 -297.006 851.464 -303.342 868.928 -308.492C891.822 -315.242 914.445 -322.824 937.15 -330.155C987.1 -346.245 1038.57 -363.191 1091.42 -367.277C1124.51 -369.837 1160.68 -366.376 1186.39 -344.108C1199.3 -332.927 1206.06 -316.305 1213.52 -301.54C1222.55 -283.703 1231.23 -265.693 1240.85 -248.136C1271.83 -191.591 1316.06 -136.336 1387.86 -133.559C1398.72 -133.141 1409.38 -134.504 1420.19 -134.76C1427.08 -134.918 1433.2 -133.318 1435.76 -126.391C1442.2 -109.016 1421.97 -81.5879 1413.68 -67.8024C1395.53 -37.627 1375.05 -8.80548 1355.88 20.7644C1343.19 40.3201 1321.22 67.0442 1320.99 90.8045C1320.79 111.975 1350.07 127.277 1366.01 137.705C1380.94 147.468 1408 161.13 1409.64 180.991C1410.43 190.621 1403.83 198.602 1396.94 204.796C1384.85 215.627 1370.93 223.268 1360.06 235.626C1342.23 255.9 1327.34 283.796 1329.76 311.116C1331.44 330.047 1342.67 342.444 1356.95 354.294C1362.95 359.277 1367.83 362.802 1368.14 370.891C1368.66 383.736 1363.43 397.33 1359.12 409.239C1343.7 451.861 1321.8 493.075 1297.45 531.556C1285.27 550.787 1272.12 569.958 1255.99 586.363C1245.42 597.135 1231.16 609.956 1215.04 609.941C1196.37 609.941 1176.62 603.462 1158.48 598.617C1124.59 589.563 1091.11 579.096 1057.76 568.358C980.647 543.515 904.256 516.659 828.59 487.792C775.293 467.424 720.864 447.026 670.756 419.948C660.984 414.63 651.76 408.43 643.209 401.431C634.073 394.08 622.736 390.791 611.24 388.339C539.89 373.121 461.723 384.804 390.076 392.13C371.891 393.987 353.705 395.853 335.469 397.152C319.791 398.27 301.022 401.475 285.785 396.66C255.761 387.182 282.008 352.251 293.104 338.018C332.173 287.902 382.578 245.502 429.298 202.216C451.512 181.602 473.894 161.041 494.9 139.26C505.838 127.937 527.406 109.523 527.335 94.7235Z" stroke="#BD081C" stroke-opacity="0.37"/>
<path fill-rule="evenodd" clip-rule="evenodd" d="M540.798 91.8776C528.823 74.0136 507.814 60.8099 490.374 48.3839C465.277 30.4953 439.391 13.6008 413.894 -3.78097C389.786 -20.2178 365.626 -36.8417 343.3 -55.5078C329.686 -66.8906 312.605 -80.5027 306.156 -97.3381C292.169 -133.829 367.419 -128.293 385.996 -129.247C432.179 -131.609 484.54 -132.151 527.266 -151.363C553.946 -163.361 564.907 -183.258 559.217 -210.88C557.25 -220.437 553.705 -228.597 558.192 -238.104C563.381 -249.108 575.315 -255.968 586.255 -260.811C620.525 -275.983 661.034 -279.206 698.182 -281.888C736.56 -284.659 776.547 -286.613 813.69 -284.585C828.544 -283.778 845.64 -288.36 860.34 -291.874C882.958 -297.287 905.346 -303.532 927.851 -309.339C973.589 -321.15 1020.52 -332.528 1068.1 -333.822C1102.45 -334.757 1138.27 -329.688 1166.85 -310.097C1195.81 -290.23 1208.66 -259.433 1224.72 -230.157C1252.46 -179.542 1289.93 -118.002 1354.11 -107.308C1363.84 -105.685 1373.19 -106.565 1382.91 -106.167C1387.91 -105.965 1393.6 -105.325 1396.14 -100.586C1402.72 -88.2831 1384.68 -65.7882 1378.61 -56.3641C1361.85 -30.3211 1342.99 -5.5526 1325.42 19.9885C1311.46 40.2688 1293.77 62.803 1288.37 86.8432C1281.82 116.016 1324.63 136.774 1339.68 157.315C1365.77 192.935 1316.33 213.23 1291.96 230.213C1263.97 249.711 1240.86 285.281 1265.95 315.448C1275.55 326.984 1287.36 333.858 1291.65 348.912C1298.36 372.456 1293.28 399.36 1287.85 422.632C1279.65 457.617 1266.68 492.223 1249.05 523.842C1236.42 546.479 1215.47 581.976 1184.78 579.314C1164.13 577.537 1143.13 571.046 1123.01 565.308C1092.9 556.72 1063.16 546.932 1033.58 536.765C965.302 513.36 897.776 487.553 831.576 459.167C786.406 439.792 660.409 360.615 650.928 357.79C622.661 349.375 590.521 350.856 561.378 352.16C522.611 353.893 484.038 358.381 445.496 362.539C427.15 364.508 408.711 366.914 390.267 367.884C377.14 368.573 359.9 369.163 348.401 361.826C325.957 347.51 350.962 314.754 361.303 300.896C392.982 258.411 433.055 221.62 470.629 184.003C489.068 165.533 507.788 147.094 524.526 127.143C531.277 119.087 548.199 102.911 540.798 91.8776Z" stroke="#BD081C" stroke-opacity="0.37"/>
<path fill-rule="evenodd" clip-rule="evenodd" d="M557.365 82.7159C524.662 46.9681 479.525 20.3812 440.569 -9.47433C421.016 -24.4636 401.341 -39.8614 384.477 -57.7157C375.705 -66.9997 364.751 -78.7401 363.061 -91.6816C358.544 -126.302 426.368 -121.621 446.668 -122.935C485.916 -125.485 530.254 -127.42 565.861 -145.087C587.616 -155.887 598.329 -173.613 594.263 -196.912C592.46 -207.249 589.654 -216.031 594.263 -226.181C598.933 -236.465 608.663 -243.721 618.516 -249.16C646.831 -264.804 682.018 -269.805 713.897 -273.532C751.294 -277.872 788.972 -279.567 826.627 -278.602C859.607 -277.77 892.428 -287.128 924.63 -293.296C967.288 -301.463 1010.72 -308.595 1054.37 -307.517C1088.85 -306.661 1123.59 -299.932 1153.07 -282.048C1183.01 -263.834 1201.02 -236.573 1217.25 -207.156C1241.79 -162.685 1272.38 -103.092 1326.22 -86.2027C1334.05 -83.7414 1341.34 -83.4707 1349.42 -83.0424C1353.34 -82.8357 1358.41 -82.7717 1360.35 -78.8385C1365.03 -69.3674 1347.73 -51.0062 1342.9 -44.6068C1327.49 -24.1781 1310.78 -4.66987 1294.98 15.4881C1280.23 34.3072 1264.16 53.9188 1255 75.972C1240.42 111.095 1287.03 131.632 1285.73 165.1C1284.91 185.879 1264.22 200.779 1247.83 211.087C1227.65 223.763 1198.6 232.097 1188.5 255.228C1180.98 272.457 1192.79 282.484 1201.88 295.559C1217.28 317.711 1218.33 347.738 1216.73 373.38C1214.57 408.03 1206.12 443.192 1191.75 475.041C1185.23 489.479 1177.25 504.498 1165.51 515.712C1154.5 526.222 1144.08 528.914 1129.38 526.763C1084.35 520.167 1038.89 501.781 995.715 485.359C941.468 464.724 887.968 441.942 836.065 416.31C800.674 398.83 764.483 380.336 733.418 356.185C725.322 349.889 717.031 343.047 711.111 334.743C706.635 328.501 704.735 323.347 697.192 319.783C674.833 309.224 643.733 311.986 619.776 313.083C581.47 314.831 543.349 319.483 505.279 323.672C483.063 326.133 441.214 333.876 423.474 315.303C408.162 299.266 426.639 271.921 436.077 257.793C459.952 222.065 490.663 190.708 519.157 158.42C532.216 143.623 545.786 128.713 556.572 112.261C559.327 108.067 563.741 102.51 564.499 97.4148C565.349 91.5766 561.38 87.1216 557.365 82.7159Z" stroke="#BD081C" stroke-opacity="0.37"/>
<path fill-rule="evenodd" clip-rule="evenodd" d="M560.177 91.0379C529.958 59.4302 493.552 33.4632 461.11 3.88525C446.564 -9.37657 431.874 -23.2887 420.791 -39.467C414.829 -48.167 408.498 -59.1183 410.142 -69.9317C414.86 -100.968 470.642 -98.1647 493.178 -99.9826C526.665 -102.653 565.135 -105.343 594.744 -122.077C614.141 -133.039 621.414 -149.227 617.793 -170.105C613.905 -192.5 622.597 -208.757 642.378 -221.25C667.178 -236.902 698.482 -243.281 727.278 -247.813C761.97 -253.248 797.102 -255.657 832.245 -255.011C866.423 -254.38 899.536 -259.888 933.489 -263.47C978.505 -268.214 1024.97 -270.554 1069.47 -260.829C1108.23 -252.361 1143.23 -233.699 1169.47 -204.841C1196.88 -174.721 1210.44 -136.773 1232.7 -103.451C1246.58 -82.6663 1265.93 -55.1722 1291.87 -47.093C1300.52 -44.3982 1316.29 -48.0339 1309.38 -34.777C1305.43 -27.1953 1298.04 -20.5447 1292.2 -14.3473C1282.76 -4.33198 1273.02 5.4075 1263.42 15.2849C1242.98 36.3403 1221.08 57.8439 1205.76 82.7763C1186.45 114.167 1215.15 138.326 1211.65 170.156C1209.77 187.285 1197.39 200.955 1184.29 211.695C1175.81 218.651 1166.53 224.676 1157.06 230.297C1147.17 236.169 1135.47 240.642 1126.84 248.234C1114.55 259.037 1119.89 271.826 1122.19 285.793C1126.25 310.337 1127.14 335.269 1124.85 360.023C1122.04 390.365 1115.46 421.573 1101.59 449.146C1096.2 459.881 1089.37 471.261 1079.22 478.458C1069.07 485.656 1058.58 485.163 1046.95 482.996C1012.47 476.591 978.054 461.689 945.341 447.565C904.397 429.884 864.257 410.125 825.925 387.645C799.465 372.127 772.918 355.363 750.782 334.322C744.344 328.199 738.218 321.642 733.265 314.321C729.864 309.301 728.041 302.823 723.113 299.049C707.697 287.27 676.745 290.788 658.665 291.473C622.582 292.837 587.067 299.325 551.029 300.902C531.361 301.764 500.558 303.931 486.115 287.827C472.532 272.688 484.834 248.845 492.953 234.258C508.907 205.576 530.342 180.023 549.554 153.362C557.452 142.39 566.108 130.912 571.225 118.384C575.773 107.221 567.921 99.1418 560.177 91.0379Z" stroke="#BD081C" stroke-opacity="0.37"/>
<path fill-rule="evenodd" clip-rule="evenodd" d="M567.609 91.5547C543.556 63.7408 514.559 39.0508 490.331 10.7844C476.15 -5.76914 451.728 -33.5978 462.696 -56.935C474.727 -82.5794 516.667 -83.2779 540.91 -85.344C569.764 -87.8037 603.648 -91.1636 628.341 -107.176C636.151 -112.238 642.804 -118.938 645.624 -127.763C648.643 -137.208 645.342 -145.473 644.913 -154.928C644.012 -174.763 656.325 -190.686 672.62 -201.622C695.65 -217.083 724.447 -224.394 751.648 -229.49C782.465 -235.238 813.793 -238.072 845.185 -237.951C875.185 -237.853 904.868 -238.492 934.898 -239.23C974.172 -240.214 1014 -238.625 1052.09 -228.595C1089.62 -218.707 1123.74 -200.176 1150.54 -172.918C1176.69 -146.319 1194.33 -113.807 1209.78 -80.6904C1218.55 -61.8937 1233.36 -33.8044 1254.27 -24.3101C1263.57 -20.0844 1272.69 -20.3746 1262.81 -9.38486C1250.36 4.45318 1233.57 15.5561 1219.15 27.392C1198.35 44.4719 1177.02 61.8862 1159.56 82.1932C1148.41 95.1605 1143.44 107.744 1144.21 124.534C1144.8 137.324 1147.49 149.981 1146.13 162.821C1142.94 192.957 1118.26 213.623 1096.44 232.867C1082.4 245.244 1069.58 254.684 1062.36 272.29C1053.81 293.099 1050.22 315.738 1044.51 337.344C1038.24 361.069 1030.99 385.75 1017.29 406.647C1005.1 425.252 990.277 433.595 968.087 428.582C933.476 420.77 899.361 401.526 868.634 383.723C837.36 365.61 806.623 345.244 780.706 320.347C766.715 306.903 757.165 291.117 744.739 276.674C729.109 258.541 693.751 265.408 672.738 266.943C637.855 269.491 528.095 288.559 538.223 226.802C542.45 201.024 559.098 177.234 571.273 154.488C576.319 145.047 583.623 133.718 584.764 122.901C586.007 111.119 574.841 99.9273 567.609 91.5547Z" stroke="#BD081C" stroke-opacity="0.37"/>
<path fill-rule="evenodd" clip-rule="evenodd" d="M580.308 93.9168C561.927 68.7118 539.929 44.8998 524.157 17.6768C513.926 0.0466243 503.878 -23.5095 517.077 -42.1635C531.974 -63.2144 564.823 -68.1215 588.959 -70.8039C613.827 -73.5651 643.514 -75.8882 663.839 -91.8499C670.306 -96.9342 675.636 -103.79 676.629 -112C677.585 -119.875 674.884 -127.75 675.779 -135.768C677.785 -153.772 689.137 -168.607 703.773 -179.366C747.068 -211.196 811.507 -218.273 863.744 -219.105C889.891 -219.519 916.8 -217.348 943.116 -215.793C977.264 -213.775 1011.46 -209.444 1044.03 -199.004C1113.27 -176.816 1159.68 -127.607 1192.1 -66.3742C1202.3 -47.1001 1210.1 -26.2461 1226.09 -10.7569C1234.33 -2.75888 1232.53 2.98497 1224.11 10.2792C1210.93 21.6783 1194.86 30.39 1180.24 39.904C1159.45 53.4343 1138.21 67.1664 1119.82 83.3741C1107.14 94.5468 1098.14 105.311 1095.41 122.065C1093.46 134.01 1093.91 146.182 1092.74 158.202C1090.51 181.034 1082.87 203.694 1069.35 222.634C1058.61 237.646 1045.82 251.289 1032.6 264.298C1015.42 281.234 1000.88 298.441 987.833 318.542C970.531 345.149 946.221 394.23 905.469 381.242C860.521 366.909 818.393 330.492 789.555 295.207C779.871 283.36 771.921 268.831 758.86 260.094C739.307 247.037 719.468 247.494 696.212 247.548C661.394 247.622 585.629 254.892 584.81 204.728C584.488 184.854 593.43 166.062 597.712 146.945C602.542 125.535 592.863 111.094 580.308 93.9168Z" stroke="#BD081C" stroke-opacity="0.37"/>
<path fill-rule="evenodd" clip-rule="evenodd" d="M594 96.1639C575.818 63.3136 535.049 9.33372 566.057 -27.1956C582.437 -46.5004 611.408 -53.7552 635.711 -58.0785C655.27 -61.5755 678.856 -62.8887 693.634 -77.7129C704.495 -88.6121 699.674 -104.474 703.835 -118.118C709 -135.032 720.855 -148.873 735.422 -159.275C776.131 -188.348 832.732 -197.27 881.702 -199.169C932.561 -201.136 988.6 -191.934 1036.46 -174.232C1096.13 -152.154 1140.84 -110.347 1172.1 -57.4046C1177.87 -47.6317 1183.11 -37.603 1188.65 -27.712C1192.37 -21.077 1197.89 -14.6584 1200.82 -7.67918C1205.71 3.95786 1199.95 13.4701 1190.73 21.0544C1177.46 31.9733 1161.16 39.7444 1146.04 47.9386C1125.35 59.1526 1104.21 70.165 1084.97 83.3219C1072.04 92.1751 1058.5 101.712 1053.88 117.072C1050.72 127.549 1050.06 138.645 1050.18 149.495C1050.42 172.759 1049.15 191.572 1037.86 212.879C1019.28 247.859 990.709 279.312 960.524 305.483C936.835 326.022 899.351 357.928 864.836 344.196C833.869 331.9 815.754 302.468 795.351 278.673C785.431 267.104 774.288 256.54 761.195 248.311C744.687 237.938 729.147 233.585 709.589 231.888C676.671 229.031 627.035 228.288 616.86 190.318C613.102 176.305 615.247 161.791 613.276 147.596C610.702 128.827 603.172 112.734 594 96.1639Z" stroke="#BD081C" stroke-opacity="0.37"/>
<path fill-rule="evenodd" clip-rule="evenodd" d="M612.905 97.3803C599.958 61.4358 582.949 16.1358 614.219 -15.8106C629.366 -31.2864 650.671 -39.9378 671.291 -46.4029C686.058 -51.0363 709.507 -52.4001 718.561 -66.645C725.211 -77.128 726.132 -91.5896 732.147 -102.821C740.413 -118.262 752.936 -130.981 767.627 -140.937C805.899 -166.881 855.748 -176.906 901.207 -179.777C999.984 -186.006 1100.49 -136.397 1153.35 -54.7784C1169.11 -30.4494 1189.45 -4.55452 1163.98 20.3014C1136.17 47.4174 1094.28 60.1211 1061.1 79.3884C1048.42 86.7447 1032.26 95.588 1025.18 108.907C1020.93 116.913 1020.63 126.958 1020.44 135.772C1019.93 158.22 1017.99 178.408 1008.6 199.355C994.106 231.724 970.99 261.588 944.795 286.05C921.95 307.38 889.371 332.448 856.193 317.071C830.755 305.253 814.621 280.171 794.856 261.681C772.86 241.09 745.657 227.214 715.783 220.434C686.723 213.855 654.85 209.419 639.535 181.471C634.281 171.884 628.793 159.471 626.823 148.86C623.644 131.365 618.989 114.148 612.905 97.3803Z" stroke="#BD081C" stroke-opacity="0.37"/>
<path fill-rule="evenodd" clip-rule="evenodd" d="M633.985 97.6335C627.995 61.3372 627.33 23.4902 655.158 -5.11666C668.146 -18.4626 684.563 -27.944 701.165 -36.5345C713.38 -42.8554 725.994 -48.1869 735.116 -58.5496C743.568 -68.1442 749.993 -79.2847 758.153 -89.1304C768.917 -102.178 781.796 -113.473 796.297 -122.581C832.643 -145.369 876.859 -156.027 919.159 -159.724C939.636 -161.521 961.849 -162.457 982.188 -157.558C1001.83 -152.832 1021.25 -145.36 1039.31 -136.646C1077.71 -118.141 1110.98 -91.0405 1135.11 -56.7773C1151.65 -33.2755 1160.59 -10.4235 1139.17 13.418C1115.02 40.2919 1077.16 55.1196 1045.95 72.5614C1024.55 84.5239 1000.56 96.2502 996.563 121.672C993.378 141.9 990.793 161.099 982.556 180.22C970.297 208.423 952.273 233.971 929.551 255.348C908.772 274.823 882.485 291.349 852.762 280.947C829.214 272.691 810.943 254.196 790.368 240.973C767.439 226.204 742.247 218.062 715.719 211.514C691.879 205.607 669.431 196.529 654.022 177.256C650.868 173.318 647.556 169.03 645.124 164.624C642.022 159.002 642.263 153.429 641.654 147.128C640.067 130.499 636.693 114.061 633.985 97.6335Z" stroke="#BD081C" stroke-opacity="0.37"/>
<path fill-rule="evenodd" clip-rule="evenodd" d="M657.227 94.667C657.739 60.1908 666.361 27.6081 689.976 0.740145C700.071 -10.7535 712.127 -20.2207 723.235 -30.7529C732.18 -39.2437 740.633 -47.133 750.918 -54.1298C775.315 -70.6973 795.143 -92.1364 821.07 -106.889C855.681 -126.613 895.327 -137.514 934.665 -141.873C953.874 -144.003 973.717 -144.748 993.151 -142.342C1009.84 -140.276 1025.83 -133.023 1040.66 -125.602C1069.72 -111.066 1097.94 -90.4057 1116.81 -64.2675C1158.42 -6.64126 1076.39 35.2557 1034.29 59.7914C1014.92 71.078 985.338 84.1496 977.407 106.506C971.737 122.477 968.283 138.719 960.981 154.196C941.368 195.763 901.554 244.652 848.497 238.143C825.793 235.362 805.101 224.066 783.906 216.482C762.083 208.672 739.558 204.318 716.875 199.54C695.676 195.078 678.78 188.727 665.087 171.701C658.542 163.57 659.121 153.837 658.537 143.862C657.586 127.476 656.997 110.998 657.227 94.667Z" stroke="#BD081C" stroke-opacity="0.37"/>
<path fill-rule="evenodd" clip-rule="evenodd" d="M678.392 90.2509C686.916 38.2123 718.574 -18.5991 765.123 -48.8205C819.878 -84.3706 879.197 -114.307 944.618 -122.912C974.948 -126.903 1008.17 -128.866 1036.79 -115.817C1058.57 -105.893 1083.87 -91.0576 1095.86 -70.1949C1125.19 -19.165 1059.96 21.4582 1022.79 45.0665C1002.78 57.776 977.315 70.1607 962.234 88.7206C953.485 99.4816 949.018 113.716 941.954 125.535C920.547 161.351 885.309 190.239 841.413 195.406C821.117 197.792 800.673 194.84 780.531 192.493C759.913 190.092 739.038 188.788 718.548 185.437C702.192 182.76 682.915 178.228 676.891 161.396C669.295 140.183 674.914 111.502 678.392 90.2509Z" stroke="#BD081C" stroke-opacity="0.37"/>
<path fill-rule="evenodd" clip-rule="evenodd" d="M699.146 81.8913C711.577 32.9662 737.902 -14.7572 782.156 -43.9645C805.624 -59.4521 832.867 -70.1433 859.023 -80.7064C888.671 -92.6779 919.647 -101.97 951.285 -106.58C990.677 -112.322 1054.48 -117.497 1075.06 -74.334C1095.48 -31.4908 1043.87 6.42802 1013.34 28.0368C993.77 41.8796 972.825 54.5848 954.126 69.7179C943.987 77.9221 936.176 87.4018 927.596 97.0243C903.882 123.686 870.075 144.792 835.616 156.059C802.219 166.982 760.903 171.818 725.65 168.208C710.439 166.657 699.566 161.422 694.966 146.54C688.591 125.852 694.007 102.101 699.146 81.8913Z" stroke="#BD081C" stroke-opacity="0.37"/>
<path fill-rule="evenodd" clip-rule="evenodd" d="M719.768 68.7141C732.118 25.6374 758.755 -13.7074 797.61 -39.5612C841.164 -68.5438 897.247 -84.6486 948.793 -92.8383C976.193 -97.1881 1035.57 -108.982 1049.53 -75.228C1063.5 -41.4738 1023.13 -8.21 999.89 10.1015C971.688 32.2921 941.281 53.7177 910.911 73.6279C884.524 90.939 856.367 108.638 827.786 122.006C811.667 129.59 794.875 135.782 777.61 140.509C764.826 143.981 748.569 149.159 735.166 146.575C701.358 140.048 713.862 89.3109 719.768 68.7141Z" stroke="#BD081C" stroke-opacity="0.37"/>
<path fill-rule="evenodd" clip-rule="evenodd" d="M745.225 55.8148C772.321 -25.6484 858.172 -65.7134 940.833 -79.6784C960.041 -82.92 1013.89 -94.6075 1024.62 -69.7224C1035.03 -45.5948 1001.94 -16.9811 986.447 -3.42445C938.445 38.5836 879.139 69.7306 822.941 100.587C805.4 110.219 773.763 131.119 752.004 121.478C728.379 110.991 739.611 72.7065 745.225 55.8148Z" stroke="#BD081C" stroke-opacity="0.37"/>
<path fill-rule="evenodd" clip-rule="evenodd" d="M772.98 40.1352C796.545 -19.8563 865.085 -54.2637 928.101 -65.6066C943.535 -68.382 982.735 -77.0232 994.425 -60.2821C1005.24 -44.7958 979.426 -22.3562 969.767 -13.4394C948.265 6.41674 922.781 22.7741 897.606 38.4966C874.328 53.0429 850.799 67.9535 826.306 80.2559C813.406 86.7319 789.21 100.55 774.55 90.5506C758.767 79.7933 767.748 53.4563 772.98 40.1352Z" stroke="#BD081C" stroke-opacity="0.37"/>
<path fill-rule="evenodd" clip-rule="evenodd" d="M803.566 22.6078C821.526 -16.5691 869.63 -42.0092 912.063 -50.463C923.481 -52.7328 948.158 -58.6214 957.79 -48.1588C966.658 -38.5233 952.366 -24.3976 946.024 -17.8738C917.913 11.0423 876.747 36.8715 839.03 52.7352C829.547 56.7233 812.5 64.5519 802.745 56.5018C792.738 48.2351 799.44 31.6032 803.566 22.6078Z" stroke="#BD081C" stroke-opacity="0.37"/>
<path fill-rule="evenodd" clip-rule="evenodd" d="M836.012 6.15118C846.133 -13.3025 872.584 -27.9797 894.495 -32.6518C909.916 -35.9371 928.452 -33.0991 915.013 -16.1654C901.662 0.639141 876.89 15.9874 855.895 22.7917C839.876 27.9807 827.321 22.8613 836.012 6.15118Z" stroke="#BD081C" stroke-opacity="0.37"/>
<path fill-rule="evenodd" clip-rule="evenodd" d="M15.3007 140.89C14.6516 102.456 -6.58491 62.5131 3.903 23.3517C12.5151 -8.81155 55.8723 -11.4968 81.8826 -26.0686C102.552 -37.6454 114.282 -58.1531 125.46 -77.8297C135.503 -95.4949 144.524 -113.691 155.104 -131.066C161.953 -142.299 173.713 -164.356 188.566 -164.754C202.785 -165.138 215.823 -147.949 224.083 -137.789C234.852 -124.545 244.399 -110.426 254.856 -96.9703C272.479 -74.274 293.624 -57.4744 317.835 -41.5748C345.387 -23.4833 373.394 -6.00999 401.856 10.8454C422.811 23.2926 443.91 35.6465 464.052 49.3232C476.687 57.905 504.573 74.0063 504.701 89.8272C504.762 97.3763 497.325 105.737 492.311 111.771C483.827 121.986 474.157 131.325 464.456 140.462C446.389 157.483 427.554 173.732 408.924 190.177C384.744 211.521 361.647 232.516 340.39 256.747C318.413 281.828 297.416 307.736 275.991 333.289C261.48 350.6 246.985 370.041 226.056 380.663C199.841 393.942 178.323 379.941 151.812 379.778C129.007 379.636 130.688 328.804 127.79 314.67C124.882 300.364 118.473 287.046 115.989 272.705C112.891 254.804 112.85 236.49 112.089 218.397C111.164 196.266 110.796 175.198 86.2065 166.758C72.2124 161.963 57.0735 160.955 42.5887 158.083C33.2048 156.219 15.5052 153.032 15.3007 140.89Z" stroke="#BD081C" stroke-opacity="0.37"/>
<path fill-rule="evenodd" clip-rule="evenodd" d="M26.5126 134.053C24.1221 101.836 9.99933 60.6012 23.3543 27.3452C34.7641 -1.07417 70.4474 -4.75833 94.4751 -19.6871C114.31 -32.0005 123.14 -52.1502 133.056 -71.9452C141.01 -87.8246 148.724 -103.857 157.754 -119.229C164.408 -130.557 174.569 -149.682 188.405 -152.027C200.844 -154.135 214.184 -137.251 221.166 -128.661C231.352 -116.121 240.064 -102.502 249.063 -89.1692C264.875 -65.7491 281.066 -44.6883 304.208 -27.484C327.453 -10.2058 352.883 2.71345 378.585 16.1597C398.691 26.6803 418.696 37.5062 437.799 49.6521C452.029 58.6951 472.489 70.2697 479 86.3954C484.155 99.1521 458.013 120.321 450.304 127.793C434.436 143.155 417.621 157.577 400.775 171.91C380.238 189.375 359.046 204.648 340.91 224.572C308.472 260.192 281.358 304.55 239.619 331.023C214.445 346.991 186.429 351.075 158.43 348.686C147.342 347.74 144.68 332.683 143.283 323.901C140.959 309.312 140.667 294.472 138.881 279.824C137.207 266.112 133.491 253.084 130.496 239.638C127.466 226.015 126.616 212.056 124.384 198.339C123.002 189.823 121.636 179.913 115.59 173.067C109.335 165.979 99.0155 163.009 89.9961 160.754C73.058 156.557 28.2018 156.789 26.5126 134.053Z" stroke="#BD081C" stroke-opacity="0.37"/>
<path fill-rule="evenodd" clip-rule="evenodd" d="M40.9426 120.567C36.9223 90.994 31.2939 54.1611 47.672 26.9151C61.0593 4.63728 89.6109 -0.168522 110.004 -14.6843C126.966 -26.7553 133.373 -45.9539 141.793 -63.7949C148.701 -78.4287 155.646 -93.1264 164.019 -107.052C170.37 -117.613 178.554 -131.932 191.162 -135.616C201.943 -138.764 214.122 -124.662 220.098 -117.642C230.274 -105.68 238.571 -92.2755 246.811 -79.0485C260.291 -57.4052 272.695 -34.2862 291.879 -16.6814C310.521 0.402066 332.666 10.4859 355.225 21.824C372.505 30.5108 389.677 39.5322 405.958 49.8914C418.459 57.8404 433.951 67.2602 440.465 80.4872C446.099 91.8942 431.636 105.397 424.41 113.444C412.477 126.725 399.233 138.909 386.174 151.143C372.08 164.34 356.47 176.515 342.832 190.037C314.152 218.493 291.239 249.998 255.891 271.799C232.999 285.921 202.194 298.75 175.133 296.443C155.671 294.78 156.952 253.353 155.082 240.116C152.01 218.473 146.074 195.733 136.646 175.796C128.549 158.713 109.308 153.445 91.6082 149.613C80.5205 147.208 68.9001 145.909 58.176 142.19C45.7618 137.881 42.6275 132.962 40.9426 120.567Z" stroke="#BD081C" stroke-opacity="0.37"/>
<path fill-rule="evenodd" clip-rule="evenodd" d="M54.4023 106.705C52.0086 81.7027 52.5468 52.1373 68.0521 30.5095C81.6403 11.5655 105.834 6.57783 123.041 -8.34552C136.47 -19.9882 141.744 -38.9717 148.967 -54.3686C157.793 -73.1943 170.161 -107.964 192.427 -115.049C213.14 -121.635 234.802 -79.5632 242.301 -67.0177C254.172 -47.161 264.1 -25.3853 278.498 -7.04806C290.897 8.73863 307.51 17.4657 325.142 26.844C347.624 38.8221 381.756 53.0252 393.776 76.3698C402.735 93.7648 373.601 119.625 363.652 131.677C353.247 144.267 345.409 159.191 334.671 171.337C317.725 190.503 290.267 205.934 267.596 217.71C245.555 229.165 216.933 241.844 191.93 241.089C175.497 240.596 172.371 216.186 168.865 204.262C163.841 187.311 157.163 172.121 142.816 160.592C128.213 148.855 111 143.325 92.9066 138.485C83.6188 136.019 73.024 134.095 64.7152 129.112C55.5351 123.69 55.3249 116.315 54.4023 106.705Z" stroke="#BD081C" stroke-opacity="0.37"/>
<path fill-rule="evenodd" clip-rule="evenodd" d="M70.8023 92.2938C70.9352 70.6938 76.0698 47.6603 91.2949 30.9988C103.976 17.1208 123.824 12.4817 135.964 -1.7056C145.579 -12.9376 150.474 -28.7057 156.911 -41.7491C164.784 -57.7332 175.917 -85.6561 195.495 -91.2034C214.603 -96.6034 231.504 -65.8479 238.83 -53.6782C249.559 -35.8337 258.245 -16.9189 269.071 0.876558C277.552 14.838 287.923 23.8364 301.733 32.8348C317.944 43.4041 340.562 55.1123 349.222 72.5985C355.466 85.259 340.353 105.489 334.866 116.643C331.187 124.134 327.82 131.743 325.971 139.863C324.53 146.186 324.387 152.037 320.213 157.467C309.704 171.124 286.661 172.906 271.028 177.408C250.264 183.382 228.234 190.171 206.505 191.467C193.15 192.277 186.334 180.442 178.711 172.116C169.704 162.273 156.952 155.194 145.814 147.767C131.115 137.948 115.119 131.841 98.5702 125.587C91.1058 122.765 82.3387 119.996 76.5552 114.385C70.5162 108.567 70.7563 100.089 70.8023 92.2938Z" stroke="#BD081C" stroke-opacity="0.37"/>
<path fill-rule="evenodd" clip-rule="evenodd" d="M88.0274 79.4709C90.6664 61.3298 98.8902 43.9912 112.781 31.1669C123.429 21.321 137.57 15.7777 146.116 3.94782C154.079 -7.0796 159.628 -19.6184 166.205 -31.4088C173.165 -43.8738 183.506 -64.7077 199.56 -68.0996C216.862 -71.7524 230.19 -50.7363 237.57 -39.0886C246.893 -24.369 253.976 -8.53188 262.313 6.69482C268.593 18.044 276.604 28.4235 286.079 37.4879C296.016 47.0434 309.492 56.1952 314.519 69.3345C318.964 80.9724 310.648 95.052 309.18 106.852C307.61 119.46 310.361 132.703 301.657 143.528C283.706 165.854 238.654 161.714 212.898 162.191C187.485 162.684 167.054 149.022 146.489 136.026C132.905 127.445 118.759 120.179 104.833 112.184C90.6357 104.027 85.7055 95.436 88.0274 79.4709Z" stroke="#BD081C" stroke-opacity="0.37"/>
<path fill-rule="evenodd" clip-rule="evenodd" d="M104.031 69.0876C111.835 42.8064 136.209 28.838 153.634 8.97683C167.891 -7.28264 178.581 -40.9545 202.592 -45.4086C229.852 -50.4638 246.171 -5.84884 255.649 11.3665C266.165 30.4591 284.895 45.9893 292.684 66.2003C296.777 76.8084 293.262 86.707 291.082 97.3101C288.692 108.953 286.896 120.857 278.647 130.228C262.409 148.67 230.696 148.542 207.858 149.05C184.215 149.577 163.3 136.939 144.463 124.325C124.485 110.968 96.0372 96.0389 104.031 69.0876Z" stroke="#BD081C" stroke-opacity="0.37"/>
<path fill-rule="evenodd" clip-rule="evenodd" d="M117.101 61.961C125.895 43.2364 144.374 28.0138 159.369 13.6435C171.884 1.66329 185.348 -22.4538 204.43 -24.173C226.858 -26.2007 240.45 -0.447694 249.275 15.343C257.96 30.8595 270.476 47.2428 275.285 64.2727C280.3 82.0128 266.945 105.905 254.208 118.458C240.002 132.456 216.76 137.628 196.817 137.07C175.936 136.502 156.776 124.933 140.962 112.933C124.055 100.106 106.875 83.6977 117.101 61.961Z" stroke="#BD081C" stroke-opacity="0.37"/>
<path fill-rule="evenodd" clip-rule="evenodd" d="M129.23 58.4358C137.63 42.862 152.19 29.6875 165.615 17.936C175.976 8.86356 191.264 -6.56306 206.211 -6.94087C222.655 -7.35794 236.591 5.59081 243.128 18.8634C249.572 31.9544 256.362 48.3673 257.327 62.7292C259.422 94.0044 216.773 129.038 184.747 126.187C154.383 123.484 112.482 89.4657 129.23 58.4358Z" stroke="#BD081C" stroke-opacity="0.37"/>
<path fill-rule="evenodd" clip-rule="evenodd" d="M140.447 56.7185C152.035 36.427 180.182 7.49877 206.241 6.81176C236.152 6.0266 243.661 38.2182 239.762 61.5472C235.801 85.3572 201.316 119.821 173.818 115.164C146.981 110.62 126.713 80.7836 140.447 56.7185Z" stroke="#BD081C" stroke-opacity="0.37"/>
<path fill-rule="evenodd" clip-rule="evenodd" d="M152.29 53.4376C162.101 36.4479 183.037 15.2267 204.874 14.5844C230.892 13.8244 230.401 41.003 224.501 57.9192C218.366 75.4826 191.346 105.481 168.564 100.744C146.41 96.1202 142.888 69.7213 152.29 53.4376Z" stroke="#BD081C" stroke-opacity="0.37"/>
<path fill-rule="evenodd" clip-rule="evenodd" d="M162.605 51.4822C169.081 39.3593 185.289 24.0373 200.697 23.547C219.531 22.9577 215.87 44.5145 211.004 54.919C205.22 67.2995 185.833 88.8117 169.563 85.3254C153.545 81.8935 157.262 61.4707 162.605 51.4822Z" stroke="#BD081C" stroke-opacity="0.37"/>
<path fill-rule="evenodd" clip-rule="evenodd" d="M1048.56 744.144C1006.87 768.466 959.747 788.543 915.308 808.95C850.367 838.768 784.469 867.784 716.233 889.996C679.648 901.902 632.242 919.066 592.987 909.739C578.634 906.329 565.546 896.018 552.677 889.317C534.933 880.078 516.927 871.297 498.952 862.495C462.895 844.854 426.725 827.389 391.286 808.616C374.222 799.573 357.664 788.184 339.899 780.47C329.517 775.959 317.094 778.069 306.001 778.355C280.305 779.019 254.624 780.278 228.944 781.351C197.532 782.66 166.049 784.052 134.602 783.535C120.418 783.299 85.681 785.72 77.8729 773.971C73.6721 767.645 83.5729 756.236 88.1626 750.957C96.5898 741.256 106.276 732.514 115.834 723.86C137.938 703.847 161.413 684.788 181.061 662.434C191.157 650.941 204.383 636.901 197.793 621.212C191.141 605.366 179.619 591.645 172.588 575.853C164.494 557.68 161.137 538.769 157.315 519.499C154.485 505.256 147.895 492.637 141.699 479.507C134.853 464.994 127.761 450.358 123.007 435.053C119.866 424.943 114.795 406.755 125.786 400.355C141.402 391.254 170.685 398.623 188.486 401.304C213.087 405.004 237.509 409.717 262.043 413.776C279.855 416.727 297.727 419.965 315.835 420.309C345.026 420.865 374.314 418.941 403.428 417.151C457.338 413.835 510.861 409.338 564.952 409.338C612.342 409.338 721.856 462.062 747.491 471.345C798.658 489.877 851.186 507.445 899.605 532.103C912.704 538.779 932.864 547.673 939.756 561.414C944.008 569.881 942.053 574.776 952.082 580.231C965.764 587.675 983.294 590.597 998.439 593.928C1022.83 599.29 1047.41 603.831 1071.92 608.687C1121.48 618.482 1170.7 629.561 1220.05 640.221C1234.97 643.444 1253.03 644.157 1267.25 649.834C1276.42 653.48 1275.47 658.07 1268.37 663.609C1255.92 673.331 1238.47 678.727 1223.77 684.272C1202.22 692.394 1180.32 699.641 1158.41 706.784C1136.5 713.927 1114.48 720.849 1092.56 728.007C1078.08 732.72 1061.57 736.553 1048.56 744.144Z" stroke="#BD081C" stroke-opacity="0.37"/>
<path fill-rule="evenodd" clip-rule="evenodd" d="M1014.25 738.793C970.158 763.165 921.211 782.581 874.025 801.524C813.635 825.783 751.879 848.52 688.249 863.684C650.889 872.582 606.81 882.405 568.636 872.202C555.017 868.562 544.843 860.378 533.169 853.156C519.863 844.914 506.045 837.361 492.227 829.927C463.782 814.624 435.037 799.845 405.992 785.587C390.608 778.005 373.673 767.851 356.293 765.22C342.475 763.126 326.779 766.156 312.899 767.038C287.904 768.624 262.914 770.26 237.908 771.649C209.054 773.25 180.118 774.728 151.202 774.472C135.086 774.329 107.42 776.689 96.0222 766.673C86.0783 757.933 122.282 726.324 128.648 720.318C148.531 701.567 169.442 683.713 187.948 663.662C198.885 651.838 212.201 637.457 216.813 621.785C220.738 608.429 213.164 593.21 208.691 580.864C203.097 565.399 198.583 549.368 192.083 534.228C186.295 520.739 177.083 508.723 168.992 496.46C160.092 482.971 151.079 469.26 144.472 454.544C140.424 445.489 133.725 430.325 141.77 421.693C151.064 411.742 179.714 418.245 191.49 419.664C215.38 422.58 239.085 426.916 262.811 430.798C302.218 437.242 339.788 442.878 379.917 441.528C432.175 439.764 484.381 435.616 536.629 433.32C555.923 432.463 575.524 430.739 594.834 431.67C605.904 432.207 614.333 435.459 620.771 442.794C629.563 452.805 649.814 458.348 663.899 464.092C685.859 473.044 708.096 481.37 730.271 489.805C778.952 508.329 828.569 526.183 874.737 550.141C889.343 557.719 906.068 566.168 916.872 578.687C922.9 585.668 921.38 592.392 925.06 599.812C929.932 609.572 945.951 613.976 955.526 617.169C974.007 623.337 993.245 627.47 1012.33 631.343C1055.53 640.102 1098.82 645.862 1142.72 650.103C1153.01 651.089 1193.51 654.503 1172.24 670.958C1148.73 689.142 1114.79 698.055 1087.12 708.302C1062.19 717.515 1037.24 726.087 1014.25 738.793Z" stroke="#BD081C" stroke-opacity="0.37"/>
<path fill-rule="evenodd" clip-rule="evenodd" d="M953.315 734.286C911.867 755.728 865.952 771.724 821.313 787.027C767.144 805.596 711.618 822.148 654.805 831.421C619.116 837.24 579.769 841.711 544.321 832.04C520.113 825.439 501.388 807.593 480.126 795.316C458.864 783.038 436.742 771.513 413.958 761.906C399.818 755.944 384.607 749.938 368.873 750.725C330.618 752.634 292.408 757.184 254.111 759.393C228.776 760.868 203.39 762.083 177.979 761.719C162.655 761.503 141.603 762.388 128.037 754.636C113.041 746.062 192.888 672.859 200.434 664.619C219.355 643.96 242.266 616.542 238.608 587.161C235.109 559.074 219.944 538.104 202.791 516.097C193.057 503.578 161.84 470.134 173.409 453.853C180.018 444.546 201.802 447.768 212.151 448.403C232.547 449.652 252.83 452.338 273.119 454.669C302.701 458.049 333.097 463.268 362.807 464.797C383.495 465.86 404.306 464.438 425.03 464.409C454.745 464.369 484.46 464.586 514.176 464.842C539.126 465.058 564.287 464.842 589.15 467.144C604.607 468.56 616.339 471.743 627.426 480.735C637.074 488.556 651.629 493.135 663.925 498.108C684.234 506.318 704.809 513.928 725.317 521.66C768.256 537.853 811.686 553.707 852.785 573.944C871.547 583.177 903.091 596.104 907.492 618.49C909.08 626.562 910.248 630.049 918.446 634.639C930.081 641.151 944.016 644.088 957.07 646.641C987.503 652.593 1018.82 651.702 1049.2 657.585C1061.57 660.01 1077.72 665.244 1063.6 677.227C1047.12 691.241 1023.13 698.944 1003.38 707.601C993.523 711.92 983.368 715.963 974.008 721.236C966.82 725.299 960.667 730.509 953.315 734.286Z" stroke="#BD081C" stroke-opacity="0.37"/>
<path fill-rule="evenodd" clip-rule="evenodd" d="M874.812 727.592C836.519 745.007 794.932 757.669 754.092 769.083C708.731 781.745 662.274 792.233 615.204 796.695C582.702 799.787 548.072 800.699 516.526 791.237C496.577 785.251 483.052 772.663 465.886 762.106C439.977 746.151 411.946 733.508 380.82 736.585C345.924 740.027 310.913 742.609 275.789 744.331C254.602 745.372 233.332 746.151 212.12 745.426C198.708 744.972 181.428 744.208 169.761 738.365C154.149 730.54 212.79 670.997 220.099 662.319C238.228 640.797 251.517 618.214 259.282 591.549C265.615 569.79 252.678 552.685 239.333 536.409C231.036 526.301 204.227 500.878 212.621 487.753C217.225 480.515 232.396 480.889 240.545 480.52C256.075 479.819 271.671 480.549 287.201 480.87C310.132 481.363 334.542 477.975 357.279 480.702C407.669 486.737 457.931 491.964 508.634 496.101C536.583 498.379 564.701 500.45 592.4 504.843C602.344 506.421 612.616 508.092 622.038 511.662C628.099 513.955 631.404 517.86 636.519 521.065C660.908 536.32 692.746 544.17 720.214 553.947C756.732 566.945 793.444 579.74 828.989 595.094C847.686 603.171 873.799 612.45 886.664 628.933C890.551 633.913 888.894 637.897 891.339 642.685C894.152 648.207 902.7 649.854 908.219 651.393C920.746 654.889 973.182 660.174 949.018 680.681C937.488 690.449 922.797 696.716 909.8 704.393C905.094 707.174 900.505 709.969 896.582 713.722C890.019 720.013 883.553 723.603 874.812 727.592Z" stroke="#BD081C" stroke-opacity="0.37"/>
<path fill-rule="evenodd" clip-rule="evenodd" d="M791.168 720.052C715.573 748.227 626.98 767.423 544.563 763.704C517.155 762.463 487.667 758.32 463.909 744.144C449.9 735.77 438.706 726.317 421.878 723.293C409.73 721.111 396.649 723.588 384.429 724.485C366.73 725.785 349.021 726.948 331.296 727.889C309.322 729.036 287.276 729.923 265.261 729.45C249.53 729.11 227.807 729.494 214.142 721.367C197.827 711.673 239.355 666.198 245.199 658.095C259.361 638.456 269.29 619.428 272.878 595.759C273.934 588.863 277.491 581.795 277.03 574.845C276.548 567.747 272.001 561.427 267.803 555.846C262.314 548.531 243.266 531.182 248.72 522.262C251.734 517.336 263.046 516.715 268.91 515.671C279.91 513.701 291.069 512.642 302.135 511.075C320.911 508.406 339.553 499.712 358.396 499.958C409.064 500.608 460.465 515.72 510.118 524.02C539.637 528.971 569.356 533.463 598.516 540.167C607.743 542.29 617.246 544.487 626.016 548.088C632.136 550.6 636.068 555.077 641.737 557.89C663.475 568.692 688.473 575.248 711.816 582.519C742.119 591.976 772.525 601.148 802.618 611.217C821.481 617.526 845.736 623.078 861.99 634.781C873.861 643.328 865.747 645.884 859.483 653.844C856.285 657.903 857.023 661.903 855.634 666.499C853.65 673.06 848.043 677.784 842.784 682.03C835.531 687.896 825.869 692.728 819.938 699.92C817.847 702.452 817.944 705.594 816.253 707.801C811.332 714.229 798.277 717.402 791.168 720.052Z" stroke="#BD081C" stroke-opacity="0.37"/>
<path fill-rule="evenodd" clip-rule="evenodd" d="M710.795 710.014C649.441 727.728 581.175 737.815 516.322 733.133C493.758 731.502 471.056 727.713 450.037 719.391C440.474 715.616 433.295 711.408 422.816 711.182C398.502 710.659 374.111 712.487 349.802 712.926C332.405 713.241 314.922 713.355 297.566 712.009C285.962 711.113 270.269 710.038 260.762 703.194C246.948 693.226 271.886 659.34 276.962 649.978C285.373 634.451 293.719 617.19 290.383 599.225C289.359 593.731 287.548 588.877 287.313 583.275C287.087 578.461 287.717 574.016 285.941 569.414C283.746 563.708 273.984 554.853 277.34 549.601C279.628 546.013 286.412 545.846 290.925 544.698C298.244 542.836 305.391 540.394 312.292 537.395C319.558 534.222 325.744 529.319 333.27 526.698C345.489 522.45 359.165 522.051 372.008 522.07C423.251 522.15 475.144 531.872 525.087 542.037C551.095 547.329 577.246 552.971 602.522 560.998C610.197 563.437 618.895 565.886 625.644 570.39C629.855 573.193 632.71 576.707 637.494 578.815C678.361 596.82 725.607 603.507 768.991 616.511C780.284 619.896 842.865 636.999 810.144 653.087C790.266 662.863 769.262 667.308 751.124 680.681C745.598 684.746 741.914 688.111 739.755 694.315C738.332 698.444 741.755 696.35 736.977 700.666C731.179 705.855 717.943 707.949 710.795 710.014Z" stroke="#BD081C" stroke-opacity="0.37"/>
<path fill-rule="evenodd" clip-rule="evenodd" d="M647.001 699.539C575.17 713.997 499.101 714.685 426.136 701.867C407.743 698.639 388.6 699.411 369.98 698.59C351.889 697.804 319.724 699.44 306.584 686.062C297.056 676.364 307.395 655.754 310.971 644.906C315.527 631.086 319.509 616.809 312.028 603.387C307.646 595.526 301.643 588.043 296.943 580.256C294.696 576.537 290.068 570.838 291.997 567.315C295.189 561.503 310.119 559.057 317.364 556.315C340.519 547.555 365.039 545.32 389.795 545.383C435.521 545.497 481.482 551.51 526.335 559.666C546.971 563.419 567.895 567.424 587.797 573.948C599.059 577.638 607.366 584.757 618.12 588.977C652.748 602.576 689.951 609.842 725.174 622.277C735.369 625.878 773.449 637.866 754.265 652.001C735.692 665.683 708.601 664.057 689.289 676.929C687.103 678.403 684.399 680.167 683.132 682.549C682.383 683.974 683.702 686.686 683.132 687.497C677.201 696.306 656.119 697.706 647.001 699.539Z" stroke="#BD081C" stroke-opacity="0.37"/>
<path fill-rule="evenodd" clip-rule="evenodd" d="M600.463 689.983C563.612 694.843 525.95 696.049 488.478 696.355C467.996 696.523 445.492 697.778 425.451 692.789C413.14 689.716 401.249 687.029 388.559 685.092C374.904 683.008 352.918 681.491 344.603 670.194C338.391 661.752 342.649 644.399 342.874 634.135C343.115 622.877 340.715 614.529 332.451 606.472C327.255 601.399 303.417 582.984 306.172 577.674C308.793 572.615 325.403 571.84 332.584 570.526C355.283 566.357 378.284 564.905 401.372 565.132C437.131 565.478 473.023 568.985 508.222 575.011C522.775 577.516 537.815 580.109 551.716 585.113C561.078 588.487 568.885 594.469 578.185 597.956C604.818 607.959 632.98 614.751 659.705 624.937C668.282 628.212 696.228 636.93 689.529 650.366C683.942 661.584 664.942 664.998 655.606 672.516C639.725 685.34 620.715 687.315 600.463 689.983Z" stroke="#BD081C" stroke-opacity="0.37"/>
<path fill-rule="evenodd" clip-rule="evenodd" d="M577.248 683.536C548.015 686.754 518.103 688.161 488.441 688.23C469.298 688.274 449.103 688.525 430.318 684.387C420.882 682.311 412.682 677.455 403.752 673.991C394.556 670.428 381.866 666.453 377.891 658.285C374.157 650.609 375.551 639.41 372.272 630.155C369.354 621.943 363.249 616.87 356.674 611.32C352.485 607.772 330.972 592.416 333.46 589.026C336.127 585.395 349.047 585.69 355.77 585.188C374.294 583.781 392.883 583.332 411.456 583.845C436.806 584.592 462.35 586.679 487.261 591.402C504.932 594.748 518.261 602.719 534.737 608.565C556.082 616.157 578.193 622.159 599.333 630.465C609.868 634.603 625.46 639.927 630.855 650.609C632.929 654.703 634.942 665.114 632.633 669.208C629.858 674.128 619.534 676.215 614.66 677.479C602.45 680.633 589.672 682.168 577.248 683.536Z" stroke="#BD081C" stroke-opacity="0.37"/>
</g>
</svg>
