<svg width="80" height="80" viewBox="0 0 80 80" fill="none" xmlns="http://www.w3.org/2000/svg">
<path opacity="0.1" d="M39.2502 65.8473C49.0055 64.9949 76.3196 60.0146 70.8061 40.5712C57.4987 -6.35709 33.3335 21.375 18.3724 30.3503C-3.78203 43.6412 14.7678 67.9863 39.2502 65.8473Z" fill="url(#paint0_linear)"/>
<path d="M46.2787 22.5233C46.816 19.2126 44.5676 16.0931 41.2569 15.5558C37.9461 15.0186 34.8267 17.2669 34.2894 20.5777C33.7521 23.8885 36.0005 27.0079 39.3113 27.5452C42.622 28.0825 45.7415 25.8341 46.2787 22.5233Z" fill="white"/>
<path d="M40.2841 16.2804C41.3264 16.2804 42.3453 16.5895 43.212 17.1686C44.0787 17.7477 44.7541 18.5707 45.153 19.5337C45.5519 20.4967 45.6563 21.5564 45.4529 22.5787C45.2496 23.601 44.7477 24.54 44.0106 25.277C43.2736 26.0141 42.3345 26.516 41.3122 26.7194C40.2899 26.9227 39.2303 26.8184 38.2673 26.4195C37.3043 26.0206 36.4812 25.3451 35.9021 24.4784C35.323 23.6118 35.014 22.5929 35.014 21.5505C35.0155 20.1533 35.5713 18.8137 36.5593 17.8257C37.5473 16.8377 38.8868 16.282 40.2841 16.2804ZM40.2841 14.6744C38.9241 14.6744 37.5947 15.0777 36.4639 15.8333C35.3331 16.5888 34.4518 17.6627 33.9314 18.9192C33.4109 20.1756 33.2748 21.5581 33.5401 22.892C33.8054 24.2258 34.4603 25.451 35.4219 26.4126C36.3836 27.3743 37.6088 28.0292 38.9426 28.2945C40.2764 28.5598 41.659 28.4236 42.9154 27.9032C44.1718 27.3828 45.2457 26.5014 46.0013 25.3707C46.7569 24.2399 47.1601 22.9105 47.1601 21.5505C47.1601 19.7269 46.4357 17.9779 45.1462 16.6884C43.8567 15.3989 42.1077 14.6744 40.2841 14.6744Z" fill="#C1000D"/>
<path d="M53.9364 23.1617H26.6316C26.2879 23.1617 25.9475 23.2294 25.63 23.361C25.3124 23.4925 25.0239 23.6853 24.7808 23.9284C24.5377 24.1714 24.3449 24.46 24.2134 24.7776C24.0819 25.0951 24.0142 25.4355 24.0142 25.7792V53.084C24.0142 53.4278 24.0819 53.7681 24.2134 54.0857C24.3449 54.4033 24.5377 54.6918 24.7808 54.9349C25.0239 55.1779 25.3124 55.3707 25.63 55.5023C25.9475 55.6338 26.2879 55.7015 26.6316 55.7015H53.9365C54.6307 55.7015 55.2964 55.4257 55.7873 54.9349C56.2781 54.444 56.5539 53.7782 56.5539 53.084V25.7792C56.5539 25.085 56.2781 24.4193 55.7873 23.9284C55.2964 23.4375 54.6306 23.1617 53.9364 23.1617Z" fill="white"/>
<path d="M61.959 27.2555V26.5839C61.959 25.6752 61.598 24.8038 60.9555 24.1613C60.313 23.5188 59.4416 23.1578 58.5329 23.1578H57.4115C57.97 23.898 58.2718 24.8001 58.2709 25.7273V53.1358C58.2717 54.063 57.97 54.9652 57.4115 55.7053H58.5329C58.9828 55.7053 59.4284 55.6167 59.844 55.4445C60.2597 55.2723 60.6374 55.02 60.9555 54.7018C61.2736 54.3837 61.526 54.006 61.6982 53.5903C61.8704 53.1747 61.959 52.7292 61.959 52.2792V52.1421L61.8849 46.4707V38.6743L61.959 27.2555Z" fill="#E6AFB0"/>
<path d="M63.3634 33.7804H58.2708V25.7273C58.2717 24.8001 57.97 23.8979 57.4114 23.1578H58.5329C59.4415 23.1578 60.3129 23.5188 60.9554 24.1613C61.598 24.8038 61.9589 25.6752 61.9589 26.5839V30.3663C61.9585 30.479 61.9804 30.5907 62.0233 30.695C62.0661 30.7992 62.1292 30.894 62.2087 30.9739C62.2883 31.0537 62.3829 31.1171 62.487 31.1603C62.5911 31.2035 62.7027 31.2258 62.8154 31.2258C62.9282 31.2258 63.0398 31.2035 63.1439 31.1603C63.248 31.1171 63.3425 31.0537 63.4221 30.9739C63.5017 30.894 63.5647 30.7992 63.6076 30.695C63.6505 30.5907 63.6723 30.479 63.6719 30.3663V26.5839C63.6719 25.909 63.539 25.2407 63.2808 24.6172C63.0225 23.9937 62.6439 23.4272 62.1667 22.95C61.6895 22.4728 61.123 22.0943 60.4995 21.836C59.876 21.5777 59.2077 21.4448 58.5329 21.4448H53.9891H53.9883H26.5798C25.4445 21.4464 24.3562 21.8981 23.5534 22.7009C22.7506 23.5037 22.2989 24.592 22.2973 25.7274V53.1358C22.2989 54.2711 22.7506 55.3594 23.5534 56.1622C24.3562 56.965 25.4445 57.4167 26.5798 57.4183H32.8367H32.8375H58.5329C59.2077 57.4183 59.876 57.2854 60.4995 57.0271C61.123 56.7689 61.6895 56.3903 62.1667 55.9131C62.6439 55.4359 63.0225 54.8694 63.2808 54.2459C63.539 53.6224 63.6719 52.9541 63.6719 52.2792V48.4967C63.6712 48.2701 63.5806 48.053 63.42 47.893C63.2595 47.733 63.0421 47.6432 62.8154 47.6432C62.5888 47.6432 62.3714 47.733 62.2108 47.893C62.0503 48.053 61.9597 48.2701 61.9589 48.4967V52.2791C61.9589 52.7291 61.8703 53.1746 61.6981 53.5902C61.526 54.0059 61.2736 54.3836 60.9555 54.7017C60.6373 55.0199 60.2596 55.2723 59.844 55.4444C59.4283 55.6166 58.9828 55.7052 58.5329 55.7052H57.4115C57.97 54.9651 58.2717 54.0629 58.2708 53.1357V45.0826H63.3634C63.9931 45.0819 64.5967 44.8315 65.0419 44.3863C65.4871 43.9411 65.7376 43.3374 65.7383 42.7078V36.1553C65.7376 35.5257 65.4871 34.922 65.0419 34.4768C64.5967 34.0316 63.9931 33.7811 63.3634 33.7804ZM56.5578 47.1402V53.1358C56.557 53.8169 56.2861 54.4698 55.8046 54.9515C55.323 55.4332 54.6701 55.7043 53.989 55.7053H26.5798C25.8986 55.7045 25.2455 55.4335 24.7638 54.9518C24.2821 54.4701 24.0111 53.817 24.0103 53.1358V25.7273C24.0111 25.0461 24.2821 24.393 24.7638 23.9113C25.2455 23.4296 25.8986 23.1586 26.5798 23.1578H32.8374H53.989C54.6701 23.1588 55.323 23.4299 55.8046 23.9116C56.2861 24.3932 56.557 25.0462 56.5578 25.7273V33.7804H44.4287C42.93 33.7804 41.4926 34.3758 40.4328 35.4356C39.373 36.4954 38.7776 37.9328 38.7776 39.4315C38.7776 40.9303 39.373 42.3677 40.4328 43.4275C41.4926 44.4873 42.93 45.0827 44.4287 45.0827H56.5578V47.1402ZM60.4175 42.7079C60.4175 42.9118 60.3365 43.1073 60.1923 43.2515C60.0482 43.3957 59.8526 43.4767 59.6487 43.4767H44.4287C43.357 43.475 42.3297 43.0481 41.5725 42.2897C40.8153 41.5312 40.39 40.5033 40.39 39.4316C40.39 38.3598 40.8153 37.3319 41.5725 36.5734C42.3297 35.815 43.357 35.3881 44.4287 35.3864H59.6486C59.7496 35.3864 59.8496 35.4063 59.9428 35.4449C60.0361 35.4835 60.1209 35.5402 60.1923 35.6116C60.2637 35.683 60.3203 35.7677 60.359 35.861C60.3976 35.9543 60.4175 36.0543 60.4175 36.1553L60.4175 42.7079ZM64.1323 42.7079C64.1323 42.8088 64.1124 42.9088 64.0738 43.0021C64.0352 43.0954 63.9785 43.1801 63.9071 43.2515C63.8357 43.3229 63.751 43.3796 63.6577 43.4182C63.5644 43.4568 63.4644 43.4767 63.3634 43.4767H61.895C61.9801 43.2293 62.0235 42.9695 62.0235 42.7079V36.1553C62.0235 35.8936 61.9801 35.6338 61.895 35.3864H63.3634C63.4644 35.3864 63.5644 35.4063 63.6577 35.4449C63.751 35.4836 63.8357 35.5402 63.9071 35.6116C63.9785 35.683 64.0352 35.7678 64.0738 35.861C64.1124 35.9543 64.1323 36.0543 64.1323 36.1553V42.7079Z" fill="#C1000D"/>
<path d="M61.895 43.4769H63.3635C63.5674 43.4768 63.7629 43.3958 63.9071 43.2516C64.0513 43.1074 64.1323 42.9119 64.1323 42.708V36.1554C64.1323 36.0544 64.1125 35.9544 64.0738 35.8611C64.0352 35.7678 63.9785 35.6831 63.9071 35.6117C63.8357 35.5403 63.751 35.4836 63.6577 35.445C63.5644 35.4063 63.4644 35.3865 63.3635 35.3865H61.895C61.9801 35.6339 62.0235 35.8937 62.0235 36.1554V42.708C62.0235 42.9696 61.9801 43.2294 61.895 43.4769Z" fill="white"/>
<path d="M59.6698 35.3865H44.4499C43.3782 35.3882 42.3509 35.8151 41.5937 36.5735C40.8364 37.332 40.4111 38.3599 40.4111 39.4317C40.4111 40.5034 40.8364 41.5313 41.5937 42.2898C42.3509 43.0482 43.3782 43.4751 44.4499 43.4768H59.6699C59.8738 43.4768 60.0693 43.3958 60.2135 43.2516C60.3577 43.1074 60.4387 42.9119 60.4387 42.708V36.1554C60.4387 35.9515 60.3577 35.7559 60.2135 35.6117C60.0693 35.4675 59.8737 35.3865 59.6698 35.3865Z" fill="white"/>
<path d="M44.5105 41.5103C45.6586 41.5103 46.5892 40.5796 46.5892 39.4316C46.5892 38.2836 45.6586 37.3529 44.5105 37.3529C43.3625 37.3529 42.4318 38.2836 42.4318 39.4316C42.4318 40.5796 43.3625 41.5103 44.5105 41.5103Z" fill="#C1000D"/>
<defs>
<linearGradient id="paint0_linear" x1="8.46624" y1="40" x2="71.5338" y2="40" gradientUnits="userSpaceOnUse">
<stop stop-color="#EC9AA5"/>
<stop offset="1"/>
</linearGradient>
</defs>
</svg>
