<svg width="194" height="350" viewBox="0 0 194 350" fill="none" xmlns="http://www.w3.org/2000/svg">
<path d="M133.899 87.558C116.445 68.1083 96.2348 51.1977 73.8826 37.3395C20.3066 3.39177 -35.2904 -8.96199 -61.5302 6.73967C-74.1706 14.4064 -83.7279 29.2376 -90.4421 51.9363C-110.036 73.4633 -119.765 119.028 -120.93 193.151C-122.026 269.985 -110.31 318.396 -86.0231 337.111C-74.8557 345.715 -58.2417 350 -38.4419 350C-15.7989 350 10.9891 344.376 38.5992 333.26C40.6203 332.457 42.6414 331.62 44.5939 330.75C56.6486 327.853 68.4654 324.082 79.9458 319.467C156.405 288.733 188.468 239.988 192.99 204.634C198.539 161.279 170.244 119.363 133.899 87.558ZM-42.1415 320.103C-46.3616 316.756 -50.0148 312.779 -52.9663 308.319C-42.3425 311.917 -31.1513 313.651 -19.9096 313.441C2.73346 313.441 29.5214 307.85 57.1315 296.701C95.9775 281.268 123.314 260.946 141.469 240.189C129.137 269.65 98.855 303.23 43.0867 327.234C6.84415 335.671 -24.7054 333.495 -42.1415 320.103ZM55.5558 293.052C10.6808 311.064 -31.7278 314.345 -56.5974 302.426C-69.8886 278.188 -76.3972 237.042 -75.4038 179.424C-74.3419 106.875 -64.6475 61.21 -45.7726 40.587C-18.3681 41.9596 17.7032 54.8155 53.1236 77.0456C103.445 108.65 154.692 162.25 147.601 217.925C147.117 221.642 146.373 225.322 145.374 228.94C128.041 252.141 99.2318 275.509 55.6243 293.052H55.5558ZM-78.0415 46.7136C-69.8497 42.3191 -60.5917 40.1785 -51.2535 40.52C-69.5118 62.9175 -78.6581 107.846 -79.6515 179.357C-80.3024 233.393 -74.6844 273.3 -62.6949 298.777C-63.3801 298.308 -64.0994 297.907 -64.716 297.404C-87.9414 279.56 -98.9717 232.221 -98.0468 156.793C-97.5672 112.6 -93.7306 78.4517 -86.6739 53.8112C-84.0979 51.0633 -81.147 48.675 -77.9045 46.7136H-78.0415ZM55.316 73.6977C20.9232 52.0703 -14.3259 39.2478 -42.1415 36.8708C-40.4303 35.3626 -38.5845 34.0069 -36.6263 32.8198C-28.2567 28.3008 -18.7748 26.1231 -9.22178 26.5258C18.5939 26.5258 56.926 39.6161 94.4017 63.1518C107.33 71.297 119.586 80.4201 131.055 90.4372C154.692 117.455 170.244 149.092 166.167 181.433C164.098 195.203 159.079 208.391 151.437 220.135C151.437 219.566 151.437 218.997 151.677 218.427C159.008 160.911 106.7 105.938 55.316 73.6977ZM-59.2694 10.0876C-50.8997 5.56854 -41.4179 3.39082 -31.8648 3.79352C-4.04917 3.79352 34.283 16.8838 71.7587 40.4196C84.2733 48.2622 96.1497 57.0374 107.282 66.6671C103.788 64.2566 100.294 61.9466 96.7996 59.737C43.1209 26.2579 -12.5788 13.7703 -38.716 29.5054C-41.9797 31.5081 -44.982 33.8915 -47.6567 36.603C-60.7081 36.2012 -71.8412 38.3439 -80.0626 43.2988C-81.4721 44.1638 -82.8329 45.1026 -84.139 46.111C-77.9387 28.3671 -69.5461 16.4486 -59.2694 10.0876ZM-83.2484 333.93C-106.474 316.052 -117.504 268.713 -116.579 193.318C-115.654 128.972 -107.878 85.7836 -92.977 62.4488C-98.7662 86.2523 -101.746 117.455 -102.329 156.659C-103.425 233.46 -91.7095 281.904 -67.4222 300.618C-64.8841 302.508 -62.1518 304.135 -59.2694 305.473C-55.598 312.313 -50.567 318.368 -44.4709 323.284C-33.3035 331.888 -16.6895 336.14 3.11028 336.14C9.72133 336.108 16.3235 335.66 22.8758 334.801C-22.0677 349.9 -62.6949 349.833 -83.2484 333.93ZM188.947 204.266C184.597 238.381 153.287 285.687 78.4386 315.751C74.6019 317.291 70.7995 318.697 66.9972 320.036C116.017 293.588 140.955 259.305 149.211 230.647C160.257 216.372 167.486 199.629 170.244 181.935C173.464 156.726 165.243 132.052 150.684 109.52C176.067 137.308 193.264 170.352 188.947 204.266Z" fill="#F3725A" fill-opacity="0.13"/>
</svg>
