<svg width="80" height="80" viewBox="0 0 80 80" fill="none" xmlns="http://www.w3.org/2000/svg">
<path opacity="0.1" d="M24.4569 21.8636C18.1618 30.0526 2.55196 54.8311 21.5941 64.4132C67.554 87.5406 63.2372 48.9829 66.9323 30.9551C72.404 4.25941 40.2553 1.31221 24.4569 21.8636Z" fill="url(#paint0_linear)"/>
<path d="M55.8942 24.9945C52.5743 21.6073 48.0455 19.6767 43.3029 19.6267C38.5603 19.5768 33.9919 21.4116 30.6014 24.7281L28.1702 27.2823C31.5074 24.1787 35.9026 22.4649 40.4598 22.4902C45.017 22.5155 49.393 24.2781 52.6955 27.4185C55.9979 30.559 57.9782 34.8408 58.2326 39.391C58.4869 43.9411 56.9961 48.417 54.0642 51.9059L56.2933 49.6617C63.2734 42.6815 62.8743 31.9747 55.8942 24.9945Z" fill="#E6AFB0"/>
<path d="M40.4696 57.3021C49.894 57.3021 57.5341 49.6621 57.5341 40.2377C57.5341 30.8132 49.894 23.1732 40.4696 23.1732C31.0452 23.1732 23.4052 30.8132 23.4052 40.2377C23.4052 49.6621 31.0452 57.3021 40.4696 57.3021Z" fill="white"/>
<path d="M40.4696 23.9762C44.4867 23.9819 48.3585 25.4795 51.334 28.1783C54.3095 30.8772 56.1765 34.585 56.5729 38.5825C56.9694 42.58 55.867 46.5822 53.4795 49.8129C51.0921 53.0436 47.5899 55.2725 43.6522 56.0671C39.7144 56.8617 35.6219 56.1655 32.1684 54.1135C28.715 52.0615 26.1467 48.8 24.9619 44.9616C23.777 41.1232 24.06 36.9816 25.756 33.34C27.4519 29.6985 30.4399 26.8166 34.1404 25.2534C36.1427 24.4062 38.2955 23.9718 40.4696 23.9762ZM40.4696 22.3702C36.9358 22.3702 33.4813 23.4181 30.543 25.3814C27.6047 27.3447 25.3146 30.1352 23.9623 33.4001C22.6099 36.6649 22.2561 40.2575 22.9455 43.7234C23.6349 47.1894 25.3366 50.373 27.8354 52.8718C30.3342 55.3707 33.5179 57.0724 36.9838 57.7618C40.4498 58.4512 44.0423 58.0974 47.3072 56.745C50.572 55.3927 53.3625 53.1026 55.3258 50.1643C57.2891 47.226 58.337 43.7715 58.337 40.2377C58.337 35.4989 56.4546 30.9543 53.1038 27.6035C49.753 24.2527 45.2084 22.3703 40.4696 22.3702Z" fill="#C1000D"/>
<path d="M40.4696 23.9762C41.5972 23.9994 42.6875 24.3843 43.5797 25.0741C44.7553 25.9769 45.7311 27.1135 46.4455 28.4122C47.3786 30.057 48.0722 31.8265 48.5054 33.6673C49.5343 37.9871 49.5343 42.4883 48.5054 46.8081C48.0722 48.6488 47.3786 50.4184 46.4455 52.0632C45.7311 53.3619 44.7553 54.4985 43.5797 55.4012C42.6988 56.1117 41.6013 56.4991 40.4696 56.4991C39.3379 56.4991 38.2404 56.1117 37.3595 55.4012C36.1839 54.4985 35.2081 53.3619 34.4937 52.0632C33.5607 50.4184 32.867 48.6489 32.4338 46.8081C31.4049 42.4883 31.4049 37.9871 32.4338 33.6673C32.8671 31.8265 33.5607 30.057 34.4937 28.4122C35.2081 27.1135 36.1839 25.9769 37.3595 25.0741C38.2518 24.3843 39.3421 23.9994 40.4696 23.9762L40.4696 23.9762ZM40.4696 22.3703C34.7185 22.3703 30.0562 30.3698 30.0562 40.2377C30.0562 50.1056 34.7185 58.1051 40.4696 58.1051C46.2208 58.1051 50.883 50.1056 50.883 40.2377C50.883 30.3697 46.2207 22.3702 40.4696 22.3702L40.4696 22.3703Z" fill="#C1000D"/>
<path d="M41.2726 22.3875H39.6666V58.0878H41.2726V22.3875Z" fill="#C1000D"/>
<path d="M58.3198 39.4347H22.6194V41.0407H58.3198V39.4347Z" fill="#C1000D"/>
<path d="M55.2768 47.9463H25.6624V49.5523H55.2768V47.9463Z" fill="#C1000D"/>
<path d="M55.2768 30.9247H25.6624V32.5306H55.2768V30.9247Z" fill="#C1000D"/>
<path d="M57.1263 46.3402C58.8191 44.0771 59.906 41.4192 60.284 38.6185C60.662 35.8177 60.3186 32.9668 59.2863 30.3359C58.254 27.705 56.5671 25.3812 54.3853 23.5848C52.2035 21.7884 49.5992 20.5789 46.8191 20.0708C46.6067 20.0304 46.419 19.9074 46.2971 19.7288C46.1751 19.5503 46.129 19.3307 46.1687 19.1182C46.2084 18.9056 46.3307 18.7175 46.5088 18.595C46.687 18.4725 46.9064 18.4256 47.1191 18.4646C50.7578 19.1281 54.107 20.8872 56.7184 23.5066C63.8414 30.6296 63.7057 41.7057 56.7184 49.3014L53.6488 52.2989L57.1263 46.3402Z" fill="#C1000D"/>
<defs>
<linearGradient id="paint0_linear" x1="40" y1="71.596" x2="40" y2="8.40405" gradientUnits="userSpaceOnUse">
<stop stop-color="#EC9AA5"/>
<stop offset="1"/>
</linearGradient>
</defs>
</svg>
