<svg width="80" height="80" viewBox="0 0 80 80" fill="none" xmlns="http://www.w3.org/2000/svg">
<path opacity="0.1" d="M6.20891 46.4812C7.03961 50.255 8.83227 53.7498 11.4127 56.626C13.9932 59.5023 17.2738 61.6622 20.9357 62.8959C31.177 66.3107 50.5676 69.5538 64.2418 52.2448C89.5817 20.1693 60.3545 8.20804 50.6434 17.399C38.3061 29.0755 35.4295 16.1378 20.1595 21.5814C15.1546 23.2543 10.9525 26.732 8.37314 31.3358C5.79377 35.9396 5.02218 41.3392 6.20891 46.4812Z" fill="url(#paint0_linear)"/>
<path d="M56.6508 16.1344H29.346C28.6518 16.1344 27.986 16.4102 27.4952 16.901C27.0043 17.3919 26.7285 18.0577 26.7285 18.7519V46.0567C26.7285 46.7509 27.0043 47.4166 27.4952 47.9075C27.986 48.3984 28.6518 48.6742 29.346 48.6742H56.6508C56.9946 48.6742 57.3349 48.6065 57.6525 48.4749C57.9701 48.3434 58.2586 48.1506 58.5017 47.9075C58.7447 47.6645 58.9375 47.3759 59.0691 47.0583C59.2006 46.7408 59.2683 46.4004 59.2683 46.0567V18.7519C59.2683 18.0577 58.9925 17.3919 58.5017 16.9011C58.0108 16.4102 57.345 16.1344 56.6508 16.1344Z" fill="#E6AFB0"/>
<path d="M50.692 22.3551H23.3872C23.0434 22.3551 22.7031 22.4228 22.3855 22.5543C22.0679 22.6859 21.7794 22.8787 21.5363 23.1217C21.2932 23.3648 21.1004 23.6533 20.9689 23.9709C20.8374 24.2885 20.7697 24.6288 20.7697 24.9726V52.2774C20.7697 52.9716 21.0454 53.6374 21.5363 54.1282C22.0272 54.6191 22.6929 54.8949 23.3872 54.8949H50.692C51.3862 54.8949 52.0519 54.6191 52.5428 54.1283C53.0337 53.6374 53.3094 52.9716 53.3095 52.2775V24.9726C53.3095 24.2784 53.0337 23.6126 52.5428 23.1217C52.0519 22.6309 51.3862 22.3551 50.692 22.3551Z" fill="white"/>
<path d="M60.1548 30.6913C59.9276 30.6914 59.7098 30.7816 59.5492 30.9423C59.3886 31.1029 59.2983 31.3207 59.2983 31.5478V46.1085C59.2974 46.7898 59.0264 47.4429 58.5447 47.9246C58.063 48.4063 57.41 48.6773 56.7287 48.6781H55.0525V25.702L57.0494 23.705C57.1289 23.6255 57.192 23.5311 57.2351 23.4272C57.2781 23.3233 57.3003 23.2119 57.3003 23.0995C57.3003 22.987 57.2781 22.8756 57.2351 22.7717C57.192 22.6678 57.1289 22.5734 57.0494 22.4939C56.9699 22.4144 56.8755 22.3513 56.7716 22.3082C56.6677 22.2652 56.5563 22.2431 56.4439 22.2431C56.3314 22.2431 56.22 22.2652 56.1161 22.3082C56.0122 22.3513 55.9178 22.4144 55.8383 22.4939L54.8215 23.5107C54.5318 22.666 53.9857 21.9327 53.2594 21.4131C52.5332 20.8935 51.6629 20.6135 50.7699 20.6121H26.7507V18.7001C26.7516 18.0189 27.0226 17.3658 27.5043 16.8841C27.986 16.4024 28.6391 16.1314 29.3203 16.1306H50.7331C50.8459 16.131 50.9575 16.1091 51.0618 16.0663C51.1661 16.0234 51.2608 15.9604 51.3407 15.8808C51.4205 15.8012 51.4839 15.7067 51.5271 15.6026C51.5703 15.4985 51.5926 15.3868 51.5926 15.2741C51.5926 15.1614 51.5703 15.0498 51.5271 14.9457C51.4839 14.8416 51.4205 14.747 51.3407 14.6674C51.2608 14.5879 51.1661 14.5248 51.0618 14.482C50.9575 14.4391 50.8459 14.4172 50.7331 14.4176H29.3203C28.185 14.4192 27.0966 14.8709 26.2938 15.6737C25.491 16.4765 25.0393 17.5648 25.0378 18.7001V20.6122H23.3615C22.2261 20.6138 21.1378 21.0655 20.335 21.8683C19.5322 22.6711 19.0805 23.7594 19.0789 24.8947V52.3031C19.0805 53.4385 19.5322 54.5268 20.335 55.3296C21.1378 56.1324 22.2261 56.5841 23.3615 56.5857H50.7699C51.9052 56.5841 52.9936 56.1324 53.7964 55.3296C54.5991 54.5268 55.0508 53.4385 55.0524 52.3031V50.3911H56.7287C57.864 50.3895 58.9524 49.9378 59.7551 49.135C60.5579 48.3322 61.0096 47.2439 61.0112 46.1085V31.5478C61.0111 31.3207 60.9209 31.1029 60.7603 30.9423C60.5997 30.7817 60.3819 30.6914 60.1548 30.6913ZM44.7743 22.3252H50.7699C51.4511 22.326 52.1042 22.597 52.5859 23.0787C53.0676 23.5604 53.3386 24.2135 53.3394 24.8947V24.9928L37.5997 40.7325L30.4975 33.6303C30.3369 33.4697 30.119 33.3795 29.8919 33.3795C29.6648 33.3795 29.4469 33.4697 29.2863 33.6303C29.1257 33.7909 29.0355 34.0087 29.0355 34.2359C29.0355 34.463 29.1257 34.6808 29.2863 34.8414L36.9949 42.5501C37.1561 42.7102 37.3741 42.8002 37.6014 42.8002C37.7138 42.8004 37.8252 42.7782 37.929 42.735C38.0328 42.6918 38.127 42.6283 38.2061 42.5483L53.3394 27.415V48.6781H29.3203C28.6391 48.6773 27.986 48.4063 27.5043 47.9246C27.0226 47.4429 26.7516 46.7898 26.7507 46.1085V22.3252H44.7743ZM53.3394 52.3031C53.3386 52.9844 53.0676 53.6375 52.5859 54.1192C52.1042 54.6009 51.4511 54.8719 50.7699 54.8727H23.3615C22.6802 54.8718 22.0271 54.6009 21.5455 54.1192C21.0638 53.6375 20.7928 52.9844 20.792 52.3031V24.8947C20.7928 24.2135 21.0638 23.5604 21.5455 23.0787C22.0272 22.597 22.6803 22.326 23.3615 22.3252H25.0378V46.1085C25.0393 47.2439 25.4911 48.3322 26.2938 49.135C27.0966 49.9378 28.185 50.3895 29.3203 50.3911H53.3394V52.3031Z" fill="#C1000D"/>
<defs>
<linearGradient id="paint0_linear" x1="5.67289" y1="40" x2="74.3272" y2="40" gradientUnits="userSpaceOnUse">
<stop stop-color="#EC9AA5"/>
<stop offset="1"/>
</linearGradient>
</defs>
</svg>
