<?xml version="1.0" encoding="UTF-8"?>
<svg width="16px" height="16px" viewBox="0 0 16 16" version="1.1" xmlns="http://www.w3.org/2000/svg" xmlns:xlink="http://www.w3.org/1999/xlink">
    <!-- Generator: Sketch 61.2 (89653) - https://sketch.com -->
    <title>award</title>
    <desc>Created with Sketch.</desc>
    <g id="award" stroke="none" stroke-width="1" fill="none" fill-rule="evenodd">
        <path d="M7.96085245,5.00222086e-12 C8.81436969,5.00222086e-12 9.48499038,0.621517241 10.0764387,1.17048276 C10.3556111,1.45048276 10.6636111,1.70013793 10.9953352,1.91531034 C11.3608869,2.10455172 11.7452318,2.25506897 12.1420938,2.36441379 C12.9393352,2.61710345 13.7636111,2.87889655 14.1729904,3.5862069 C14.5683007,4.26841379 14.3884387,5.1017931 14.2165766,5.90786207 C14.1118869,6.322 14.0493352,6.74568966 14.029818,7.17241379 C14.0494042,7.59875862 14.1119904,8.02206897 14.2165766,8.43586207 C14.3895421,9.24137931 14.5683007,10.0753103 14.1729904,10.7586207 C13.8936954,11.1788812 13.4914135,11.5004308 13.0234455,11.6808389 L12.8449904,11.7417931 L14.5236111,13.8998621 C14.5685421,13.9576552 14.5886456,14.0308966 14.5795421,14.1035172 C14.5632859,14.2330936 14.4596266,14.3303434 14.3351424,14.3435414 L14.2714731,14.3428966 L12.2990593,14.0965517 L11.8121628,15.8 C11.7836456,15.8998621 11.7014387,15.9752414 11.5994731,15.9950345 C11.5821973,15.9983103 11.5646456,16 11.5470593,16 C11.4830507,16 11.4217964,15.9776358 11.3731741,15.9379553 L11.3291283,15.8926897 L9.56747314,13.6275862 C9.1339559,14.0496207 8.56450762,14.3038621 7.96085245,14.3448276 C7.42427008,14.3084138 6.91471537,14.1034857 6.50363245,13.7619874 L6.35423176,13.6275862 L4.59257659,15.8935172 C4.54026625,15.9607586 4.45981797,16 4.37464556,16 C4.35705935,16 4.33950762,15.9983103 4.32223176,15.9950345 C4.24065935,15.9792 4.17173245,15.9277903 4.13282376,15.8567305 L4.10954211,15.8 L3.62264556,14.0962759 L1.65023176,14.3426207 C1.57761107,14.3517241 1.50436969,14.3316207 1.44657659,14.2866897 C1.34345344,14.206532 1.3127863,14.0677509 1.36502014,13.9539928 L1.39809383,13.8995862 L3.07809383,11.7415172 C2.53371452,11.5793448 2.06333521,11.2315862 1.74871452,10.7586207 C1.35340418,10.0764138 1.53326625,9.24303448 1.70512831,8.43696552 C1.80981797,8.02282759 1.87236969,7.59913793 1.89188693,7.17241379 C1.87247314,6.74568966 1.80999038,6.32203448 1.70540418,5.90786207 C1.53243866,5.10234483 1.35368004,4.26841379 1.74899038,3.58510345 C2.15836969,2.8777931 2.98264556,2.616 3.77988693,2.36331034 C4.17661107,2.25431034 4.56085245,2.10417241 4.92636969,1.91531034 C5.25799038,1.70003448 5.56592142,1.45027586 5.84499038,1.1702069 C6.43671452,0.621517241 7.10733521,5.00222086e-12 7.96085245,5.00222086e-12 Z M7.965,2.71 C5.49904872,2.71 3.5,4.70904872 3.5,7.175 C3.5,9.64095128 5.49904872,11.64 7.965,11.64 C10.4309513,11.64 12.43,9.64095128 12.43,7.175 C12.4271474,4.71022698 10.429773,2.71288365 7.965,2.71 Z M7.78857659,3.8337931 C8.07805935,3.73865517 8.38985245,3.89617241 8.48499038,4.18565517 L8.48499038,4.18565517 L9.00912831,5.79310345 L10.6979559,5.79310345 C10.8743007,5.79317241 11.0399559,5.87755172 11.143749,6.02013793 C11.3230938,6.26648276 11.268749,6.61158621 11.0223697,6.79089655 L11.0223697,6.79089655 L9.65519728,7.784 L10.1774042,9.39172414 C10.2539904,9.619 10.1726111,9.86962069 9.97712831,10.0085517 C9.78450762,10.1516552 9.52092142,10.1516552 9.32830073,10.0085517 L9.32830073,10.0085517 L7.96085245,9.01544828 L6.59285245,10.0082759 C6.44992142,10.1121379 6.26592142,10.1413103 6.09788693,10.0866897 C5.80812831,9.99251724 5.64954211,9.68124138 5.743749,9.39144828 L5.743749,9.39144828 L6.2659559,7.784 L4.89878349,6.79089655 C4.75605935,6.687 4.67164556,6.52110345 4.67174891,6.34455172 C4.67188693,6.03982759 4.91902487,5.79296552 5.223749,5.79310345 L5.223749,5.79310345 L6.9139559,5.79310345 L7.43671452,4.18565517 C7.49143866,4.01913793 7.62205935,3.88851724 7.78857659,3.8337931 Z" id="Combined-Shape" fill="#000000" fill-rule="nonzero"></path>
    </g>
</svg>