<svg xmlns="http://www.w3.org/2000/svg" width="14.857" height="16" viewBox="0 0 14.857 16">
  <path id="Shape" d="M7.419,16,7.4,16l-.023,0h-.01l-.019,0-.015,0-.01,0-.031-.01a.023.023,0,0,1-.01,0,.154.154,0,0,0-.029-.013l-.005,0s0,0-.007,0L.231,12.589A.4.4,0,0,1,0,12.225V3.762a.409.409,0,0,1,.231-.355L7.238.041A.416.416,0,0,1,7.417,0,.412.412,0,0,1,7.6.041l6.938,3.336a.4.4,0,0,1,.276.216.425.425,0,0,1,.04.179s0,.007.007.01v8.433a.409.409,0,0,1-.231.365L7.6,15.956s0,0-.006,0a.177.177,0,0,1-.031.013l-.01,0-.027.008-.009,0-.01,0A.145.145,0,0,1,7.473,16h-.01A.182.182,0,0,1,7.419,16Zm3.31-10h0L7.824,7.4v7.54l6.209-2.988V4.414l-2.487,1.2V7.977a.409.409,0,0,1-.817,0V6ZM.817,4.427v7.541l6.189,2.975V7.4ZM4.241,2.38h0l-2.9,1.395L7.415,6.7l2.9-1.4L4.241,2.381ZM7.415.854,5.177,1.931l6.077,2.921,2.237-1.077L7.415.854Z"/>
</svg>
