<svg xmlns="http://www.w3.org/2000/svg" width="18" height="19" viewBox="0 0 18 19" fill="none">
  <path fill-rule="evenodd" clip-rule="evenodd" d="M17.7654 2.06663C17.8397 1.99225 17.8987 1.90395 17.939 1.80676C17.9793 1.70958 18 1.60542 18 1.50023C18 1.39504 17.9793 1.29088 17.939 1.1937C17.8987 1.09651 17.8397 1.00821 17.7654 0.933829C17.691 0.859448 17.6027 0.800447 17.5055 0.760192C17.4083 0.719938 17.3041 0.699219 17.199 0.699219C17.0938 0.699219 16.9896 0.719938 16.8924 0.760192C16.7952 0.800447 16.7069 0.859448 16.6326 0.933829L9.19896 8.36903L1.76536 0.933829C1.69098 0.859448 1.60268 0.800447 1.50549 0.760192C1.40831 0.719938 1.30415 0.699219 1.19896 0.699219C1.09377 0.699219 0.989609 0.719938 0.892426 0.760192C0.795243 0.800447 0.70694 0.859448 0.63256 0.933829C0.558179 1.00821 0.499177 1.09651 0.458923 1.1937C0.418668 1.29088 0.397949 1.39504 0.397949 1.50023C0.397949 1.60542 0.418668 1.70958 0.458923 1.80676C0.499177 1.90395 0.558179 1.99225 0.63256 2.06663L8.06776 9.50023L0.63256 16.9338C0.482341 17.084 0.397949 17.2878 0.397949 17.5002C0.397949 17.7127 0.482341 17.9164 0.63256 18.0666C0.782778 18.2168 0.986519 18.3012 1.19896 18.3012C1.4114 18.3012 1.61514 18.2168 1.76536 18.0666L9.19896 10.6314L16.6326 18.0666C16.7828 18.2168 16.9865 18.3012 17.199 18.3012C17.4114 18.3012 17.6151 18.2168 17.7654 18.0666C17.9156 17.9164 18 17.7127 18 17.5002C18 17.2878 17.9156 17.084 17.7654 16.9338L10.3302 9.50023L17.7654 2.06663Z" fill="black"/>
</svg>