<?xml version="1.0" encoding="UTF-8"?>
<svg width="16px" height="16px" viewBox="0 0 16 16" version="1.1" xmlns="http://www.w3.org/2000/svg" xmlns:xlink="http://www.w3.org/1999/xlink">
    <!-- Generator: Sketch 61.2 (89653) - https://sketch.com -->
    <title>email</title>
    <desc>Created with Sketch.</desc>
    <g id="email" stroke="none" stroke-width="1" fill="none" fill-rule="evenodd">
        <path d="M0.0127996228,12.0477711 C0.0127996228,12.7634973 0.608074192,13.34304 1.34269335,13.34304 L14.6420902,13.34304 C15.3773342,13.34304 15.9713774,12.7635157 15.9713774,12.0477711 L15.9713774,3.30280363 C15.9713774,2.58645253 15.3773342,2.0075347 14.6420902,2.0075347 L1.34269335,2.0075347 C0.608055801,2.0075347 0.0127996228,2.58645253 0.0127996228,3.30280363 L0.0127996228,12.0477711 L0.0127996228,12.0477711 Z M4.9052986,7.68515652 L1.86408698,4.70207561 C1.61156853,4.4561366 1.61156853,4.05705086 1.86408698,3.81111187 C2.11789192,3.56508098 2.52679168,3.56508098 2.77798689,3.81111187 L7.63190972,8.54667816 C7.82819043,8.73437619 8.15269686,8.73437619 8.34631272,8.54667816 L13.2055101,3.81111187 C13.4593151,3.56508098 13.8674981,3.56508098 14.1212846,3.81111187 C14.372535,4.05705088 14.372535,4.45613662 14.1212846,4.70207561 L11.0729422,7.68515652 L14.121303,10.6478926 C14.3725534,10.8951549 14.3725534,11.2929174 14.121303,11.5388564 C13.8674981,11.7847954 13.4593151,11.7847954 13.2055285,11.5388564 L10.1622585,8.57937324 C10.1622585,8.57937324 9.21244731,9.52205365 9.0396725,9.68949874 C8.77024598,9.94525178 8.39863587,10.1042245 7.99300744,10.1042245 C7.57962335,10.1042245 7.20801322,9.94330368 6.93856832,9.68030957 C6.76323892,9.51150449 5.81855528,8.57937324 5.81855528,8.57937324 L2.77798689,11.5388564 C2.52679168,11.7847954 2.1178919,11.7847954 1.86408698,11.5388564 C1.61156853,11.2929173 1.61156853,10.8951732 1.86408698,10.6478926 L4.9052986,7.68515652 L4.9052986,7.68515652 Z" id="Shape" fill="#000000" fill-rule="nonzero"></path>
    </g>
</svg>