<?xml version="1.0" encoding="UTF-8"?>
<svg width="16px" height="16px" viewBox="0 0 16 16" version="1.1" xmlns="http://www.w3.org/2000/svg" xmlns:xlink="http://www.w3.org/1999/xlink">
    <!-- Generator: Sketch 61.2 (89653) - https://sketch.com -->
    <title>go</title>
    <desc>Created with Sketch.</desc>
    <g id="go" stroke="none" stroke-width="1" fill="none" fill-rule="evenodd">
        <path d="M14.7420307,6.40290219 C15.0208294,6.68170089 15.0208294,7.12062047 14.7420307,7.39941917 C14.4726509,7.668799 14.0243125,7.668799 13.7555606,7.39941917 L8.70264808,2.34650668 L8.70264808,15.2535051 C8.70264808,15.6421907 8.39370898,15.9511298 8.0050234,15.9511298 C7.61633782,15.9511298 7.29735192,15.6421907 7.29735192,15.2535051 L7.29735192,2.34587875 L2.25448623,7.39879124 C1.97568753,7.66817107 1.52672115,7.66817107 1.25796925,7.39879124 C0.97917055,7.11999254 0.97917055,6.68107297 1.25796925,6.40227427 L7.50707887,0.153164644 C7.7764587,-0.116215182 8.22479715,-0.116215182 8.49354905,0.153164644 L14.7420307,6.40290219 Z" id="Path" fill="#000000" transform="translate(8.000000, 7.951130) rotate(-270.000000) translate(-8.000000, -7.951130) "></path>
    </g>
</svg>