<svg xmlns="http://www.w3.org/2000/svg" width="144" height="141" viewBox="0 0 144 141" fill="none">
  <g clip-path="url(#clip0_716_127778)">
    <path d="M75.1099 64.2458C75.1099 64.7776 75.1099 65.3095 75.1099 65.8171C75.1099 66.8567 75.11 67.8962 75.3028 68.9357C75.4475 70.9905 75.5922 73.0696 75.6645 75.1728C76.2773 76.5698 76.7067 78.0406 76.9421 79.5484C77.1109 79.5484 77.593 78.7748 77.6894 78.6781C78.2198 78.0496 78.702 77.3727 79.2324 76.7441C80.1002 74.931 81.0646 73.1663 81.836 71.3048C81.9568 69.6954 81.9568 68.0792 81.836 66.4698C81.5467 65.1886 80.3895 63.5447 80.4136 62.2392C78.702 62.4568 77.0627 63.037 75.327 63.1579C74.5796 63.1579 74.8689 63.593 74.893 64.2458H75.1099ZM22.1939 7.53165C23.1406 7.5758 24.0754 7.76325 24.9663 8.08766L26.1717 8.57115C26.7261 8.78872 26.7261 8.57117 27.1841 8.13602C27.8813 7.60605 28.6329 7.15223 29.4261 6.78224C28.8958 5.83942 26.2681 1.222 28.269 0.859375C28.7753 0.859375 29.4985 1.48792 29.9324 1.72967C30.3664 1.97142 31.1619 2.38241 31.7646 2.76921C32.9527 3.4305 33.9943 4.32698 34.8263 5.40425C35.3085 6.10532 36.5862 6.25036 37.3817 6.56463C38.1773 6.87891 38.9005 7.14483 39.6478 7.43493C41.1184 8.06347 42.5407 8.71621 43.963 9.41728C46.9765 10.8678 49.9658 12.3424 52.9792 13.7688C54.4257 14.4698 55.8481 15.2192 57.2704 15.9686C58.6928 16.7181 59.6811 17.6851 60.9588 18.3861C61.7694 19.0508 62.6321 19.6491 63.5383 20.1751C64.3707 20.5841 65.1221 21.141 65.7562 21.8189C67.1303 23.076 68.5769 24.2364 70.0715 25.421C70.9635 26.0737 71.8796 26.7023 72.7957 27.3066C73.5285 27.8245 74.1997 28.4248 74.7965 29.0956C75.9011 30.3797 77.4195 31.2351 79.0877 31.5131C80.0566 31.7918 81.084 31.7918 82.0529 31.5131L84.2949 30.7395C85.9252 30.2263 87.6068 29.894 89.3093 29.7483C91.3524 29.5638 93.4108 29.8362 95.3362 30.5461C96.1577 30.8582 96.9624 31.2133 97.7469 31.6098C98.4094 32.0912 99.1648 32.4288 99.9648 32.6009C100.919 32.6626 101.834 33.0076 102.593 33.5921C103.335 33.9766 104.188 34.0878 105.003 33.9064C105.938 33.8026 106.884 33.9046 107.775 34.2053C108.666 34.5059 109.481 34.9979 110.162 35.6469C110.572 36.0096 110.982 36.3964 111.368 36.8074L111.874 37.0733L112.501 37.3875L113.537 37.9194L113.947 38.0886H113.802L113.465 37.9677L112.742 37.6777L113.152 37.9919L113.61 38.1853L114.791 38.5963C115.267 38.773 115.734 38.9747 116.189 39.2006L116.72 39.4666H116.864H116.671L116.213 39.2732C115.772 39.1028 115.321 38.9575 114.863 38.838H114.694L115.201 39.1765C115.648 39.4864 116.075 39.8256 116.479 40.1918L116.888 40.3369C117.721 40.6199 118.528 40.9759 119.299 41.4006C119.849 41.7129 120.373 42.0686 120.866 42.4643L121.396 42.9719L121.565 43.117L121.372 42.9477L120.89 42.5609C120.401 42.2077 119.876 41.9078 119.323 41.6665C118.66 41.3831 117.975 41.1567 117.274 40.9896C117.828 41.3522 118.407 41.739 118.962 42.15L119.733 42.7543L119.95 42.9477L119.685 42.7543L118.986 42.2709C118.479 41.9566 117.973 41.6423 117.443 41.3764L117.612 41.5456L118.576 42.15C119.064 42.471 119.503 42.8619 119.878 43.3104L120.191 43.7214C120.577 44.0115 120.987 44.2774 121.372 44.5917L122.168 45.196L122.385 45.3652L122.095 45.1718L121.421 44.7125C120.738 44.2682 120.029 43.8646 119.299 43.5038L118.696 43.2137L118.962 43.4554L119.685 43.8664L120.071 44.0598H120.36H120.625H120.287H120.504L121.011 44.3015H121.228H121.059L120.529 44.1323L119.805 43.8422H119.685L119.902 44.084C120.478 44.7085 121.002 45.3796 121.469 46.0905L121.999 46.9366V47.2025L121.83 46.9124C121.683 46.6695 121.522 46.4354 121.348 46.2114C120.859 45.5719 120.31 44.9809 119.709 44.4466C119.332 44.1119 118.937 43.7972 118.528 43.5038L117.708 43.1412C117.627 43.3237 117.521 43.4945 117.395 43.6488L117.66 43.7939C118.118 44.0356 118.576 44.2774 119.01 44.5433C119.532 44.8155 119.999 45.1846 120.384 45.6312C120.711 46.0507 121.017 46.4864 121.3 46.9366L121.951 47.9036C122.033 48.021 122.122 48.1339 122.216 48.242V48.3629C122.228 48.3234 122.228 48.2815 122.216 48.242L121.975 47.952L121.276 47.0817C120.938 46.6949 120.601 46.3081 120.239 45.9454C119.849 45.5547 119.411 45.2137 118.937 44.9301L117.66 44.0114L117.322 43.7697L117.153 43.9389C117.337 44.1363 117.506 44.3464 117.66 44.5675L118.166 44.8817L118.817 45.3894L119.444 46.0421L119.974 46.6949L120.36 47.1542L120.529 47.3476L120.384 47.2025L119.974 46.7915L119.395 46.2355L118.745 45.607L118.166 45.0268L117.708 44.64C118.068 45.1353 118.398 45.6519 118.696 46.1872L120.36 47.9036L120.963 48.6288L121.131 48.8464L120.914 48.6046L120.36 48.0245L118.986 46.7674C119.281 47.4181 119.53 48.0885 119.733 48.7739C119.733 49.1123 119.926 49.4508 119.998 49.8134V50.1277C119.987 50.0071 119.987 49.8857 119.998 49.7651C119.998 49.475 119.805 49.1849 119.709 48.8948C119.374 48.0815 118.946 47.3107 118.431 46.5981C118.276 46.3626 118.107 46.1365 117.925 45.9212L116.647 44.9784L117.25 45.7037C117.829 46.4047 118.431 47.0817 118.937 47.8311C119.137 48.1233 119.315 48.4304 119.468 48.7497V49.0156L119.299 48.7014C119.158 48.447 118.997 48.2044 118.817 47.9761C118.273 47.3015 117.676 46.671 117.033 46.0905L115.803 44.9301C116.239 45.3912 116.649 45.8754 117.033 46.3806C117.349 46.7717 117.639 47.1836 117.901 47.6135C118.014 47.7772 118.119 47.9466 118.214 48.1212V48.2662V48.097L117.925 47.686C117.632 47.2986 117.318 46.9274 116.985 46.574C116.647 46.2113 116.262 45.8729 115.876 45.5345L116.599 46.3564C116.755 46.5531 116.924 46.7388 117.105 46.9124L117.25 47.0817L117.057 46.8883C116.912 46.7432 116.744 46.6223 116.599 46.4531L116.31 46.1872L116.551 46.5256C116.69 46.6361 116.811 46.7664 116.912 46.9124C117.255 47.3174 117.569 47.7455 117.853 48.1937C118.07 48.5321 118.262 48.8464 118.503 49.1607L118.769 49.5233V49.4024L118.528 49.1123L117.804 48.2662C117.493 47.8574 117.155 47.4697 116.792 47.1058L116.551 46.8883C117.002 47.7183 117.366 48.5933 117.636 49.4991C117.636 49.8376 117.828 50.2002 117.877 50.5386V50.8529C117.877 50.8529 117.877 50.6837 117.877 50.4903C117.877 50.2969 117.66 49.9101 117.563 49.6442C117.467 49.3783 117.322 49.064 117.178 48.7739C117.067 48.6753 116.963 48.5703 116.864 48.4596L115.996 47.4926L115.755 47.2025C115.909 47.5143 116.038 47.8377 116.141 48.1695C116.216 48.3755 116.281 48.5853 116.334 48.798V48.9915C116.327 48.9191 116.327 48.8462 116.334 48.7739C116.284 48.5916 116.22 48.4137 116.141 48.242C115.941 47.7452 115.682 47.2744 115.37 46.8399C115.023 46.3271 114.627 45.8494 114.188 45.4136C114.636 46.2423 114.992 47.1178 115.249 48.0245C115.249 48.3629 115.442 48.7014 115.514 49.064V49.3783C115.503 49.2576 115.503 49.1362 115.514 49.0156C115.514 48.7255 115.321 48.4355 115.225 48.1454C114.897 47.2957 114.477 46.485 113.971 45.7279L113.706 45.3894L113.923 45.8487C114.101 46.3463 114.246 46.8551 114.357 47.3717L114.646 48.4838L114.791 48.9189V49.1849V49.0398L114.646 48.6772L114.285 47.6377C114.092 47.1542 113.899 46.6707 113.682 46.2355C113.45 45.7347 113.159 45.2639 112.814 44.8334L112.549 44.4466H112.26C112.357 44.5779 112.445 44.7152 112.525 44.8576C112.989 45.5759 113.385 46.3368 113.706 47.13C113.854 47.422 113.967 47.7303 114.044 48.0486V48.3146V48.0003C113.946 47.7441 113.833 47.4939 113.706 47.2509C113.352 46.518 112.916 45.8285 112.404 45.196C112.067 44.7851 111.705 44.3741 111.344 43.9873H111.223L111.44 44.8817C111.44 45.2685 111.609 45.6312 111.729 46.018C111.85 46.4048 111.729 46.3081 111.729 46.4289V46.5498V46.4289L111.585 46.0663L111.223 45.0268C111.054 44.5916 110.886 44.1565 110.717 43.7697H110.596C110.596 44.1565 110.765 44.5191 110.861 44.9059L111.006 45.3411L110.861 44.9784L110.5 43.9389L110.355 43.5763C108.306 42.0533 106.667 39.3457 104.135 38.7413C104.638 40.0031 105.033 41.3051 105.317 42.6335C106.363 46.5054 106.682 50.5387 106.257 54.5275C106.016 56.3406 105.606 58.1295 105.244 59.9426C105.78 61.6785 105.912 63.5145 105.63 65.3095C105.329 66.2198 105.329 67.2034 105.63 68.1137C105.934 68.9325 106.073 69.8034 106.04 70.6763C105.891 71.6205 105.802 72.5733 105.775 73.5289C105.775 74.5201 105.775 75.5112 105.968 76.5024C106.045 78.3256 106.328 80.1341 106.811 81.8934C107.421 83.3427 107.597 84.9387 107.318 86.4866C107.065 87.4616 107.065 88.4851 107.318 89.4601C107.633 90.1688 107.906 90.8952 108.137 91.6358C108.354 92.8688 109.608 94.9961 108.137 95.8423C107.012 96.4347 105.713 96.6061 104.473 96.3258C103.147 96.084 102.448 95.5763 102.448 94.1742C102.508 93.313 102.508 92.4487 102.448 91.5875C102.902 90.9374 103.176 90.1785 103.243 89.3876C103.388 88.5898 103.243 87.8887 103.412 87.1152C103.049 86.2524 102.884 85.3187 102.93 84.3834C103.004 80.3381 102.73 76.294 102.11 72.296C101.615 71.3344 101.227 70.321 100.953 69.2741C100.999 68.4889 100.814 67.7075 100.423 67.0259C99.5309 65.382 98.7113 63.7139 97.7711 62.1909C96.8309 60.6679 95.9389 58.8064 94.1549 58.2988C93.504 58.1296 92.5879 57.1867 92.1057 57.5977C91.4765 58.0683 90.7767 58.4355 90.0325 58.6855C89.5706 58.7952 89.1513 59.0391 88.8271 59.3866C88.5378 59.7734 88.6101 59.8701 88.1762 60.1119C87.8544 60.273 87.5727 60.5042 87.3516 60.7887C87.1305 61.0731 86.9758 61.4035 86.8985 61.7558C86.4535 63.3759 86.3306 65.068 86.5369 66.7358C86.8019 67.5705 86.9877 68.4285 87.0914 69.2983C86.9584 70.1272 86.7318 70.9382 86.4164 71.7158C85.7031 73.3578 84.7705 74.8949 83.6441 76.2848C82.6089 78.0266 81.6908 79.8357 80.8958 81.7C80.5342 82.5703 80.1484 83.4647 79.7627 84.335C79.3769 85.2053 78.8226 84.9636 79.1119 85.713C79.5699 86.8492 79.8351 88.4689 81.2092 88.8557C82.5833 89.2425 82.5592 91.7809 82.3663 92.7479C82.2291 93.4271 81.9411 94.0666 81.5238 94.619C81.1065 95.1714 80.5704 95.6226 79.9556 95.9389C79.4493 96.2049 78.3645 96.2774 78.2921 96.8334C78.2198 97.3895 78.0752 98.2839 78.027 99.0092C77.933 99.7808 78.0939 100.562 78.485 101.233C78.8225 101.668 78.7501 102.805 78.8466 103.409C79.16 105.174 78.5332 106.479 76.7251 106.697C74.917 106.914 70.2884 107.736 71.1804 104.545C71.4938 103.481 72.0001 102.49 72.3135 101.427C72.6667 100.671 73.0778 99.9433 73.543 99.2509C74.3348 97.6064 74.6521 95.7725 74.4591 93.9566C74.4591 92.8688 74.4591 91.8051 74.4591 90.7414C74.4591 89.6777 74.2421 88.8799 74.0733 87.9613C73.8417 86.2905 73.3707 84.6621 72.675 83.1263C71.6721 81.3289 71.0794 79.3308 70.9394 77.276C70.7381 75.4016 70.1292 73.5943 69.1554 71.9817C68.3217 70.2237 67.6206 68.4055 67.0581 66.5424C66.7447 65.4061 66.4072 62.8436 65.1054 62.3843C61.9714 61.6591 59.9705 63.4964 57.8731 65.6237C57.2945 66.2281 55.7999 66.3973 55.0043 66.7116C54.2088 67.0259 53.3409 67.4127 52.5936 67.7995C51.0266 68.5489 49.5077 69.4192 47.9889 70.2169L45.3613 71.74L44.204 72.3685C43.6255 72.6586 43.8183 72.9004 43.9148 73.5047C44.2041 75.2695 44.9273 76.9375 45.313 78.6781C45.6988 80.4187 46.3256 82.8846 46.6872 85.012C47.0121 85.8166 47.5869 86.4948 48.3265 86.9459C49.1186 87.1961 49.9739 87.1532 50.7372 86.8251C51.7739 86.535 52.2319 86.2932 52.9792 87.2118C53.4679 87.8291 53.8509 88.5235 54.1124 89.2667C54.4016 90.0403 54.6186 90.8623 54.8356 91.6842C54.6981 92.3718 54.4711 93.0382 54.1605 93.6665C53.2203 95.3587 51.4605 95.2137 49.8453 94.6335C48.3002 93.997 47.0225 92.8439 46.2291 91.3699C45.7952 90.693 44.4693 90.4513 43.8184 89.9436C43.0969 89.3272 42.6253 88.4673 42.4925 87.5261C42.3116 86.5622 42.2388 85.5811 42.2755 84.601C42.2755 83.7065 42.0344 82.8362 41.8657 81.9659C41.48 80.1044 40.9978 78.243 40.5157 76.4299C40.2773 75.5117 39.9876 74.6077 39.6478 73.7223C39.3436 72.8116 39.2047 71.8536 39.2379 70.8938C39.2379 70.0719 39.2379 69.9269 39.696 69.2983C40.154 68.6698 40.2987 68.6456 40.6362 68.3555C40.9737 68.0654 41.9622 67.1709 42.6613 66.6149C43.4061 66.0561 44.0362 65.3583 44.5175 64.56C44.9755 63.8348 45.3371 62.6744 46.0362 62.1426C46.8306 61.6985 47.4638 61.0128 47.8443 60.1844C47.8443 59.2416 47.8443 58.2746 47.8443 57.3076C47.6756 55.2527 47.4828 53.1979 47.314 51.143C47.1453 49.0882 47.0246 46.6223 47.0729 44.3741C47.1939 42.5521 47.73 40.7823 48.6399 39.2006C48.875 38.6965 49.149 38.2115 49.4595 37.7502C49.4595 37.2425 49.4595 36.759 49.4595 36.2513C49.4595 35.3085 49.4595 34.3657 49.4595 33.4229C49.4973 32.9936 49.3893 32.5642 49.153 32.2043C48.9166 31.8444 48.5659 31.5752 48.1577 31.4405C47.3866 31.1486 46.6817 30.7047 46.0845 30.1351C45.1667 28.8803 44.1069 27.7365 42.9264 26.7265C42.3961 26.3397 41.4799 25.7111 40.9013 26.1463C40.2775 26.6387 39.7257 27.2164 39.262 27.8626C38.1531 29.3615 36.8513 30.812 35.8629 32.335C35.3085 33.1086 34.778 33.9064 34.2959 34.7525C34.2959 35.6316 34.1238 36.5023 33.7896 37.315C33.34 37.9996 32.7588 38.5874 32.0799 39.044C31.4011 39.5006 30.6383 39.8169 29.8361 39.9743C29.7102 40.0137 29.5746 40.0089 29.4519 39.9605C29.3291 39.9121 29.2264 39.8232 29.161 39.7083C28.9199 39.3941 28.8716 39.8534 28.51 39.8775C28.1484 39.9017 26.9672 39.1281 26.4609 38.7172C25.1383 37.573 24.0565 36.1759 23.2787 34.6074C22.4832 33.0361 23.4474 31.5131 23.6885 29.7725C24.0019 27.6451 24.2672 25.4935 24.5565 23.342C24.9664 21.495 24.9664 19.5804 24.5565 17.7334C24.4148 16.6587 24.5907 15.566 25.0627 14.5907C25.1858 14.1724 25.3306 13.7609 25.4966 13.3578C25.3886 13.0432 25.2598 12.7364 25.1109 12.4391C24.9422 11.9073 25.1109 11.7622 24.677 11.448C24.3393 11.2584 24.0239 11.0313 23.7368 10.7711C23.2064 10.2876 22.7725 9.6832 22.2904 9.15136C21.9618 8.82567 21.7283 8.41601 21.6153 7.96678C21.6153 7.33823 22.0492 7.53162 22.4831 7.57997L22.1939 7.53165Z" fill="#BD081C"/>
    <g opacity="0.5" filter="url(#filter0_f_716_127778)">
      <path d="M74.527 111.096C74.527 110.862 74.527 110.629 74.527 110.405C74.527 109.948 74.527 109.491 74.698 109.034C74.8262 108.131 74.9544 107.217 75.0185 106.292C75.5617 105.678 75.9423 105.031 76.151 104.368C76.3005 104.368 76.7279 104.708 76.8134 104.751C77.2835 105.027 77.7109 105.325 78.181 105.601C78.9502 106.398 79.805 107.174 80.4888 107.993C80.5958 108.7 80.5958 109.411 80.4888 110.118C80.2323 110.682 79.2066 111.404 79.228 111.978C77.7108 111.883 76.2578 111.628 74.7193 111.574C74.0569 111.574 74.3134 111.383 74.3347 111.096H74.527ZM27.6241 136.031C28.4633 136.011 29.2918 135.929 30.0815 135.786L31.1499 135.574C31.6413 135.478 31.6413 135.574 32.0473 135.765C32.6652 135.998 33.3314 136.198 34.0345 136.36C33.5644 136.775 31.2353 138.805 33.0089 138.964C33.4576 138.964 34.0987 138.688 34.4833 138.582C34.8679 138.475 35.5731 138.295 36.1073 138.125C37.1603 137.834 38.0836 137.44 38.8211 136.966C39.2484 136.658 40.3809 136.594 41.0861 136.456C41.7912 136.318 42.4323 136.201 43.0947 136.073C44.3981 135.797 45.6588 135.51 46.9195 135.202C49.5905 134.564 52.2401 133.916 54.9111 133.289C56.1932 132.98 57.454 132.651 58.7147 132.321C59.9754 131.992 60.8514 131.567 61.9839 131.259C62.7024 130.966 63.4671 130.703 64.2703 130.472C65.0081 130.292 65.6741 130.047 66.2362 129.749C67.4541 129.197 68.7363 128.687 70.0611 128.166C70.8517 127.879 71.6637 127.602 72.4757 127.337C73.1252 127.109 73.7202 126.845 74.2492 126.55C75.2282 125.986 76.5741 125.61 78.0528 125.487C78.9115 125.365 79.8222 125.365 80.681 125.487L82.6682 125.827C84.1133 126.053 85.6037 126.199 87.1128 126.263C88.9237 126.344 90.7482 126.225 92.4548 125.912C93.183 125.775 93.8962 125.619 94.5916 125.445C95.1788 125.233 95.8483 125.085 96.5574 125.009C97.4035 124.982 98.2143 124.83 98.8866 124.573C99.5444 124.404 100.301 124.355 101.023 124.435C101.852 124.481 102.69 124.436 103.48 124.304C104.27 124.171 104.992 123.955 105.596 123.67C105.959 123.51 106.323 123.34 106.665 123.16L107.113 123.043L107.669 122.905L108.588 122.671L108.951 122.596H108.823L108.524 122.649L107.882 122.777L108.246 122.639L108.652 122.554L109.699 122.373C110.121 122.295 110.535 122.207 110.938 122.107L111.408 121.991H111.536H111.365L110.959 122.076C110.568 122.15 110.169 122.214 109.763 122.267H109.613L110.062 122.118C110.459 121.982 110.837 121.833 111.195 121.672L111.558 121.608C112.296 121.483 113.011 121.327 113.695 121.14C114.182 121.003 114.646 120.847 115.084 120.673L115.554 120.449L115.703 120.386L115.532 120.46L115.105 120.63C114.671 120.785 114.206 120.917 113.716 121.023C113.129 121.148 112.521 121.247 111.9 121.321C112.391 121.161 112.904 120.991 113.395 120.811L114.079 120.545L114.272 120.46L114.036 120.545L113.417 120.758C112.968 120.896 112.519 121.034 112.049 121.151L112.199 121.076L113.054 120.811C113.486 120.67 113.875 120.498 114.207 120.301L114.485 120.12C114.827 119.992 115.19 119.875 115.532 119.737L116.237 119.472L116.43 119.397L116.173 119.482L115.575 119.684C114.97 119.879 114.342 120.057 113.695 120.216L113.16 120.343L113.395 120.237L114.036 120.056L114.378 119.971H114.635H114.87H114.571H114.763L115.212 119.865H115.404H115.254L114.784 119.939L114.143 120.067H114.036L114.229 119.96C114.74 119.686 115.204 119.391 115.618 119.078L116.088 118.706V118.589L115.938 118.717C115.808 118.824 115.665 118.927 115.511 119.025C115.078 119.306 114.591 119.566 114.058 119.801C113.724 119.948 113.374 120.087 113.011 120.216L112.284 120.375C112.212 120.295 112.119 120.22 112.007 120.152L112.242 120.088C112.648 119.982 113.054 119.875 113.438 119.758C113.901 119.639 114.315 119.477 114.656 119.28C114.946 119.096 115.217 118.904 115.468 118.706L116.045 118.281C116.118 118.23 116.197 118.18 116.28 118.132V118.079C116.29 118.097 116.29 118.115 116.28 118.132L116.066 118.26L115.447 118.642C115.148 118.813 114.849 118.983 114.528 119.142C114.182 119.314 113.794 119.464 113.374 119.588L112.242 119.992L111.942 120.099L111.793 120.024C111.955 119.937 112.105 119.845 112.242 119.748L112.69 119.61L113.267 119.387L113.823 119.1L114.293 118.813L114.635 118.611L114.784 118.526L114.656 118.589L114.293 118.77L113.78 119.014L113.203 119.291L112.69 119.546L112.284 119.716C112.604 119.498 112.896 119.271 113.16 119.036L114.635 118.281L115.169 117.962L115.319 117.867L115.126 117.973L114.635 118.228L113.417 118.781C113.678 118.495 113.9 118.2 114.079 117.898C114.079 117.75 114.25 117.601 114.314 117.441V117.303C114.304 117.356 114.304 117.41 114.314 117.463C114.314 117.59 114.143 117.718 114.058 117.845C113.761 118.203 113.381 118.542 112.925 118.855C112.788 118.959 112.638 119.058 112.477 119.153L111.344 119.567L111.878 119.248C112.391 118.94 112.925 118.642 113.374 118.313C113.551 118.185 113.708 118.049 113.844 117.909V117.792L113.695 117.93C113.57 118.042 113.427 118.149 113.267 118.249C112.785 118.546 112.256 118.823 111.686 119.078L110.596 119.588C110.982 119.386 111.346 119.173 111.686 118.951C111.966 118.779 112.223 118.598 112.455 118.409C112.556 118.337 112.648 118.262 112.733 118.185V118.122V118.196L112.477 118.377C112.217 118.547 111.939 118.71 111.643 118.866C111.344 119.025 111.002 119.174 110.66 119.323L111.301 118.961C111.44 118.875 111.59 118.793 111.75 118.717L111.878 118.642L111.707 118.728C111.579 118.791 111.43 118.844 111.301 118.919L111.045 119.036L111.259 118.887C111.382 118.838 111.49 118.781 111.579 118.717C111.883 118.539 112.161 118.351 112.413 118.154C112.605 118.005 112.776 117.867 112.989 117.728L113.224 117.569V117.622L113.011 117.75L112.37 118.122C112.094 118.301 111.794 118.472 111.472 118.632L111.259 118.728C111.659 118.363 111.981 117.978 112.22 117.58C112.22 117.431 112.391 117.271 112.434 117.123V116.984C112.434 116.984 112.434 117.059 112.434 117.144C112.434 117.229 112.242 117.399 112.156 117.516C112.071 117.633 111.942 117.771 111.814 117.898C111.716 117.942 111.624 117.988 111.536 118.037L110.767 118.462L110.553 118.589C110.689 118.452 110.804 118.31 110.895 118.164C110.962 118.074 111.019 117.981 111.066 117.888V117.803C111.06 117.835 111.06 117.867 111.066 117.898C111.022 117.979 110.965 118.057 110.895 118.132C110.718 118.351 110.489 118.558 110.212 118.749C109.904 118.974 109.554 119.184 109.165 119.376C109.562 119.012 109.877 118.627 110.105 118.228C110.105 118.079 110.276 117.93 110.34 117.771V117.633C110.33 117.686 110.33 117.739 110.34 117.792C110.34 117.92 110.169 118.047 110.083 118.175C109.793 118.548 109.42 118.905 108.972 119.238L108.737 119.387L108.93 119.185C109.087 118.966 109.216 118.742 109.314 118.515L109.571 118.026L109.699 117.835V117.718V117.782L109.571 117.941L109.25 118.398C109.079 118.611 108.908 118.823 108.716 119.014C108.51 119.235 108.252 119.442 107.947 119.631L107.712 119.801H107.455C107.541 119.743 107.619 119.683 107.69 119.62C108.102 119.305 108.453 118.97 108.737 118.621C108.868 118.493 108.969 118.357 109.036 118.217V118.1V118.239C108.95 118.351 108.85 118.461 108.737 118.568C108.424 118.89 108.037 119.193 107.583 119.472C107.284 119.652 106.964 119.833 106.643 120.003H106.536L106.729 119.61C106.729 119.44 106.878 119.28 106.985 119.11C107.092 118.94 106.985 118.983 106.985 118.929L106.857 119.089L106.536 119.546C106.387 119.737 106.237 119.929 106.088 120.099H105.981C105.981 119.929 106.13 119.769 106.216 119.599L106.344 119.408L106.216 119.567L105.895 120.024L105.767 120.184C103.951 120.853 102.498 122.044 100.254 122.309C100.699 121.755 101.049 121.182 101.301 120.598C102.228 118.896 102.511 117.123 102.134 115.369C101.921 114.572 101.558 113.785 101.237 112.988C101.712 112.225 101.829 111.418 101.579 110.629C101.312 110.228 101.312 109.796 101.579 109.396C101.848 109.036 101.972 108.653 101.942 108.269C101.81 107.854 101.732 107.435 101.707 107.015C101.707 106.579 101.707 106.143 101.878 105.708C101.947 104.906 102.198 104.111 102.626 103.337C103.167 102.7 103.323 101.998 103.075 101.318C102.851 100.889 102.851 100.439 103.075 100.011C103.354 99.699 103.597 99.3796 103.801 99.054C103.994 98.512 105.105 97.5766 103.801 97.2046C102.804 96.9442 101.652 96.8688 100.553 96.9921C99.378 97.0984 98.7584 97.3216 98.7584 97.938C98.8118 98.3166 98.8118 98.6967 98.7584 99.0753C99.1609 99.3611 99.4041 99.6948 99.4635 100.042C99.5917 100.393 99.4635 100.701 99.613 101.042C99.2911 101.421 99.1452 101.831 99.1858 102.243C99.2515 104.021 99.0084 105.799 98.4592 107.557C98.0202 107.98 97.6763 108.425 97.4336 108.885C97.4738 109.231 97.3104 109.574 96.9634 109.874C96.1728 110.597 95.4464 111.33 94.613 112C93.7796 112.669 92.989 113.488 91.4078 113.711C90.8309 113.785 90.0188 114.2 89.5914 114.019C89.0337 113.812 88.4135 113.651 87.7538 113.541C87.3444 113.493 86.9728 113.385 86.6854 113.233C86.429 113.062 86.493 113.02 86.1084 112.914C85.8232 112.843 85.5735 112.741 85.3776 112.616C85.1816 112.491 85.0444 112.346 84.976 112.191C84.5815 111.479 84.4725 110.735 84.6554 110.001C84.8904 109.634 85.055 109.257 85.147 108.875C85.029 108.51 84.8282 108.154 84.5486 107.812C83.9164 107.09 83.0898 106.414 82.0914 105.803C81.1738 105.037 80.36 104.242 79.6554 103.422C79.3348 103.04 78.9929 102.646 78.651 102.264C78.3091 101.881 77.8177 101.987 78.0742 101.658C78.4801 101.158 78.7152 100.446 79.9332 100.276C81.1511 100.106 81.1297 98.9902 80.9588 98.5651C80.8371 98.2665 80.5819 97.9853 80.212 97.7424C79.8421 97.4996 79.367 97.3012 78.822 97.1621C78.3732 97.0452 77.4117 97.0133 77.3476 96.7689C77.2835 96.5244 77.1553 96.1311 77.1126 95.8123C77.0292 95.473 77.1719 95.1295 77.5186 94.8345C77.8177 94.6432 77.7535 94.1436 77.839 93.8779C78.1168 93.102 77.5612 92.5281 75.9586 92.4324C74.356 92.3368 70.2534 91.9754 71.044 93.3784C71.3218 93.846 71.7706 94.2818 72.0483 94.7494C72.3614 95.0818 72.7258 95.4016 73.1381 95.706C73.8399 96.429 74.1212 97.2353 73.9501 98.0337C73.9501 98.512 73.9501 98.9796 73.9501 99.4473C73.9501 99.9149 73.7577 100.266 73.6082 100.67C73.4029 101.404 72.9854 102.12 72.3688 102.795C71.4798 103.586 70.9544 104.464 70.8303 105.367C70.652 106.191 70.1122 106.986 69.2491 107.695C68.5101 108.468 67.8887 109.267 67.3901 110.086C67.1123 110.586 66.8132 111.713 65.6593 111.915C62.8815 112.233 61.1079 111.426 59.2489 110.49C58.7361 110.225 57.4113 110.15 56.7061 110.012C56.001 109.874 55.2317 109.704 54.5693 109.534C53.1804 109.204 51.8341 108.822 50.4879 108.471L48.1589 107.801L47.1331 107.525C46.6203 107.397 46.7913 107.291 46.8767 107.025C47.1331 106.25 47.7742 105.516 48.1161 104.751C48.458 103.986 49.0136 102.902 49.3341 101.966C49.6221 101.612 50.1316 101.314 50.7871 101.116C51.4892 101.006 52.2474 101.025 52.9239 101.169C53.8427 101.297 54.2487 101.403 54.9111 100.999C55.3443 100.728 55.6837 100.422 55.9155 100.096C56.1719 99.7555 56.3642 99.3941 56.5565 99.0328C56.4347 98.7305 56.2335 98.4374 55.9581 98.1612C55.1248 97.4172 53.565 97.481 52.1333 97.7361C50.7638 98.0159 49.6313 98.5229 48.9281 99.1709C48.5435 99.4685 47.3682 99.5748 46.7913 99.798C46.1518 100.069 45.7338 100.447 45.6161 100.861C45.4558 101.285 45.3912 101.716 45.4237 102.147C45.4237 102.54 45.2101 102.923 45.0605 103.305C44.7186 104.124 44.2912 104.942 43.8639 105.739C43.6526 106.143 43.3958 106.541 43.0947 106.93C42.825 107.33 42.7019 107.751 42.7313 108.173C42.7313 108.535 42.7313 108.598 43.1373 108.875C43.5433 109.151 43.6715 109.162 43.9707 109.289C44.2699 109.417 45.146 109.81 45.7657 110.055C46.4258 110.3 46.9844 110.607 47.4109 110.958C47.8169 111.277 48.1375 111.787 48.7571 112.021C49.4612 112.216 50.0224 112.518 50.3597 112.882C50.3597 113.296 50.3597 113.721 50.3597 114.147C50.2102 115.05 50.0393 115.953 49.8897 116.857C49.7401 117.76 49.6332 118.844 49.6759 119.833C49.7832 120.634 50.2584 121.412 51.0649 122.107C51.2733 122.329 51.5162 122.542 51.7914 122.745C51.7914 122.968 51.7914 123.181 51.7914 123.404C51.7914 123.819 51.7914 124.233 51.7914 124.648C51.8249 124.836 51.7292 125.025 51.5197 125.183C51.3102 125.342 50.9993 125.46 50.6375 125.519C49.9541 125.648 49.3293 125.843 48.7999 126.093C47.9864 126.645 47.047 127.148 46.0007 127.592C45.5306 127.762 44.7186 128.038 44.2057 127.847C43.6528 127.63 43.1637 127.376 42.7527 127.092C41.7698 126.433 40.616 125.796 39.7399 125.126C39.2484 124.786 38.7783 124.435 38.3509 124.063C38.3509 123.677 38.1984 123.294 37.9021 122.936C37.5036 122.635 36.9885 122.377 36.3868 122.176C35.785 121.976 35.1089 121.836 34.3979 121.767C34.2863 121.75 34.1661 121.752 34.0573 121.773C33.9485 121.795 33.8575 121.834 33.7995 121.884C33.5858 122.022 33.543 121.82 33.2225 121.81C32.902 121.799 31.855 122.139 31.4063 122.32C30.234 122.823 29.2751 123.437 28.5857 124.127C27.8805 124.818 28.7352 125.487 28.9489 126.253C29.2267 127.188 29.4618 128.134 29.7183 129.08C30.0816 129.892 30.0816 130.734 29.7183 131.546C29.5926 132.018 29.7486 132.499 30.1669 132.927C30.276 133.111 30.4044 133.292 30.5515 133.469C30.4558 133.608 30.3416 133.743 30.2097 133.873C30.0601 134.107 30.2097 134.171 29.8251 134.309C29.5257 134.392 29.2461 134.492 28.9917 134.607C28.5216 134.819 28.137 135.085 27.7096 135.319C27.4184 135.462 27.2114 135.642 27.1113 135.84C27.1113 136.116 27.4959 136.031 27.8805 136.01L27.6241 136.031Z" fill="url(#paint0_linear_716_127778)"/>
    </g>
  </g>
  <defs>
    <filter id="filter0_f_716_127778" x="24.6288" y="89.8371" width="94.2833" height="51.6097" filterUnits="userSpaceOnUse" color-interpolation-filters="sRGB">
      <feFlood flood-opacity="0" result="BackgroundImageFix"/>
      <feBlend mode="normal" in="SourceGraphic" in2="BackgroundImageFix" result="shape"/>
      <feGaussianBlur stdDeviation="1.24125" result="effect1_foregroundBlur_716_127778"/>
    </filter>
    <linearGradient id="paint0_linear_716_127778" x1="71.7705" y1="157.191" x2="88.5501" y2="115.623" gradientUnits="userSpaceOnUse">
      <stop stop-color="#BD081C" stop-opacity="0"/>
      <stop offset="1" stop-color="#BD081C"/>
    </linearGradient>
    <clipPath id="clip0_716_127778">
      <rect width="144" height="140" fill="white" transform="translate(0 0.859375)"/>
    </clipPath>
  </defs>
</svg>