<svg width="24" height="24" viewBox="0 0 24 24" fill="none" xmlns="http://www.w3.org/2000/svg">
<g clip-path="url(#clip0_547_34936)">
<path d="M4.1421 20H19.8609C20.2273 19.9974 20.5875 19.9053 20.91 19.7315C21.2326 19.5578 21.5077 19.3078 21.7115 19.0032C21.9152 18.6987 22.0413 18.349 22.0789 17.9846C22.1164 17.6201 22.0642 17.252 21.9268 16.9124L13.9551 3.15842C13.7609 2.80744 13.4763 2.51489 13.1307 2.31117C12.7852 2.10745 12.3914 2 11.9903 2C11.5892 2 11.1954 2.10745 10.8498 2.31117C10.5043 2.51489 10.2196 2.80744 10.0254 3.15842L2.05375 16.9124C1.91895 17.2442 1.8655 17.6035 1.89785 17.9603C1.93021 18.317 2.04743 18.6608 2.23974 18.963C2.43204 19.2652 2.69385 19.517 3.00331 19.6974C3.31276 19.8778 3.66088 19.9816 4.0186 20" fill="#EDD500"/>
<path d="M12 8V12.6109" stroke="white" stroke-width="2" stroke-linecap="round" stroke-linejoin="round"/>
<path d="M12 16H12.01" stroke="white" stroke-width="2.5" stroke-linecap="round" stroke-linejoin="round"/>
</g>
<defs>
<clipPath id="clip0_547_34936">
<rect width="24" height="24" fill="white"/>
</clipPath>
</defs>
</svg>

