<svg width="191" height="63" viewBox="0 0 191 63" fill="none" xmlns="http://www.w3.org/2000/svg">
<g filter="url(#filter0_dd_910_89894)">
<path d="M27.4898 44.7371C26.5351 43.8072 25.6313 42.7833 24.6596 41.8694C29.9334 36.4781 31.8318 34.7473 35.0794 30.4918C36.3825 28.9468 37.245 27.0783 37.576 25.0834C37.6299 24.7045 37.6439 24.3195 37.6969 23.7046C38.7465 25.5044 39.2687 27.5638 39.2038 29.6469C39.093 33.1545 37.2654 35.8402 35.1343 38.4008C33.8501 39.9437 29.9175 43.8182 28.1998 45.5C27.8373 45.107 27.8732 45.11 27.4898 44.7371ZM21.3381 38.3259C21.1554 38.1439 20.7619 37.7129 20.5872 37.526C24.3323 33.9862 27.8102 30.1732 30.992 26.1183C32.1374 24.6895 33.1181 23.0937 32.8764 21.1029C32.799 20.6916 32.6925 20.2863 32.5579 19.8901C32.5838 22.4778 31.1598 24.3405 29.7237 26.1953C29.3432 26.6882 28.9138 27.1422 28.5104 27.6181C28.1882 28.0436 27.7534 28.3703 27.2553 28.5611C26.7573 28.752 26.2158 28.7994 25.6922 28.698C24.9662 28.5028 24.1948 28.5694 23.513 28.8862C22.8311 29.203 22.2822 29.7497 21.9623 30.4308C21.7266 30.93 21.5967 31.4727 21.5808 32.0246C21.5458 33.2755 20.8288 34.0164 19.6075 33.7974C18.6568 33.6017 17.7195 33.3456 16.8013 33.0305C16.645 33.0065 16.4973 32.9435 16.3716 32.8475C16.2459 32.7515 16.1463 32.6254 16.0819 32.4808C16.0175 32.3363 15.9904 32.1778 16.003 32.02C16.0156 31.8622 16.0676 31.7101 16.1542 31.5777C16.8632 29.9849 17.5433 28.378 18.3073 26.8122C18.9064 25.5854 19.6414 24.4335 19.0942 22.9597C19.0123 22.7387 19.2859 22.3218 19.4877 22.0678C20.4114 20.9039 21.3671 19.7591 22.3138 18.6082C22.1641 18.4858 22.027 18.3488 21.9044 18.1993C21.4859 17.6453 21.0935 17.0684 20.5232 16.2685L23.3903 16.5435L22.8541 15.5436C24.5817 15.2996 25.4266 16.1075 26.4602 17.2794C26.5204 17.1279 26.6124 16.991 26.7299 16.8781C26.8474 16.7651 26.9876 16.6786 27.1412 16.6244C30.1172 15.9435 33.899 17.9503 36.2908 21.0649C36.8239 21.7743 37.1268 22.6303 37.1588 23.5175C37.1907 24.4047 36.9502 25.2803 36.4695 26.0263C35.5081 27.6886 34.4055 29.2649 33.174 30.7378C30.9011 33.5374 30.273 33.9704 23.8417 40.8466C22.909 39.9647 22.2499 39.2337 21.3381 38.3249V38.3259Z" fill="white"/>
<path d="M46.8083 40.1077H50.2136V32.1996H58.3187V29.132H50.2136V23.1658H59.8666V20.1264H46.8083V40.1077Z" fill="white"/>
<path d="M71.8413 40.3328C77.6105 40.3328 81.9164 36.1959 81.9164 30.117C81.9164 24.0101 77.6105 19.9012 71.8413 19.9012C65.8469 19.9012 61.7381 24.2352 61.7381 30.117C61.7381 35.9989 65.8469 40.3328 71.8413 40.3328ZM71.8413 37.1527C67.9294 37.1527 65.2559 34.0289 65.2559 30.117C65.2559 26.2052 67.9294 23.0814 71.8413 23.0814C75.528 23.0814 78.3704 26.0082 78.3704 30.117C78.3704 34.1977 75.528 37.1527 71.8413 37.1527Z" fill="white"/>
<path d="M85.9168 40.1077H89.3221V32.9876H91.9956L96.7799 40.1077H100.861L95.6823 32.6499C98.6092 31.8056 100.129 29.723 100.129 26.5992C100.129 22.8844 98.0463 20.1264 93.2902 20.1264H85.9168V40.1077ZM89.3221 29.92V23.1658H92.7836C95.232 23.1658 96.611 24.4322 96.611 26.5429C96.611 28.5129 95.2883 29.92 92.5585 29.92H89.3221Z" fill="white"/>
<path d="M104.468 40.1077H112.376C116.794 40.1077 118.933 37.8 118.933 34.6199C118.933 31.8619 117.301 30.117 114.965 29.5542V29.526C117.02 28.7099 117.92 26.8525 117.92 24.9951C117.92 21.7305 115.528 20.1264 111.419 20.1264H104.468V40.1077ZM107.873 28.4003V23.1658L111.053 23.1377C113.389 23.1377 114.459 24.1789 114.459 25.7549C114.459 27.6405 113.08 28.4003 111.166 28.4003H107.873ZM107.873 37.0683V31.3272H111.419C114.065 31.3272 115.387 32.481 115.387 34.254C115.387 36.1396 114.065 37.0683 111.954 37.0683H107.873Z" fill="white"/>
<path d="M131.48 40.3328C137.249 40.3328 141.555 36.1959 141.555 30.117C141.555 24.0101 137.249 19.9012 131.48 19.9012C125.485 19.9012 121.376 24.2352 121.376 30.117C121.376 35.9989 125.485 40.3328 131.48 40.3328ZM131.48 37.1527C127.568 37.1527 124.894 34.0289 124.894 30.117C124.894 26.2052 127.568 23.0814 131.48 23.0814C135.166 23.0814 138.009 26.0082 138.009 30.117C138.009 34.1977 135.166 37.1527 131.48 37.1527Z" fill="white"/>
<path d="M145.555 40.1077H158.219V37.0683H148.96V20.1264H145.555V40.1077Z" fill="white"/>
<path d="M161.688 40.1077H174.859V37.0683H165.093V31.7212H172.495V28.6818H165.093V23.1658H174.268V20.1264H161.688V40.1077Z" fill="white"/>
</g>
<defs>
<filter id="filter0_dd_910_89894" x="0" y="0.5" width="190.859" height="62" filterUnits="userSpaceOnUse" color-interpolation-filters="sRGB">
<feFlood flood-opacity="0" result="BackgroundImageFix"/>
<feColorMatrix in="SourceAlpha" type="matrix" values="0 0 0 0 0 0 0 0 0 0 0 0 0 0 0 0 0 0 127 0" result="hardAlpha"/>
<feOffset dy="1"/>
<feGaussianBlur stdDeviation="8"/>
<feComposite in2="hardAlpha" operator="out"/>
<feColorMatrix type="matrix" values="0 0 0 0 0.0627451 0 0 0 0 0.0941176 0 0 0 0 0.156863 0 0 0 0.2 0"/>
<feBlend mode="normal" in2="BackgroundImageFix" result="effect1_dropShadow_910_89894"/>
<feColorMatrix in="SourceAlpha" type="matrix" values="0 0 0 0 0 0 0 0 0 0 0 0 0 0 0 0 0 0 127 0" result="hardAlpha"/>
<feOffset dy="1"/>
<feGaussianBlur stdDeviation="8"/>
<feComposite in2="hardAlpha" operator="out"/>
<feColorMatrix type="matrix" values="0 0 0 0 0.0627451 0 0 0 0 0.0941176 0 0 0 0 0.156863 0 0 0 0.24 0"/>
<feBlend mode="normal" in2="effect1_dropShadow_910_89894" result="effect2_dropShadow_910_89894"/>
<feBlend mode="normal" in="SourceGraphic" in2="effect2_dropShadow_910_89894" result="shape"/>
</filter>
</defs>
</svg>
