<svg width="16" height="17" viewBox="0 0 16 17" fill="none" xmlns="http://www.w3.org/2000/svg">
<path d="M8 2.90039L8.44456 2.42619C8.19453 2.19179 7.80547 2.19179 7.55544 2.42619L8 2.90039ZM7.35 10.7233C7.35 11.0823 7.64102 11.3733 8 11.3733C8.35899 11.3733 8.65 11.0823 8.65 10.7233H7.35ZM11.0554 6.65584C11.3173 6.90136 11.7287 6.8881 11.9742 6.6262C12.2197 6.36431 12.2065 5.95297 11.9446 5.70744L11.0554 6.65584ZM4.05544 5.70744C3.79355 5.95297 3.78028 6.36431 4.0258 6.6262C4.27133 6.8881 4.68267 6.90136 4.94456 6.65584L4.05544 5.70744ZM12.5 13.937C12.859 13.937 13.15 13.646 13.15 13.287C13.15 12.9281 12.859 12.637 12.5 12.637V13.937ZM3.5 12.637C3.14101 12.637 2.85 12.9281 2.85 13.287C2.85 13.646 3.14101 13.937 3.5 13.937V12.637ZM7.35 2.90039L7.35 10.7233H8.65V2.90039H7.35ZM11.9446 5.70744L8.44456 2.42619L7.55544 3.37459L11.0554 6.65584L11.9446 5.70744ZM7.55544 2.42619L4.05544 5.70744L4.94456 6.65584L8.44456 3.37459L7.55544 2.42619ZM12.5 12.637L3.5 12.637V13.937L12.5 13.937V12.637Z" fill="#EBEEF5"/>
</svg>
