<svg width="18" height="20" viewBox="0 0 18 20" fill="none" xmlns="http://www.w3.org/2000/svg">
<mask id="path-1-inside-1_3680_47583" fill="white">
<path d="M17.2352 15.1377C17.7424 15.4978 17.866 16.2059 17.4512 16.6694C16.5556 17.6698 15.4651 18.4827 14.2422 19.0556C12.6783 19.7882 10.9514 20.1033 9.22953 19.9703C7.50769 19.8372 5.84965 19.2605 4.4169 18.2963C2.98415 17.3321 1.82551 16.0133 1.05384 14.4684C0.282165 12.9234 -0.076244 11.2049 0.0135164 9.48024C0.103277 7.7556 0.638147 6.0836 1.56604 4.62708C2.49393 3.17056 3.78321 1.97916 5.30831 1.16892C6.50087 0.535346 7.80583 0.151721 9.14363 0.0367328C9.7633 -0.0165302 10.2552 0.507626 10.2385 1.12936C10.2217 1.75109 9.70179 2.23311 9.08419 2.30663C8.13617 2.41948 7.21385 2.707 6.36503 3.15795C5.18342 3.7857 4.18453 4.70876 3.46563 5.83723C2.74673 6.9657 2.33233 8.26111 2.26278 9.59731C2.19324 10.9335 2.47092 12.2649 3.06879 13.4619C3.66666 14.6589 4.56433 15.6807 5.67439 16.4277C6.78444 17.1748 8.06904 17.6216 9.40306 17.7247C10.7371 17.8277 12.0751 17.5836 13.2867 17.016C14.1571 16.6082 14.941 16.0436 15.6007 15.3534C16.0304 14.9038 16.7281 14.7776 17.2352 15.1377Z"/>
</mask>
<path d="M17.2352 15.1377C17.7424 15.4978 17.866 16.2059 17.4512 16.6694C16.5556 17.6698 15.4651 18.4827 14.2422 19.0556C12.6783 19.7882 10.9514 20.1033 9.22953 19.9703C7.50769 19.8372 5.84965 19.2605 4.4169 18.2963C2.98415 17.3321 1.82551 16.0133 1.05384 14.4684C0.282165 12.9234 -0.076244 11.2049 0.0135164 9.48024C0.103277 7.7556 0.638147 6.0836 1.56604 4.62708C2.49393 3.17056 3.78321 1.97916 5.30831 1.16892C6.50087 0.535346 7.80583 0.151721 9.14363 0.0367328C9.7633 -0.0165302 10.2552 0.507626 10.2385 1.12936C10.2217 1.75109 9.70179 2.23311 9.08419 2.30663C8.13617 2.41948 7.21385 2.707 6.36503 3.15795C5.18342 3.7857 4.18453 4.70876 3.46563 5.83723C2.74673 6.9657 2.33233 8.26111 2.26278 9.59731C2.19324 10.9335 2.47092 12.2649 3.06879 13.4619C3.66666 14.6589 4.56433 15.6807 5.67439 16.4277C6.78444 17.1748 8.06904 17.6216 9.40306 17.7247C10.7371 17.8277 12.0751 17.5836 13.2867 17.016C14.1571 16.6082 14.941 16.0436 15.6007 15.3534C16.0304 14.9038 16.7281 14.7776 17.2352 15.1377Z" stroke="#007FFF" stroke-width="8" mask="url(#path-1-inside-1_3680_47583)"/>
</svg>
