<svg width="25" height="24" viewBox="0 0 25 24" fill="none" xmlns="http://www.w3.org/2000/svg">
<path fill-rule="evenodd" clip-rule="evenodd" d="M20.7424 10C20.7424 10.2744 20.7286 10.5455 20.7017 10.8128C20.7072 10.8728 20.7064 10.9346 20.6988 10.9978C20.165 15.3951 16.2241 18.9855 13.4151 21.4305C13.039 21.7579 12.4799 21.7579 12.1038 21.4305C9.29485 18.9855 5.35393 15.3951 4.82015 10.9978C4.81858 10.9848 4.8173 10.972 4.8163 10.9591C4.77877 10.6447 4.75946 10.3246 4.75946 10C4.75946 5.58172 8.33737 2 12.751 2C17.1645 2 20.7424 5.58172 20.7424 10ZM12.7595 13C14.4163 13 15.7595 11.6569 15.7595 10C15.7595 8.34315 14.4163 7 12.7595 7C11.1026 7 9.75946 8.34315 9.75946 10C9.75946 11.6569 11.1026 13 12.7595 13Z" fill="white"/>
</svg>
