<svg width="28" height="28" viewBox="0 0 28 28" fill="none" xmlns="http://www.w3.org/2000/svg">
<g clip-path="url(#clip0_332_15908)">
<path d="M25.76 0H2.24C1.00288 0 0 1.00288 0 2.24V25.76C0 26.9971 1.00288 28 2.24 28H25.76C26.9971 28 28 26.9971 28 25.76V2.24C28 1.00288 26.9971 0 25.76 0Z" fill="url(#paint0_radial_332_15908)"/>
<path d="M25.76 0H2.24C1.00288 0 0 1.00288 0 2.24V25.76C0 26.9971 1.00288 28 2.24 28H25.76C26.9971 28 28 26.9971 28 25.76V2.24C28 1.00288 26.9971 0 25.76 0Z" fill="url(#paint1_radial_332_15908)" fill-opacity="0.57"/>
<path d="M25.76 0H2.24C1.00288 0 0 1.00288 0 2.24V25.76C0 26.9971 1.00288 28 2.24 28H25.76C26.9971 28 28 26.9971 28 25.76V2.24C28 1.00288 26.9971 0 25.76 0Z" fill="url(#paint2_radial_332_15908)" fill-opacity="0.68"/>
<path d="M25.76 0H2.24C1.00288 0 0 1.00288 0 2.24V25.76C0 26.9971 1.00288 28 2.24 28H25.76C26.9971 28 28 26.9971 28 25.76V2.24C28 1.00288 26.9971 0 25.76 0Z" fill="url(#paint3_radial_332_15908)" fill-opacity="0.08"/>
<path d="M25.76 0H2.24C1.00288 0 0 1.00288 0 2.24V25.76C0 26.9971 1.00288 28 2.24 28H25.76C26.9971 28 28 26.9971 28 25.76V2.24C28 1.00288 26.9971 0 25.76 0Z" fill="url(#paint4_linear_332_15908)" fill-opacity="0.03"/>
<path d="M11.5288 21.5V14.8571L17.8073 21.5H21.3002V21.3286L14.0788 13.7643L20.7431 6.58571V6.5H17.2288L11.5288 12.8429V6.5H8.7002V21.5H11.5288Z" fill="white"/>
</g>
<defs>
<radialGradient id="paint0_radial_332_15908" cx="0" cy="0" r="1" gradientUnits="userSpaceOnUse" gradientTransform="translate(25.1822 1.71517) rotate(140.17) scale(48.16 58.1147)">
<stop stop-color="#2F80F2"/>
<stop offset="1" stop-color="#A942B5"/>
</radialGradient>
<radialGradient id="paint1_radial_332_15908" cx="0" cy="0" r="1" gradientUnits="userSpaceOnUse" gradientTransform="translate(-0.497123 0.565575) rotate(46.32) scale(44.52 46.6503)">
<stop stop-color="#45F9DE"/>
<stop offset="1" stop-color="#A942B5" stop-opacity="0"/>
</radialGradient>
<radialGradient id="paint2_radial_332_15908" cx="0" cy="0" r="1" gradientUnits="userSpaceOnUse" gradientTransform="translate(28.14 27.7658) rotate(-180) scale(26.88 13.8419)">
<stop stop-color="#E957C5"/>
<stop offset="1" stop-color="#A942B5" stop-opacity="0"/>
</radialGradient>
<radialGradient id="paint3_radial_332_15908" cx="0" cy="0" r="1" gradientUnits="userSpaceOnUse" gradientTransform="translate(14.2508 15.3794) rotate(119.94) scale(16.24 24.347)">
<stop stop-opacity="0.18"/>
<stop offset="1" stop-color="#101010"/>
</radialGradient>
<linearGradient id="paint4_linear_332_15908" x1="23.94" y1="20.3" x2="-2.38" y2="3.78" gradientUnits="userSpaceOnUse">
<stop stop-color="white" stop-opacity="0.18"/>
<stop offset="1" stop-color="white"/>
</linearGradient>
<clipPath id="clip0_332_15908">
<rect width="28" height="28" rx="14" fill="white"/>
</clipPath>
</defs>
</svg>

