<svg xmlns="http://www.w3.org/2000/svg" width="25.947" height="24" viewBox="0 0 25.947 24">
  <path id="Combined_Shape" d="M12.371,24c-.319,0-1.162-.495-2.174-1.858A15.045,15.045,0,0,1,7.82,16.956h9.022a15.293,15.293,0,0,1-2.255,5.191C13.536,23.61,12.7,24,12.371,24Zm-2.237-.146h0a12.014,12.014,0,0,1-9.061-6.9H6.7a18.405,18.405,0,0,0,1.708,4.509,11.077,11.077,0,0,0,1.72,2.387Zm4.622-.176,0,0a16.27,16.27,0,0,0,3.162-6.72h5a12.017,12.017,0,0,1-8.162,6.721Zm9.176-6.24h0c.146-.321.28-.651.4-.982l.2-.619A13.15,13.15,0,0,0,25.11,12,13.018,13.018,0,0,1,23.933,17.438Zm-.57-1.6h-5.2a22.114,22.114,0,0,0,.362-3.979,20.1,20.1,0,0,0-.341-3.692h5.185a12.022,12.022,0,0,1,0,7.67Zm-6.287,0H7.569a20.039,20.039,0,0,1-.348-3.758,21.739,21.739,0,0,1,.348-3.917h9.454a20.216,20.216,0,0,1,.376,3.917,21.359,21.359,0,0,1-.324,3.757Zm-10.615,0H.627a12.041,12.041,0,0,1,0-7.672H6.436A20.687,20.687,0,0,0,6.1,11.858a22.177,22.177,0,0,0,.362,3.978Zm-7.3-6.554h0a13.147,13.147,0,0,1,.47-1.669l-.179.552C-.658,8.531-.755,8.907-.835,9.282ZM22.921,7.047h0l-4.987,0a17.5,17.5,0,0,0-1.676-4.324A11.949,11.949,0,0,0,14.485.263a12.011,12.011,0,0,1,8.436,6.783Zm-6.158,0H7.806a15.3,15.3,0,0,1,2.252-5.223C10.944.564,11.748,0,12.152,0s1.275.587,2.228,1.875a15.614,15.614,0,0,1,2.383,5.171Zm-10.086,0H1.07A12.037,12.037,0,0,1,10.065.156,12.394,12.394,0,0,0,8.4,2.531,18.683,18.683,0,0,0,6.677,7.046Z" transform="translate(0.837)"/>
</svg>
