<?xml version="1.0" encoding="UTF-8"?>
<svg width="16px" height="16px" viewBox="0 0 16 16" version="1.1" xmlns="http://www.w3.org/2000/svg" xmlns:xlink="http://www.w3.org/1999/xlink">
    <!-- Generator: Sketch 61.2 (89653) - https://sketch.com -->
    <title>location</title>
    <desc>Created with Sketch.</desc>
    <g id="location" stroke="none" stroke-width="1" fill="none" fill-rule="evenodd">
        <path d="M8.41168822,4.26325641e-14 C11.9565577,4.26325641e-14 14.8233612,2.94061931 14.8233612,6.56126291 C14.826432,7.99402228 14.3656597,9.38928984 13.5099274,10.5384335 L9.79019459,15.3063752 C9.45882568,15.7309666 8.95028193,15.979165 8.41168822,15.979165 C7.8730945,15.979165 7.36455076,15.7309666 7.03318185,15.3063752 L3.31344899,10.5384335 C2.45771671,9.38928984 1.99694442,7.99402228 2.00001525,6.56126291 C2.00001525,2.94061931 4.86681875,4.26325641e-14 8.41168822,4.26325641e-14 Z M8.41168822,3.58664238 C6.79905919,3.58664238 5.49729841,4.92143292 5.49729841,6.56126291 C5.49729841,8.20012143 6.79905919,9.53491195 8.41168822,9.53491195 C10.0243172,9.53491195 11.326078,8.20012145 11.326078,6.56126291 C11.326078,4.92143291 10.0243172,3.58664238 8.41168822,3.58664238 Z" id="Shape" fill="#000000" fill-rule="nonzero"></path>
    </g>
</svg>