<?xml version="1.0" encoding="UTF-8"?>
<svg width="50px" height="50px" viewBox="0 0 50 50" version="1.1" xmlns="http://www.w3.org/2000/svg" xmlns:xlink="http://www.w3.org/1999/xlink">
    <!-- Generator: Sketch 61.2 (89653) - https://sketch.com -->
    <title>next</title>
    <desc>Created with Sketch.</desc>
    <g id="next" stroke="none" stroke-width="1" fill="none" fill-rule="evenodd">
        <path d="M25,0 C38.8071187,0 50,11.1928813 50,25 C50,38.8071187 38.8071187,50 25,50 C11.1928813,50 0,38.8071187 0,25 C0,11.1928813 11.1928813,0 25,0 Z M25,2 C12.2974508,2 2,12.2974508 2,25 C2,37.7025492 12.2974508,48 25,48 C37.7025492,48 48,37.7025492 48,25 C48,12.2974508 37.7025492,2 25,2 Z M27.3232833,15.300813 L36.6969477,24.2908762 C37.1010174,24.6784101 37.1010174,25.3233966 36.6969477,25.7100271 L27.3223414,34.699187 C26.9041433,35.100271 26.245764,35.100271 25.8275659,34.699187 C25.4234962,34.3116531 25.4234962,33.6666667 25.8275659,33.2800361 L33.4069346,26.0108401 L14.046437,26.0108401 C13.4634087,26.0108401 13,25.5663957 13,25.0072267 C13,24.4480578 13.4634087,23.9891599 14.046437,23.9891599 L33.4078765,23.9891599 L25.8285078,16.7344173 C25.4244381,16.3333333 25.4244381,15.6874435 25.8285078,15.300813 C26.2467058,14.899729 26.9050852,14.899729 27.3232833,15.300813 Z" id="Combined-Shape" fill="#000000" fill-rule="nonzero"></path>
    </g>
</svg>