<?xml version="1.0" encoding="UTF-8"?>
<svg width="40px" height="40px" viewBox="0 0 40 40" version="1.1" xmlns="http://www.w3.org/2000/svg" xmlns:xlink="http://www.w3.org/1999/xlink">
    <!-- Generator: Sketch 61.2 (89653) - https://sketch.com -->
    <title>reliable</title>
    <desc>Created with Sketch.</desc>
    <g id="reliable" stroke="none" stroke-width="1" fill="none" fill-rule="evenodd">
        <path d="M20,0 C31.04,0 40,8.96 40,20 C40,31.04 31.04,40 20,40 C8.96,40 0,31.04 0,20 C0,8.96 8.96,0 20,0 Z M14.4194079,11.5637149 C13.65625,10.812095 12.4638158,10.812095 11.7006579,11.5637149 L11.7006579,11.5637149 L6.07236842,17.1069114 C5.30921053,17.8585313 5.30921053,19.0329374 6.07236842,19.7845572 L6.07236842,19.7845572 L11.4621711,25.1398488 L18.8075658,32.3272138 C19.3322368,32.8909287 20.2384868,32.8909287 20.8108553,32.3272138 L20.8108553,32.3272138 L22.0986842,31.0588553 L16.2796053,25.3277538 C16.0888158,25.1398488 16.0888158,24.8579914 16.2796053,24.6700864 C16.4703947,24.4821814 16.7565789,24.4821814 16.9473684,24.6700864 L16.9473684,24.6700864 L22.8141447,30.4011879 L25.1513158,28.0993521 L18.9983553,22.0394168 C18.8075658,21.8515119 18.8075658,21.5696544 18.9983553,21.3817495 C19.1891447,21.1938445 19.4753289,21.1938445 19.6661184,21.3817495 L19.6661184,21.3817495 L25.8190789,27.4416847 L28.15625,25.1398488 L19.8092105,16.9190065 Z M28.3210227,11.5723684 C27.5605332,10.8092105 26.3722684,10.8092105 25.6117788,11.5723684 L25.6117788,11.5723684 L20.90625,16.2944079 L29.224104,24.59375 L33.9296329,19.8717105 C34.6901224,19.15625 34.6901224,17.9638158 33.9296329,17.2006579 L33.9296329,17.2006579 Z" id="Combined-Shape" fill="#FFF" fill-rule="nonzero"></path>
    </g>
</svg>