<?xml version="1.0" encoding="UTF-8"?>
<svg width="40px" height="40px" viewBox="0 0 40 40" version="1.1" xmlns="http://www.w3.org/2000/svg" xmlns:xlink="http://www.w3.org/1999/xlink">
    <!-- Generator: Sketch 61.2 (89653) - https://sketch.com -->
    <title>reward</title>
    <desc>Created with Sketch.</desc>
    <g id="reward" stroke="none" stroke-width="1" fill="none" fill-rule="evenodd">
        <path d="M39.1849415,1.41447368 L39.1849415,1.4378655 C39.1849415,1.60160819 39.1381579,1.76535088 39.0913743,1.92909357 L38.9510234,2.20979532 L33.0562865,13.3910819 L32.8457602,13.7887427 C32.5884503,14.1162281 32.1907895,14.3267544 31.746345,14.3267544 C31.5124269,14.3267544 31.2785088,14.2565789 31.0913743,14.1630117 C31.0211988,14.1396199 30.9510234,14.0928363 30.9042398,14.0460526 C30.880848,14.0460526 30.880848,14.0226608 30.880848,14.0226608 C30.8574561,13.999269 30.8106725,13.9524854 30.7638889,13.9290936 C29.126462,12.4788012 27.1849415,11.379386 25.1030702,10.6776316 C24.9861111,10.630848 24.8457602,10.6074561 24.7054094,10.5606725 C24.6820175,10.5606725 24.6820175,10.5372807 24.6586257,10.5372807 C24.5884503,10.4904971 24.494883,10.4437135 24.4247076,10.3969298 L24.2141813,10.1864035 L24.2141813,10.1630117 L24.1907895,10.1396199 L24.003655,9.78874269 L24.003655,9.76535088 L21.6176901,5.36769006 L21.6176901,5.34429825 L21.4071637,4.97002924 C21.3603801,4.82967836 21.3369883,4.66593567 21.3369883,4.50219298 C21.3369883,4.24488304 21.4071637,4.01096491 21.5241228,3.82383041 C21.5475146,3.8004386 21.5475146,3.75365497 21.5942982,3.73026316 L23.1849415,0.923245614 L23.1849415,0.899853801 L23.4188596,0.502192982 L23.6059942,0.31505848 L23.629386,0.291666667 C23.6761696,0.244883041 23.746345,0.198099415 23.8165205,0.174707602 C23.9334795,0.104532164 24.0504386,0.057748538 24.1907895,0.0343567251 C24.2375731,0.0109649123 24.2843567,0.0109649123 24.3311404,0.0109649123 L38.0387427,0.0109649123 C38.0621345,0.0109649123 38.1089181,0.0109649123 38.1323099,0.0343567251 C38.1557018,0.0343567251 38.1557018,0.0343567251 38.1790936,0.057748538 C38.3428363,0.104532164 38.5065789,0.151315789 38.623538,0.244883041 C38.6469298,0.244883041 38.6469298,0.268274854 38.6469298,0.268274854 C38.880848,0.432017544 39.0445906,0.64254386 39.1381579,0.899853801 C39.1381579,1.06359649 39.1849415,1.25073099 39.1849415,1.41447368 L39.1849415,1.41447368 Z M20.7755848,8.5255848 L20.7755848,8.54897661 C20.752193,9.32090643 20.1440058,9.92909357 19.372076,9.92909357 L19.3252924,9.92909357 C15.7229532,10.0928363 12.2843567,11.4729532 9.59429825,13.8355263 C9.52412281,13.9057018 9.45394737,13.9524854 9.36038012,14.0226608 C9.12646199,14.1630117 8.86915205,14.2565789 8.58845029,14.2565789 C8.35453216,14.2565789 8.12061404,14.1864035 7.93347953,14.0928363 C7.86330409,14.0460526 7.76973684,13.999269 7.6995614,13.9524854 C7.60599415,13.8823099 7.5124269,13.7887427 7.46564327,13.6951754 L7.30190058,13.3910819 L7.30190058,13.3676901 L1.31359649,2.25657895 L1.31359649,2.23318713 L1.10307018,1.85891813 C1.05628655,1.71856725 1.03289474,1.55482456 1.03289474,1.39108187 C1.03289474,1.06359649 1.1498538,0.759502924 1.3369883,0.502192982 L1.52412281,0.31505848 L1.54751462,0.291666667 C1.71125731,0.174707602 1.89839181,0.0811403509 2.08552632,0.0343567251 L15.9802632,0.0343567251 C16.1673977,0.0811403509 16.3311404,0.151315789 16.4714912,0.244883041 C16.494883,0.244883041 16.494883,0.268274854 16.494883,0.268274854 C16.6586257,0.385233918 16.7755848,0.502192982 16.869152,0.665935673 L16.9861111,0.899853801 L20.4714912,7.61330409 L20.494883,7.63669591 L20.494883,7.66008772 L20.5416667,7.75365497 L20.6586257,7.9875731 L20.6586257,8.01096491 L20.6820175,8.05774854 L20.7054094,8.08114035 C20.752193,8.22149123 20.7755848,8.36184211 20.7755848,8.5255848 L20.7755848,8.5255848 Z M20.0972222,11.9173977 C12.3545322,11.9173977 6.0621345,18.2097953 6.0621345,25.9524854 C6.0621345,33.6951754 12.3545322,39.9875731 20.0972222,39.9875731 C27.8399123,39.9875731 34.1323099,33.6951754 34.1323099,25.9524854 C34.1323099,18.1864035 27.8399123,11.9173977 20.0972222,11.9173977 Z M25.3135965,33.4612573 L20.0972222,30.7010234 L14.880848,33.4378655 L15.8866959,27.6133041 L11.6527778,23.5197368 L17.500731,22.6776316 L20.0972222,17.3910819 L22.7171053,22.6776316 L28.5650585,23.5197368 L24.3311404,27.6366959 L25.3135965,33.4612573 Z" id="Shape" fill="#FFF" fill-rule="nonzero" transform="translate(20.108918, 19.999269) rotate(-180.000000) translate(-20.108918, -19.999269) "></path>
    </g>
</svg>