<?xml version="1.0" encoding="UTF-8"?>
<svg width="40px" height="40px" viewBox="0 0 40 40" version="1.1" xmlns="http://www.w3.org/2000/svg" xmlns:xlink="http://www.w3.org/1999/xlink">
    <!-- Generator: Sketch 61.2 (89653) - https://sketch.com -->
    <title>secure</title>
    <desc>Created with Sketch.</desc>
    <g id="secure" stroke="none" stroke-width="1" fill="none" fill-rule="evenodd">
        <path d="M20.2424192,0 C21.0913847,0 21.8617295,0.266896562 22.4982813,0.773103437 L26.1879364,3.38689656 C27.517055,4.33281565 28.9625197,5.10352926 30.4886261,5.68 L33.9396606,6.96 C36.0637985,7.62758621 37.4969019,9.49310344 37.4969019,11.6 L37.4969019,19.7331034 C37.4969019,25.5468965 34.470695,31.0931034 29.4003502,34.56 L22.4720743,39.3068966 C22.4720743,39.3068966 22.4451778,39.3068966 22.4451778,39.3331034 C21.8010122,39.7640294 21.044319,39.9959541 20.2693157,40 C19.4989709,40 18.7293157,39.76 18.0651778,39.3331034 C18.0651778,39.3331034 18.0389709,39.3331034 18.0389709,39.3068966 L11.110695,34.56 C6.04035021,31.0931034 3.01414333,25.5462069 3.01414333,19.7331034 L3.01414333,11.6275862 C3.01414333,9.52068965 4.44793642,7.68068965 6.54517778,6.98758621 L10.0224192,5.68068965 C11.6410399,5.06689656 13.0486261,4.32068965 14.3224192,3.38758621 L17.9858675,0.773793086 C18.6231088,0.266896562 19.3934536,0 20.2424192,0 Z M29.1210399,13.8390805 C28.7244881,13.8390805 28.3451778,13.9977012 28.0693157,14.2804598 L19.150695,23.4128736 L13.8237985,18.0390805 C13.5451331,17.759211 13.1663291,17.6020793 12.7713847,17.6025287 C12.3766793,17.602263 11.9981573,17.7593806 11.7196606,18.0390805 C11.1469569,18.6286424 11.1469569,19.5667599 11.7196606,20.1563218 L18.0210399,26.5101149 C18.3162123,26.8094253 18.7286261,26.9652874 19.150695,26.9390805 C19.5713463,26.9661026 19.9830909,26.8096548 20.2796606,26.5101149 L30.172764,16.3928736 C30.742793,15.8038337 30.742793,14.86881 30.172764,14.2797701 L30.172764,14.2804598 C29.8969019,13.9977011 29.5175916,13.8390805 29.1210399,13.8390805 Z" id="Combined-Shape" fill="#FFF" fill-rule="nonzero"></path>
    </g>
</svg>