<svg viewBox="0 0 48 48" fill="none" xmlns="http://www.w3.org/2000/svg">
<rect width="48" height="48" rx="24" fill="#14161E"/>
<g clip-path="url(#clip0_1995_21379)">
<path d="M24.1534 33.2446C24.3652 33.2446 24.5368 33.4137 24.5368 33.6223C24.5368 33.8309 24.3652 34 24.1534 34C23.9416 34 23.7699 33.8309 23.7699 33.6223C23.7699 33.4137 23.9416 33.2446 24.1534 33.2446ZM23.7368 15.2029C23.9242 15.2183 24.0756 15.3597 24.1009 15.5431L24.557 18.8432C24.7102 19.9334 26.0307 20.4058 26.8459 19.6649L31.4158 15.523C31.5261 15.4231 31.6978 15.43 31.7993 15.5385C31.8925 15.638 31.8953 15.7903 31.8058 15.8931L27.8208 20.4706C27.0871 21.3117 27.6285 22.6253 28.7468 22.7191L32.263 23.0566C32.4381 23.0734 32.5662 23.2267 32.5491 23.3989C32.535 23.541 32.4251 23.6558 32.2817 23.6781L28.5871 24.2526C27.5143 24.3982 27.0285 25.6631 27.7262 26.485L29.0252 28.0098C29.1298 28.1326 29.1134 28.3156 28.9885 28.4186C28.8827 28.5058 28.7296 28.5093 28.6199 28.4268L27.0187 27.2226C26.1546 26.5756 24.9092 27.1255 24.8179 28.1964L24.465 32.3729C24.4504 32.5454 24.2965 32.6737 24.1211 32.6593C23.9723 32.6472 23.852 32.5349 23.8319 32.3893L23.2724 28.3549C23.1224 27.2647 21.8018 26.7923 20.9834 27.5332L16.1219 31.9412C16.0213 32.0324 15.8645 32.0262 15.7718 31.9272C15.6867 31.8363 15.6841 31.6972 15.7658 31.6034L20.0086 26.7276C20.7422 25.8864 20.2042 24.5729 19.0858 24.4791L15.5689 24.1415C15.3937 24.1247 15.2656 23.9714 15.2827 23.7991C15.2968 23.657 15.4067 23.5422 15.55 23.5199L19.2423 22.9455C20.3151 22.7999 20.8042 21.535 20.1064 20.7132L19.2222 19.6753C19.0925 19.5229 19.1128 19.2959 19.2676 19.1683C19.3988 19.0601 19.5888 19.0559 19.7248 19.1582L20.8106 19.9756C21.6747 20.6226 22.9202 20.0726 23.0115 19.0017L23.3036 15.5634C23.3221 15.3462 23.516 15.1848 23.7368 15.2029ZM14.3835 23.4131C14.5953 23.4131 14.767 23.5822 14.767 23.7908C14.767 23.9994 14.5953 24.1685 14.3835 24.1685C14.1717 24.1685 14 23.9994 14 23.7908C14 23.5822 14.1717 23.4131 14.3835 23.4131ZM33.6165 23.0296C33.8283 23.0296 34 23.1987 34 23.4073C34 23.6159 33.8283 23.785 33.6165 23.785C33.4048 23.785 33.233 23.6159 33.233 23.4073C33.233 23.1987 33.4048 23.0296 33.6165 23.0296ZM23.6814 14C23.8932 14 24.0649 14.1691 24.0649 14.3777C24.0649 14.5863 23.8932 14.7554 23.6814 14.7554C23.4697 14.7554 23.2979 14.5863 23.2979 14.3777C23.2979 14.1691 23.4697 14 23.6814 14Z" fill="white"/>
</g>
<defs>
<clipPath id="clip0_1995_21379">
<rect width="20" height="20" fill="white" transform="translate(14 14)"/>
</clipPath>
</defs>
</svg>
