<svg viewBox="0 0 24 24" fill="none" xmlns="http://www.w3.org/2000/svg">
<g clip-path="url(#clip0_2032_22571)">
<path d="M21.2039 11.75C21.2039 16.831 17.0849 20.95 12.0039 20.95C6.92289 20.95 2.80391 16.831 2.80391 11.75C2.80391 6.66898 6.92289 2.55 12.0039 2.55C17.0849 2.55 21.2039 6.66898 21.2039 11.75Z" stroke="#AFAFAF" stroke-width="1.6" stroke-linecap="round" stroke-linejoin="round"/>
<path d="M12.003 17C11.75 17.0004 11.4995 16.9507 11.2658 16.8538C11.0322 16.757 10.82 16.6148 10.6415 16.4356L7.56744 13.3653C7.38816 13.1861 7.24595 12.9734 7.14892 12.7392C7.05189 12.505 7.00195 12.254 7.00195 12.0005C7.00195 11.747 7.05189 11.496 7.14892 11.2619C7.24595 11.0277 7.38816 10.8149 7.56744 10.6357L10.6415 7.56549C10.8207 7.38621 11.0335 7.244 11.2677 7.14697C11.5018 7.04994 11.7528 7 12.0063 7C12.2598 7 12.5108 7.04994 12.745 7.14697C12.9792 7.244 13.1919 7.38621 13.3711 7.56549L16.4375 10.6396C16.6168 10.8188 16.759 11.0315 16.856 11.2657C16.9531 11.4999 17.003 11.7509 17.003 12.0044C17.003 12.2579 16.9531 12.5089 16.856 12.743C16.759 12.9772 16.6168 13.19 16.4375 13.3692L13.3673 16.4356C13.1885 16.6151 12.9758 16.7575 12.7416 16.8544C12.5075 16.9513 12.2564 17.0008 12.003 17ZM12.0194 8.94525L8.94817 12.0164L12.0184 15.0867L15.0886 12.0164L12.0184 8.94622L12.0194 8.94525Z" fill="#AFAFAF"/>
</g>
<defs>
<clipPath id="clip0_2032_22571">
<rect width="24" height="24" fill="white"/>
</clipPath>
</defs>
</svg>

