<svg width="24" height="25" viewBox="0 0 24 25" fill="none" xmlns="http://www.w3.org/2000/svg">
<g id="Component 4/7">
<mask id="mask0_1849_8831" style="mask-type:alpha" maskUnits="userSpaceOnUse" x="0" y="0" width="24" height="25">
<rect id="Bounding box" y="0.359375" width="24" height="24" fill="#AFAFAF"/>
</mask>
<g mask="url(#mask0_1849_8831)">
<path id="approval_delegation" d="M12.925 11.4096L8.675 7.15957L10.1 5.75957L12.925 8.58457L18.6 2.93457L20 4.33457L12.925 11.4096ZM14 22.8596L7 20.9096V22.3596H1V11.3596H8.95L15.15 13.6596C15.7 13.8596 16.1458 14.2096 16.4875 14.7096C16.8292 15.2096 17 15.7596 17 16.3596H19C19.8333 16.3596 20.5417 16.6346 21.125 17.1846C21.7083 17.7346 22 18.4596 22 19.3596V20.3596L14 22.8596ZM3 20.3596H5V13.3596H3V20.3596ZM13.95 20.7596L19.9 18.9096C19.85 18.7262 19.7375 18.5887 19.5625 18.4971C19.3875 18.4054 19.2 18.3596 19 18.3596H14.2C13.6833 18.3596 13.2167 18.3262 12.8 18.2596C12.3833 18.1929 11.9333 18.0762 11.45 17.9096L9.725 17.3096L10.3 15.4096L12.3 16.0596C12.6 16.1596 12.95 16.2346 13.35 16.2846C13.75 16.3346 14.3 16.3596 15 16.3596C15 16.1762 14.9458 16.0012 14.8375 15.8346C14.7292 15.6679 14.6 15.5596 14.45 15.5096L8.6 13.3596H7V18.8596L13.95 20.7596Z" fill="white"/>
</g>
</g>
</svg>
