<svg width="25" height="25" viewBox="0 0 25 25" fill="none" xmlns="http://www.w3.org/2000/svg">
<g id="icon">
<path id="&#240;&#159;&#146;&#156; Icon/Bold/Vector (Stroke)" fill-rule="evenodd" clip-rule="evenodd" d="M4.25 7.73438V19.2344H20.25V7.73438H4.25ZM2.25 7.48438C2.25 6.51788 3.0335 5.73438 4 5.73438H20.5C21.4665 5.73438 22.25 6.51788 22.25 7.48438V19.4844C22.25 20.4509 21.4665 21.2344 20.5 21.2344H4C3.0335 21.2344 2.25 20.4509 2.25 19.4844V7.48438Z" fill="#AFAFAF"/>
<path id="&#240;&#159;&#146;&#156; Icon/Bold/Vector (Stroke)_2" fill-rule="evenodd" clip-rule="evenodd" d="M8.23223 3.09161C8.70107 2.62277 9.33696 2.35938 10 2.35938H14.5C15.163 2.35938 15.7989 2.62277 16.2678 3.09161C16.7366 3.56045 17 4.19633 17 4.85938V6.73438C17 7.28666 16.5523 7.73438 16 7.73438C15.4477 7.73438 15 7.28666 15 6.73438V4.85938C15 4.72677 14.9473 4.59959 14.8536 4.50582C14.7598 4.41205 14.6326 4.35938 14.5 4.35938H10C9.86739 4.35938 9.74022 4.41205 9.64645 4.50582C9.55268 4.59959 9.5 4.72677 9.5 4.85938V6.73438C9.5 7.28666 9.05228 7.73438 8.5 7.73438C7.94772 7.73438 7.5 7.28666 7.5 6.73438V4.85938C7.5 4.19633 7.76339 3.56045 8.23223 3.09161Z" fill="#AFAFAF"/>
<path id="&#240;&#159;&#146;&#156; Icon/Bold/Vector (Stroke)_3" fill-rule="evenodd" clip-rule="evenodd" d="M22.1158 11.3244C22.3923 11.8024 22.2289 12.4142 21.7508 12.6907C18.8635 14.3605 15.5863 15.238 12.2509 15.2344C8.91392 15.2427 5.63461 14.3647 2.7483 12.6899C2.2706 12.4128 2.10805 11.8008 2.38522 11.3231C2.66239 10.8454 3.27433 10.6829 3.75203 10.96C6.33244 12.4573 9.26426 13.2421 12.2476 13.2344L12.2514 13.2344C15.235 13.2379 18.1667 12.4531 20.7495 10.9593C21.2276 10.6828 21.8393 10.8463 22.1158 11.3244Z" fill="#AFAFAF"/>
<path id="&#240;&#159;&#146;&#156; Icon/Bold/Vector (Stroke)_4" fill-rule="evenodd" clip-rule="evenodd" d="M10.125 10.8594C10.125 10.3071 10.5727 9.85938 11.125 9.85938H13.375C13.9273 9.85938 14.375 10.3071 14.375 10.8594C14.375 11.4117 13.9273 11.8594 13.375 11.8594H11.125C10.5727 11.8594 10.125 11.4117 10.125 10.8594Z" fill="#AFAFAF"/>
</g>
</svg>
