<svg width="17" height="16" viewBox="0 0 17 16" fill="none" xmlns="http://www.w3.org/2000/svg">
<g id="Options/24">
<path id="Vector" d="M7.90673 3.03344C8.28055 2.31667 9.30624 2.31666 9.68005 3.03344L10.8436 5.26447C10.9934 5.55172 11.2731 5.74859 11.594 5.79273L14.1012 6.13748C14.9385 6.25261 15.2642 7.29014 14.643 7.86319L12.9011 9.46998C12.6495 9.70203 12.5341 10.0466 12.5951 10.3834L13.0159 12.705C13.1626 13.5146 12.3232 14.1452 11.5865 13.7786L9.23882 12.6106C8.95827 12.4711 8.62852 12.4711 8.34797 12.6106L6.0003 13.7786C5.26357 14.1452 4.42416 13.5146 4.5709 12.705L4.99168 10.3834C5.05272 10.0466 4.9373 9.70203 4.68573 9.46998L2.94383 7.8632C2.32258 7.29014 2.64832 6.25261 3.48563 6.13748L5.99275 5.79273C6.3137 5.74859 6.59338 5.55172 6.74319 5.26447L7.90673 3.03344Z" fill="url(#paint0_linear_40_3470)"/>
</g>
<defs>
<linearGradient id="paint0_linear_40_3470" x1="16.2008" y1="14.6666" x2="-1.11257" y2="9.08903" gradientUnits="userSpaceOnUse">
<stop stop-color="#EE3131"/>
<stop offset="1" stop-color="#FF426B"/>
</linearGradient>
</defs>
</svg>
