<svg xmlns="http://www.w3.org/2000/svg" width="1349.087" height="1423.057" viewBox="0 0 1349.087 1423.057">
  <g id="Group_19509" data-name="Group 19509" transform="translate(610.271 1080.007) rotate(-45)" opacity="0.495">
    <g id="Group_19391" data-name="Group 19391" transform="translate(117.554 -611.736)" opacity="0.3">
      <path id="Path_40511" data-name="Path 40511" d="M-34.65,585.875a6.561,6.561,0,0,1,.952-4.493l-100.02-72.758a6.556,6.556,0,0,1-3.484,2.186l16.725,93.671Z" transform="translate(605.935 -251.029)" fill="none"/>
      <path id="Path_40512" data-name="Path 40512" d="M-340.134,628.451l101.359-21.974-16.731-93.707a6.553,6.553,0,0,1-4.252-.978l-82.5,113.408A6.549,6.549,0,0,1-340.134,628.451Z" transform="translate(723.397 -252.845)" fill="none"/>
      <path id="Path_40513" data-name="Path 40513" d="M-47.459,962.772a6.552,6.552,0,0,1,1.762-1.658l-61.12-109.9a6.611,6.611,0,0,1-4.234.48l-21.034,72.9,84.171,38.9A6.656,6.656,0,0,1-47.459,962.772Z" transform="translate(603.004 -447.28)" fill="none"/>
      <path id="Path_40514" data-name="Path 40514" d="M-4.995,433.03l-120.966,27.063a6.59,6.59,0,0,1-.23,3l105.818,41.175Z" transform="translate(599.628 -207.727)" fill="none"/>
      <path id="Path_40515" data-name="Path 40515" d="M-7.075,920.4,5.555,781.971l-73.9,22.148a6.568,6.568,0,0,1-1.087,5.353,6.567,6.567,0,0,1-1.762,1.658l61.12,109.9A6.62,6.62,0,0,1-7.075,920.4Z" transform="translate(568.121 -407.613)" fill="none"/>
      <path id="Path_40516" data-name="Path 40516" d="M-21.518,546.507l-105.943-41.224a6.6,6.6,0,0,1-.409.736L-28.4,578.379Z" transform="translate(600.59 -249.116)" fill="none"/>
      <path id="Path_40517" data-name="Path 40517" d="M-596.787,503.24c-.094.13-.2.249-.3.37l100.624,114.306a6.594,6.594,0,0,1,4.184-1.369l10.512-117.093-113.766-.106A6.551,6.551,0,0,1-596.787,503.24Z" transform="translate(869.374 -245.716)" fill="none"/>
      <path id="Path_40518" data-name="Path 40518" d="M-267.1,499.666l-72.118-.067-10.518,117.17a6.552,6.552,0,0,1,2.5.944l82.5-113.409A6.573,6.573,0,0,1-267.1,499.666Z" transform="translate(727.683 -245.86)" fill="none"/>
      <path id="Path_40519" data-name="Path 40519" d="M-716.2,227.079-740,253.916l-26.462,29.846a6.572,6.572,0,0,1,1.6.849A6.555,6.555,0,0,1-763,286.717l56.563-8.465-5.536-49.8a6.554,6.554,0,0,1-4.084-1.251C-716.1,227.163-716.151,227.119-716.2,227.079Z" transform="translate(966.396 -89.751)" fill="none"/>
      <path id="Path_40520" data-name="Path 40520" d="M-252.886,391.781a6.553,6.553,0,0,1,1.24-3.443,6.643,6.643,0,0,1,.766-.871l-63.006-74.712a6.6,6.6,0,0,1-4.075,1.283l-6.973,77.676Z" transform="translate(713.475 -138.829)" fill="none"/>
      <path id="Path_40521" data-name="Path 40521" d="M-503.066,254.857a6.586,6.586,0,0,1,.092-1.772l-128.768-33.107a6.58,6.58,0,0,1-.891,1.7,6.567,6.567,0,0,1-4.27,2.626l5.53,49.75Z" transform="translate(892.182 -85.683)" fill="none"/>
      <path id="Path_40522" data-name="Path 40522" d="M-695.726,406.626l-6.42-57.761-56.274,8.422a6.577,6.577,0,0,1-.72,6.175l59.592,44.994A6.566,6.566,0,0,1-695.726,406.626Z" transform="translate(962.205 -159.514)" fill="none"/>
      <path id="Path_40523" data-name="Path 40523" d="M-745.409,429.569l-59.55-44.962a6.589,6.589,0,0,1-6.684,1.9l-26.558,74.3,91.529-25.8a6.565,6.565,0,0,1,1.109-5.247C-745.515,429.693-745.46,429.634-745.409,429.569Z" transform="translate(1007.494 -179.989)" fill="none"/>
      <path id="Path_40524" data-name="Path 40524" d="M-595.7,387.268a6.591,6.591,0,0,1,.9,2.564l113.9.106,6.98-77.753a6.55,6.55,0,0,1-2.863-1.178,6.587,6.587,0,0,1-1.375-1.349l-81.6,53.876Z" transform="translate(868.578 -137.055)" fill="none"/>
      <path id="Path_40525" data-name="Path 40525" d="M-617.307,380.654a6.556,6.556,0,0,1,3.8,1.255,6.589,6.589,0,0,1,1.25,1.2l111.042-73.317,6.531-4.312a6.6,6.6,0,0,1-.714-1.87l-128.34,19.206Z" transform="translate(884.64 -133.589)" fill="none"/>
      <path id="Path_40526" data-name="Path 40526" d="M-769.182,177.138l-6.252,77.794a6.6,6.6,0,0,1,2.926-.042l21-23.683,29.526-33.3a6.592,6.592,0,0,1-1.754-6.123Z" transform="translate(971.538 -61.143)" fill="none"/>
      <path id="Path_40527" data-name="Path 40527" d="M201.429,705.662,93.556,737.994,80.894,876.764a6.537,6.537,0,0,1,2.431.9L203.385,708.49A6.547,6.547,0,0,1,201.429,705.662Z" transform="translate(481.002 -363.901)" fill="none"/>
      <path id="Path_40528" data-name="Path 40528" d="M-215.342,1057.234l17.435-60.432-44.047-20.359a6.638,6.638,0,0,1-.455.732,6.545,6.545,0,0,1-2.794,2.2l26.722,77.938A6.61,6.61,0,0,1-215.342,1057.234Z" transform="translate(667.802 -519.014)" fill="none"/>
      <path id="Path_40529" data-name="Path 40529" d="M-155.978,1024.952l-17.4,60.307a6.587,6.587,0,0,1,1.644.868,6.554,6.554,0,0,1,2.429,3.439l97.019-22.337a6.581,6.581,0,0,1,.36-3.427Z" transform="translate(626.658 -546.802)" fill="none"/>
      <path id="Path_40530" data-name="Path 40530" d="M209.835,714.368a6.541,6.541,0,0,1-1.4-.633l-.312.083L88.214,882.785a6.556,6.556,0,0,1,2.324,3.91l78.826-9.343Z" transform="translate(476.809 -368.525)" fill="none"/>
      <path id="Path_40531" data-name="Path 40531" d="M226.029,545.045a6.516,6.516,0,0,1,1.49-2.047L138.778,433.959l-15.36,71.159Z" transform="translate(456.643 -208.259)" fill="none"/>
      <path id="Path_40532" data-name="Path 40532" d="M113.843,602.524l-6.821,31.6a6.577,6.577,0,0,1,11.324,4.47l97.726,4.958a6.544,6.544,0,0,1,.257-1.15Z" transform="translate(466.035 -304.819)" fill="none"/>
      <path id="Path_40533" data-name="Path 40533" d="M88.231,1127.494l24.906,35,47.555-33.2a6.6,6.6,0,0,1-.944-3.266L90.621,1123.1a6.5,6.5,0,0,1-2.39,4.4Z" transform="translate(476.799 -603.022)" fill="none"/>
      <path id="Path_40534" data-name="Path 40534" d="M-336.858,757.389a6.619,6.619,0,0,1,.031,1.7l103.487,18.281a6.568,6.568,0,0,1,1.071-2.312,6.55,6.55,0,0,1,3.382-2.411l-6.645-37.221Z" transform="translate(720.306 -380.949)" fill="none"/>
      <path id="Path_40535" data-name="Path 40535" d="M-342.029,795.129a6.556,6.556,0,0,1-1.786,1.674l23.577,42.835,82.917-26.242a6.609,6.609,0,0,1-.179-1.954l-103.464-18.605A6.564,6.564,0,0,1-342.029,795.129Z" transform="translate(724.291 -413.838)" fill="none"/>
      <path id="Path_40536" data-name="Path 40536" d="M-268.168,891.457a6.6,6.6,0,0,1,.875.771l63.533-47.48a6.554,6.554,0,0,1-1.12-1.875l-82.756,26.192,12.161,22.094A6.59,6.59,0,0,1-268.168,891.457Z" transform="translate(692.109 -442.5)" fill="none"/>
      <path id="Path_40537" data-name="Path 40537" d="M217.765,693.9l-97.333-4.937a6.577,6.577,0,0,1-6.714,5.825l-2.985,32.722L218.3,695.273a6.609,6.609,0,0,1-.145-1.351Z" transform="translate(463.909 -354.337)" fill="none"/>
      <path id="Path_40538" data-name="Path 40538" d="M-66.633,753.49a6.558,6.558,0,0,1,.661,1.3L8.249,732.546l3.017-33.066a6.51,6.51,0,0,1-3.95-2.189Z" transform="translate(565.511 -359.105)" fill="none"/>
      <path id="Path_40539" data-name="Path 40539" d="M-97.7,710.037l6.642,37.2a6.565,6.565,0,0,1,4.991,1.162,6.608,6.608,0,0,1,1.1,1.015L-11,693.246a6.581,6.581,0,0,1-.84-1.823Z" transform="translate(583.306 -355.744)" fill="none"/>
      <path id="Path_40540" data-name="Path 40540" d="M-193.949,922.8l21-72.778a6.585,6.585,0,0,1-1.644-.868,6.738,6.738,0,0,1-.544-.443l-63.573,47.51a6.6,6.6,0,0,1,.836,6.275Z" transform="translate(664.085 -445.847)" fill="none"/>
      <path id="Path_40541" data-name="Path 40541" d="M-10.274,1215.954a6.589,6.589,0,0,1,6.621-1.929l26.5-66.9Z" transform="translate(533.226 -616.786)" fill="none"/>
      <path id="Path_40542" data-name="Path 40542" d="M-64.638,1316.1l-37.726,78.408,40.4-71.974c-.018-.012-.036-.022-.053-.035A6.583,6.583,0,0,1-64.638,1316.1Z" transform="translate(585.979 -713.582)" fill="none"/>
      <path id="Path_40543" data-name="Path 40543" d="M14.1,1257.46a6.61,6.61,0,0,1,1.06,3.815l87.059,8.765a6.487,6.487,0,0,1,2.337-4.021L70.464,1218.11Z" transform="translate(519.266 -657.45)" fill="none"/>
      <path id="Path_40544" data-name="Path 40544" d="M-478.464,976.9a6.552,6.552,0,0,1-2.44-3.475l-156.882,35.163a6.567,6.567,0,0,1-1.181,4.9,6.554,6.554,0,0,1-2.249,1.942l75.03,167.219a6.6,6.6,0,0,1,4.6-.15l84.112-205.009A6.631,6.631,0,0,1-478.464,976.9Z" transform="translate(894.652 -517.283)" fill="none"/>
      <path id="Path_40545" data-name="Path 40545" d="M-341.1,1063.951a6.546,6.546,0,0,1,2.794-2.2l-26.722-77.939a6.6,6.6,0,0,1-3.828-.109l-84.113,205.01a6.563,6.563,0,0,1,.981.584c.144.1.279.218.412.333L-340.6,1072.31A6.59,6.59,0,0,1-341.1,1063.951Z" transform="translate(786.816 -523.174)" fill="none"/>
      <path id="Path_40546" data-name="Path 40546" d="M-336.952,1192.759c-.115-.083-.219-.175-.326-.264l-110.988,117.334a6.589,6.589,0,0,1,.426,8.278c-.035.049-.076.092-.112.139l67.375,54.434a6.587,6.587,0,0,1,8.72-.866,6.571,6.571,0,0,1,1.536,1.58l57.542-34.554a6.583,6.583,0,0,1,.439-7.049,6.559,6.559,0,0,1,3.982-2.566l-23.992-135.252A6.559,6.559,0,0,1-336.952,1192.759Z" transform="translate(784.124 -642.776)" fill="none"/>
      <path id="Path_40547" data-name="Path 40547" d="M-70.55,1129.307a6.556,6.556,0,0,1-2.429-3.439L-170,1148.205a6.565,6.565,0,0,1-1.173,4.935,6.56,6.56,0,0,1-3.76,2.52l24,135.274a6.559,6.559,0,0,1,3.192.552l77.835-161.771A6.632,6.632,0,0,1-70.55,1129.307Z" transform="translate(627.548 -604.61)" fill="none"/>
      <path id="Path_40548" data-name="Path 40548" d="M41.074,1134.562a6.6,6.6,0,0,1-5.486.665L7.12,1207.109a6.571,6.571,0,0,1,1.33.743,6.588,6.588,0,0,1,1.139,1.064l56.383-39.361Z" transform="translate(523.263 -609.59)" fill="none"/>
      <path id="Path_40549" data-name="Path 40549" d="M-715.008,52.766a6.585,6.585,0,0,1,.841-1.578,6.553,6.553,0,0,1,2.674-2.149L-750.6-64.117a6.622,6.622,0,0,1-1.843.233l-8.193,101.947Z" transform="translate(963.06 77.057)" fill="none"/>
      <path id="Path_40550" data-name="Path 40550" d="M250.5,542.751a6.585,6.585,0,0,1,10.026,7.565L350.7,526.279a6.575,6.575,0,0,1,.324-3.672L162.369,434.466Z" transform="translate(434.33 -208.55)" fill="none"/>
      <path id="Path_40551" data-name="Path 40551" d="M93.9,1108.147c0,.067,0,.135,0,.2l69.127,2.937a6.57,6.57,0,0,1,7.715-5.772l1.657-6.671Z" transform="translate(473.552 -589.129)" fill="none"/>
      <path id="Path_40552" data-name="Path 40552" d="M195.25,1139.249l-47.555,33.2,34.082,47.9a6.608,6.608,0,0,1,4.123-.946l1.512-9.061,11.477-68.783a6.534,6.534,0,0,1-3.638-2.306Z" transform="translate(442.736 -612.275)" fill="none"/>
      <path id="Path_40553" data-name="Path 40553" d="M320.706,715.183,280.312,877.857l110.341-13.078a6.563,6.563,0,0,1,3.331-6.078L324.351,714.8A6.6,6.6,0,0,1,320.706,715.183Z" transform="translate(366.768 -369.137)" fill="none"/>
      <path id="Path_40554" data-name="Path 40554" d="M275.738,1088.213a6.547,6.547,0,0,1,4.311,4.4l106.638-24.324-109.215,12.945Z" transform="translate(369.388 -571.625)" fill="none"/>
      <path id="Path_40555" data-name="Path 40555" d="M-1166.834,300.343a6.568,6.568,0,0,1-1.043,2.214,6.551,6.551,0,0,1-3.4,2.415l31.461,132.445a6.6,6.6,0,0,1,2.31.022l31.9-125.306Z" transform="translate(1198.289 -131.719)" fill="none"/>
      <path id="Path_40556" data-name="Path 40556" d="M-1162.212,197.487l61.283,11.8,21.739-85.384a6.577,6.577,0,0,1-1.84-.936,6.586,6.586,0,0,1-.818-.714l-81.644,70.441A6.6,6.6,0,0,1-1162.212,197.487Z" transform="translate(1193.831 -29.702)" fill="none"/>
      <path id="Path_40557" data-name="Path 40557" d="M-960.766,347.111l-97.59-18.789-31.916,125.351a6.573,6.573,0,0,1,1.84.936,6.62,6.62,0,0,1,.961.855L-959.6,351.742A6.6,6.6,0,0,1-960.766,347.111Z" transform="translate(1151.889 -147.746)" fill="none"/>
      <path id="Path_40558" data-name="Path 40558" d="M-917.518,229.56a6.56,6.56,0,0,1,1.043-2.214,6.6,6.6,0,0,1,.425-.526l-72.62-102.243a6.606,6.606,0,0,1-4.665.865l-21.728,85.339Z" transform="translate(1108.806 -31.033)" fill="none"/>
      <path id="Path_40559" data-name="Path 40559" d="M-1193.652,166.408l81.644-70.441a6.594,6.594,0,0,1-1.305-4.486l-97.046-13.993a6.55,6.55,0,0,1-1.152,2.722,6.56,6.56,0,0,1-3.649,2.494l15.975,81.789a6.56,6.56,0,0,1,4.716,1.2A6.55,6.55,0,0,1-1193.652,166.408Z" transform="translate(1223.43 -4.06)" fill="none"/>
      <path id="Path_40560" data-name="Path 40560" d="M-879.1,221.947a6.553,6.553,0,0,1,1.846-1.114l6.3-78.345-78.721-25.369a6.585,6.585,0,0,1-.793,1.454,6.584,6.584,0,0,1-1.176,1.232l44.681,62.907Z" transform="translate(1072.482 -26.762)" fill="none"/>
      <path id="Path_40561" data-name="Path 40561" d="M-947.942,10.168l78.527,25.306,8.176-101.744a6.556,6.556,0,0,1-2.924-1.189,6.613,6.613,0,0,1-.812-.708l-84.1,72.748A6.6,6.6,0,0,1-947.942,10.168Z" transform="translate(1071.007 79.378)" fill="none"/>
      <path id="Path_40562" data-name="Path 40562" d="M-752.59,504.576c-.006-.017-.01-.035-.016-.052l-92.108,25.965-4.24,11.864a6.619,6.619,0,0,1,1.262.716,6.553,6.553,0,0,1,1.97,2.3Z" transform="translate(1013.654 -248.681)" fill="none"/>
      <path id="Path_40563" data-name="Path 40563" d="M-952.369,386.279a6.612,6.612,0,0,1-1.262-.716,6.624,6.624,0,0,1-.961-.855l-127.869,103.722a6.562,6.562,0,0,1,.838,1.613l102.491-28.892Z" transform="translate(1147.414 -180.046)" fill="none"/>
      <path id="Path_40564" data-name="Path 40564" d="M-746.674,508.774a6.552,6.552,0,0,1-1.971-2.3l-93.133,40.794a6.581,6.581,0,0,1-.866,6.123c-.01.014-.022.026-.032.04L-678,692.55a6.547,6.547,0,0,1,2.719-1.947l-65.256-180.971A6.581,6.581,0,0,1-746.674,508.774Z" transform="translate(1010.057 -249.797)" fill="none"/>
      <path id="Path_40565" data-name="Path 40565" d="M-498.975,635.013a6.589,6.589,0,0,1-1.452-9.2,6.617,6.617,0,0,1,.668-.771l-84.6-96.1-15.98-18.152a6.53,6.53,0,0,1-1.393.965l65.293,181.072a6.569,6.569,0,0,1,4.866.73l32.874-58.358C-498.788,635.135-498.884,635.08-498.975,635.013Z" transform="translate(872.032 -252.269)" fill="none"/>
      <path id="Path_40566" data-name="Path 40566" d="M-397.27,803.053a6.591,6.591,0,0,1-5.649-.031l-32.91,58.423a6.548,6.548,0,0,1,2.232,3.223l59.82-18.932Z" transform="translate(777 -419.672)" fill="none"/>
      <path id="Path_40567" data-name="Path 40567" d="M-357.8,927.135-370.089,904.8l-60.035,19a6.587,6.587,0,0,1,.083,1.564l69.838,6.063A6.558,6.558,0,0,1-359,928.385,6.575,6.575,0,0,1-357.8,927.135Z" transform="translate(773.732 -477.976)" fill="none"/>
      <path id="Path_40568" data-name="Path 40568" d="M-1079.968,594.7c.011.051.022.1.031.154l89.457-10.888a6.556,6.556,0,0,1,1.249-4.246,6.585,6.585,0,0,1,7.137-2.454l4.037-11.294Z" transform="translate(1145.986 -283.882)" fill="none"/>
      <circle id="Ellipse_319" data-name="Ellipse 319" cx="6.589" cy="6.589" r="6.589" transform="translate(201.959 708.445) rotate(-16.403)" fill="#84ceda"/>
      <path id="Path_40569" data-name="Path 40569" d="M-139.935,1839.009a6.589,6.589,0,0,0-9.2,1.452,6.589,6.589,0,0,0,1.452,9.2,6.589,6.589,0,0,0,9.2-1.452A6.589,6.589,0,0,0-139.935,1839.009Z" transform="translate(613.496 -1012.401)" fill="#84ceda"/>
      <path id="Path_40570" data-name="Path 40570" d="M-439.16,216.712a6.589,6.589,0,0,0-9.2,1.452,6.575,6.575,0,0,0-.443.708l-190.03-88.785.069-.32-.51.114-1.557-.727.74.91-120.95,27.06a6.551,6.551,0,0,0-2.441-3.478,6.59,6.59,0,0,0-7.789.026l-63.006-74.712a6.612,6.612,0,0,0,.766-.871,6.589,6.589,0,0,0-1.452-9.2,6.589,6.589,0,0,0-9.2,1.452,6.571,6.571,0,0,0-.932,1.826l-128.75-33.1a6.586,6.586,0,0,0-2.569-6.677,6.573,6.573,0,0,0-5.727-.988l-39.1-113.147a6.548,6.548,0,0,0,2.78-2.193,6.589,6.589,0,0,0-1.452-9.2,6.589,6.589,0,0,0-9.2,1.452,6.59,6.59,0,0,0,.077,7.854l-84.1,72.748a6.614,6.614,0,0,0-.812-.709,6.589,6.589,0,0,0-9.2,1.452,6.566,6.566,0,0,0-1.115,2.516l-97.065-14a6.581,6.581,0,0,0-2.7-5.633,6.589,6.589,0,0,0-9.2,1.452,6.589,6.589,0,0,0,1.452,9.2,6.559,6.559,0,0,0,4.716,1.2l15.975,81.789a6.559,6.559,0,0,0-3.649,2.494,6.589,6.589,0,0,0,1.452,9.2,6.563,6.563,0,0,0,4.979,1.164l31.461,132.445a6.551,6.551,0,0,0-3.4,2.415,6.589,6.589,0,0,0,1.452,9.2,6.589,6.589,0,0,0,9.2-1.452,6.56,6.56,0,0,0,1.25-4.246l89.457-10.888a6.558,6.558,0,0,0,2.593,4.111,6.586,6.586,0,0,0,8.618-.763L-903,349l.278-.328,0,0a6.589,6.589,0,0,0,1.452,9.2,6.589,6.589,0,0,0,9.2-1.452,6.55,6.55,0,0,0,1.13-2.6l69.9,6.068a6.607,6.607,0,0,0,.073,1l-156.881,35.162a6.552,6.552,0,0,0-2.44-3.475,6.589,6.589,0,0,0-9.2,1.452,6.589,6.589,0,0,0,1.452,9.2,6.582,6.582,0,0,0,6.178.844l75.039,167.237a6.545,6.545,0,0,0-2.07,1.846,6.589,6.589,0,0,0,1.452,9.2,6.585,6.585,0,0,0,8.527-.671l67.4,54.457a6.587,6.587,0,0,0,1.5,9.125,6.589,6.589,0,0,0,9.2-1.452,6.583,6.583,0,0,0,.524-6.892l57.557-34.562a6.589,6.589,0,0,0,1.437,1.431,6.589,6.589,0,0,0,9.2-1.452,6.589,6.589,0,0,0-1.452-9.2c-.028-.021-.058-.036-.086-.056l43.84-78.105a6.585,6.585,0,0,0,8.422-1.933,6.557,6.557,0,0,0,1.165-2.791l87.06,8.765a6.582,6.582,0,0,0,2.71,5.562,6.589,6.589,0,0,0,9.2-1.452,6.589,6.589,0,0,0-1.452-9.2,6.57,6.57,0,0,0-2.372-1.088L-592.05,435a6.581,6.581,0,0,0,5.988-2.674,6.569,6.569,0,0,0,1.176-4.922l108.057-24.648a6.552,6.552,0,0,0,2.433,3.451,6.589,6.589,0,0,0,9.2-1.452,6.589,6.589,0,0,0-1.452-9.2,6.58,6.58,0,0,0-6.353-.771l-69.633-143.9a6.553,6.553,0,0,0,2.082-1.852,6.642,6.642,0,0,0,.425-.673l90.849-24.215a6.552,6.552,0,0,0,2.363,3.223,6.588,6.588,0,0,0,9.2-1.452A6.589,6.589,0,0,0-439.16,216.712ZM-639.1,131.29l88.741,109.039a6.578,6.578,0,0,0-.847.953,6.584,6.584,0,0,0-.643,1.094l-102.611-39.927Zm-28.074,292.471a6.557,6.557,0,0,0-2.324-3.91l119.912-168.967.312-.083a6.542,6.542,0,0,0,1.4.633l-40.471,162.985Zm.073,1.9,69.127,2.937a6.6,6.6,0,0,0,.944,3.266l-47.555,33.2-24.906-35a6.566,6.566,0,0,0,1.172-1.228A6.549,6.549,0,0,0-667.1,425.664Zm-3.093-6.31a6.537,6.537,0,0,0-2.431-.9l12.662-138.77,107.873-32.332a6.547,6.547,0,0,0,1.956,2.828Zm-9.956,6.663-97.019,22.337a6.555,6.555,0,0,0-2.429-3.439,6.586,6.586,0,0,0-1.644-.868l17.4-60.307,84.052,38.85A6.58,6.58,0,0,0-680.147,426.017Zm127.735-181.693-97.726-4.958a6.572,6.572,0,0,0-2.7-5.234,6.586,6.586,0,0,0-8.619.764l6.821-31.6,102.485,39.878A6.541,6.541,0,0,0-552.412,244.323Zm.1,2.2-107.563,32.239,2.985-32.722a6.58,6.58,0,0,0,5.5-2.709,6.554,6.554,0,0,0,1.213-3.116l97.333,4.937.386.02A6.609,6.609,0,0,0-552.314,246.527Zm-108.281-1.739a6.55,6.55,0,0,0,2.853,1.176l-3.018,33.066-74.221,22.246a6.557,6.557,0,0,0-.661-1.3l73.949-56.2A6.581,6.581,0,0,0-660.595,244.788Zm-75.584,54.471a6.61,6.61,0,0,0-1.1-1.015,6.565,6.565,0,0,0-4.991-1.162l-6.642-37.2,85.862-18.614a6.58,6.58,0,0,0,.84,1.823Zm-6.921-1.974a6.55,6.55,0,0,0-3.382,2.411,6.567,6.567,0,0,0-1.071,2.312L-851.04,283.728a6.618,6.618,0,0,0-.031-1.7l101.325-21.966Zm-66.046,58.684,63.573-47.51a6.726,6.726,0,0,0,.544.443,6.589,6.589,0,0,0,1.644.868l-21,72.778-43.928-20.3A6.6,6.6,0,0,0-809.147,355.969Zm61.419-52.774a6.61,6.61,0,0,0,.179,1.954l-82.917,26.242-23.577-42.836a6.556,6.556,0,0,0,1.786-1.674,6.565,6.565,0,0,0,1.065-2.292Zm.438,2.768a6.556,6.556,0,0,0,1.12,1.875l-63.533,47.48a6.6,6.6,0,0,0-.875-.771,6.59,6.59,0,0,0-7.306-.3l-12.161-22.095Zm-61.836,57.788a6.642,6.642,0,0,0,.455-.732l44.047,20.359-17.435,60.432a6.608,6.608,0,0,0-3.139.079l-26.722-77.939A6.545,6.545,0,0,0-809.125,363.751ZM-763.6,382.91l21.034-72.9a6.611,6.611,0,0,0,4.234-.48l61.12,109.9a6.554,6.554,0,0,0-1.762,1.658,6.65,6.65,0,0,0-.455.732Zm26.012-73.8a6.567,6.567,0,0,0,1.762-1.658,6.568,6.568,0,0,0,1.087-5.353l73.9-22.148-12.63,138.426a6.621,6.621,0,0,0-2.995.63Zm-23.264-151.151,120.966-27.063-15.378,71.242L-761.082,160.96A6.589,6.589,0,0,0-760.851,157.956Zm-.539,3.8,105.943,41.224-6.88,31.872L-761.8,162.493A6.588,6.588,0,0,0-761.39,161.757Zm-.911,1.427,100.02,72.758a6.561,6.561,0,0,0-.952,4.493l-85.827,18.606-16.725-93.671A6.556,6.556,0,0,0-762.3,163.184Zm-8.578,1.354a6.554,6.554,0,0,0,4.252.978l16.731,93.707L-851.255,281.2a6.549,6.549,0,0,0-2.121-3.251Zm-83.188,112.906a6.552,6.552,0,0,0-2.5-.944l10.518-117.17,72.118.067a6.573,6.573,0,0,0,2.366,4.639Zm-3.356-1.022a6.594,6.594,0,0,0-4.184,1.369L-962.231,163.484c.1-.121.2-.24.3-.37a6.55,6.55,0,0,0,1.254-3.892l113.766.106Zm22.494-196.905,63.006,74.712a6.645,6.645,0,0,0-.766.871,6.552,6.552,0,0,0-1.24,3.443l-72.047-.067L-839,80.8A6.6,6.6,0,0,0-834.929,79.516Zm-9.163-1.323a6.586,6.586,0,0,0,1.375,1.349,6.551,6.551,0,0,0,2.863,1.178l-6.98,77.753-113.9-.106a6.591,6.591,0,0,0-.9-2.564l35.946-23.734Zm-.468-.715-6.531,4.312-111.042,73.317a6.586,6.586,0,0,0-1.25-1.2,6.556,6.556,0,0,0-3.8-1.255l-6.429-57.84,128.34-19.206A6.6,6.6,0,0,0-844.56,77.478ZM-973.7,160.609l-91.529,25.8,26.558-74.3a6.589,6.589,0,0,0,6.684-1.9l59.55,44.962c-.051.065-.106.124-.155.191A6.565,6.565,0,0,0-973.7,160.609ZM-984.965,42.353l-29.526,33.3-21,23.683a6.6,6.6,0,0,0-2.927.042l6.252-77.794,45.443,14.645A6.592,6.592,0,0,0-984.965,42.353Zm-46.49,67.185a6.577,6.577,0,0,0,.72-6.175l56.275-8.422,6.42,57.761a6.566,6.566,0,0,0-3.823,1.829Zm56.485-67.949a6.579,6.579,0,0,0,.891-1.7L-845.31,72.992a6.585,6.585,0,0,0-.092,1.772l-128.307,19.2-5.53-49.75A6.567,6.567,0,0,0-974.969,41.588Zm-5.121,2.7,5.536,49.8-56.563,8.465a6.554,6.554,0,0,0-1.865-2.106,6.572,6.572,0,0,0-1.6-.849l26.462-29.846,23.793-26.837c.052.04.1.084.151.122A6.554,6.554,0,0,0-980.09,44.292ZM-1022.056-81.47l39.1,113.157a6.553,6.553,0,0,0-2.674,2.149,6.588,6.588,0,0,0-.841,1.578l-45.625-14.7,8.193-101.947A6.622,6.622,0,0,0-1022.056-81.47Zm-6.431-1.73a6.625,6.625,0,0,0,.812.708,6.556,6.556,0,0,0,2.924,1.189l-8.176,101.744-78.527-25.306a6.6,6.6,0,0,0-1.135-5.587Zm-84.026,80.6a6.59,6.59,0,0,0,.793-1.454L-1033,21.316l-6.3,78.345a6.554,6.554,0,0,0-1.846,1.114l-27.867-39.235-44.681-62.907A6.579,6.579,0,0,0-1112.512-2.6Zm-1.87,1.731,72.62,102.243a6.6,6.6,0,0,0-.425.526,6.561,6.561,0,0,0-1.043,2.214l-97.544-18.78L-1119.047,0A6.606,6.606,0,0,0-1114.382-.867Zm-7.334-.279a6.578,6.578,0,0,0,1.84.936l-21.739,85.384-61.283-11.8a6.6,6.6,0,0,0-1.279-4.795l81.644-70.441A6.586,6.586,0,0,0-1121.716-1.146Zm-88.559,67.169-15.975-81.789a6.56,6.56,0,0,0,3.649-2.494,6.553,6.553,0,0,0,1.152-2.722L-1124.4-6.988A6.594,6.594,0,0,0-1123.1-2.5l-81.644,70.441a6.55,6.55,0,0,0-.818-.714A6.559,6.559,0,0,0-1210.275,66.023Zm34.234,145.265L-1207.5,78.844a6.551,6.551,0,0,0,3.4-2.415,6.569,6.569,0,0,0,1.043-2.214L-1141.826,86l-31.9,125.306A6.6,6.6,0,0,0-1176.041,211.288Zm5.94,2.02a6.633,6.633,0,0,0-.961-.855,6.573,6.573,0,0,0-1.84-.936l31.916-125.351,97.59,18.789a6.6,6.6,0,0,0,1.164,4.631Zm.536.666L-1041.7,110.251a6.622,6.622,0,0,0,.961.855,6.613,6.613,0,0,0,1.262.716l-26.762,74.872-102.491,28.892A6.562,6.562,0,0,0-1169.565,213.973Zm91.8-12.544a6.556,6.556,0,0,0-1.249,4.246l-89.457,10.888c-.009-.052-.02-.1-.032-.154l101.912-28.728-4.037,11.294A6.585,6.585,0,0,0-1077.763,201.43Zm9.2-1.453a6.621,6.621,0,0,0-1.262-.716l4.24-11.864,92.108-25.965c.006.017.01.035.016.052l-93.133,40.794A6.552,6.552,0,0,0-1068.558,199.977Zm166.1,148.366-164.681-139.122c.01-.014.022-.026.032-.04a6.581,6.581,0,0,0,.866-6.123l93.133-40.794a6.551,6.551,0,0,0,1.97,2.3,6.581,6.581,0,0,0,6.142.859L-899.738,346.4A6.547,6.547,0,0,0-902.457,348.343Zm3.537-2.2-65.293-181.072a6.53,6.53,0,0,0,1.393-.965l15.98,18.152,84.6,96.1a6.608,6.608,0,0,0-.668.771,6.589,6.589,0,0,0,1.452,9.2c.091.067.187.122.281.184l-32.874,58.358A6.569,6.569,0,0,0-898.92,346.146Zm7.8,4.44a6.547,6.547,0,0,0-2.232-3.223l32.91-58.423a6.591,6.591,0,0,0,5.649.031l23.493,42.683Zm70.126,8.459-69.838-6.063a6.585,6.585,0,0,0-.083-1.564l60.035-19,12.292,22.332a6.575,6.575,0,0,0-1.2,1.25A6.558,6.558,0,0,0-820.99,359.045ZM-906.051,570.95l-75.03-167.219a6.555,6.555,0,0,0,2.249-1.942,6.567,6.567,0,0,0,1.181-4.9l156.882-35.163a6.553,6.553,0,0,0,2.44,3.475,6.625,6.625,0,0,0,.987.587L-901.454,570.8A6.6,6.6,0,0,0-906.051,570.95Zm6.776,1.1c-.133-.114-.268-.228-.412-.332a6.567,6.567,0,0,0-.981-.584l84.113-205.01a6.594,6.594,0,0,0,3.828.109L-786,444.169a6.546,6.546,0,0,0-2.794,2.2,6.589,6.589,0,0,0,.5,8.358Zm136.54,22.555a6.583,6.583,0,0,0-.439,7.049l-57.542,34.554a6.569,6.569,0,0,0-1.537-1.58,6.587,6.587,0,0,0-8.72.866l-67.375-54.434c.036-.047.077-.091.112-.139a6.589,6.589,0,0,0-.426-8.278l110.988-117.334c.107.089.212.18.326.264a6.559,6.559,0,0,0,4.6,1.213l23.992,135.252A6.559,6.559,0,0,0-762.734,594.6Zm8.02-2.138a6.561,6.561,0,0,0-3.192-.552l-24-135.274a6.559,6.559,0,0,0,3.76-2.52,6.565,6.565,0,0,0,1.173-4.935l97.019-22.337a6.555,6.555,0,0,0,2.429,3.439,6.635,6.635,0,0,0,.642.408Zm3.81-5.949,37.726-78.408a6.583,6.583,0,0,0,2.62,6.4c.017.012.035.022.053.035Zm39.337-81.758,33.117-68.831-26.5,66.9A6.589,6.589,0,0,0-711.566,504.759Zm9.9.157a6.6,6.6,0,0,0-1.139-1.064,6.583,6.583,0,0,0-1.33-.743l28.468-71.882a6.6,6.6,0,0,0,5.486-.665l24.9,34.992Zm89.8,10.472a6.551,6.551,0,0,0-1.165,2.793l-87.059-8.765a6.61,6.61,0,0,0-1.06-3.815l56.368-39.35,34.089,47.909A6.583,6.583,0,0,0-611.872,515.388Zm7.5-11.735-1.512,9.061a6.608,6.608,0,0,0-4.123.946l-34.082-47.9,47.555-33.2a6.559,6.559,0,0,0,1.266,1.218,6.571,6.571,0,0,0,2.372,1.088Zm7.652-79.075a6.546,6.546,0,0,0-1.218,3.17l-69.127-2.937c0-.067,0-.135,0-.2l78.5-9.3-1.657,6.671A6.583,6.583,0,0,0-596.719,424.577Zm11.637,2a6.553,6.553,0,0,0-2.433-3.451,6.572,6.572,0,0,0-1.878-.947l1.734-6.982,109.215-12.945Zm111.315-31.422a6.554,6.554,0,0,0-2.082,1.852,6.56,6.56,0,0,0-1.249,4.226L-587.438,414.31l40.394-162.674a6.6,6.6,0,0,0,3.645-.379Zm24.274-171.834-90.174,24.036A6.589,6.589,0,0,0-542,239.83a6.587,6.587,0,0,0-7.692-.038l-88.127-108.285,188.651,88.141A6.575,6.575,0,0,0-449.492,223.32Z" transform="translate(1234.518 94.41)" fill="#84ceda"/>
      <path id="Path_40571" data-name="Path 40571" d="M-425.573,2094.574a6.589,6.589,0,0,0-9.2,1.452,6.589,6.589,0,0,0,1.452,9.2,6.589,6.589,0,0,0,9.2-1.452A6.589,6.589,0,0,0-425.573,2094.574Z" transform="translate(777.12 -1158.798)" fill="#84ceda"/>
    </g>
    <g id="Group_19392" data-name="Group 19392" transform="matrix(0.899, -0.438, 0.438, 0.899, -477.771, -385.282)">
      <path id="Path_40572" data-name="Path 40572" d="M-563.354,287.651a4.613,4.613,0,0,1,1.619-.315l5.693-73.638a4.658,4.658,0,0,1-1.056-.387l-32.48,51.622,24.865,23.55A4.618,4.618,0,0,1-563.354,287.651Z" transform="translate(954.561 -3.392)" fill="none"/>
      <path id="Path_40573" data-name="Path 40573" d="M-608.153,262.5l32.388-51.478a4.59,4.59,0,0,1-.9-.913L-620.2,244.881a4.718,4.718,0,0,1,.3.62,4.625,4.625,0,0,1-1,4.926Z" transform="translate(972.503 -1.558)" fill="none"/>
      <path id="Path_40574" data-name="Path 40574" d="M-633.684,241.218l43.583-34.808c-.053-.108-.1-.216-.149-.329a4.627,4.627,0,0,1-.282-1.144l-53.046,1.369,5.989,33.313A4.633,4.633,0,0,1-633.684,241.218Z" transform="translate(985.494 1.406)" fill="none"/>
      <path id="Path_40575" data-name="Path 40575" d="M-606.188,117.658a4.641,4.641,0,0,1,.989-2.564l-63.872-61.029a4.6,4.6,0,0,1-1.344.818,4.625,4.625,0,0,1-.454.152l11.5,64Z" transform="translate(1001.128 87.83)" fill="none"/>
      <path id="Path_40576" data-name="Path 40576" d="M-425.012,264.284l-60.615-27.928-32.845,64.89a4.6,4.6,0,0,1,1.672,1.834l91.7-35.973A4.6,4.6,0,0,1-425.012,264.284Z" transform="translate(913.829 -16.593)" fill="none"/>
      <path id="Path_40577" data-name="Path 40577" d="M-319.25,488.163l-44.7,40.174a4.638,4.638,0,0,1,.518.958,4.6,4.6,0,0,1,.211,2.682l38.068,14.58,35.751-83.711a4.641,4.641,0,0,1-.936-.673Z" transform="translate(825.311 -145.95)" fill="none"/>
      <path id="Path_40578" data-name="Path 40578" d="M-502.2,132.7a4.565,4.565,0,0,1,.581.507l32.983-25.91,18.326-14.4a4.665,4.665,0,0,1-.42-.821,4.606,4.606,0,0,1-.3-2.02l-22.933-3.8Z" transform="translate(904.506 69.388)" fill="none"/>
      <path id="Path_40579" data-name="Path 40579" d="M-512.65,209.618a4.6,4.6,0,0,1-2.17,1.762,4.607,4.607,0,0,1-1.633.315l-5.917,73.594a4.608,4.608,0,0,1,.9.255l32.831-64.862Z" transform="translate(916.062 -1.276)" fill="none"/>
      <path id="Path_40580" data-name="Path 40580" d="M-412.389-2a4.617,4.617,0,0,1,2.782-3.135,4.6,4.6,0,0,1,2.207-.29l5.329-25.709,8.622-41.6a4.69,4.69,0,0,1-.655-.247L-434.983-5.746Z" transform="translate(866.003 160.607)" fill="none"/>
      <path id="Path_40581" data-name="Path 40581" d="M-447.364,104.1a4.614,4.614,0,0,1-.9-.731l-51.29,40.325a4.629,4.629,0,0,1,.422.822,4.612,4.612,0,0,1-.044,3.481l23.995,11.056Z" transform="translate(902.991 59.584)" fill="none"/>
      <path id="Path_40582" data-name="Path 40582" d="M-665.279,50.341l63.872,61.029a4.6,4.6,0,0,1,1.343-.819,4.609,4.609,0,0,1,3.716.153l28.055-46.144-96.14-15.918A4.644,4.644,0,0,1-665.279,50.341Z" transform="translate(997.925 90.936)" fill="none"/>
      <path id="Path_40583" data-name="Path 40583" d="M-412.877,105.988l-27.8,54.926,60.585,27.915a4.605,4.605,0,0,1,1.924-1.817l-31.726-80.879A4.6,4.6,0,0,1-412.877,105.988Z" transform="translate(869.266 58.087)" fill="none"/>
      <path id="Path_40584" data-name="Path 40584" d="M-515.829,400.19a4.632,4.632,0,0,1-1.538,2.4l24.431,36.182,35.437,52.483c.063-.028.123-.059.187-.085a4.6,4.6,0,0,1,2.745-.2l20.053-77.2Z" transform="translate(913.196 -110.443)" fill="none"/>
      <path id="Path_40585" data-name="Path 40585" d="M-175.447,697.9l69.975,46.63a4.6,4.6,0,0,1,1.141-1.011l-21.066-41.8-49.548-5.187A4.646,4.646,0,0,1-175.447,697.9Z" transform="translate(717.332 -280.2)" fill="none"/>
      <path id="Path_40586" data-name="Path 40586" d="M-342.856,678.645l15.631-36.6-37.993-14.552a4.612,4.612,0,0,1-1.765,2.091l20.028,48.5A4.621,4.621,0,0,1-342.856,678.645Z" transform="translate(827.05 -240.65)" fill="none"/>
      <path id="Path_40587" data-name="Path 40587" d="M-367.34,3.635l22.337.95-8.924-76.579a4.711,4.711,0,0,1-.572-.021l-10.068,48.569L-368.453-4.7A4.617,4.617,0,0,1-365.5-1.968,4.627,4.627,0,0,1-367.34,3.635Z" transform="translate(827.892 160.053)" fill="none"/>
      <path id="Path_40588" data-name="Path 40588" d="M-63.954,825.342l-41.622,65.7,60.652,44.811a4.6,4.6,0,0,1,1.759-1.229,4.74,4.74,0,0,1,.483-.158l-18.8-108.628A4.626,4.626,0,0,1-63.954,825.342Z" transform="translate(677.307 -353.985)" fill="none"/>
      <path id="Path_40589" data-name="Path 40589" d="M-348.362,432.325l-20.087,77.328a4.639,4.639,0,0,1,1.372.932l73.591-66.145a4.623,4.623,0,0,1-.6-1.07,4.6,4.6,0,0,1-.3-2.027Z" transform="translate(827.89 -128.851)" fill="none"/>
      <path id="Path_40590" data-name="Path 40590" d="M-422.123,310.207l-91.7,35.973a4.6,4.6,0,0,1,.167,1.622l81.389,13.6,12.709-48.924A4.612,4.612,0,0,1-422.123,310.207Z" transform="translate(911.168 -58.897)" fill="none"/>
      <path id="Path_40591" data-name="Path 40591" d="M-138.808,888.985l41.589-65.648a4.6,4.6,0,0,1-.728-.7l-64.361,44.276a4.6,4.6,0,0,1,.273.567,4.615,4.615,0,0,1-.352,4.082Z" transform="translate(709.85 -352.437)" fill="none"/>
      <path id="Path_40592" data-name="Path 40592" d="M-751.88,120.1a4.61,4.61,0,0,1,.283,1.144l43.932-1.134-11.482-63.867a4.619,4.619,0,0,1-2.148-.331l-32.384,61.995A4.6,4.6,0,0,1-751.88,120.1Z" transform="translate(1048.563 86.772)" fill="none"/>
      <path id="Path_40593" data-name="Path 40593" d="M-663.17-24.647l96.478,15.974,41.05-67.515a4.593,4.593,0,0,1-1.419-1.64L-663.321-26.21A4.6,4.6,0,0,1-663.17-24.647Z" transform="translate(996.804 163.383)" fill="none"/>
      <path id="Path_40594" data-name="Path 40594" d="M-597.28,359.319l-24.742-23.432-23.383,37.166a4.6,4.6,0,0,1,1.634,1.9l45.563-12.02A4.628,4.628,0,0,1-597.28,359.319Z" transform="translate(986.541 -73.608)" fill="none"/>
      <path id="Path_40595" data-name="Path 40595" d="M-530.182,492.826a4.557,4.557,0,0,1,.713-.607l-5.185-7.678-54.644-80.93a4.613,4.613,0,0,1-.532.253,4.628,4.628,0,0,1-6-2.618c-.013-.034-.022-.068-.034-.1l-45.5,12a4.61,4.61,0,0,1-.34,3.2Z" transform="translate(984.418 -110.989)" fill="none"/>
      <path id="Path_40596" data-name="Path 40596" d="M-699.855,241.785a4.642,4.642,0,0,1,.454-.152l-6.012-33.44-44.063,1.137a4.643,4.643,0,0,1-.539,1.88l48.247,31.982A4.6,4.6,0,0,1-699.855,241.785Z" transform="translate(1046.465 -0.461)" fill="none"/>
      <path id="Path_40597" data-name="Path 40597" d="M-183.741,464.794l-.32,93.385a4.623,4.623,0,0,1,3.956,2.92,4.611,4.611,0,0,1,.318,1.745l49,5.129-52.084-103.34A4.616,4.616,0,0,1-183.741,464.794Z" transform="translate(722.266 -147.358)" fill="none"/>
      <path id="Path_40598" data-name="Path 40598" d="M-503.089-184.507a4.645,4.645,0,0,1,.817-2.182l-85.462-72.831a4.619,4.619,0,0,1-1.541.994,4.6,4.6,0,0,1-2.97.134l-28.379,72.511Z" transform="translate(972.346 267.463)" fill="none"/>
      <path id="Path_40599" data-name="Path 40599" d="M227.773,1498.288a4.572,4.572,0,0,1-3.409,2.2l1.74,66.525c.1,0,.2-.009.3-.006l13.5-62.843Z" transform="translate(488.305 -739.474)" fill="none"/>
      <path id="Path_40600" data-name="Path 40600" d="M-35.1,750.23h0a4.625,4.625,0,0,1,5.7,2.009l69.532-31.712a4.606,4.606,0,0,1-.261-1.575l-95.791-10.027Z" transform="translate(648.859 -287.297)" fill="none"/>
      <path id="Path_40601" data-name="Path 40601" d="M173.537,1205.093a4.607,4.607,0,0,1-2.1,1.648c-.14.055-.281.1-.422.141l3.689,19.7,17.763,94.839-6.006-108.924Z" transform="translate(518.863 -571.521)" fill="none"/>
      <path id="Path_40602" data-name="Path 40602" d="M228.155,1373.271a4.611,4.611,0,0,1,2.162,5.707l11.942,5.784,20.066-93.411Z" transform="translate(486.134 -620.933)" fill="none"/>
      <path id="Path_40603" data-name="Path 40603" d="M116.423,1326.834a4.6,4.6,0,0,1,1.925-1.425c.14-.055.281-.1.422-.141l-8.911-47.575-12.9-68.881a4.623,4.623,0,0,1-2.777-.623l-50.984,70.6Z" transform="translate(592.084 -573.294)" fill="none"/>
      <path id="Path_40604" data-name="Path 40604" d="M-268.772,933.324a4.614,4.614,0,0,1-.3-1.29l-61.77-.356-2.835,43.633a4.635,4.635,0,0,1,2.824,1.6L-268.5,933.9A4.63,4.63,0,0,1-268.772,933.324Z" transform="translate(807.972 -414.899)" fill="none"/>
      <path id="Path_40605" data-name="Path 40605" d="M-57.616,1526.415a4.587,4.587,0,0,1-1,.871l28.508,44.079,18.444,28.517a4.638,4.638,0,0,1,.813-.416,4.621,4.621,0,0,1,4.352.524l26.2-34.059Z" transform="translate(650.407 -755.586)" fill="none"/>
      <path id="Path_40606" data-name="Path 40606" d="M209.247,1223.6l6.083,110.321a4.63,4.63,0,0,1,1.206.208l34.184-81.952a4.617,4.617,0,0,1-2.042-6Z" transform="translate(496.965 -582.124)" fill="none"/>
      <path id="Path_40607" data-name="Path 40607" d="M-657.809-81.464a4.61,4.61,0,0,1-2.245.287l-10.108,46.821,19.914-50.881-4.651-.054A4.624,4.624,0,0,1-657.809-81.464Z" transform="translate(1000.722 167.658)" fill="none"/>
      <path id="Path_40608" data-name="Path 40608" d="M-446.943,764.855a4.637,4.637,0,0,1-2.73-1.494l-93.17,68.534a4.657,4.657,0,0,1,.347.694,4.62,4.62,0,0,1,.3,1.289l90.735.523Z" transform="translate(927.789 -318.48)" fill="none"/>
      <path id="Path_40609" data-name="Path 40609" d="M-293.155,662.274l-15.746,36.87a4.607,4.607,0,0,1,1,1.549,4.628,4.628,0,0,1,.278,1.1l43.193-21.957,4.2-2.134,0-.009a4.6,4.6,0,0,1-.16-2.874Z" transform="translate(793.779 -260.574)" fill="none"/>
      <path id="Path_40610" data-name="Path 40610" d="M-178.924,785.675l3.273,57.7a4.637,4.637,0,0,1,3.387,1.662l64.361-44.276a4.69,4.69,0,0,1-.273-.567,4.6,4.6,0,0,1-.3-2.07Z" transform="translate(719.323 -331.263)" fill="none"/>
      <path id="Path_40611" data-name="Path 40611" d="M-309.323,762.847a4.6,4.6,0,0,1-.894.868l56.559,67.4a4.639,4.639,0,0,1,.942-.507,4.639,4.639,0,0,1,1-.265l-3.285-57.9Z" transform="translate(794.533 -318.186)" fill="none"/>
      <path id="Path_40612" data-name="Path 40612" d="M-906.966,207.836a4.62,4.62,0,0,1-.311-1.419l-95.671-3.245-6.424,57.555a4.628,4.628,0,0,1,3.043,1.908l99.431-54.646C-906.919,207.937-906.945,207.888-906.966,207.836Z" transform="translate(1195.034 2.416)" fill="none"/>
      <path id="Path_40613" data-name="Path 40613" d="M-238.535,560.748a4.6,4.6,0,0,1,2.485-2.322,4.61,4.61,0,0,1,1.188-.288l.32-93.4a4.607,4.607,0,0,1-.974-.2l-35.737,83.68Z" transform="translate(772.213 -147.303)" fill="none"/>
      <path id="Path_40614" data-name="Path 40614" d="M-182.4,702.713a4.639,4.639,0,0,1-1.095.277l1.9,33.52,70.648,12.483a4.657,4.657,0,0,1,.389-.977l-69.987-46.637A4.6,4.6,0,0,1-182.4,702.713Z" transform="translate(721.941 -282.974)" fill="none"/>
      <path id="Path_40615" data-name="Path 40615" d="M207.367,1169.8a4.65,4.65,0,0,1-1.009.266l1.178,21.367,39.91,22.849a4.608,4.608,0,0,1,.414-.5l-39.451-44.556A4.628,4.628,0,0,1,207.367,1169.8Z" transform="translate(498.62 -550.975)" fill="none"/>
      <path id="Path_40616" data-name="Path 40616" d="M34.468,1100.058a4.6,4.6,0,0,1-2.586.229l-7.834,26.48,57.128,13.475a4.655,4.655,0,0,1,.632-1.229L35.971,1099.1A4.606,4.606,0,0,1,34.468,1100.058Z" transform="translate(603.054 -510.802)" fill="none"/>
      <path id="Path_40617" data-name="Path 40617" d="M177.042,1180.053a4.611,4.611,0,0,1-.1,3.607l12.449,7.127-1.147-20.812a4.642,4.642,0,0,1-2.7-1l-9.317,9.738A4.615,4.615,0,0,1,177.042,1180.053Z" transform="translate(515.881 -550.831)" fill="none"/>
      <path id="Path_40618" data-name="Path 40618" d="M-1040.667,201.706l-30.751-1.043a4.627,4.627,0,0,1-2.306,3.435l25.059,55.446a4.6,4.6,0,0,1,1.577-.314Z" transform="translate(1231.898 3.853)" fill="none"/>
      <path id="Path_40619" data-name="Path 40619" d="M-91.111,1025.615l-60.6-44.775-33.606,53.047a4.6,4.6,0,0,1,1.283,1.81,4.632,4.632,0,0,1,.281,1.127l91.977-8.8A4.634,4.634,0,0,1-91.111,1025.615Z" transform="translate(722.988 -443.061)" fill="none"/>
      <path id="Path_40620" data-name="Path 40620" d="M-637.686,305.793a4.644,4.644,0,0,1-.957.517,4.6,4.6,0,0,1-2.157.293l-8.257,48.546a4.669,4.669,0,0,1,.806.259l23.505-37.359Z" transform="translate(988.633 -56.369)" fill="none"/>
      <path id="Path_40621" data-name="Path 40621" d="M-258.736,700.177l-4.216,2.143-43.539,22.133a4.635,4.635,0,0,1-.477,1.714l53.782,9.5-1.891-33.335A4.629,4.629,0,0,1-258.736,700.177Z" transform="translate(792.672 -282.286)" fill="none"/>
      <path id="Path_40622" data-name="Path 40622" d="M-308.232,315.273l-12.689,48.851,53.9,9.005a4.633,4.633,0,0,1,1.464-2.334l-39.623-56.08a4.572,4.572,0,0,1-.617.3A4.6,4.6,0,0,1-308.232,315.273Z" transform="translate(800.664 -61.48)" fill="none"/>
      <path id="Path_40623" data-name="Path 40623" d="M-29.69,579.89a4.639,4.639,0,0,1,.59-1.506L-177.517,467.65l51.488,102.157Z" transform="translate(718.517 -149.086)" fill="none"/>
      <path id="Path_40624" data-name="Path 40624" d="M-302.084,188.478a4.619,4.619,0,0,1,1.835.333l39.744-77.249L-311.3,109.4Z" transform="translate(795.153 56.13)" fill="none"/>
      <path id="Path_40625" data-name="Path 40625" d="M72.3,737.906,2.768,769.617a4.624,4.624,0,0,1-2.674,5.829,4.79,4.79,0,0,1-.483.158l18.8,108.629a4.6,4.6,0,0,1,1.583.153l54.295-144.62A4.607,4.607,0,0,1,72.3,737.906Z" transform="translate(617.053 -303.899)" fill="none"/>
      <path id="Path_40626" data-name="Path 40626" d="M-637.536-181.891a4.62,4.62,0,0,1,.3,1.317l4.972.058,27.248-69.62-34.33,66.047A4.6,4.6,0,0,1-637.536-181.891Z" transform="translate(983.068 262.088)" fill="none"/>
      <path id="Path_40627" data-name="Path 40627" d="M-330.718-167.052a4.625,4.625,0,0,1-1.242,5.15l57.652,78.642-26.37-143.289a4.617,4.617,0,0,1-2.313-.389l-32.277,56.957A4.628,4.628,0,0,1-330.718-167.052Z" transform="translate(808.883 248.799)" fill="none"/>
      <path id="Path_40628" data-name="Path 40628" d="M169.289,1569.359a4.655,4.655,0,0,1,.632-.191l-1.742-66.623a4.637,4.637,0,0,1-2.161-.7l-38.245,49.721,39.1,19.985A4.6,4.6,0,0,1,169.289,1569.359Z" transform="translate(543.636 -741.509)" fill="none"/>
      <path id="Path_40629" data-name="Path 40629" d="M-816.619-28.257l36.637-31.254-26.443-31.567a4.621,4.621,0,0,1-.939.5,4.6,4.6,0,0,1-1.977.306l-9.475,60.743A4.638,4.638,0,0,1-816.619-28.257Z" transform="translate(1085.877 170.973)" fill="none"/>
      <path id="Path_40630" data-name="Path 40630" d="M99.107,1136.854a4.618,4.618,0,0,1,6.068-.275l9.317-9.738a4.605,4.605,0,0,1-.908-4.466l-60.007-25.92a4.627,4.627,0,0,1-.307.484Z" transform="translate(586.314 -509.289)" fill="none"/>
      <path id="Path_40631" data-name="Path 40631" d="M60.58,1497.255a4.6,4.6,0,0,1-1.163-1.7,4.653,4.653,0,0,1-.233-.813l-113.723,11.2a4.644,4.644,0,0,1-.569,1.622L22.239,1547.1Z" transform="translate(648.396 -737.443)" fill="none"/>
      <path id="Path_40632" data-name="Path 40632" d="M283.141,1291.7l-20.117,93.646L293.7,1400.2a4.535,4.535,0,0,1,2.979-2.127L283.82,1291.722A4.608,4.608,0,0,1,283.141,1291.7Z" transform="translate(466.159 -621.13)" fill="none"/>
      <path id="Path_40633" data-name="Path 40633" d="M275.078,1531.017a4.606,4.606,0,0,1-.021-3.312l-30.488-14.767L231.131,1575.5a4.642,4.642,0,0,1,1.788.8l42.944-43.972A4.614,4.614,0,0,1,275.078,1531.017Z" transform="translate(484.429 -747.866)" fill="none"/>
      <path id="Path_40634" data-name="Path 40634" d="M-17.8,1352.287l-24.657-16.18a4.605,4.605,0,0,1-1.877,1.36,4.611,4.611,0,0,1-2.267.284l-14.566,72.223a4.663,4.663,0,0,1,1.253.625Z" transform="translate(651.869 -646.57)" fill="none"/>
      <path id="Path_40635" data-name="Path 40635" d="M-901.452,67.652-953.64,81.334l55.65-10.9A4.619,4.619,0,0,1-901.452,67.652Z" transform="translate(1163.109 80.047)" fill="none"/>
      <path id="Path_40636" data-name="Path 40636" d="M-116.244,1203.235l19.362-65.451-87.092-20.543a4.626,4.626,0,0,1-1.207,1.725l65.559,84.962a4.639,4.639,0,0,1,.866-.452A4.6,4.6,0,0,1-116.244,1203.235Z" transform="translate(722.907 -521.196)" fill="none"/>
      <path id="Path_40637" data-name="Path 40637" d="M-270.585,1008.837a4.6,4.6,0,0,1,1.927-.31l7.689-68.444a4.637,4.637,0,0,1-2.61-1.562l-62.358,43.015a4.631,4.631,0,0,1,.276.572,4.6,4.6,0,0,1,.026,3.3l52.774,25.361A4.6,4.6,0,0,1-270.585,1008.837Z" transform="translate(803.537 -418.818)" fill="none"/>
      <path id="Path_40638" data-name="Path 40638" d="M-366.173,107.072l31.479,80.249c.109-.032.218-.056.327-.079l-9.231-79.21Z" transform="translate(826.586 57.466)" fill="none"/>
      <path id="Path_40639" data-name="Path 40639" d="M-455.5,974.862a4.6,4.6,0,0,1,1.562-.313l2.831-43.583-90.685-.523a4.636,4.636,0,0,1-.335,1.329l84.451,44.86A4.6,4.6,0,0,1-455.5,974.862Z" transform="translate(927.379 -414.191)" fill="none"/>
      <path id="Path_40640" data-name="Path 40640" d="M130.545,1639.944l-39.306-20.091L64.919,1654.07a4.554,4.554,0,0,1,1.214,2.3l64.267-14.427A4.6,4.6,0,0,1,130.545,1639.944Z" transform="translate(579.641 -809.111)" fill="none"/>
      <path id="Path_40641" data-name="Path 40641" d="M-55.719,1435.015a4.614,4.614,0,0,1,.312,1.52l113.591-11.19a4.628,4.628,0,0,1,.54-2.2l-73.257-48.07-42.175,58.4A4.611,4.611,0,0,1-55.719,1435.015Z" transform="translate(649.313 -668.896)" fill="none"/>
      <path id="Path_40642" data-name="Path 40642" d="M-1298.894,307.339c.08-.032.162-.055.243-.081l-11.919-55.65-113.1-37.158a4.644,4.644,0,0,1-.321.6l123.211,93.663A4.6,4.6,0,0,1-1298.894,307.339Z" transform="translate(1432.545 -4.045)" fill="none"/>
      <path id="Path_40643" data-name="Path 40643" d="M-1423.2,129.8l112.628,37-20.78-97.019a4.633,4.633,0,0,1-4.151-1.687l-88.135,58.481a4.621,4.621,0,0,1,.235.5A4.608,4.608,0,0,1-1423.2,129.8Z" transform="translate(1432.343 79.79)" fill="none"/>
      <path id="Path_40644" data-name="Path 40644" d="M-1098.787,321.045l-57.479-18.884,11.812,55.148a4.629,4.629,0,0,1,4.086,1.53l42.206-34.358a4.639,4.639,0,0,1-.406-.8A4.606,4.606,0,0,1-1098.787,321.045Z" transform="translate(1279.181 -54.288)" fill="none"/>
      <path id="Path_40645" data-name="Path 40645" d="M-900.277,411.987a4.606,4.606,0,0,1,1.263-.3V315.746l-102.408,13.832a4.633,4.633,0,0,1-.842,2.868l100.356,80.632A4.6,4.6,0,0,1-900.277,411.987Z" transform="translate(1190.963 -62.07)" fill="none"/>
      <path id="Path_40646" data-name="Path 40646" d="M-509.426,769.836l-8.154.721a4.625,4.625,0,0,1-2.935,4.288,4.6,4.6,0,0,1-2.984.13l-22.912,58.005Z" transform="translate(929.833 -322.19)" fill="none"/>
      <path id="Path_40647" data-name="Path 40647" d="M-704.859-29.762a4.606,4.606,0,0,1,2.245-.287l10.257-47.512a4.643,4.643,0,0,1-1.837-1.1L-725.1-52.3l19.3,23.039A4.632,4.632,0,0,1-704.859-29.762Z" transform="translate(1032.192 163.86)" fill="none"/>
      <path id="Path_40648" data-name="Path 40648" d="M-1069.949,149.452a4.622,4.622,0,0,1,.31,1.419l30.818,1.045,3.974-35.6a4.641,4.641,0,0,1-2.131-1.082l-33.689,32.991A4.624,4.624,0,0,1-1069.949,149.452Z" transform="translate(1230.146 52.791)" fill="none"/>
      <path id="Path_40649" data-name="Path 40649" d="M-988.348,114.389a4.6,4.6,0,0,1-1.8.319l-3.966,35.53,95.6,3.242a4.627,4.627,0,0,1,.229-.95l-87.677-40.279A4.6,4.6,0,0,1-988.348,114.389Z" transform="translate(1186.292 54.499)" fill="none"/>
      <path id="Path_40650" data-name="Path 40650" d="M-1200.671,71.486l78.4,114.186-24.957-55.22a4.624,4.624,0,0,1-5.814-2.68,4.625,4.625,0,0,1,.842-4.751Z" transform="translate(1304.617 77.851)" fill="none"/>
      <path id="Path_40651" data-name="Path 40651" d="M-1126.818,187.67a4.625,4.625,0,0,1,1.181-1.671L-1204.77,70.753a4.729,4.729,0,0,1-.564.272c-.1.04-.205.071-.308.1l20.884,97.507Z" transform="translate(1307.465 78.271)" fill="none"/>
      <path id="Path_40652" data-name="Path 40652" d="M-974.244,75.2l87.7,40.29a4.606,4.606,0,0,1,2.317-2,4.606,4.606,0,0,1,3.443.029l32.384-62a4.6,4.6,0,0,1-1.8-2.193c-.05-.127-.091-.256-.129-.385L-974.078,73.183A4.609,4.609,0,0,1-974.244,75.2Z" transform="translate(1174.912 90.76)" fill="none"/>
      <path id="Path_40653" data-name="Path 40653" d="M-898.438,218.215a4.63,4.63,0,0,1-3.4-2.012l-99.417,54.639c.034.074.071.146.1.223a4.611,4.611,0,0,1,.195.645l102.525-13.849Z" transform="translate(1190.386 -5.048)" fill="none"/>
      <path id="Path_40654" data-name="Path 40654" d="M-730.936-90.4a4.623,4.623,0,0,1-.528-.973,4.609,4.609,0,0,1-.316-1.677l-55.23-4.969a4.64,4.64,0,0,1-1.261,2.418l26.437,31.56Z" transform="translate(1068.38 174.95)" fill="none"/>
      <path id="Path_40655" data-name="Path 40655" d="M-666.825-31.2l136.044-51.536.153-.27a4.6,4.6,0,0,1-.129-.759l-117.857-1.378L-668.9-33.3A4.6,4.6,0,0,1-666.825-31.2Z" transform="translate(1000.002 167.571)" fill="none"/>
      <path id="Path_40656" data-name="Path 40656" d="M-811.976,16.48a4.651,4.651,0,0,1,.254.909l53.909-6.61a4.636,4.636,0,0,1,1.337-3.393l-19.294-23.032-36.651,31.267A4.656,4.656,0,0,1-811.976,16.48Z" transform="translate(1082.214 127.763)" fill="none"/>
      <path id="Path_40657" data-name="Path 40657" d="M-813.515,56.017a4.632,4.632,0,0,1-2.149,3.835l48.789-9.554Z" transform="translate(1084.071 89.987)" fill="none"/>
      <path id="Path_40658" data-name="Path 40658" d="M-707.131,248.906l-48.247-31.982a4.6,4.6,0,0,1-1.912,1.408,4.606,4.606,0,0,1-1.263.3v39.531l50.877-6.872A4.628,4.628,0,0,1-707.131,248.906Z" transform="translate(1051.356 -5.461)" fill="none"/>
      <path id="Path_40659" data-name="Path 40659" d="M-331.042-73.506a4.668,4.668,0,0,1-.687.343,4.614,4.614,0,0,1-.733.214l8.94,76.716,50.709,2.155Z" transform="translate(807.276 160.908)" fill="none"/>
      <path id="Path_40660" data-name="Path 40660" d="M8.433,1276.9l51.005-70.626a4.62,4.62,0,0,1-.542-.559l-75.138,50.519a4.619,4.619,0,0,1,.259.542,4.618,4.618,0,0,1-.26,3.932Z" transform="translate(626.134 -571.877)" fill="none"/>
      <path id="Path_40661" data-name="Path 40661" d="M-188.623,1009.3l33.615-53.06-23.627-17.456a4.606,4.606,0,0,1-1.759,1.228,4.616,4.616,0,0,1-1.78.319l-7.693,68.469A4.632,4.632,0,0,1-188.623,1009.3Z" transform="translate(725.592 -418.969)" fill="none"/>
      <path id="Path_40662" data-name="Path 40662" d="M-86.845,1096.712a4.61,4.61,0,0,1-2.592-2.6,4.606,4.606,0,0,1-.236-.826l-92.032,8.809a4.689,4.689,0,0,1-.078.605l87.091,20.543Z" transform="translate(720.961 -507.472)" fill="none"/>
      <path id="Path_40663" data-name="Path 40663" d="M-19.946,1232.655l15.118-10.164L55.2,1182.134a4.682,4.682,0,0,1-.249-.524,4.605,4.605,0,0,1-.273-2.331L-2.5,1165.792l-19.374,65.484A4.624,4.624,0,0,1-19.946,1232.655Z" transform="translate(629.36 -549.008)" fill="none"/>
      <path id="Path_40664" data-name="Path 40664" d="M-263.876,833.43l-56.645-67.507c-.1.049-.205.1-.313.141a4.6,4.6,0,0,1-1.562.314l-4.515,69.5,61.72.356A4.639,4.639,0,0,1-263.876,833.43Z" transform="translate(804.096 -319.948)" fill="none"/>
      <path id="Path_40665" data-name="Path 40665" d="M-439.016,635.238l-43.267,54.847a4.6,4.6,0,0,1,1.121,1.66,4.636,4.636,0,0,1,.243.859l8.757-.774Z" transform="translate(893.098 -245.087)" fill="none"/>
      <path id="Path_40666" data-name="Path 40666" d="M-714.323,362.024a4.628,4.628,0,0,1,2.619-6,4.6,4.6,0,0,1,1.838-.317L-701.6,307.1q-.215-.063-.422-.147L-753.73,407.363c.1.063.2.13.289.2l40.016-44.107A4.6,4.6,0,0,1-714.323,362.024Z" transform="translate(1048.593 -57.035)" fill="none"/>
      <path id="Path_40667" data-name="Path 40667" d="M-581.155,576.359a4.616,4.616,0,0,1,4.118.458l44.243-56.083a4.6,4.6,0,0,1-1.122-1.66,4.619,4.619,0,0,1,.437-4.218l-111.433-76.425a4.6,4.6,0,0,1-1.612,1.349Z" transform="translate(987.181 -132.349)" fill="none"/>
      <path id="Path_40668" data-name="Path 40668" d="M-545.045,828.2l93.169-68.534a4.659,4.659,0,0,1-.346-.694,4.639,4.639,0,0,1-.243-.859l-55.568,4.915L-545.8,827.516A4.582,4.582,0,0,1-545.045,828.2Z" transform="translate(929.486 -315.475)" fill="none"/>
      <path id="Path_40669" data-name="Path 40669" d="M-757.252,402.615l51.709-100.407A4.6,4.6,0,0,1-707.364,300a4.679,4.679,0,0,1-.2-.65l-50.993,6.888V402.3A4.641,4.641,0,0,1-757.252,402.615Z" transform="translate(1051.356 -52.679)" fill="none"/>
      <path id="Path_40670" data-name="Path 40670" d="M-398.811,681.617l-20.009-48.449-.041.018a4.611,4.611,0,0,1-3.648-.12l-33.635,57.426,54.966-4.861A4.626,4.626,0,0,1-398.811,681.617Z" transform="translate(878.125 -243.843)" fill="none"/>
      <path id="Path_40671" data-name="Path 40671" d="M-675.889,501.656a4.625,4.625,0,0,0-4.437-2.932l-12.859-106.351a4.6,4.6,0,0,0,.713-.21,4.627,4.627,0,0,0,2.618-6,4.627,4.627,0,0,0-6-2.618,4.625,4.625,0,0,0-1.042.578l-39.45-44.556a4.624,4.624,0,0,0,.936-4.853,4.627,4.627,0,0,0-6-2.618,4.609,4.609,0,0,0-2.37,2.089l-60.006-25.92a4.607,4.607,0,0,0-.091-3.125,4.6,4.6,0,0,0-2.29-2.469l54.3-144.621a4.6,4.6,0,0,0,2.908-.151,4.628,4.628,0,0,0,2.618-6,4.628,4.628,0,0,0-6-2.618,4.6,4.6,0,0,0-1.745,1.212L-903.765,38.82a4.628,4.628,0,0,0,2.174-5.8,4.628,4.628,0,0,0-6-2.618,4.619,4.619,0,0,0-.617.3l-39.624-56.08a4.625,4.625,0,0,0,1.3-5.2,4.6,4.6,0,0,0-1.822-2.208l39.734-77.228.694.946-.311-1.69.239-.464-.327-.014-26.646-144.785c.146-.041.292-.09.436-.146a4.628,4.628,0,0,0,2.618-6,4.628,4.628,0,0,0-6-2.618,4.628,4.628,0,0,0-2.618,6,4.6,4.6,0,0,0,1.665,2.108l-32.623,57.568c-.12.036-.239.073-.358.12a4.617,4.617,0,0,0-1.541.994l-85.463-72.831a4.622,4.622,0,0,0,.525-4.353,4.627,4.627,0,0,0-6-2.618,4.628,4.628,0,0,0-2.618,6,4.6,4.6,0,0,0,1.806,2.2l-35.91,69.088a4.609,4.609,0,0,0-3.434-.026,4.62,4.62,0,0,0-2.856,3.47l-55.23-4.969a4.608,4.608,0,0,0-.316-1.677,4.628,4.628,0,0,0-6-2.618,4.628,4.628,0,0,0-2.618,6,4.617,4.617,0,0,0,3.177,2.793L-1177.8-136.8a4.6,4.6,0,0,0-1.976.307,4.626,4.626,0,0,0-2.835,5.257l-60.867,15.957a4.626,4.626,0,0,0-5.975-2.567,4.627,4.627,0,0,0-2.618,6,4.63,4.63,0,0,0,.64,1.128l-33.7,33.006a4.625,4.625,0,0,0-4.683-.778,4.614,4.614,0,0,0-1.156.66l-49.136-52.237a4.624,4.624,0,0,0,.842-4.751,4.628,4.628,0,0,0-6-2.618,4.627,4.627,0,0,0-2.618,6,4.687,4.687,0,0,0,.234.5l-88.135,58.481a4.629,4.629,0,0,0-5.294-1.4,4.627,4.627,0,0,0-2.618,6,4.627,4.627,0,0,0,6,2.618,4.6,4.6,0,0,0,1.716-1.182l123.248,93.692a4.617,4.617,0,0,0-.25,3.913,4.628,4.628,0,0,0,6,2.618,4.628,4.628,0,0,0,2.618-6,4.647,4.647,0,0,0-.333-.67l42.228-34.376A4.626,4.626,0,0,0-1257.4-6.1a4.606,4.606,0,0,0,1.533-.987l100.374,80.646a4.62,4.62,0,0,0-.451,4.241,4.627,4.627,0,0,0,6,2.618,4.627,4.627,0,0,0,2.618-6,4.6,4.6,0,0,0-.9-1.433l40.016-44.107a4.621,4.621,0,0,0,4.466.612l-.385.184,65.373,136.589a4.625,4.625,0,0,0-1.936,5.657,4.6,4.6,0,0,0,2.22,2.434l-23.261,58.888a4.6,4.6,0,0,0-2.984.131,4.627,4.627,0,0,0-2.618,6,4.627,4.627,0,0,0,6,2.618,4.6,4.6,0,0,0,2.176-1.771l84.452,44.86a4.608,4.608,0,0,0-.041,3.473,4.628,4.628,0,0,0,6,2.618,4.6,4.6,0,0,0,2.274-1.929L-913.7,314.6a4.606,4.606,0,0,0,.026,3.3,4.628,4.628,0,0,0,6,2.618,4.678,4.678,0,0,0,.709-.355l65.579,84.988a4.629,4.629,0,0,0-1.085,5.012,4.618,4.618,0,0,0,2.9,2.717L-854.146,485.1a4.611,4.611,0,0,0-2.27.284,4.627,4.627,0,0,0-2.618,6,4.628,4.628,0,0,0,6,2.619l.051-.023,30.773,47.58,16.268,25.153a4.625,4.625,0,0,0-1.131,5.052,4.627,4.627,0,0,0,6,2.618A4.625,4.625,0,0,0-798.145,570l64.377-14.451c.021.062.038.124.062.186a4.627,4.627,0,0,0,6,2.618,4.628,4.628,0,0,0,2.619-6,4.616,4.616,0,0,0-.935-1.474l42.914-43.941a4.623,4.623,0,0,0,4.6.715A4.628,4.628,0,0,0-675.889,501.656ZM-800.1,566.291a4.621,4.621,0,0,0-4.352-.525,4.629,4.629,0,0,0-.813.416l-18.444-28.517-28.508-44.079a4.585,4.585,0,0,0,1-.871l77.314,39.518ZM-969.718,282.3l2.835-43.633,61.77.356a4.611,4.611,0,0,0,.3,1.29,4.608,4.608,0,0,0,.276.572L-966.894,283.9A4.636,4.636,0,0,0-969.718,282.3Zm-88.7-45.015a4.617,4.617,0,0,0-.3-1.289,4.636,4.636,0,0,0-.347-.694l93.17-68.534a4.637,4.637,0,0,0,2.73,1.494l-4.518,69.546Zm-35.119-432.976-19.914,50.881,10.108-46.821a4.61,4.61,0,0,0,2.245-.287,4.624,4.624,0,0,0,2.91-3.827Zm32.6-73.484a4.616,4.616,0,0,0,1.541-.994l85.462,72.831a4.645,4.645,0,0,0-.817,2.182l-117.536-1.373,28.38-72.511A4.6,4.6,0,0,0-1060.942-269.178Zm305.666,422.717a4.6,4.6,0,0,0,.261,1.575l-69.531,31.712a4.625,4.625,0,0,0-5.7-2.009h0l-20.818-41.306Zm25.971,395.878c-.1,0-.2,0-.3.006l-1.74-66.525a4.615,4.615,0,0,0,1.143-.282,4.6,4.6,0,0,0,2.267-1.917l12.129,5.875Zm-21.136-172.474-3.689-19.7c.142-.04.283-.087.422-.141a4.607,4.607,0,0,0,2.1-1.648l12.928,7.4,6.006,108.924Zm-4.529-19.54,12.9,68.881,8.911,47.575c-.141.041-.282.087-.422.141a4.6,4.6,0,0,0-1.925,1.425l-73.225-48.049,50.984-70.6A4.623,4.623,0,0,0-754.97,357.4Zm27.408,122.527a4.605,4.605,0,0,0-.021-3.311,4.607,4.607,0,0,0-2.141-2.4l34.17-81.92-20.066,93.411Zm29.092-90.384a4.605,4.605,0,0,0,2.141,2.4l-34.184,81.952a4.627,4.627,0,0,0-1.206-.208L-737.8,363.364l39.431,22.574A4.612,4.612,0,0,0-698.469,389.546Zm.523-4.349-39.91-22.849-1.178-21.367a4.645,4.645,0,0,0,1.009-.266,4.626,4.626,0,0,0,1.042-.578l39.451,44.556A4.6,4.6,0,0,0-697.947,385.2Zm-44.642-45.168a4.642,4.642,0,0,0,2.7,1l1.147,20.812-12.449-7.127a4.611,4.611,0,0,0,.1-3.607,4.612,4.612,0,0,0-.817-1.342Zm-17.194,11.3-57.128-13.475,7.834-26.48a4.6,4.6,0,0,0,2.586-.229,4.606,4.606,0,0,0,1.5-.961l45.836,39.916A4.657,4.657,0,0,0-759.783,351.324Zm-145-35.675a4.633,4.633,0,0,0-.281-1.127,4.6,4.6,0,0,0-1.283-1.81l33.606-53.047,60.6,44.775a4.636,4.636,0,0,0-.669,2.407ZM-1104.437,20.665l8.257-48.546a4.6,4.6,0,0,0,2.157-.293,4.644,4.644,0,0,0,.957-.517l12.941,12.256-23.505,37.359A4.667,4.667,0,0,0-1104.437,20.665Zm-181.4-90.828a4.627,4.627,0,0,0,2.306-3.435l30.751,1.043-6.421,57.525a4.6,4.6,0,0,0-1.577.314Zm27.489,55.191,6.424-57.555,95.671,3.245a4.623,4.623,0,0,0,.31,1.419c.021.053.047.1.069.152l-99.431,54.646A4.628,4.628,0,0,0-1258.349-14.972Zm425.485,205.787a4.7,4.7,0,0,0,.273.567l-64.361,44.276A4.637,4.637,0,0,0-900.339,234l-3.273-57.7,70.449,12.447A4.6,4.6,0,0,0-832.865,190.815Zm-68.327,43.232a4.635,4.635,0,0,0-1,.265,4.634,4.634,0,0,0-.942.507l-56.559-67.4a4.6,4.6,0,0,0,.894-.868l54.324,9.6Zm-57.116-68.281a4.633,4.633,0,0,0,.477-1.714l43.539-22.133,4.216-2.143a4.629,4.629,0,0,0,3.659,2.157l1.891,33.335Zm47.841-26.76,0,.009-4.2,2.134L-957.855,163.1a4.623,4.623,0,0,0-.278-1.1,4.606,4.606,0,0,0-1-1.549l15.746-36.87,32.76,12.548A4.6,4.6,0,0,0-910.468,139.006Zm77.453,48.9-70.648-12.483-1.9-33.52a4.64,4.64,0,0,0,1.095-.277,4.6,4.6,0,0,0,1.857-1.335l69.987,46.637A4.655,4.655,0,0,0-833.015,187.9ZM-906.342,39.317l-.319,93.4a4.61,4.61,0,0,0-1.188.288,4.6,4.6,0,0,0-2.485,2.322L-943.052,122.8l35.737-83.68A4.606,4.606,0,0,0-906.342,39.317Zm-37.509,83.176-38.068-14.58a4.6,4.6,0,0,0-.211-2.682,4.637,4.637,0,0,0-.518-.958l44.7-40.174,28.914-25.989a4.64,4.64,0,0,0,.936.673Zm-27.606-312.735-8.622,41.6-5.329,25.709a4.6,4.6,0,0,0-2.207.29,4.617,4.617,0,0,0-2.782,3.135l-22.594-3.741,40.879-67.235A4.688,4.688,0,0,0-971.458-190.242ZM-1050.321,5.9-1044.4-67.7a4.606,4.606,0,0,0,1.633-.315,4.6,4.6,0,0,0,2.17-1.762l24.013,11.064-32.831,64.862A4.606,4.606,0,0,0-1050.321,5.9Zm10.125-76.426a4.612,4.612,0,0,0,.044-3.481,4.621,4.621,0,0,0-.422-.822l51.29-40.326a4.616,4.616,0,0,0,.9.731L-1016.2-59.472Zm49.659-48.142a4.606,4.606,0,0,0,.3,2.02,4.661,4.661,0,0,0,.42.821l-18.326,14.4-32.983,25.91a4.565,4.565,0,0,0-.581-.507l28.233-46.437Zm-51.9,42.2a4.609,4.609,0,0,0-3.716-.153,4.6,4.6,0,0,0-1.343.819l-63.873-61.029a4.642,4.642,0,0,0,.848-1.7l96.14,15.918ZM-1113.3-135.4a4.606,4.606,0,0,0,1.344-.818l63.873,61.029a4.64,4.64,0,0,0-.989,2.564l-53.176,1.372-11.5-64A4.65,4.65,0,0,0-1113.3-135.4Zm64.25,63.628a4.619,4.619,0,0,0,.282,1.144c.044.114.1.222.149.329L-1092.2-35.492a4.633,4.633,0,0,0-3.905-1.6L-1102.1-70.4Zm-42.354,37.6a4.71,4.71,0,0,0-.3-.62l43.536-34.772a4.591,4.591,0,0,0,.9.913l-32.388,51.478-12.747-12.073A4.625,4.625,0,0,0-1091.4-34.172Zm44.855-34.024a4.657,4.657,0,0,0,1.056.387l-5.693,73.638a4.612,4.612,0,0,0-1.619.315,4.618,4.618,0,0,0-1.359.833l-24.865-23.55Zm58.421,170.808c-.064.025-.124.056-.187.085l-35.437-52.483-24.431-36.182a4.633,4.633,0,0,0,1.538-2.4l81.315,13.586-20.053,77.2A4.6,4.6,0,0,0-988.128,102.612Zm-58.855-94.24a4.6,4.6,0,0,0-1.672-1.834l32.845-64.89L-955.2-30.424a4.6,4.6,0,0,0-.084,2.823ZM-954.839-31.2l-60.585-27.915,27.8-54.926a4.6,4.6,0,0,0,2.982.144l31.726,80.879A4.605,4.605,0,0,0-954.839-31.2Zm-26.778-88.83a4.617,4.617,0,0,0-2.955-2.733l3.885-18.746,10.068-48.569a4.715,4.715,0,0,0,.572.02l8.924,76.579-22.337-.95A4.627,4.627,0,0,0-981.618-120.03Zm7.348-72.53a4.592,4.592,0,0,0,1.419,1.64L-1013.9-123.4l-96.478-15.974a4.6,4.6,0,0,0-.151-1.564Zm-140.325,57.46,11.482,63.867-43.933,1.134a4.6,4.6,0,0,0-.283-1.144,4.6,4.6,0,0,0-1.8-2.193l32.384-61.995A4.62,4.62,0,0,0-1114.595-135.1Zm-32.428,65.855,44.063-1.137,6.012,33.44a4.649,4.649,0,0,0-.454.152,4.6,4.6,0,0,0-1.912,1.408l-48.247-31.982A4.644,4.644,0,0,0-1147.023-69.245Zm44.146,90.575,23.383-37.166L-1054.751,7.6a4.628,4.628,0,0,0-.928,3.618l-45.563,12.02A4.6,4.6,0,0,0-1102.876,21.33Zm1.924,2.711,45.5-12c.012.034.021.068.034.1a4.628,4.628,0,0,0,6,2.618,4.606,4.606,0,0,0,.532-.253l54.644,80.93,5.185,7.678a4.554,4.554,0,0,0-.713.607l-111.517-76.482A4.609,4.609,0,0,0-1100.953,24.041Zm118.773,84.686,37.993,14.552-15.631,36.6a4.621,4.621,0,0,0-4.1-.567l-20.028-48.5A4.612,4.612,0,0,0-982.18,108.727Zm85.983,128.2a4.584,4.584,0,0,0-.273-.567l64.361-44.276a4.605,4.605,0,0,0,.728.7l-41.589,65.648-23.579-17.421A4.615,4.615,0,0,0-896.2,236.93Zm86.327,65.594a4.6,4.6,0,0,0-1.759,1.228l-60.652-44.811,41.622-65.7a4.626,4.626,0,0,0,2.468.5l18.8,108.628A4.744,4.744,0,0,0-809.87,302.524ZM-831.011,185.2a4.6,4.6,0,0,0-1.141,1.011l-69.975-46.63a4.648,4.648,0,0,0,.5-1.365l49.548,5.187Zm-70.523-47.833a4.612,4.612,0,0,0-.318-1.745,4.623,4.623,0,0,0-3.956-2.92l.32-93.385a4.615,4.615,0,0,0,.869-.162l52.084,103.34ZM-910.207,36.4a4.625,4.625,0,0,0,.6,1.07L-983.2,103.619a4.639,4.639,0,0,0-1.372-.932l20.087-77.328,53.975,9.018A4.6,4.6,0,0,0-910.207,36.4Zm-54.908-12.017-81.389-13.6a4.6,4.6,0,0,0-.167-1.622l91.7-35.973a4.612,4.612,0,0,0,2.561,2.269Zm13-57.716L-983.6-113.577l22.576.96,9.231,79.21C-951.9-33.384-952.011-33.36-952.12-33.329ZM-969.2-190.156a4.613,4.613,0,0,0,.733-.214,4.667,4.667,0,0,0,.687-.343l58.228,79.428-50.709-2.155Zm-5.569-4.149a4.6,4.6,0,0,0,.129.76l-.153.27-136.044,51.536a4.6,4.6,0,0,0-2.079-2.1l20.29-51.843Zm-187.875-6.88,55.23,4.969a4.613,4.613,0,0,0,.316,1.677,4.621,4.621,0,0,0,.529.973l-30.9,26.359-26.437-31.56A4.639,4.639,0,0,0-1162.643-201.185Zm56.628,8.27a4.643,4.643,0,0,0,1.837,1.1l-10.257,47.512a4.607,4.607,0,0,0-2.245.287,4.63,4.63,0,0,0-.939.5l-19.3-23.039Zm-12.26,49.949a4.636,4.636,0,0,0-1.337,3.393l-53.908,6.61a4.652,4.652,0,0,0-.254-.909,4.656,4.656,0,0,0-.446-.859L-1137.569-166Zm-55.18,10.856,46.64-5.718-48.789,9.553A4.632,4.632,0,0,0-1173.455-132.11Zm54.028-6.295c.038.129.079.258.129.385a4.6,4.6,0,0,0,1.8,2.193l-32.384,62a4.606,4.606,0,0,0-3.443-.029,4.606,4.606,0,0,0-2.317,2l-87.7-40.29a4.607,4.607,0,0,0,.166-2.019ZM-1156-71.087a4.63,4.63,0,0,0-.229.95l-95.6-3.242,3.966-35.53a4.6,4.6,0,0,0,1.8-.319,4.6,4.6,0,0,0,2.393-2.138Zm-92.714-37.923-3.974,35.6-30.818-1.045a4.615,4.615,0,0,0-.31-1.419,4.624,4.624,0,0,0-.717-1.229l33.689-32.991A4.641,4.641,0,0,0-1248.713-109.009Zm-43.719,36.517a4.624,4.624,0,0,0,5.814,2.68l24.957,55.22-78.405-114.186,48.476,51.535A4.624,4.624,0,0,0-1292.432-72.492Zm-49.449-56.328a4.728,4.728,0,0,0,.564-.272l79.133,115.246a4.628,4.628,0,0,0-1.181,1.671L-1321.3-31.21l-20.885-97.507C-1342.086-128.749-1341.983-128.78-1341.881-128.82Zm87.1,116.721c-.03-.077-.067-.149-.1-.223l99.417-54.639a4.63,4.63,0,0,0,3.4,2.012V-25.3l-102.525,13.849A4.63,4.63,0,0,0-1254.783-12.1Zm103.574-52.849a4.6,4.6,0,0,0,1.263-.3,4.6,4.6,0,0,0,1.912-1.408l48.247,31.982a4.628,4.628,0,0,0-.545,2.381l-50.877,6.872Zm50.993,33.505a4.679,4.679,0,0,0,.2.65,4.6,4.6,0,0,0,1.821,2.207l-51.709,100.407a4.64,4.64,0,0,0-1.3-.316v-96.06Zm-48.932,103.655,51.708-100.407q.208.084.422.147l-8.267,48.606a4.6,4.6,0,0,0-1.838.317,4.628,4.628,0,0,0-2.619,6,4.6,4.6,0,0,0,.9,1.433l-40.016,44.107C-1148.954,72.343-1149.05,72.276-1149.149,72.213Zm47.406-44.246,111.433,76.425a4.619,4.619,0,0,0-.437,4.218,4.6,4.6,0,0,0,1.122,1.66l-44.243,56.084a4.616,4.616,0,0,0-4.118-.458l-65.368-136.579A4.594,4.594,0,0,0-1101.742,27.967Zm69.667,140.576a4.6,4.6,0,0,0-1.121-1.66l43.267-54.847-33.146,56.591-8.757.774A4.635,4.635,0,0,0-1032.076,168.543Zm43.68-57.434a4.61,4.61,0,0,0,3.648.12l.041-.018,20.009,48.449a4.625,4.625,0,0,0-2.367,4.014l-54.966,4.861Zm21.4,53.416a4.634,4.634,0,0,0,.243.859,4.655,4.655,0,0,0,.346.694l-93.169,68.535a4.576,4.576,0,0,0-.76-.686l37.771-64.486Zm4.679,3.79a4.6,4.6,0,0,0,1.562-.314c.108-.042.21-.092.313-.141l56.645,67.507a4.639,4.639,0,0,0-1.314,2.8l-61.72-.356Zm61.718,74.932a4.616,4.616,0,0,0,1.78-.319,4.606,4.606,0,0,0,1.759-1.229l23.627,17.456-33.615,53.06a4.632,4.632,0,0,0-1.244-.5Zm-4.161,73.258,92.032-8.809a4.607,4.607,0,0,0,.236.826,4.61,4.61,0,0,0,2.592,2.6l-7.848,26.527-87.09-20.543A4.691,4.691,0,0,0-904.756,316.5Zm87.6,22.165,57.175,13.487a4.605,4.605,0,0,0,.273,2.331,4.679,4.679,0,0,0,.249.524l-60.023,40.357L-834.6,405.533a4.622,4.622,0,0,0-1.929-1.379Zm-16.708,68.115a4.629,4.629,0,0,0-.259-.543l75.138-50.519a4.631,4.631,0,0,0,.542.559l-51.005,70.626-24.676-16.192A4.618,4.618,0,0,0-833.862,406.784Zm24.631,21.286,73.257,48.07a4.629,4.629,0,0,0-.54,2.2l-113.591,11.19a4.611,4.611,0,0,0-.312-1.52,4.612,4.612,0,0,0-.988-1.535Zm-41.492,63.94a4.644,4.644,0,0,0,.569-1.622l113.723-11.2a4.657,4.657,0,0,0,.233.813,4.6,4.6,0,0,0,1.163,1.7l-38.341,49.847Zm116.364-9.793a4.634,4.634,0,0,0,2.161.7l1.742,66.623a4.654,4.654,0,0,0-.632.191,4.6,4.6,0,0,0-2.418,2.188l-39.1-19.985Zm5.906,67.3,13.439-62.558,30.488,14.767a4.606,4.606,0,0,0,.021,3.312,4.616,4.616,0,0,0,.785,1.306l-42.944,43.972A4.644,4.644,0,0,0-728.452,549.515Zm47.278-50.687a4.613,4.613,0,0,0-.713.21,4.6,4.6,0,0,0-2.267,1.917L-714.829,486.1l20.117-93.647a4.617,4.617,0,0,0,.679.026Zm-62.94-163.857a4.606,4.606,0,0,0,.091,3.126,4.61,4.61,0,0,0,.816,1.341l-9.317,9.738a4.622,4.622,0,0,0-4.564-.686,4.605,4.605,0,0,0-1.5.961l-45.837-39.915a4.62,4.62,0,0,0,.307-.484Zm-62.848-32.6a4.606,4.606,0,0,0-1.583-.153l-18.8-108.629a4.778,4.778,0,0,0,.483-.158,4.624,4.624,0,0,0,2.674-5.829l69.532-31.711a4.606,4.606,0,0,0,1.993,1.86Zm52.368-151.19a4.639,4.639,0,0,0-.59,1.506L-851.524,142.6-903.012,40.448ZM-908.905,31.2a4.634,4.634,0,0,0-1.464,2.334l-53.9-9.005,12.689-48.851a4.6,4.6,0,0,0,2.434-.255,4.568,4.568,0,0,0,.617-.3Zm-40.2-64.374a4.62,4.62,0,0,0-1.835-.333l-9.215-79.074,50.794,2.159Zm10.989-223.081a4.617,4.617,0,0,0,2.313.389l26.37,143.289-57.652-78.642a4.625,4.625,0,0,0,1.242-5.15,4.628,4.628,0,0,0-4.55-2.929Zm-127.837-9.909-27.248,69.62-4.972-.058a4.622,4.622,0,0,0-.3-1.317,4.6,4.6,0,0,0-1.806-2.2Zm-101.52,68.754a4.6,4.6,0,0,0,1.977-.306,4.623,4.623,0,0,0,.939-.5l26.443,31.567-36.637,31.254a4.639,4.639,0,0,0-2.2-1.267Zm-14.879,66.993a4.619,4.619,0,0,0,3.462,2.785l-55.65,10.9Zm-164.82.192a4.633,4.633,0,0,0,4.151,1.687l20.78,97.019-112.628-37a4.609,4.609,0,0,0-.2-2.722,4.644,4.644,0,0,0-.235-.5Zm-88.286,63.117a4.642,4.642,0,0,0,.321-.6l113.1,37.158,11.919,55.65c-.081.026-.163.05-.243.081a4.606,4.606,0,0,0-1.888,1.376ZM-1305.2,26.435a4.63,4.63,0,0,0-4.086-1.53L-1321.1-30.242l57.479,18.884a4.606,4.606,0,0,0,.219,2.64,4.658,4.658,0,0,0,.406.8Zm49.886-34.174a4.634,4.634,0,0,0,.842-2.868l102.408-13.832V71.5a4.607,4.607,0,0,0-1.263.3,4.6,4.6,0,0,0-1.632,1.091Zm220.62,182.28a4.625,4.625,0,0,0,2.935-4.288l8.154-.721-36.985,63.145,22.912-58.005A4.6,4.6,0,0,0-1034.694,174.541Zm-24.066,64.925a4.629,4.629,0,0,0,.335-1.329l90.685.523-2.831,43.583a4.6,4.6,0,0,0-1.562.314,4.6,4.6,0,0,0-2.176,1.771Zm92.651,49.006a4.6,4.6,0,0,0-.026-3.3,4.623,4.623,0,0,0-.276-.572l62.358-43.015a4.636,4.636,0,0,0,2.609,1.562l-7.689,68.444a4.6,4.6,0,0,0-1.927.31,4.6,4.6,0,0,0-2.274,1.929Zm59.824,31.183a4.626,4.626,0,0,0,1.207-1.725l87.092,20.543-19.362,65.451a4.6,4.6,0,0,0-2.511.241,4.642,4.642,0,0,0-.866.451Zm67.539,93.411a4.61,4.61,0,0,0,2.267-.284,4.606,4.606,0,0,0,1.876-1.361l24.657,16.18-42.113,58.313a4.66,4.66,0,0,0-1.253-.625Zm40.508,156.078a4.6,4.6,0,0,0-.221-.76,4.607,4.607,0,0,0-.993-1.54l26.319-34.217,39.306,20.091a4.6,4.6,0,0,0-.145,2Z" transform="translate(1444.012 278.115)" fill="#84ceda"/>
    </g>
  </g>
</svg>
