<svg width="320" height="301" viewBox="0 0 320 301" fill="none" xmlns="http://www.w3.org/2000/svg">
<mask id="mask0_991_28922" style="mask-type:alpha" maskUnits="userSpaceOnUse" x="0" y="0" width="320" height="301">
<path d="M0 0H320V301H0V0Z" fill="#C4C4C4"/>
</mask>
<g mask="url(#mask0_991_28922)">
<g filter="url(#filter0_d_991_28922)">
<path d="M-2.80032 116.978L-2.48157 251.131L-2.37345 263L331.086 262.829L329.874 61.9637L324.686 62.0454C302.338 61.0975 287.764 88.9006 245.226 82.7929C202.688 76.6853 168.979 87.2641 147.268 99.9324C81.6688 138.211 10.0665 116.095 -2.80032 116.978Z" fill="url(#paint0_linear_991_28922)" fill-opacity="0.8" shape-rendering="crispEdges"/>
</g>
<g filter="url(#filter1_d_991_28922)">
<path d="M325.374 111.935V258.75V268H-3.12598V44.8101H3.87402C33.999 43.0601 54.249 80.1851 111.499 71.0601C168.749 61.9351 214.749 74.9351 243.999 92.0601C267.399 105.76 307.999 111.018 325.374 111.935Z" fill="#1E2537" fill-opacity="0.3" shape-rendering="crispEdges"/>
</g>
<path d="M324.124 114.185V301.25V310.5H-4.37598V47.0601H2.62402C32.749 45.3101 52.999 82.4351 110.249 73.3101C167.499 64.1851 213.499 77.1851 242.749 94.3101C266.149 108.01 306.749 113.268 324.124 114.185Z" fill="#1E2943"/>
</g>
<defs>
<filter id="filter0_d_991_28922" x="-56.8003" y="11.9637" width="441.886" height="309.036" filterUnits="userSpaceOnUse" color-interpolation-filters="sRGB">
<feFlood flood-opacity="0" result="BackgroundImageFix"/>
<feColorMatrix in="SourceAlpha" type="matrix" values="0 0 0 0 0 0 0 0 0 0 0 0 0 0 0 0 0 0 127 0" result="hardAlpha"/>
<feOffset dy="4"/>
<feGaussianBlur stdDeviation="27"/>
<feComposite in2="hardAlpha" operator="out"/>
<feColorMatrix type="matrix" values="0 0 0 0 0 0 0 0 0 0 0 0 0 0 0 0 0 0 0.55 0"/>
<feBlend mode="normal" in2="BackgroundImageFix" result="effect1_dropShadow_991_28922"/>
<feBlend mode="normal" in="SourceGraphic" in2="effect1_dropShadow_991_28922" result="shape"/>
</filter>
<filter id="filter1_d_991_28922" x="-77.126" y="-25.25" width="476.5" height="371.25" filterUnits="userSpaceOnUse" color-interpolation-filters="sRGB">
<feFlood flood-opacity="0" result="BackgroundImageFix"/>
<feColorMatrix in="SourceAlpha" type="matrix" values="0 0 0 0 0 0 0 0 0 0 0 0 0 0 0 0 0 0 127 0" result="hardAlpha"/>
<feOffset dy="4"/>
<feGaussianBlur stdDeviation="37"/>
<feComposite in2="hardAlpha" operator="out"/>
<feColorMatrix type="matrix" values="0 0 0 0 0 0 0 0 0 0 0 0 0 0 0 0 0 0 0.45 0"/>
<feBlend mode="normal" in2="BackgroundImageFix" result="effect1_dropShadow_991_28922"/>
<feBlend mode="normal" in="SourceGraphic" in2="effect1_dropShadow_991_28922" result="shape"/>
</filter>
<linearGradient id="paint0_linear_991_28922" x1="208.139" y1="63.8357" x2="209.351" y2="140.826" gradientUnits="userSpaceOnUse">
<stop stop-color="#202A43"/>
<stop offset="1" stop-color="#202A43" stop-opacity="0"/>
</linearGradient>
</defs>
</svg>
