<svg width="320" height="340" viewBox="0 0 320 340" fill="none" xmlns="http://www.w3.org/2000/svg">
<g filter="url(#filter0_d_1422_37318)">
<path d="M35.3697 146.162L35.6758 281.772L35.7797 293.769L356.06 293.596L354.897 90.5507L349.914 90.6333C328.449 89.6751 314.451 117.78 273.594 111.606C232.737 105.432 200.36 116.126 179.508 128.932C116.5 167.625 47.728 145.269 35.3697 146.162Z" fill="url(#paint0_linear_1422_37318)" fill-opacity="0.8" shape-rendering="crispEdges"/>
</g>
<g filter="url(#filter1_d_1422_37318)">
<path d="M356.441 162.685V200.044V212.726H-36.5048V70.6559H-28.1315C7.90344 68.2566 32.1261 119.155 100.608 106.645C169.089 94.1344 224.113 111.957 259.102 135.436C287.092 154.219 335.657 161.428 356.441 162.685Z" fill="#1E2537" fill-opacity="0.3" shape-rendering="crispEdges"/>
</g>
<path d="M354.946 165.769V203.129V215.811H-38V73.7406H-29.6267C6.40826 71.3413 30.631 122.24 99.1124 109.73C167.594 97.2191 222.618 115.042 257.607 138.521C285.597 157.303 334.162 164.513 354.946 165.769Z" fill="#1E2943"/>
<path d="M354.946 165.769V329.423V342.105H-38V73.7406H-29.6267C6.40826 71.3413 30.631 122.24 99.1124 109.73C167.594 97.2191 222.618 115.042 257.607 138.521C285.597 157.303 334.162 164.513 354.946 165.769Z" fill="#1E2943"/>
<defs>
<filter id="filter0_d_1422_37318" x="-18.6303" y="40.5508" width="428.691" height="311.218" filterUnits="userSpaceOnUse" color-interpolation-filters="sRGB">
<feFlood flood-opacity="0" result="BackgroundImageFix"/>
<feColorMatrix in="SourceAlpha" type="matrix" values="0 0 0 0 0 0 0 0 0 0 0 0 0 0 0 0 0 0 127 0" result="hardAlpha"/>
<feOffset dy="4"/>
<feGaussianBlur stdDeviation="27"/>
<feComposite in2="hardAlpha" operator="out"/>
<feColorMatrix type="matrix" values="0 0 0 0 0 0 0 0 0 0 0 0 0 0 0 0 0 0 0.55 0"/>
<feBlend mode="normal" in2="BackgroundImageFix" result="effect1_dropShadow_1422_37318"/>
<feBlend mode="normal" in="SourceGraphic" in2="effect1_dropShadow_1422_37318" result="shape"/>
</filter>
<filter id="filter1_d_1422_37318" x="-110.505" y="0.573486" width="540.946" height="290.153" filterUnits="userSpaceOnUse" color-interpolation-filters="sRGB">
<feFlood flood-opacity="0" result="BackgroundImageFix"/>
<feColorMatrix in="SourceAlpha" type="matrix" values="0 0 0 0 0 0 0 0 0 0 0 0 0 0 0 0 0 0 127 0" result="hardAlpha"/>
<feOffset dy="4"/>
<feGaussianBlur stdDeviation="37"/>
<feComposite in2="hardAlpha" operator="out"/>
<feColorMatrix type="matrix" values="0 0 0 0 0 0 0 0 0 0 0 0 0 0 0 0 0 0 0.45 0"/>
<feBlend mode="normal" in2="BackgroundImageFix" result="effect1_dropShadow_1422_37318"/>
<feBlend mode="normal" in="SourceGraphic" in2="effect1_dropShadow_1422_37318" result="shape"/>
</filter>
<linearGradient id="paint0_linear_1422_37318" x1="237.972" y1="92.4431" x2="239.262" y2="170.267" gradientUnits="userSpaceOnUse">
<stop stop-color="#202A43"/>
<stop offset="1" stop-color="#202A43" stop-opacity="0"/>
</linearGradient>
</defs>
</svg>
