<svg width="1280" height="367" viewBox="0 0 1280 367" fill="none" xmlns="http://www.w3.org/2000/svg">
<mask id="mask0_991_28923" style="mask-type:alpha" maskUnits="userSpaceOnUse" x="0" y="0" width="1280" height="367">
<path d="M0 0H1280V367H0V0Z" fill="#C4C4C4"/>
</mask>
<g mask="url(#mask0_991_28923)">
<path opacity="0.8" d="M-11.2013 368.912L-9.92698 449.849L-9.49451 497.324L1324.34 496.638L1319.5 148.855L1298.74 149.181C1209.35 145.39 1151.06 256.602 980.904 232.172C810.753 207.741 675.915 250.056 589.074 300.73C326.675 453.843 40.2662 365.379 -11.2013 368.912Z" fill="#202A43"/>
<g filter="url(#filter0_d_991_28923)">
<path d="M-11.2013 368.912L-9.92698 449.849L-9.49451 497.324L1324.34 496.638L1319.5 148.855L1298.74 149.181C1209.35 145.39 1151.06 256.602 980.904 232.172C810.753 207.741 675.915 250.056 589.074 300.73C326.675 453.843 40.2662 365.379 -11.2013 368.912Z" fill="url(#paint0_linear_991_28923)" fill-opacity="0.8" shape-rendering="crispEdges"/>
</g>
<g filter="url(#filter1_d_991_28923)">
<path d="M1301.5 348.741V457.741V494.741H-12.5039V80.2404H15.4961C135.996 73.2404 216.996 221.741 445.996 185.241C674.996 148.741 858.996 200.741 975.996 269.241C1069.6 324.041 1232 345.074 1301.5 348.741Z" fill="#1E2537" fill-opacity="0.3" shape-rendering="crispEdges"/>
</g>
<path d="M1296.5 357.741V466.741V503.741H-17.5039V89.2404H10.4961C130.996 82.2404 211.996 230.741 440.996 194.241C669.996 157.741 853.996 209.741 970.996 278.241C1064.6 333.041 1227 354.074 1296.5 357.741Z" fill="#1E2943"/>
</g>
<defs>
<filter id="filter0_d_991_28923" x="-65.2012" y="98.8547" width="1443.54" height="456.469" filterUnits="userSpaceOnUse" color-interpolation-filters="sRGB">
<feFlood flood-opacity="0" result="BackgroundImageFix"/>
<feColorMatrix in="SourceAlpha" type="matrix" values="0 0 0 0 0 0 0 0 0 0 0 0 0 0 0 0 0 0 127 0" result="hardAlpha"/>
<feOffset dy="4"/>
<feGaussianBlur stdDeviation="27"/>
<feComposite in2="hardAlpha" operator="out"/>
<feColorMatrix type="matrix" values="0 0 0 0 0 0 0 0 0 0 0 0 0 0 0 0 0 0 0.55 0"/>
<feBlend mode="normal" in2="BackgroundImageFix" result="effect1_dropShadow_991_28923"/>
<feBlend mode="normal" in="SourceGraphic" in2="effect1_dropShadow_991_28923" result="shape"/>
</filter>
<filter id="filter1_d_991_28923" x="-86.5039" y="10" width="1462" height="562.741" filterUnits="userSpaceOnUse" color-interpolation-filters="sRGB">
<feFlood flood-opacity="0" result="BackgroundImageFix"/>
<feColorMatrix in="SourceAlpha" type="matrix" values="0 0 0 0 0 0 0 0 0 0 0 0 0 0 0 0 0 0 127 0" result="hardAlpha"/>
<feOffset dy="4"/>
<feGaussianBlur stdDeviation="37"/>
<feComposite in2="hardAlpha" operator="out"/>
<feColorMatrix type="matrix" values="0 0 0 0 0 0 0 0 0 0 0 0 0 0 0 0 0 0 0.45 0"/>
<feBlend mode="normal" in2="BackgroundImageFix" result="effect1_dropShadow_991_28923"/>
<feBlend mode="normal" in="SourceGraphic" in2="effect1_dropShadow_991_28923" result="shape"/>
</filter>
<linearGradient id="paint0_linear_991_28923" x1="832.555" y1="156.343" x2="837.403" y2="464.305" gradientUnits="userSpaceOnUse">
<stop stop-color="#202A43"/>
<stop offset="1" stop-color="#202A43" stop-opacity="0"/>
</linearGradient>
</defs>
</svg>
