<svg width="2600" height="367" viewBox="0 0 2600 367" fill="none" xmlns="http://www.w3.org/2000/svg">
<mask id="mask0_1343_64210" style="mask-type:alpha" maskUnits="userSpaceOnUse" x="0" y="0" width="2600" height="367">
<path d="M0 0H2600V367H0V0Z" fill="#C4C4C4"/>
</mask>
<g mask="url(#mask0_1343_64210)">
<path opacity="0.8" d="M1264.8 368.913L1266.08 449.85L1266.51 497.324L2600.35 496.639L2595.5 148.855L2574.75 149.182C2485.36 145.391 2427.06 256.603 2256.91 232.173C2086.76 207.742 1951.92 250.057 1865.08 300.73C1602.68 453.844 1316.27 365.379 1264.8 368.913Z" fill="#202A43"/>
<path d="M1264.8 368.913L1266.08 449.85L1266.51 497.324L2600.35 496.639L2595.5 148.855L2574.75 149.182C2485.36 145.391 2427.06 256.603 2256.91 232.173C2086.76 207.742 1951.92 250.057 1865.08 300.73C1602.68 453.844 1316.27 365.379 1264.8 368.913Z" fill="url(#paint0_linear_1343_64210)" fill-opacity="0.8"/>
<path opacity="0.8" d="M1305.17 368.912L1303.9 449.849L1303.47 497.324L-30.3708 496.638L-25.525 148.855L-4.77262 149.181C84.6185 145.39 142.916 256.602 313.068 232.172C483.219 207.741 618.057 250.056 704.898 300.73C967.297 453.843 1253.71 365.379 1305.17 368.912Z" fill="#202A43"/>
<path d="M1305.17 368.912L1303.9 449.849L1303.47 497.324L-30.3708 496.638L-25.525 148.855L-4.77262 149.181C84.6185 145.39 142.916 256.602 313.068 232.172C483.219 207.741 618.057 250.056 704.898 300.73C967.297 453.843 1253.71 365.379 1305.17 368.912Z" fill="url(#paint1_linear_1343_64210)" fill-opacity="0.8"/>
<path fill-rule="evenodd" clip-rule="evenodd" d="M-20.3052 174.991L3.08732 68.5305C71.7549 79.8647 234.885 94.1742 338.065 60.7386C467.039 18.9441 657.912 7.64409 873.743 92.4394C1002.99 143.218 1094.64 117.811 1172.32 96.2751C1221.4 82.6693 1264.9 70.6089 1308.79 80.2818C1350.08 82.856 1387.6 102.708 1429.55 124.909C1500.8 162.614 1584.86 207.098 1721.99 185.241C1950.99 148.741 2134.99 200.741 2251.99 269.241C2345.59 324.041 2507.99 345.074 2577.49 348.741V457.741V494.741H1263.49V455.095L1255.14 493.128L-28.246 211.129L-20.3052 174.991Z" fill="#1E2537" fill-opacity="0.3"/>
<path d="M2572.5 357.741V466.741V503.742H1258.5V89.2409H1286.5C1407 82.2409 1488 230.741 1717 194.241C1946 157.741 2130 209.741 2247 278.241C2340.6 333.041 2503 354.074 2572.5 357.741Z" fill="#1E2943"/>
<path d="M0.179816 77.0923L-23.2127 183.553L-31.1535 387.501L1252.23 501.69L1341.19 96.8466L1313.84 90.8375C1197.65 58.14 1086.67 185.797 870.835 101.001C655.004 16.2059 464.132 27.506 335.157 69.3005C231.977 102.736 68.8473 88.4266 0.179816 77.0923Z" fill="#1E2943"/>
</g>
<defs>
<linearGradient id="paint0_linear_1343_64210" x1="2108.56" y1="156.344" x2="2113.41" y2="464.305" gradientUnits="userSpaceOnUse">
<stop stop-color="#202A43"/>
<stop offset="1" stop-color="#202A43" stop-opacity="0"/>
</linearGradient>
<linearGradient id="paint1_linear_1343_64210" x1="461.417" y1="156.343" x2="456.568" y2="464.305" gradientUnits="userSpaceOnUse">
<stop stop-color="#202A43"/>
<stop offset="1" stop-color="#202A43" stop-opacity="0"/>
</linearGradient>
</defs>
</svg>
