<svg width="20" height="20" viewBox="0 0 20 20" fill="none" xmlns="http://www.w3.org/2000/svg">
<path d="M9.991 3.19222C10.091 3.19222 10.1902 3.19222 10.2886 3.19222C9.31567 4.0963 8.69027 5.31275 8.52115 6.63011C8.35203 7.94746 8.64988 9.28244 9.36293 10.403C10.076 11.5235 11.1591 12.3587 12.4241 12.7635C13.6891 13.1683 15.056 13.117 16.287 12.6185C15.8135 13.758 15.0395 14.7475 14.0476 15.4816C13.0558 16.2156 11.8833 16.6667 10.6551 16.7866C9.42703 16.9066 8.1894 16.6909 7.07426 16.1626C5.95912 15.6342 5.00831 14.8131 4.32325 13.7868C3.63819 12.7605 3.24457 11.5675 3.18438 10.335C3.1242 9.10251 3.3997 7.8768 3.98151 6.78862C4.56332 5.70044 5.4296 4.7906 6.48796 4.15615C7.54631 3.52171 8.75704 3.18645 9.991 3.18616V3.19222Z" stroke="white" stroke-width="1.6" stroke-linecap="round" stroke-linejoin="round"/>
<path d="M13.7643 3.47534C13.7643 3.87708 13.9238 4.26236 14.2079 4.54643C14.492 4.8305 14.8773 4.99009 15.279 4.99009C14.8773 4.99009 14.492 5.14968 14.2079 5.43375C13.9238 5.71782 13.7643 6.1031 13.7643 6.50484C13.7643 6.1031 13.6047 5.71782 13.3206 5.43375C13.0365 5.14968 12.6512 4.99009 12.2495 4.99009C12.6512 4.99009 13.0365 4.8305 13.3206 4.54643C13.6047 4.26236 13.7643 3.87708 13.7643 3.47534Z" fill="white" stroke="white" stroke-width="1.3" stroke-linecap="round" stroke-linejoin="round"/>
<path d="M16.6666 8.48523V9.99998M15.9092 9.2426H17.4239H15.9092Z" stroke="white" stroke-width="1.3" stroke-linecap="round" stroke-linejoin="round"/>
</svg>
